<svg width="54" height="54" viewBox="0 0 54 54" fill="none" xmlns="http://www.w3.org/2000/svg">
<rect x="0.613636" y="0.613636" width="52.7727" height="52.7727" rx="26.3864" fill="white"/>
<rect x="0.613636" y="0.613636" width="52.7727" height="52.7727" rx="26.3864" stroke="#BFBFBF" stroke-width="1.22727"/>
<path d="M31.4345 20.0467C31.6542 20.0467 32.0287 20.0817 32.5581 20.1516C33.0874 20.2215 33.6667 20.4213 34.2959 20.7508C34.9351 21.0704 35.5144 21.6048 36.0338 22.3538C36.0038 22.3838 35.859 22.4937 35.5993 22.6834C35.3396 22.8632 35.05 23.1329 34.7304 23.4924C34.4108 23.842 34.1311 24.2914 33.8914 24.8408C33.6517 25.3801 33.5319 26.0243 33.5319 26.7733C33.5319 27.6323 33.6817 28.3614 33.9813 28.9606C34.2909 29.5599 34.6455 30.0443 35.045 30.4138C35.4545 30.7734 35.814 31.038 36.1236 31.2078C36.4432 31.3776 36.613 31.4675 36.633 31.4775C36.623 31.5174 36.4932 31.872 36.2435 32.5412C36.0038 33.2103 35.6043 33.9544 35.045 34.7734C34.5556 35.4825 34.0263 36.1367 33.457 36.736C32.8977 37.3352 32.2235 37.6348 31.4345 37.6348C30.9051 37.6348 30.4707 37.5599 30.1311 37.4101C29.7915 37.2503 29.442 37.0955 29.0824 36.9457C28.7229 36.7859 28.2385 36.706 27.6292 36.706C27.04 36.706 26.5456 36.7859 26.1461 36.9457C25.7565 37.1055 25.382 37.2653 25.0225 37.4251C24.6729 37.5849 24.2584 37.6648 23.779 37.6648C23.0499 37.6648 22.4107 37.3752 21.8614 36.7959C21.3121 36.2166 20.7478 35.5225 20.1685 34.7135C19.4993 33.7547 18.925 32.5861 18.4456 31.2078C17.9762 29.8196 17.7415 28.4213 17.7415 27.0131C17.7415 25.5049 18.0262 24.2415 18.5955 23.2228C19.1648 22.194 19.8938 21.42 20.7827 20.9007C21.6816 20.3713 22.6105 20.1066 23.5693 20.1066C24.0786 20.1066 24.558 20.1915 25.0075 20.3613C25.4569 20.5211 25.8764 20.6859 26.2659 20.8557C26.6654 21.0255 27.025 21.1104 27.3446 21.1104C27.6542 21.1104 28.0137 21.0205 28.4232 20.8407C28.8327 20.661 29.2921 20.4862 29.8015 20.3164C30.3109 20.1366 30.8552 20.0467 31.4345 20.0467ZM30.6105 18.1441C30.221 18.6135 29.7316 19.008 29.1423 19.3276C28.5531 19.6372 27.9938 19.792 27.4644 19.792C27.3546 19.792 27.2497 19.782 27.1498 19.7621C27.1398 19.7321 27.1298 19.6772 27.1199 19.5973C27.1099 19.5174 27.1049 19.4325 27.1049 19.3426C27.1049 18.7433 27.2347 18.1641 27.4944 17.6048C27.7541 17.0355 28.0487 16.5661 28.3783 16.1965C28.7978 15.6971 29.3271 15.2826 29.9663 14.9531C30.6055 14.6235 31.2148 14.4487 31.794 14.4287C31.824 14.5585 31.839 14.7134 31.839 14.8931C31.839 15.4924 31.7241 16.0767 31.4944 16.646C31.2647 17.2053 30.9701 17.7046 30.6105 18.1441Z" fill="black"/>
</svg>
