<svg width="94" height="64" viewBox="0 0 94 64" fill="none" xmlns="http://www.w3.org/2000/svg">
<mask id="path-1-inside-1_456_948" fill="white">
<path d="M86 0C90.4183 0 94 3.58172 94 8V50C94 54.4183 90.4183 58 86 58H21.0166L11.4785 63.1953C10.8122 63.5582 10 63.0752 10 62.3164V58H8C3.58172 58 0 54.4183 0 50V8C4.50994e-07 3.58172 3.58172 0 8 0H86Z"/>
</mask>
<path d="M86 0C90.4183 0 94 3.58172 94 8V50C94 54.4183 90.4183 58 86 58H21.0166L11.4785 63.1953C10.8122 63.5582 10 63.0752 10 62.3164V58H8C3.58172 58 0 54.4183 0 50V8C4.50994e-07 3.58172 3.58172 0 8 0H86Z" fill="white"/>
<path d="M94 50H95H94ZM21.0166 58V57H20.7619L20.5383 57.1218L21.0166 58ZM11.4785 63.1953L11.9568 64.0735L11.9569 64.0735L11.4785 63.1953ZM10 62.3164H9H10ZM10 58H11V57H10V58ZM0 8H-1H0ZM86 0V1C89.866 1 93 4.13401 93 8H94H95C95 3.02944 90.9706 -1 86 -1V0ZM94 8H93V50H94H95V8H94ZM94 50H93C93 53.866 89.866 57 86 57V58V59C90.9706 59 95 54.9706 95 50H94ZM86 58V57H21.0166V58V59H86V58ZM21.0166 58L20.5383 57.1218L11.0002 62.3171L11.4785 63.1953L11.9569 64.0735L21.4949 58.8782L21.0166 58ZM11.4785 63.1953L11.0003 62.3171L11 62.3164H10H9C9 63.833 10.6233 64.7997 11.9568 64.0735L11.4785 63.1953ZM10 62.3164H11V58H10H9V62.3164H10ZM10 58V57H8V58V59H10V58ZM8 58V57C4.13401 57 1 53.866 1 50H0H-1C-1 54.9706 3.02944 59 8 59V58ZM0 50H1V8H0H-1V50H0ZM0 8H1C1 4.13401 4.13401 1 8 1V0V-1C3.02944 -1 -0.999999 3.02944 -1 8H0ZM8 0V1H86V0V-1H8V0Z" fill="#EEEEEE" mask="url(#path-1-inside-1_456_948)"/>
</svg>
