<svg width="94" height="64" viewBox="0 0 94 64" fill="none" xmlns="http://www.w3.org/2000/svg">
<mask id="path-1-inside-1_456_941" fill="white">
<path d="M86 0C90.4183 0 94 3.58172 94 8V50C94 54.4183 90.4183 58 86 58H84V62.3164C84 63.0752 83.1878 63.5582 82.5215 63.1953L72.9834 58H8C3.58172 58 0 54.4183 0 50V8C4.50994e-07 3.58172 3.58172 0 8 0H86Z"/>
</mask>
<path d="M86 0C90.4183 0 94 3.58172 94 8V50C94 54.4183 90.4183 58 86 58H84V62.3164C84 63.0752 83.1878 63.5582 82.5215 63.1953L72.9834 58H8C3.58172 58 0 54.4183 0 50V8C4.50994e-07 3.58172 3.58172 0 8 0H86Z" fill="white"/>
<path d="M94 50L95 50V50H94ZM84 58V57H83V58H84ZM84 62.3164H85H84ZM82.5215 63.1953L82.0431 64.0735L82.0432 64.0735L82.5215 63.1953ZM72.9834 58L73.4617 57.1218L73.2381 57H72.9834V58ZM0 8L-1 8V8H0ZM86 0V1C89.866 1 93 4.13401 93 8H94H95C95 3.02944 90.9706 -1 86 -1V0ZM94 8H93V50H94H95V8H94ZM94 50L93 50C93 53.866 89.866 57 86 57V58V59C90.9706 59 95 54.9706 95 50L94 50ZM86 58V57H84V58V59H86V58ZM84 58H83V62.3164H84H85V58H84ZM84 62.3164L83 62.3164L82.9997 62.3171L82.5215 63.1953L82.0432 64.0735C83.3767 64.7997 85 63.833 85 62.3164L84 62.3164ZM82.5215 63.1953L82.9998 62.3171L73.4617 57.1218L72.9834 58L72.5051 58.8782L82.0431 64.0735L82.5215 63.1953ZM72.9834 58V57H8V58V59H72.9834V58ZM8 58V57C4.13401 57 1 53.866 1 50H0H-1C-1 54.9706 3.02944 59 8 59V58ZM0 50H1V8H0H-1V50H0ZM0 8L1 8C1 4.13401 4.13401 1 8 1V0V-1C3.02944 -1 -0.999999 3.02944 -1 8L0 8ZM8 0V1H86V0V-1H8V0Z" fill="#EEEEEE" mask="url(#path-1-inside-1_456_941)"/>
</svg>
