<svg width="18" height="21" viewBox="0 0 18 21" fill="none" xmlns="http://www.w3.org/2000/svg">
<path d="M0 7.65479C0 6.55022 0.895431 5.65479 2 5.65479H16C17.1046 5.65479 18 6.55022 18 7.65479V9.25479H0V7.65479Z" fill="url(#paint0_linear_770_4936)"/>
<path d="M0 9.25488H18V18.0549C18 19.1595 17.1046 20.0549 16 20.0549H2C0.89543 20.0549 0 19.1595 0 18.0549V9.25488Z" fill="url(#paint1_linear_770_4936)"/>
<rect x="8.09961" y="5.65479" width="1.8" height="14.4" fill="url(#paint2_linear_770_4936)"/>
<path d="M8.85647 6.30439C9.36885 3.89895 12.6094 -0.201644 14.4458 2.20496C16.2822 4.61157 10.9488 6.56412 8.85647 6.30439Z" stroke="url(#paint3_linear_770_4936)" stroke-width="1.8" stroke-linejoin="round"/>
<path d="M9.14353 6.30439C8.63115 3.89895 5.39057 -0.201644 3.55418 2.20496C1.71778 4.61157 7.05118 6.56412 9.14353 6.30439Z" stroke="url(#paint4_linear_770_4936)" stroke-width="1.8" stroke-linejoin="round"/>
<defs>
<linearGradient id="paint0_linear_770_4936" x1="9" y1="5.65479" x2="9" y2="9.25479" gradientUnits="userSpaceOnUse">
<stop stop-color="#FFAAEC"/>
<stop offset="1" stop-color="#FFBEF0"/>
</linearGradient>
<linearGradient id="paint1_linear_770_4936" x1="9" y1="9.25488" x2="9" y2="20.0549" gradientUnits="userSpaceOnUse">
<stop stop-color="#FFD2F5"/>
<stop offset="1" stop-color="#FFC0F1"/>
</linearGradient>
<linearGradient id="paint2_linear_770_4936" x1="8.99961" y1="5.65479" x2="8.99961" y2="20.0548" gradientUnits="userSpaceOnUse">
<stop stop-color="#92D5FF"/>
<stop offset="1" stop-color="#5AB8F3"/>
</linearGradient>
<linearGradient id="paint3_linear_770_4936" x1="12.247" y1="1.35384" x2="11.5909" y2="6.64358" gradientUnits="userSpaceOnUse">
<stop stop-color="#5AB8F3"/>
<stop offset="1" stop-color="#92D5FF"/>
</linearGradient>
<linearGradient id="paint4_linear_770_4936" x1="5.75296" y1="1.35384" x2="6.40912" y2="6.64358" gradientUnits="userSpaceOnUse">
<stop stop-color="#5AB8F3"/>
<stop offset="1" stop-color="#92D5FF"/>
</linearGradient>
</defs>
</svg>
