<svg width="32" height="32" viewBox="0 0 32 32" fill="none" xmlns="http://www.w3.org/2000/svg">
<path d="M11.948 25.3628L8.70189 25.6597C7.45762 25.7732 6.41468 24.7311 6.52806 23.4868L6.82396 20.2378L11.948 25.3628ZM22.865 16.5581L14.7829 24.6401C14.6551 24.768 14.5112 24.8763 14.3562 24.9644C14.343 24.9456 14.3298 24.9267 14.3152 24.9087L14.2458 24.8325L7.23118 17.8169C7.31774 17.6674 7.42468 17.5287 7.54857 17.4048L15.6296 9.32275L22.865 16.5581ZM18.7263 6.22705C19.5073 5.44604 20.7734 5.44612 21.5544 6.22705L25.9617 10.6333C26.7427 11.4143 26.7427 12.6814 25.9617 13.4624L24.279 15.144L17.0437 7.90869L18.7263 6.22705Z" fill="url(#paint0_linear_978_3266)"/>
<defs>
<linearGradient id="paint0_linear_978_3266" x1="24.0001" y1="8.00011" x2="6.49932" y2="24.9995" gradientUnits="userSpaceOnUse">
<stop stop-color="#FF9DEA"/>
<stop offset="0.208178" stop-color="#FFB7EF"/>
<stop offset="0.268276" stop-color="#4B73E2"/>
<stop offset="0.789929" stop-color="#86A4F5"/>
<stop offset="0.836239" stop-color="#E1AC77"/>
<stop offset="0.929695" stop-color="#E1AC77"/>
<stop offset="0.932361" stop-color="#363636"/>
</linearGradient>
</defs>
</svg>
