<svg width="32" height="32" viewBox="0 0 32 32" fill="none" xmlns="http://www.w3.org/2000/svg">
<path d="M21.9863 7C24.1955 7 25.9863 8.79086 25.9863 11V19C25.9863 21.2091 24.1955 23 21.9863 23H20.8926C20.4087 23.5406 19.8424 24.0038 19.2959 24.3838C18.228 25.1263 17.0817 25.6632 16.3311 25.9385C15.8635 26.1099 15.3409 25.9114 15.1055 25.4727C14.8702 25.0337 14.993 24.488 15.3945 24.1934C15.4877 24.125 15.6201 23.9738 15.7598 23.6865C15.8554 23.4898 15.9403 23.2574 16.0146 23H10.001C7.78082 22.9999 5.98526 21.1918 6.00098 18.9717L6.0293 15L6.00098 11.0283C5.98526 8.80821 7.78082 7.00006 10.001 7H21.9863ZM8.02832 15L8.00098 18.9717L8.0293 15L8.00098 11.0137L8.02832 15Z" fill="url(#paint0_linear_978_3179)"/>
<g filter="url(#filter0_di_978_3179)">
<circle cx="10.9946" cy="15" r="1.25146" fill="white"/>
<circle cx="16.0005" cy="15" r="1.25146" fill="white"/>
<circle cx="21.0063" cy="15" r="1.25146" fill="white"/>
</g>
<defs>
<filter id="filter0_di_978_3179" x="9.34316" y="13.4982" width="13.3146" height="3.35322" filterUnits="userSpaceOnUse" color-interpolation-filters="sRGB">
<feFlood flood-opacity="0" result="BackgroundImageFix"/>
<feColorMatrix in="SourceAlpha" type="matrix" values="0 0 0 0 0 0 0 0 0 0 0 0 0 0 0 0 0 0 127 0" result="hardAlpha"/>
<feOffset dy="0.2"/>
<feGaussianBlur stdDeviation="0.2"/>
<feComposite in2="hardAlpha" operator="out"/>
<feColorMatrix type="matrix" values="0 0 0 0 0.0297288 0 0 0 0 0.381431 0 0 0 0 0.601901 0 0 0 0.3 0"/>
<feBlend mode="normal" in2="BackgroundImageFix" result="effect1_dropShadow_978_3179"/>
<feBlend mode="normal" in="SourceGraphic" in2="effect1_dropShadow_978_3179" result="shape"/>
<feColorMatrix in="SourceAlpha" type="matrix" values="0 0 0 0 0 0 0 0 0 0 0 0 0 0 0 0 0 0 127 0" result="hardAlpha"/>
<feOffset dy="-0.250293"/>
<feGaussianBlur stdDeviation="0.125146"/>
<feComposite in2="hardAlpha" operator="arithmetic" k2="-1" k3="1"/>
<feColorMatrix type="matrix" values="0 0 0 0 0 0 0 0 0 0 0 0 0 0 0 0 0 0 0.25 0"/>
<feBlend mode="normal" in2="shape" result="effect2_innerShadow_978_3179"/>
</filter>
<linearGradient id="paint0_linear_978_3179" x1="15.9936" y1="7" x2="15.9936" y2="25.9997" gradientUnits="userSpaceOnUse">
<stop stop-color="#81C6F1"/>
<stop offset="1" stop-color="#C9EAFE"/>
</linearGradient>
</defs>
</svg>
