<svg width="24" height="25" viewBox="0 0 24 25" fill="none" xmlns="http://www.w3.org/2000/svg">
<mask id="path-1-inside-1_978_3116" fill="white">
<path d="M13.2723 1.59766C14.3767 1.59784 15.2723 2.4932 15.2723 3.59766V4.41504C15.9924 4.70683 16.6648 5.09114 17.2742 5.55469L17.9168 5.18457C18.8733 4.63234 20.0969 4.95963 20.6492 5.91602L21.9197 8.11719C22.472 9.07373 22.1448 10.2973 21.1883 10.8496L20.6209 11.1758C20.6867 11.6076 20.7215 12.0498 20.7215 12.5C20.7215 12.9497 20.6866 13.3918 20.6209 13.8232L21.1883 14.1514C22.1448 14.7036 22.4728 15.9263 21.9207 16.8828L20.6502 19.084C20.0979 20.0406 18.8744 20.3687 17.9178 19.8164L17.2742 19.4443C16.6646 19.9081 15.9926 20.293 15.2723 20.585V21.4033C15.272 22.5076 14.3766 23.4031 13.2723 23.4033H10.7303C9.62589 23.4033 8.73051 22.5077 8.73028 21.4033V20.5859C8.00829 20.2937 7.33425 19.9091 6.72345 19.4443L6.08087 19.8164C5.12428 20.3687 3.90073 20.0406 3.34845 19.084L2.07794 16.8828C1.52584 15.9263 1.85385 14.7036 2.81036 14.1514L3.37677 13.8232C3.31114 13.3919 3.27716 12.9497 3.27716 12.5C3.27718 12.0505 3.31117 11.6089 3.37677 11.1777L2.80841 10.8496C1.85184 10.2973 1.52468 9.07376 2.07696 8.11719L3.34747 5.91602C3.89979 4.95953 5.12335 4.63133 6.07989 5.18359L6.72345 5.55566C7.33422 5.09095 8.00834 4.7062 8.73028 4.41406V3.59766C8.73028 2.49311 9.62574 1.59769 10.7303 1.59766H13.2723Z"/>
</mask>
<path d="M13.2723 1.59766C14.3767 1.59784 15.2723 2.4932 15.2723 3.59766V4.41504C15.9924 4.70683 16.6648 5.09114 17.2742 5.55469L17.9168 5.18457C18.8733 4.63234 20.0969 4.95963 20.6492 5.91602L21.9197 8.11719C22.472 9.07373 22.1448 10.2973 21.1883 10.8496L20.6209 11.1758C20.6867 11.6076 20.7215 12.0498 20.7215 12.5C20.7215 12.9497 20.6866 13.3918 20.6209 13.8232L21.1883 14.1514C22.1448 14.7036 22.4728 15.9263 21.9207 16.8828L20.6502 19.084C20.0979 20.0406 18.8744 20.3687 17.9178 19.8164L17.2742 19.4443C16.6646 19.9081 15.9926 20.293 15.2723 20.585V21.4033C15.272 22.5076 14.3766 23.4031 13.2723 23.4033H10.7303C9.62589 23.4033 8.73051 22.5077 8.73028 21.4033V20.5859C8.00829 20.2937 7.33425 19.9091 6.72345 19.4443L6.08087 19.8164C5.12428 20.3687 3.90073 20.0406 3.34845 19.084L2.07794 16.8828C1.52584 15.9263 1.85385 14.7036 2.81036 14.1514L3.37677 13.8232C3.31114 13.3919 3.27716 12.9497 3.27716 12.5C3.27718 12.0505 3.31117 11.6089 3.37677 11.1777L2.80841 10.8496C1.85184 10.2973 1.52468 9.07376 2.07696 8.11719L3.34747 5.91602C3.89979 4.95953 5.12335 4.63133 6.07989 5.18359L6.72345 5.55566C7.33422 5.09095 8.00834 4.7062 8.73028 4.41406V3.59766C8.73028 2.49311 9.62574 1.59769 10.7303 1.59766H13.2723Z" fill="white"/>
<path d="M13.2723 1.59766L13.2726 -0.402344H13.2723V1.59766ZM15.2723 4.41504H13.2723C13.2723 5.22959 13.7663 5.96276 14.5212 6.26865L15.2723 4.41504ZM17.2742 5.55469L16.0634 7.14654C16.7042 7.63394 17.5748 7.68959 18.2725 7.28776L17.2742 5.55469ZM17.9168 5.18457L18.915 6.91764L18.9168 6.91662L17.9168 5.18457ZM20.6492 5.91602L22.3814 4.91622L22.3811 4.91576L20.6492 5.91602ZM21.9197 8.11719L20.1876 9.11699L20.1877 9.11719L21.9197 8.11719ZM21.1883 10.8496L22.1851 12.5835L22.1884 12.5816L21.1883 10.8496ZM20.6209 11.1758L19.6241 9.44187C18.9088 9.85309 18.5194 10.6614 18.6437 11.4771L20.6209 11.1758ZM20.7215 12.5L22.7215 12.5L22.7215 12.4999L20.7215 12.5ZM20.6209 13.8232L18.6437 13.5224C18.5199 14.3361 18.9072 15.1425 19.6197 15.5546L20.6209 13.8232ZM21.1883 14.1514L20.187 15.8827L20.1883 15.8834L21.1883 14.1514ZM21.9207 16.8828L23.6529 17.8826L23.6529 17.8825L21.9207 16.8828ZM20.6502 19.084L22.3823 20.084L22.3824 20.0838L20.6502 19.084ZM17.9178 19.8164L16.9167 21.5479L16.9178 21.5485L17.9178 19.8164ZM17.2742 19.4443L18.2753 17.7129C17.5772 17.3093 16.705 17.3644 16.0632 17.8526L17.2742 19.4443ZM15.2723 20.585L14.5211 18.7314C13.7662 19.0373 13.2723 19.7704 13.2723 20.585H15.2723ZM15.2723 21.4033L17.2723 21.4037V21.4033H15.2723ZM13.2723 23.4033L13.2723 25.4033L13.2726 25.4033L13.2723 23.4033ZM10.7303 23.4033L10.7302 25.4033H10.7303V23.4033ZM8.73028 21.4033L6.73028 21.4033L6.73028 21.4037L8.73028 21.4033ZM8.73028 20.5859H10.7303C10.7303 19.7711 10.2359 19.0377 9.48058 18.732L8.73028 20.5859ZM6.72345 19.4443L7.93458 17.8527C7.29245 17.3641 6.41957 17.3092 5.72127 17.7135L6.72345 19.4443ZM6.08087 19.8164L7.08087 21.5485L7.08305 21.5472L6.08087 19.8164ZM3.34845 19.084L1.61628 20.0838L1.6164 20.084L3.34845 19.084ZM2.07794 16.8828L0.345758 17.8826L0.345773 17.8826L2.07794 16.8828ZM2.81036 14.1514L3.81036 15.8834L3.8129 15.8819L2.81036 14.1514ZM3.37677 13.8232L4.37931 15.5538C5.09101 15.1415 5.47773 14.3356 5.35401 13.5224L3.37677 13.8232ZM3.27716 12.5L1.27716 12.4999V12.5H3.27716ZM3.37677 11.1777L5.35402 11.4785C5.47788 10.6643 5.08998 9.85743 4.37673 9.44566L3.37677 11.1777ZM2.80841 10.8496L1.80838 12.5816L1.80845 12.5817L2.80841 10.8496ZM2.07696 8.11719L3.80901 9.11719L3.80913 9.11699L2.07696 8.11719ZM3.34747 5.91602L1.61549 4.91589L1.6153 4.91622L3.34747 5.91602ZM6.07989 5.18359L7.08093 3.45214L7.07989 3.45154L6.07989 5.18359ZM6.72345 5.55566L5.72241 7.28712C6.42052 7.69073 7.29273 7.63561 7.93448 7.14733L6.72345 5.55566ZM8.73028 4.41406L9.48051 6.26802C10.2359 5.96235 10.7303 5.22895 10.7303 4.41406H8.73028ZM10.7303 1.59766L10.7303 -0.402344L10.7302 -0.402344L10.7303 1.59766ZM13.2723 1.59766L13.2719 3.59766L13.2723 3.59766H15.2723H17.2723C17.2723 1.3883 15.481 -0.401973 13.2726 -0.402344L13.2723 1.59766ZM15.2723 3.59766H13.2723V4.41504H15.2723H17.2723V3.59766H15.2723ZM15.2723 4.41504L14.5212 6.26865C15.0763 6.49359 15.5943 6.78967 16.0634 7.14654L17.2742 5.55469L18.485 3.96283C17.7353 3.3926 16.9085 2.92006 16.0233 2.56142L15.2723 4.41504ZM17.2742 5.55469L18.2725 7.28776L18.915 6.91764L17.9168 5.18457L16.9186 3.4515L16.276 3.82162L17.2742 5.55469ZM17.9168 5.18457L18.9168 6.91662L18.9173 6.91627L20.6492 5.91602L22.3811 4.91576C21.276 3.00225 18.8291 2.34848 16.9168 3.45252L17.9168 5.18457ZM20.6492 5.91602L18.9171 6.91582L20.1876 9.11699L21.9197 8.11719L23.6519 7.11739L22.3814 4.91622L20.6492 5.91602ZM21.9197 8.11719L20.1877 9.11719L20.1882 9.11763L21.1883 10.8496L22.1884 12.5816C24.1023 11.4764 24.7558 9.02936 23.6518 7.11719L21.9197 8.11719ZM21.1883 10.8496L20.1915 9.1157L19.6241 9.44187L20.6209 11.1758L21.6177 12.9097L22.1851 12.5835L21.1883 10.8496ZM20.6209 11.1758L18.6437 11.4771C18.6947 11.8115 18.7215 12.1529 18.7215 12.5001L20.7215 12.5L22.7215 12.4999C22.7215 11.9466 22.6787 11.4038 22.5981 10.8745L20.6209 11.1758ZM20.7215 12.5H18.7215C18.7215 12.846 18.6946 13.1876 18.6437 13.5224L20.6209 13.8232L22.5982 14.1241C22.6785 13.5961 22.7215 13.0534 22.7215 12.5H20.7215ZM20.6209 13.8232L19.6197 15.5546L20.187 15.8827L21.1883 14.1514L22.1895 12.42L21.6222 12.0919L20.6209 13.8232ZM21.1883 14.1514L20.1883 15.8834L20.1885 15.8831L21.9207 16.8828L23.6529 17.8825C24.7573 15.969 24.1008 13.5235 22.1883 12.4193L21.1883 14.1514ZM21.9207 16.8828L20.1885 15.883L18.918 18.0842L20.6502 19.084L22.3824 20.0838L23.6529 17.8826L21.9207 16.8828ZM20.6502 19.084L18.9182 18.084L18.9178 18.0844L17.9178 19.8164L16.9178 21.5485C18.8314 22.6533 21.2779 21.9967 22.3823 20.084L20.6502 19.084ZM17.9178 19.8164L18.9188 18.085L18.2753 17.7129L17.2742 19.4443L16.2732 21.1758L16.9167 21.5479L17.9178 19.8164ZM17.2742 19.4443L16.0632 17.8526C15.593 18.2104 15.0754 18.5068 14.5211 18.7314L15.2723 20.585L16.0234 22.4385C16.9099 22.0793 17.7363 21.6059 18.4852 21.036L17.2742 19.4443ZM15.2723 20.585H13.2723V21.4033H15.2723H17.2723V20.585H15.2723ZM15.2723 21.4033L13.2723 21.4029L13.2719 21.4033L13.2723 23.4033L13.2726 25.4033C15.4813 25.403 17.2718 23.6122 17.2723 21.4037L15.2723 21.4033ZM13.2723 23.4033V21.4033H10.7303V23.4033V25.4033H13.2723V23.4033ZM10.7303 23.4033L10.7303 21.4033L10.7303 21.4029L8.73028 21.4033L6.73028 21.4037C6.73074 23.612 8.52095 25.4032 10.7302 25.4033L10.7303 23.4033ZM8.73028 21.4033H10.7303V20.5859H8.73028H6.73028V21.4033H8.73028ZM8.73028 20.5859L9.48058 18.732C8.92321 18.5064 8.40414 18.2101 7.93458 17.8527L6.72345 19.4443L5.51231 21.0359C6.26436 21.6082 7.09337 22.081 7.97999 22.4399L8.73028 20.5859ZM6.72345 19.4443L5.72127 17.7135L5.07869 18.0856L6.08087 19.8164L7.08305 21.5472L7.72562 21.1751L6.72345 19.4443ZM6.08087 19.8164L5.08087 18.0844L5.0805 18.084L3.34845 19.084L1.6164 20.084C2.72072 21.9967 5.16728 22.6533 7.08087 21.5485L6.08087 19.8164ZM3.34845 19.084L5.08061 18.0842L3.81011 15.883L2.07794 16.8828L0.345773 17.8826L1.61628 20.0838L3.34845 19.084ZM2.07794 16.8828L3.81012 15.883L3.81036 15.8834L2.81036 14.1514L1.81036 12.4193C-0.102135 13.5235 -0.758743 15.969 0.345758 17.8826L2.07794 16.8828ZM2.81036 14.1514L3.8129 15.8819L4.37931 15.5538L3.37677 13.8232L2.37422 12.0927L1.80782 12.4208L2.81036 14.1514ZM3.37677 13.8232L5.35401 13.5224C5.30352 13.1905 5.27716 12.8489 5.27716 12.5H3.27716H1.27716C1.27716 13.0505 1.31876 13.5932 1.39952 14.1241L3.37677 13.8232ZM3.27716 12.5L5.27716 12.5001C5.27718 12.1515 5.30353 11.8104 5.35402 11.4785L3.37677 11.1777L1.39952 10.8769C1.31882 11.4074 1.27719 11.9495 1.27716 12.4999L3.27716 12.5ZM3.37677 11.1777L4.37673 9.44566L3.80837 9.11754L2.80841 10.8496L1.80845 12.5817L2.37681 12.9098L3.37677 11.1777ZM2.80841 10.8496L3.80843 9.11757L3.80901 9.11719L2.07696 8.11719L0.344912 7.11719C-0.75904 9.02929 -0.1058 11.4765 1.80838 12.5816L2.80841 10.8496ZM2.07696 8.11719L3.80913 9.11699L5.07964 6.91582L3.34747 5.91602L1.6153 4.91622L0.344797 7.11739L2.07696 8.11719ZM3.34747 5.91602L5.07945 6.91614L5.07989 6.91564L6.07989 5.18359L7.07989 3.45154C5.16622 2.34669 2.71979 3.00349 1.61549 4.91589L3.34747 5.91602ZM6.07989 5.18359L5.07886 6.91505L5.72241 7.28712L6.72345 5.55566L7.72448 3.82421L7.08093 3.45214L6.07989 5.18359ZM6.72345 5.55566L7.93448 7.14733C8.40418 6.78995 8.92337 6.49347 9.48051 6.26802L8.73028 4.41406L7.98006 2.5601C7.09332 2.91893 6.26426 3.39195 5.51241 3.964L6.72345 5.55566ZM8.73028 4.41406H10.7303V3.59766H8.73028H6.73028V4.41406H8.73028ZM8.73028 3.59766H10.7303L10.7303 3.59766L10.7303 1.59766L10.7302 -0.402344C8.52121 -0.402283 6.73028 1.38848 6.73028 3.59766H8.73028ZM10.7303 1.59766V3.59766H13.2723V1.59766V-0.402344H10.7303V1.59766Z" fill="black" mask="url(#path-1-inside-1_978_3116)"/>
<circle cx="12" cy="12.5" r="2" fill="white" stroke="black" stroke-width="2"/>
</svg>
