<svg width="44" height="44" viewBox="0 0 44 44" fill="none" xmlns="http://www.w3.org/2000/svg">
<path d="M22 0C34.1503 0 44 9.84974 44 22C44 34.1503 34.1503 44 22 44C9.84974 44 0 34.1503 0 22C0 9.84974 9.84974 0 22 0ZM22 2C10.9543 2 2 10.9543 2 22C2 33.0457 10.9543 42 22 42C33.0457 42 42 33.0457 42 22C42 10.9543 33.0457 2 22 2Z" fill="#A15753"/>
<circle cx="35.925" cy="8.07495" r="8.07495" fill="#A15753"/>
<path d="M31.9253 4.07471C34.1344 4.07471 35.9253 5.86557 35.9253 8.07471C33.7162 8.07471 31.9253 6.28385 31.9253 4.07471Z" fill="white"/>
<path d="M30.2683 8.07471C31.8304 6.51261 34.3631 6.51261 35.9252 8.07471C34.3631 9.6368 31.8304 9.6368 30.2683 8.07471Z" fill="white"/>
<path d="M35.9253 8.07471C37.4874 6.51261 40.02 6.51261 41.5821 8.07471C40.02 9.6368 37.4874 9.6368 35.9253 8.07471Z" fill="white"/>
<path d="M35.9253 2.41797C37.4874 3.98007 37.4874 6.51273 35.9253 8.07482C34.3632 6.51273 34.3632 3.98007 35.9253 2.41797Z" fill="white"/>
<path d="M39.8501 4.07471C37.641 4.07471 35.8501 5.86557 35.8501 8.07471C38.0592 8.07471 39.8501 6.28385 39.8501 4.07471Z" fill="white"/>
<path d="M31.9253 12.0747C34.1344 12.0747 35.9253 10.2838 35.9253 8.07471C33.7162 8.07471 31.9253 9.86557 31.9253 12.0747Z" fill="white"/>
<path d="M35.9253 13.7314C37.4874 12.1693 37.4874 9.63669 35.9253 8.07459C34.3632 9.63669 34.3632 12.1693 35.9253 13.7314Z" fill="white"/>
<path d="M39.8501 12.0747C37.641 12.0747 35.8501 10.2838 35.8501 8.07471C38.0592 8.07471 39.8501 9.86557 39.8501 12.0747Z" fill="white"/>
</svg>
