<svg width="44" height="44" viewBox="0 0 44 44" fill="none" xmlns="http://www.w3.org/2000/svg">
<circle cx="22" cy="22" r="22" fill="#9D856A"/>
<circle cx="35.925" cy="8.07495" r="8.07495" fill="#9D856A"/>
<path d="M35.1763 4.53747C36.0121 4.88167 36.4185 6.13422 36.4185 6.65311C36.4185 6.93226 36.6197 7.1958 36.9035 7.26629C37.1473 7.32682 37.6541 7.28199 37.9413 7.34119C38.8109 7.52042 39.3906 8.09443 39.5543 9.02192C39.7996 10.4113 38.8213 11.3571 38.0654 11.735C37.04 12.2477 35.3374 11.7503 34.4158 11.1051C33.4941 10.4598 32.8005 9.74437 32.3522 8.28113C31.9039 6.8179 32.3299 5.42971 33.0691 4.84897C33.6096 4.42422 34.3404 4.19327 35.1763 4.53747Z" fill="white"/>
</svg>
