<svg width="44" height="44" viewBox="0 0 44 44" fill="none" xmlns="http://www.w3.org/2000/svg">
<path d="M22 0C34.1503 0 44 9.84974 44 22C44 34.1503 34.1503 44 22 44C9.84974 44 0 34.1503 0 22C0 9.84974 9.84974 0 22 0ZM22 2C10.9543 2 2 10.9543 2 22C2 33.0457 10.9543 42 22 42C33.0457 42 42 33.0457 42 22C42 10.9543 33.0457 2 22 2Z" fill="#A4A248"/>
<circle cx="35.925" cy="8.07495" r="8.07495" fill="#A4A248"/>
<path d="M32 4.52148C34.2091 4.52148 36 6.31235 36 8.52148C33.7909 8.52148 32 6.73062 32 4.52148Z" fill="white"/>
<path d="M39.925 4.52148C37.7159 4.52148 35.925 6.31235 35.925 8.52148C38.1342 8.52148 39.925 6.73062 39.925 4.52148Z" fill="white"/>
<path d="M35.925 8.40381V12.4413" stroke="white" stroke-linecap="round"/>
</svg>
