<svg width="44" height="44" viewBox="0 0 44 44" fill="none" xmlns="http://www.w3.org/2000/svg">
<path d="M22 0C34.1503 0 44 9.84974 44 22C44 34.1503 34.1503 44 22 44C9.84974 44 0 34.1503 0 22C0 9.84974 9.84974 0 22 0ZM22 2C10.9543 2 2 10.9543 2 22C2 33.0457 10.9543 42 22 42C33.0457 42 42 33.0457 42 22C42 10.9543 33.0457 2 22 2Z" fill="#609162"/>
<circle cx="35.925" cy="8.07495" r="8.07495" fill="#609162"/>
<path d="M35.9256 5.5249C36.8178 5.5249 36.9477 13.0249 36.9477 13.0249H34.9036C34.9036 13.0249 35.0335 5.5249 35.9256 5.5249Z" fill="white"/>
<circle cx="33.6102" cy="7.65881" r="2.31409" fill="white"/>
<circle cx="35.925" cy="5.82422" r="2.69922" fill="white"/>
<circle cx="38.2391" cy="7.65881" r="2.31409" fill="white"/>
</svg>
