<svg width="44" height="44" viewBox="0 0 44 44" fill="none" xmlns="http://www.w3.org/2000/svg">
<circle cx="22" cy="22" r="22" fill="#A15753"/>
<circle cx="35.925" cy="8.07495" r="8.07495" fill="#A15753"/>
<path d="M31.9253 4.07471V4.07471C34.1344 4.07471 35.9253 5.86557 35.9253 8.07471V8.07471V8.07471C33.7162 8.07471 31.9253 6.28385 31.9253 4.07471V4.07471Z" fill="white"/>
<path d="M30.2683 8.07471V8.07471C31.8304 6.51261 34.3631 6.51261 35.9252 8.07471V8.07471V8.07471C34.3631 9.6368 31.8304 9.6368 30.2683 8.07471V8.07471Z" fill="white"/>
<path d="M35.9253 8.07471V8.07471C37.4874 6.51261 40.0201 6.51261 41.5821 8.07471V8.07471V8.07471C40.0201 9.6368 37.4874 9.6368 35.9253 8.07471V8.07471Z" fill="white"/>
<path d="M35.9253 2.41797V2.41797C37.4874 3.98007 37.4874 6.51273 35.9253 8.07482V8.07482V8.07482C34.3632 6.51273 34.3632 3.98007 35.9253 2.41797V2.41797Z" fill="white"/>
<path d="M39.8501 4.07471V4.07471C37.641 4.07471 35.8501 5.86557 35.8501 8.07471V8.07471V8.07471C38.0592 8.07471 39.8501 6.28385 39.8501 4.07471V4.07471Z" fill="white"/>
<path d="M31.9253 12.0747V12.0747C34.1344 12.0747 35.9253 10.2838 35.9253 8.07471V8.07471V8.07471C33.7162 8.07471 31.9253 9.86557 31.9253 12.0747V12.0747Z" fill="white"/>
<path d="M35.9253 13.7317V13.7317C37.4874 12.1696 37.4874 9.63693 35.9253 8.07484V8.07484V8.07484C34.3632 9.63693 34.3632 12.1696 35.9253 13.7317V13.7317Z" fill="white"/>
<path d="M39.8501 12.0747V12.0747C37.641 12.0747 35.8501 10.2838 35.8501 8.07471V8.07471V8.07471C38.0592 8.07471 39.8501 9.86557 39.8501 12.0747V12.0747Z" fill="white"/>
</svg>
