<svg width="44" height="44" viewBox="0 0 44 44" fill="none" xmlns="http://www.w3.org/2000/svg">
<path d="M22 0C34.1503 0 44 9.84974 44 22C44 34.1503 34.1503 44 22 44C9.84974 44 0 34.1503 0 22C0 9.84974 9.84974 0 22 0ZM22 2C10.9543 2 2 10.9543 2 22C2 33.0457 10.9543 42 22 42C33.0457 42 42 33.0457 42 22C42 10.9543 33.0457 2 22 2Z" fill="#9D856A"/>
<circle cx="35.925" cy="8.07495" r="8.07495" fill="#9D856A"/>
<path d="M35.1763 4.53772C36.0121 4.88192 36.4185 6.13447 36.4185 6.65335C36.4185 6.93251 36.6197 7.19604 36.9035 7.26653C37.1473 7.32706 37.6541 7.28223 37.9413 7.34143C38.8109 7.52066 39.3906 8.09467 39.5543 9.02216C39.7996 10.4116 38.8213 11.3573 38.0654 11.7353C37.04 12.2479 35.3374 11.7506 34.4158 11.1053C33.4941 10.4601 32.8005 9.74461 32.3522 8.28138C31.9039 6.81814 32.3299 5.42995 33.0691 4.84921C33.6096 4.42447 34.3404 4.19352 35.1763 4.53772Z" fill="white"/>
</svg>
