<svg width="94" height="64" viewBox="0 0 94 64" fill="none" xmlns="http://www.w3.org/2000/svg">
<g id="Union">
<mask id="path-1-inside-1_402_329" fill="white">
<path d="M86 0C90.4183 0 94 3.58172 94 8V50C94 54.4183 90.4183 58 86 58H54.3506L48.6865 63.3516C48.3012 63.7153 47.6988 63.7153 47.3135 63.3516L41.6494 58H8C3.58172 58 0 54.4183 0 50V8C4.50994e-07 3.58172 3.58172 0 8 0H86Z"/>
</mask>
<path d="M86 0C90.4183 0 94 3.58172 94 8V50C94 54.4183 90.4183 58 86 58H54.3506L48.6865 63.3516C48.3012 63.7153 47.6988 63.7153 47.3135 63.3516L41.6494 58H8C3.58172 58 0 54.4183 0 50V8C4.50994e-07 3.58172 3.58172 0 8 0H86Z" fill="white"/>
<path d="M94 50H95H94ZM54.3506 58V57H53.9529L53.6638 57.2731L54.3506 58ZM48.6865 63.3516L49.373 64.0787L49.3733 64.0784L48.6865 63.3516ZM47.3135 63.3516L46.6267 64.0784L46.627 64.0787L47.3135 63.3516ZM41.6494 58L42.3362 57.2731L42.0471 57H41.6494V58ZM0 8H-1H0ZM86 0V1C89.866 1 93 4.13401 93 8H94H95C95 3.02944 90.9706 -1 86 -1V0ZM94 8H93V50H94H95V8H94ZM94 50H93C93 53.866 89.866 57 86 57V58V59C90.9706 59 95 54.9706 95 50H94ZM86 58V57H54.3506V58V59H86V58ZM54.3506 58L53.6638 57.2731L47.9998 62.6247L48.6865 63.3516L49.3733 64.0784L55.0374 58.7269L54.3506 58ZM48.6865 63.3516L48.0001 62.6244H47.9999L47.3135 63.3516L46.627 64.0787C47.3977 64.8063 48.6023 64.8063 49.373 64.0787L48.6865 63.3516ZM47.3135 63.3516L48.0002 62.6247L42.3362 57.2731L41.6494 58L40.9626 58.7269L46.6267 64.0784L47.3135 63.3516ZM41.6494 58V57H8V58V59H41.6494V58ZM8 58V57C4.13401 57 1 53.866 1 50H0H-1C-1 54.9706 3.02944 59 8 59V58ZM0 50H1V8H0H-1V50H0ZM0 8H1C1 4.13401 4.13401 1 8 1V0V-1C3.02944 -1 -0.999999 3.02944 -1 8H0ZM8 0V1H86V0V-1H8V0Z" fill="#EEEEEE" mask="url(#path-1-inside-1_402_329)"/>
</g>
</svg>
