<svg width="46" height="19" viewBox="0 0 46 19" fill="none" xmlns="http://www.w3.org/2000/svg">
<g filter="url(#filter0_ii_906_4632)">
<rect width="46" height="19" rx="4" fill="url(#paint0_radial_906_4632)"/>
<path d="M12.8444 7.65556V9.46667H11.4444V4.84444H12.8444V6.25556H13.8556V7.65556H12.8444ZM8.12222 7.74444C7.78148 8.21111 7.37037 8.58889 6.88889 8.87778C6.41481 9.15926 5.88889 9.32222 5.31111 9.36667V8.04444C5.76296 7.97778 6.15556 7.8037 6.48889 7.52222C6.82963 7.23333 7.09259 6.86296 7.27778 6.41111C7.46296 5.95926 7.55556 5.45185 7.55556 4.88889L8.96667 4.97778C8.96667 5.56296 8.87778 6.11111 8.7 6.62222L11.0111 8.17778L10.3 9.24444L8.12222 7.74444ZM12.8444 9.82222V13.3444H5.78889V9.82222H12.8444ZM11.4444 12.1222V11.0444H7.2V12.1222H11.4444ZM22.0988 13.3778H20.7877V9.46667H19.9099V13.2333H18.6099V4.87778H19.9099V8.06667H20.7877V4.84444H22.0988V13.3778ZM16.2766 11.6444C16.6173 11.6444 16.9581 11.6185 17.2988 11.5667C17.6396 11.5148 17.9285 11.4407 18.1655 11.3444V12.6222C17.9285 12.7259 17.6248 12.8074 17.2544 12.8667C16.884 12.9185 16.5136 12.9444 16.1433 12.9444H14.2877V5.07778H17.8211V6.37778H15.6322V11.6444H16.2766ZM31.0865 13.0444H22.9088V11.6667H26.2865V10.2778C25.6791 10.2111 25.1458 10.0556 24.6865 9.81111C24.2273 9.56667 23.8717 9.25556 23.6199 8.87778C23.3754 8.5 23.2532 8.07407 23.2532 7.6C23.2532 7.07407 23.4088 6.60741 23.7199 6.2C24.0384 5.78518 24.4791 5.46667 25.0421 5.24444C25.6125 5.01481 26.2643 4.9 26.9977 4.9C27.7384 4.9 28.3902 5.01481 28.9532 5.24444C29.5236 5.46667 29.9643 5.78518 30.2754 6.2C30.5865 6.60741 30.7421 7.07407 30.7421 7.6C30.7421 8.07407 30.6162 8.5 30.3643 8.87778C30.1199 9.25556 29.768 9.56667 29.3088 9.81111C28.8495 10.0556 28.3162 10.2111 27.7088 10.2778V11.6667H31.0865V13.0444ZM24.731 7.6C24.731 8.01481 24.9384 8.35185 25.3532 8.61111C25.7754 8.86296 26.3236 8.98889 26.9977 8.98889C27.6717 8.98889 28.2162 8.86296 28.631 8.61111C29.0532 8.35185 29.2643 8.01481 29.2643 7.6C29.2643 7.19259 29.0532 6.86296 28.631 6.61111C28.2162 6.35185 27.6717 6.22222 26.9977 6.22222C26.3236 6.22222 25.7754 6.35185 25.3532 6.61111C24.9384 6.86296 24.731 7.19259 24.731 7.6ZM39.6965 10.1889H38.3854V8.02222H37.5076V10.1H36.2076V4.87778H37.5076V6.64444H38.3854V4.84444H39.6965V10.1889ZM31.8854 9.82222V4.95556H33.152V6.18889H34.2743V4.95556H35.5409V9.82222H31.8854ZM34.2743 7.34444H33.152V8.65556H34.2743V7.34444ZM39.6965 10.5333V13.4444H38.3187V11.7778H32.3076V10.5333H39.6965Z" fill="white"/>
</g>
<defs>
<filter id="filter0_ii_906_4632" x="-0.5" y="-0.5" width="46.9" height="19.9" filterUnits="userSpaceOnUse" color-interpolation-filters="sRGB">
<feFlood flood-opacity="0" result="BackgroundImageFix"/>
<feBlend mode="normal" in="SourceGraphic" in2="BackgroundImageFix" result="shape"/>
<feColorMatrix in="SourceAlpha" type="matrix" values="0 0 0 0 0 0 0 0 0 0 0 0 0 0 0 0 0 0 127 0" result="hardAlpha"/>
<feOffset dx="-0.5" dy="-0.5"/>
<feGaussianBlur stdDeviation="0.4"/>
<feComposite in2="hardAlpha" operator="arithmetic" k2="-1" k3="1"/>
<feColorMatrix type="matrix" values="0 0 0 0 1 0 0 0 0 1 0 0 0 0 1 0 0 0 0.4 0"/>
<feBlend mode="normal" in2="shape" result="effect1_innerShadow_906_4632"/>
<feColorMatrix in="SourceAlpha" type="matrix" values="0 0 0 0 0 0 0 0 0 0 0 0 0 0 0 0 0 0 127 0" result="hardAlpha"/>
<feOffset dx="0.5" dy="0.5"/>
<feGaussianBlur stdDeviation="0.2"/>
<feComposite in2="hardAlpha" operator="arithmetic" k2="-1" k3="1"/>
<feColorMatrix type="matrix" values="0 0 0 0 1 0 0 0 0 1 0 0 0 0 1 0 0 0 0.6 0"/>
<feBlend mode="normal" in2="effect1_innerShadow_906_4632" result="effect2_innerShadow_906_4632"/>
</filter>
<radialGradient id="paint0_radial_906_4632" cx="0" cy="0" r="1" gradientUnits="userSpaceOnUse" gradientTransform="translate(43.8095 21.2353) rotate(-112.781) scale(29.6992 90.2568)">
<stop stop-color="#8C00C4"/>
<stop offset="0.164954" stop-color="#9500D0"/>
<stop offset="0.632505" stop-color="#A502E6"/>
<stop offset="0.81133" stop-color="#A502E6"/>
<stop offset="1" stop-color="#8700BD"/>
</radialGradient>
</defs>
</svg>
