<svg width="44" height="19" viewBox="0 0 44 19" fill="none" xmlns="http://www.w3.org/2000/svg">
<g filter="url(#filter0_ii_760_2484)">
<rect width="44" height="19" rx="4" fill="url(#paint0_radial_760_2484)"/>
<path d="M8.05556 8.21111C9.16667 8.21111 9.98148 8.42593 10.5 8.85556C11.0185 9.27778 11.2778 9.85556 11.2778 10.5889C11.2778 11.063 11.163 11.4926 10.9333 11.8778C10.7037 12.2556 10.3519 12.5593 9.87778 12.7889C9.41111 13.0111 8.83333 13.1222 8.14444 13.1222C7.5963 13.1222 7.05926 13.0444 6.53333 12.8889C6.01481 12.7333 5.57407 12.5185 5.21111 12.2444L5.84444 11.0444C6.12593 11.2815 6.46296 11.4667 6.85556 11.6C7.25556 11.7259 7.67037 11.7889 8.1 11.7889C8.6037 11.7889 8.99259 11.6889 9.26667 11.4889C9.54815 11.2815 9.68889 11 9.68889 10.6444C9.68889 10.2667 9.54074 9.98148 9.24444 9.78889C8.94815 9.58889 8.43333 9.48889 7.7 9.48889H5.78889L6.18889 5.22222H10.8111V6.48889H7.48889L7.33333 8.21111H8.05556ZM15.0033 13.1222C14.3736 13.1222 13.8107 12.963 13.3144 12.6444C12.8181 12.3259 12.4292 11.8667 12.1477 11.2667C11.8662 10.6593 11.7255 9.94074 11.7255 9.11111C11.7255 8.28148 11.8662 7.56667 12.1477 6.96667C12.4292 6.35926 12.8181 5.8963 13.3144 5.57778C13.8107 5.25926 14.3736 5.1 15.0033 5.1C15.6403 5.1 16.207 5.25926 16.7033 5.57778C17.1996 5.8963 17.5847 6.35926 17.8588 6.96667C18.1403 7.56667 18.281 8.28148 18.281 9.11111C18.281 9.94074 18.1403 10.6593 17.8588 11.2667C17.5847 11.8667 17.1996 12.3259 16.7033 12.6444C16.207 12.963 15.6403 13.1222 15.0033 13.1222ZM15.0033 11.7889C15.5292 11.7889 15.944 11.5667 16.2477 11.1222C16.5588 10.6704 16.7144 10 16.7144 9.11111C16.7144 8.22222 16.5588 7.55556 16.2477 7.11111C15.944 6.65926 15.5292 6.43333 15.0033 6.43333C14.4847 6.43333 14.0736 6.65926 13.7699 7.11111C13.4662 7.55556 13.3144 8.22222 13.3144 9.11111C13.3144 10 13.4662 10.6704 13.7699 11.1222C14.0736 11.5667 14.4847 11.7889 15.0033 11.7889ZM21.6732 13.1222C21.0435 13.1222 20.4806 12.963 19.9843 12.6444C19.488 12.3259 19.0991 11.8667 18.8176 11.2667C18.5361 10.6593 18.3954 9.94074 18.3954 9.11111C18.3954 8.28148 18.5361 7.56667 18.8176 6.96667C19.0991 6.35926 19.488 5.8963 19.9843 5.57778C20.4806 5.25926 21.0435 5.1 21.6732 5.1C22.3102 5.1 22.8769 5.25926 23.3732 5.57778C23.8695 5.8963 24.2547 6.35926 24.5287 6.96667C24.8102 7.56667 24.951 8.28148 24.951 9.11111C24.951 9.94074 24.8102 10.6593 24.5287 11.2667C24.2547 11.8667 23.8695 12.3259 23.3732 12.6444C22.8769 12.963 22.3102 13.1222 21.6732 13.1222ZM21.6732 11.7889C22.1991 11.7889 22.6139 11.5667 22.9176 11.1222C23.2287 10.6704 23.3843 10 23.3843 9.11111C23.3843 8.22222 23.2287 7.55556 22.9176 7.11111C22.6139 6.65926 22.1991 6.43333 21.6732 6.43333C21.1547 6.43333 20.7435 6.65926 20.4398 7.11111C20.1361 7.55556 19.9843 8.22222 19.9843 9.11111C19.9843 10 20.1361 10.6704 20.4398 11.1222C20.7435 11.5667 21.1547 11.7889 21.6732 11.7889ZM27.1653 11.4333V13H25.7209V4.75556H27.1653V9.64444L29.7764 7.05556H31.5098L29.132 9.55556L31.7209 13H29.9764L28.0764 10.5111L27.1653 11.4333ZM37.7978 12.0667C37.7978 14.1778 36.7682 15.2333 34.7089 15.2333C34.1608 15.2333 33.646 15.1593 33.1645 15.0111C32.683 14.8704 32.283 14.663 31.9645 14.3889L32.5534 13.3C32.8052 13.5148 33.1126 13.6852 33.4756 13.8111C33.846 13.9444 34.2201 14.0111 34.5978 14.0111C35.2052 14.0111 35.6497 13.8667 35.9312 13.5778C36.2126 13.2963 36.3534 12.8593 36.3534 12.2667V11.8556C36.146 12.137 35.8793 12.3519 35.5534 12.5C35.2275 12.6481 34.8645 12.7222 34.4645 12.7222C33.946 12.7222 33.4719 12.6037 33.0423 12.3667C32.6126 12.1222 32.2719 11.7815 32.0201 11.3444C31.7682 10.9074 31.6423 10.4074 31.6423 9.84444C31.6423 9.28148 31.7682 8.78519 32.0201 8.35556C32.2719 7.91852 32.6126 7.58148 33.0423 7.34444C33.4719 7.1 33.946 6.97778 34.4645 6.97778C34.8867 6.97778 35.2645 7.05926 35.5978 7.22222C35.9386 7.38519 36.2163 7.62222 36.4312 7.93333V7.05556H37.7978V12.0667ZM34.7423 11.4778C35.2163 11.4778 35.6052 11.3259 35.9089 11.0222C36.2201 10.7185 36.3756 10.3259 36.3756 9.84444C36.3756 9.36296 36.2201 8.97407 35.9089 8.67778C35.6052 8.37407 35.2163 8.22222 34.7423 8.22222C34.2682 8.22222 33.8756 8.37407 33.5645 8.67778C33.2608 8.97407 33.1089 9.36296 33.1089 9.84444C33.1089 10.3259 33.2608 10.7185 33.5645 11.0222C33.8756 11.3259 34.2682 11.4778 34.7423 11.4778Z" fill="white"/>
</g>
<defs>
<filter id="filter0_ii_760_2484" x="-0.5" y="-0.5" width="44.9" height="19.9" filterUnits="userSpaceOnUse" color-interpolation-filters="sRGB">
<feFlood flood-opacity="0" result="BackgroundImageFix"/>
<feBlend mode="normal" in="SourceGraphic" in2="BackgroundImageFix" result="shape"/>
<feColorMatrix in="SourceAlpha" type="matrix" values="0 0 0 0 0 0 0 0 0 0 0 0 0 0 0 0 0 0 127 0" result="hardAlpha"/>
<feOffset dx="-0.5" dy="-0.5"/>
<feGaussianBlur stdDeviation="0.4"/>
<feComposite in2="hardAlpha" operator="arithmetic" k2="-1" k3="1"/>
<feColorMatrix type="matrix" values="0 0 0 0 1 0 0 0 0 1 0 0 0 0 1 0 0 0 0.4 0"/>
<feBlend mode="normal" in2="shape" result="effect1_innerShadow_760_2484"/>
<feColorMatrix in="SourceAlpha" type="matrix" values="0 0 0 0 0 0 0 0 0 0 0 0 0 0 0 0 0 0 127 0" result="hardAlpha"/>
<feOffset dx="0.5" dy="0.5"/>
<feGaussianBlur stdDeviation="0.2"/>
<feComposite in2="hardAlpha" operator="arithmetic" k2="-1" k3="1"/>
<feColorMatrix type="matrix" values="0 0 0 0 1 0 0 0 0 1 0 0 0 0 1 0 0 0 0.6 0"/>
<feBlend mode="normal" in2="effect1_innerShadow_760_2484" result="effect2_innerShadow_760_2484"/>
</filter>
<radialGradient id="paint0_radial_760_2484" cx="0" cy="0" r="1" gradientUnits="userSpaceOnUse" gradientTransform="translate(41.9048 21.2353) rotate(-111.886) scale(29.5092 86.8885)">
<stop stop-color="#8C00C4"/>
<stop offset="0.164954" stop-color="#9500D0"/>
<stop offset="0.632505" stop-color="#A502E6"/>
<stop offset="0.81133" stop-color="#A502E6"/>
<stop offset="1" stop-color="#8700BD"/>
</radialGradient>
</defs>
</svg>
