<svg width="17" height="16" viewBox="0 0 17 16" fill="none" xmlns="http://www.w3.org/2000/svg">
<path d="M12.0127 1.28071L14.8376 4.10569C15.0718 4.34002 15.0712 4.7201 14.8369 4.95435L7.80248 11.9888C7.70332 12.0879 7.57266 12.1494 7.43304 12.1621L4.32426 12.4453C3.95102 12.4792 3.63835 12.1667 3.67239 11.7934L3.9562 8.68531C3.96894 8.54563 4.02968 8.41438 4.12883 8.31518L11.1633 1.28071C11.3976 1.0464 11.7783 1.0464 12.0127 1.28071Z" stroke="black" stroke-width="1.2" stroke-linejoin="round"/>
<rect x="7.34366" y="12.3563" width="4.98583" height="0.6" rx="0.3" transform="rotate(-135 7.34366 12.3563)" stroke="black" stroke-width="0.6" stroke-linejoin="round"/>
<rect x="13.0805" y="6.71465" width="5.09414" height="0.6" rx="0.3" transform="rotate(-135 13.0805 6.71465)" stroke="black" stroke-width="0.6" stroke-linejoin="round"/>
</svg>
