<svg width="48" height="48" viewBox="0 0 48 48" fill="none" xmlns="http://www.w3.org/2000/svg">
<rect width="48" height="48" rx="4" fill="#249DFF"/>
<rect x="1" y="34" width="46" height="13" rx="3" fill="black" fill-opacity="0.3"/>
<path d="M3.95117 44L3.94141 43.3555L6.35352 40.8164C7.19336 39.9277 7.59375 39.4492 7.59375 38.7949C7.59375 38.0723 6.97852 37.5938 6.1875 37.5938C5.34766 37.5938 4.81055 38.1309 4.81055 38.9219H3.98047C3.9707 37.6719 4.9375 36.832 6.2168 36.832C7.49609 36.832 8.41406 37.6914 8.41406 38.7949C8.41406 39.5859 8.04297 40.2012 6.79297 41.4902L5.17188 43.1602V43.2188H8.54102V44H3.95117ZM9.82031 44L9.81055 43.3555L12.2227 40.8164C13.0625 39.9277 13.4629 39.4492 13.4629 38.7949C13.4629 38.0723 12.8477 37.5938 12.0566 37.5938C11.2168 37.5938 10.6797 38.1309 10.6797 38.9219H9.84961C9.83984 37.6719 10.8066 36.832 12.0859 36.832C13.3652 36.832 14.2832 37.6914 14.2832 38.7949C14.2832 39.5859 13.9121 40.2012 12.6621 41.4902L11.041 43.1602V43.2188H14.4102V44H9.82031ZM17.9941 44.0977C16.7148 44.0977 15.748 43.3066 15.6992 42.2227H16.5488C16.6172 42.8574 17.2324 43.3262 17.9941 43.3262C18.9121 43.3262 19.5762 42.6523 19.5762 41.7637C19.5762 40.8457 18.8828 40.1719 17.9355 40.1621C17.3398 40.1523 16.8809 40.3379 16.6172 40.7969H15.7676L16.2656 36.9297H20.0938V37.7109H16.998L16.7344 39.7812H16.8027C17.1152 39.5371 17.5938 39.3711 18.0918 39.3711C19.4395 39.3711 20.4355 40.3672 20.4355 41.7441C20.4355 43.1113 19.4004 44.0977 17.9941 44.0977ZM23.9707 44.0977C22.3984 44.0977 21.5 42.7793 21.5 40.4648C21.5 38.1699 22.418 36.832 23.9707 36.832C25.5234 36.832 26.4414 38.1699 26.4414 40.4648C26.4414 42.7793 25.5332 44.0977 23.9707 44.0977ZM23.9707 43.3164C24.9863 43.3164 25.582 42.291 25.582 40.4648C25.582 38.6387 24.9863 37.5938 23.9707 37.5938C22.9551 37.5938 22.3496 38.6387 22.3496 40.4648C22.3496 42.291 22.9453 43.3164 23.9707 43.3164Z" fill="white"/>
<path d="M27.623 44V36.9297H28.4629V41.041H28.5605L30.8555 38.6973H31.8906L29.6543 40.9629L32.0566 44H30.9922L29.0293 41.5L28.4629 42.0176V44H27.623ZM34.7324 44.1074C33.2285 44.1074 32.3105 42.9648 32.3105 41.373C32.3105 39.7617 33.2676 38.6289 34.7129 38.6289C35.8457 38.6289 36.6855 39.293 36.8223 40.2988H35.9824C35.8652 39.8105 35.4355 39.3711 34.7324 39.3711C33.7852 39.3711 33.1504 40.1523 33.1504 41.3438C33.1504 42.5742 33.7656 43.3555 34.7324 43.3555C35.3574 43.3555 35.8359 43.0234 35.9824 42.4375H36.8223C36.6855 43.3848 35.9141 44.1074 34.7324 44.1074ZM37.6035 42.4961C37.6035 41.2754 38.6777 41.002 39.5957 40.9336C39.9326 40.9092 40.792 40.8652 41.0312 40.8555V40.4258C41.0312 39.752 40.6309 39.3613 39.8301 39.3613C39.1562 39.3613 38.7559 39.6738 38.6387 40.0742H37.7598C37.8672 39.2246 38.6973 38.6289 39.8691 38.6289C40.5625 38.6289 41.8613 38.834 41.8613 40.5039V44H41.0312V43.2773H40.9922C40.8164 43.6387 40.3281 44.127 39.4102 44.127C38.4043 44.127 37.6035 43.5312 37.6035 42.4961ZM38.4434 42.5352C38.4434 43.0918 38.9121 43.375 39.5566 43.375C40.5039 43.375 41.0312 42.7402 41.0312 42.0762V41.5391L39.6934 41.6367C38.9316 41.6855 38.4434 41.959 38.4434 42.5352ZM44.0488 36.9297V44H43.209V36.9297H44.0488Z" fill="white" fill-opacity="0.7"/>
<rect x="1" y="20" width="46" height="13" rx="3" fill="black" fill-opacity="0.3"/>
<path d="M8.4043 30.0977C6.91992 30.0977 5.88477 29.2773 5.89453 28.125C5.88477 27.207 6.51953 26.4551 7.33008 26.3281V26.2891C6.62695 26.123 6.16797 25.4785 6.16797 24.707C6.16797 23.623 7.11523 22.832 8.4043 22.832C9.69336 22.832 10.6406 23.623 10.6504 24.707C10.6406 25.4785 10.1719 26.123 9.47852 26.2891V26.3281C10.2793 26.4551 10.9141 27.207 10.9238 28.125C10.9141 29.2773 9.87891 30.0977 8.4043 30.0977ZM8.4043 29.3262C9.41992 29.3262 10.0449 28.8184 10.0449 28.0762C10.0449 27.2949 9.35156 26.7188 8.4043 26.7188C7.45703 26.7188 6.75391 27.2949 6.77344 28.0762C6.75391 28.8184 7.38867 29.3262 8.4043 29.3262ZM8.4043 25.9766C9.20508 25.9766 9.79102 25.4883 9.79102 24.7754C9.79102 24.0723 9.23438 23.5938 8.4043 23.5938C7.56445 23.5938 7.01758 24.0723 7.01758 24.7754C7.01758 25.4883 7.59375 25.9766 8.4043 25.9766ZM12.1055 30L12.0957 29.3555L14.5078 26.8164C15.3477 25.9277 15.748 25.4492 15.748 24.7949C15.748 24.0723 15.1328 23.5938 14.3418 23.5938C13.502 23.5938 12.9648 24.1309 12.9648 24.9219H12.1348C12.125 23.6719 13.0918 22.832 14.3711 22.832C15.6504 22.832 16.5684 23.6914 16.5684 24.7949C16.5684 25.5859 16.1973 26.2012 14.9473 27.4902L13.3262 29.1602V29.2188H16.6953V30H12.1055ZM18.5801 30.0586C18.2383 30.0586 17.9453 29.7754 17.9551 29.4238C17.9453 29.082 18.2383 28.7988 18.5801 28.7988C18.9219 28.7988 19.2051 29.082 19.2051 29.4238C19.2051 29.7754 18.9219 30.0586 18.5801 30.0586ZM20.5137 30L20.5039 29.3555L22.916 26.8164C23.7559 25.9277 24.1562 25.4492 24.1562 24.7949C24.1562 24.0723 23.541 23.5938 22.75 23.5938C21.9102 23.5938 21.373 24.1309 21.373 24.9219H20.543C20.5332 23.6719 21.5 22.832 22.7793 22.832C24.0586 22.832 24.9766 23.6914 24.9766 24.7949C24.9766 25.5859 24.6055 26.2012 23.3555 27.4902L21.7344 29.1602V29.2188H25.1035V30H20.5137ZM28.8242 30.0977C27.418 30.0977 26.4121 29.3457 26.3633 28.2227H27.252C27.3008 28.8965 27.9746 29.3164 28.8145 29.3164C29.7422 29.3164 30.4258 28.8086 30.4258 28.0762C30.4258 27.3047 29.8105 26.7578 28.707 26.7578H28.1309V25.9863H28.707C29.5664 25.9863 30.1621 25.5078 30.1621 24.7754C30.1621 24.0723 29.6445 23.5938 28.8438 23.5938C28.0918 23.5938 27.3984 24.0137 27.3594 24.707H26.5098C26.5586 23.584 27.5938 22.832 28.8535 22.832C30.2012 22.832 31.0215 23.7109 31.0117 24.7266C31.0215 25.5273 30.5527 26.123 29.8105 26.3281V26.377C30.7285 26.5234 31.2949 27.1777 31.2852 28.0762C31.2949 29.2383 30.2305 30.0977 28.8242 30.0977Z" fill="white"/>
<path d="M32.5645 30V22.9297H33.4043V27.041H33.502L35.7969 24.6973H36.832L34.5957 26.9629L36.998 30H35.9336L33.9707 27.5L33.4043 28.0176V30H32.5645ZM39.6543 32.0996C38.375 32.0996 37.5059 31.543 37.4082 30.5566H38.2871C38.4043 31.0938 38.9023 31.3672 39.6543 31.3672C40.5625 31.3672 41.1191 30.9766 41.1191 30.0977V29.0234H41.0508C40.875 29.3164 40.5332 29.9219 39.5078 29.9219C38.2188 29.9219 37.252 28.9453 37.252 27.2754C37.252 25.6445 38.1895 24.6289 39.5176 24.6289C40.543 24.6289 40.875 25.2539 41.0703 25.5371H41.1387V24.6973H41.959V30.1465C41.959 31.5137 40.9434 32.0996 39.6543 32.0996ZM39.625 29.1699C40.5918 29.1699 41.1387 28.4766 41.1387 27.3047C41.1387 26.1719 40.6113 25.3809 39.625 25.3809C38.6094 25.3809 38.1016 26.2402 38.1016 27.3047C38.1016 28.4082 38.6191 29.1699 39.625 29.1699Z" fill="white" fill-opacity="0.7"/>
<path d="M25.0688 5.22266V13H24.0913V6.23242H24.0483L22.1577 7.48926V6.51172L24.0913 5.22266H25.0688Z" fill="black" fill-opacity="0.5"/>
</svg>
