<svg width="20" height="22" viewBox="0 0 20 22" fill="none" xmlns="http://www.w3.org/2000/svg">
<circle cx="10.0004" cy="18.3589" r="2" fill="white" stroke="black" stroke-width="2"/>
<mask id="path-2-inside-1_906_2672" fill="white">
<path d="M10.0013 0.640137C14.3478 0.640137 17.8715 4.16381 17.8715 8.51025V13.0347C18.7159 13.2688 19.3362 14.0415 19.3363 14.9604V16.1802C19.3363 17.2847 18.4409 18.1802 17.3363 18.1802H2.66443C1.55986 18.1802 0.664429 17.2847 0.664429 16.1802V14.9604C0.664542 14.0407 1.28573 13.2671 2.13123 13.0337V8.51025C2.13123 4.16388 5.65499 0.64024 10.0013 0.640137Z"/>
</mask>
<path d="M10.0013 0.640137C14.3478 0.640137 17.8715 4.16381 17.8715 8.51025V13.0347C18.7159 13.2688 19.3362 14.0415 19.3363 14.9604V16.1802C19.3363 17.2847 18.4409 18.1802 17.3363 18.1802H2.66443C1.55986 18.1802 0.664429 17.2847 0.664429 16.1802V14.9604C0.664542 14.0407 1.28573 13.2671 2.13123 13.0337V8.51025C2.13123 4.16388 5.65499 0.64024 10.0013 0.640137Z" fill="white"/>
<path d="M10.0013 0.640137V-1.35986H10.0013L10.0013 0.640137ZM17.8715 13.0347H15.8715C15.8715 13.9334 16.471 14.7218 17.3371 14.962L17.8715 13.0347ZM19.3363 14.9604H21.3363V14.9602L19.3363 14.9604ZM17.3363 18.1802V20.1802V18.1802ZM0.664429 14.9604L-1.33557 14.9602V14.9604H0.664429ZM2.13123 13.0337L2.66349 14.9616C3.53063 14.7222 4.13123 13.9333 4.13123 13.0337H2.13123ZM10.0013 0.640137V2.64014C13.2432 2.64014 15.8715 5.26838 15.8715 8.51025H17.8715H19.8715C19.8715 3.05924 15.4524 -1.35986 10.0013 -1.35986V0.640137ZM17.8715 8.51025H15.8715V13.0347H17.8715H19.8715V8.51025H17.8715ZM17.8715 13.0347L17.3371 14.962C17.3357 14.9616 17.3351 14.9611 17.3356 14.9614C17.3364 14.962 17.3373 14.9628 17.3379 14.9636C17.3384 14.9642 17.3377 14.9636 17.337 14.9614C17.3366 14.9603 17.3364 14.9593 17.3363 14.9587C17.3361 14.958 17.3363 14.9585 17.3363 14.9607L19.3363 14.9604L21.3363 14.9602C21.3361 13.1171 20.0915 11.5747 18.4058 11.1074L17.8715 13.0347ZM19.3363 14.9604H17.3363V16.1802H19.3363H21.3363V14.9604H19.3363ZM19.3363 16.1802H17.3363V18.1802V20.1802C19.5454 20.1802 21.3363 18.3893 21.3363 16.1802H19.3363ZM17.3363 18.1802V16.1802H2.66443V18.1802V20.1802H17.3363V18.1802ZM2.66443 18.1802V16.1802H0.664429H-1.33557C-1.33557 18.3893 0.45529 20.1802 2.66443 20.1802V18.1802ZM0.664429 16.1802H2.66443V14.9604H0.664429H-1.33557V16.1802H0.664429ZM0.664429 14.9604L2.66443 14.9607C2.66443 14.9585 2.6646 14.9579 2.66449 14.9586C2.66439 14.9592 2.66417 14.9601 2.66381 14.9611C2.66309 14.9632 2.6625 14.9638 2.663 14.9631C2.66365 14.9623 2.6646 14.9614 2.66532 14.9609C2.66575 14.9606 2.6651 14.9611 2.66349 14.9616L2.13123 13.0337L1.59896 11.1058C-0.0894704 11.572 -1.33535 13.1162 -1.33557 14.9602L0.664429 14.9604ZM2.13123 13.0337H4.13123V8.51025H2.13123H0.131226V13.0337H2.13123ZM2.13123 8.51025H4.13123C4.13123 5.26849 6.75952 2.64021 10.0014 2.64014L10.0013 0.640137L10.0013 -1.35986C4.55046 -1.35973 0.131226 3.05926 0.131226 8.51025H2.13123Z" fill="black" mask="url(#path-2-inside-1_906_2672)"/>
</svg>
