<svg width="37" height="36" viewBox="0 0 37 36" fill="none" xmlns="http://www.w3.org/2000/svg">
<path d="M16.4117 19.3389C16.8977 19.6714 17.2767 20.1575 17.4443 20.7312C17.612 21.3046 17.5575 21.913 17.2878 22.4318C17.0181 22.9507 16.5515 23.345 15.9858 23.5371C15.42 23.7296 14.8043 23.6987 14.253 23.492C14.1336 23.4471 14.0148 23.4009 13.8968 23.3534C13.3982 23.1529 12.9117 22.9293 12.4372 22.6826C10.8886 21.8777 9.49471 20.775 8.25558 19.3747C8.16565 19.273 8.07653 19.1698 7.98822 19.065C7.79284 18.831 7.62842 18.5624 7.55808 18.2664C7.48768 17.9705 7.51616 17.6735 7.64745 17.4209C7.77873 17.1683 8.00552 16.9743 8.28811 16.8619C8.57075 16.7495 8.88509 16.7297 9.18891 16.7551C9.3254 16.7672 9.46107 16.7808 9.59593 16.796C11.454 17.0056 13.1574 17.5128 14.706 18.3178C15.1805 18.5644 15.6431 18.8342 16.0936 19.127C16.2003 19.1963 16.3064 19.267 16.4117 19.3389Z" fill="black"/>
<path d="M22.0264 17.6285C21.8827 17.9402 21.6517 18.2157 21.3463 18.385C21.0412 18.5543 20.691 18.6046 20.3632 18.5225C20.0355 18.4403 19.7504 18.2307 19.5613 17.9374C19.3719 17.6441 19.2982 17.2922 19.3186 16.9496C19.3255 16.8369 19.3344 16.7247 19.3453 16.6131C19.3889 16.1663 19.4647 15.7277 19.5727 15.2971C19.8955 14.0094 20.5168 12.7966 20.996 11.5481C21.0776 11.3354 21.1642 11.124 21.2508 10.9125C21.2933 10.8087 21.3358 10.705 21.3777 10.6011C21.4603 10.3973 21.6334 10.2254 21.8418 10.1189C22.0511 10.0127 22.2787 9.98054 22.4915 10.0339C22.7044 10.0873 22.8899 10.2229 23.0244 10.4154C23.1579 10.6076 23.2293 10.8408 23.206 11.0595C23.1939 11.1708 23.1824 11.2824 23.171 11.3939C23.1476 11.6212 23.1242 11.8485 23.0958 12.0746C22.9293 13.4015 22.9048 14.7639 22.582 16.0516C22.474 16.4822 22.3339 16.9047 22.1616 17.3192C22.1186 17.4228 22.0735 17.5259 22.0264 17.6285Z" fill="black"/>
<path d="M26.1702 20.2388C26.54 20.7325 26.7044 21.3522 26.6229 21.9651C26.5415 22.5779 26.2216 23.1331 25.7327 23.5091C25.2438 23.885 24.6252 24.0517 24.012 23.9731C23.3987 23.8945 22.842 23.5764 22.4597 23.0923C22.3962 23.0118 22.3327 22.9312 22.2694 22.8506C22.0161 22.5279 21.7644 22.2041 21.5143 21.8789C20.7665 20.9066 20.2944 19.7222 19.7038 18.6289C19.6032 18.4427 19.5221 18.2414 19.4409 18.0402C19.4011 17.9415 19.3612 17.8428 19.319 17.7459C19.1859 17.4377 19.184 17.0455 19.2762 16.6844C19.3705 16.3216 19.5512 16.0195 19.8161 15.8158C20.0811 15.612 20.4194 15.5149 20.7943 15.5169C21.1669 15.5205 21.5456 15.623 21.8092 15.8307C21.892 15.8964 21.9772 15.9603 22.0623 16.0241C22.236 16.1543 22.4097 16.2843 22.5639 16.4294C23.4689 17.2808 24.4924 18.0412 25.2402 19.0135C25.4902 19.3387 25.7386 19.6651 25.9854 19.9928C26.0471 20.0747 26.1087 20.1567 26.1702 20.2388Z" fill="black"/>
<path d="M26.1731 19.0217C26.638 19.2659 27.0839 19.5634 27.4127 19.9582C27.7415 20.353 27.9262 20.8129 27.9262 21.2861C27.9262 21.7593 27.7415 22.2192 27.4127 22.614C27.084 23.0088 26.6381 23.3064 26.1731 23.5506C25.9898 23.6455 25.8064 23.7309 25.6231 23.8068C24.8897 24.1105 24.1563 24.2623 23.4229 24.2623C21.7705 24.2623 20.1182 23.5551 18.4658 23.5551C17.5512 23.5552 16.6366 23.5747 15.722 23.6139C15.5386 23.6217 15.3553 23.6304 15.1719 23.6398C14.5478 23.672 13.9491 23.4276 13.5078 22.9833C13.0664 22.5389 12.8184 21.927 12.8184 21.2864C12.8184 20.6458 13.0664 20.0339 13.5077 19.5894C13.9491 19.1452 14.5477 18.9007 15.1718 18.9329C15.3552 18.9423 15.5385 18.9509 15.7219 18.9588C16.6365 18.9979 17.5511 19.0174 18.4658 19.0174C20.1181 19.0174 21.7704 18.3101 23.4227 18.3101C24.1562 18.3101 24.8896 18.4619 25.623 18.7655C25.8063 18.8414 25.9897 18.9268 26.1731 19.0217Z" fill="black"/>
<path d="M7.36086 17.8519C7.48852 17.5974 7.63707 17.3512 7.83443 17.1622C8.03203 16.9732 8.26429 16.8568 8.51178 16.836C8.75928 16.8152 9.00773 16.8911 9.23415 17.0443C9.46032 17.1976 9.64796 17.4156 9.81639 17.6452C9.94805 17.8272 10.0685 18.0103 10.1777 18.1942C10.6307 18.9574 10.8908 19.7367 10.9578 20.5324C11.0863 22.0593 10.4339 23.6521 10.4302 25.1902C10.4274 26.3285 10.4907 27.4612 10.5354 28.5955C10.543 28.788 10.5501 28.9806 10.5561 29.1732C10.5639 29.4256 10.4673 29.6765 10.2953 29.8699C10.1228 30.0633 9.88894 30.1836 9.63751 30.2047C9.38607 30.2259 9.13541 30.1465 8.93299 29.9846C8.73101 29.8227 8.59382 29.5915 8.5593 29.3414C8.53309 29.1504 8.50784 28.9594 8.48312 28.7683C8.33749 27.6425 8.21055 26.5152 8.01745 25.3934C7.75651 23.8775 6.84695 22.4163 6.71837 20.8893C6.65138 20.0937 6.7774 19.2818 7.09645 18.4537C7.17337 18.2541 7.2615 18.0535 7.36086 17.8519Z" fill="black"/>
<path d="M10.1458 29.2069C10.2077 29.2428 10.2656 29.3159 10.3076 29.3907C10.3496 29.4667 10.3721 29.5383 10.3695 29.6091C10.367 29.6799 10.3394 29.7497 10.2921 29.8225C10.2449 29.8942 10.1819 29.9629 10.1176 29.9943C10.0553 30.0228 9.99342 30.0587 9.93058 30.0938C9.81065 30.1611 9.68959 30.2258 9.57413 30.2333C9.3493 30.2479 9.13135 30.257 8.93058 30.2463C8.4302 30.2177 8.02306 30.0607 7.55017 30.1842C7.54774 30.1849 7.54531 30.1855 7.54288 30.1861L7.47457 30.2097C7.1663 30.2546 7.01302 30.2048 6.89402 30.2133C6.8535 30.214 6.81536 30.2169 6.7758 30.2227C6.68412 30.2404 6.58462 30.2191 6.50076 30.1687C6.41682 30.118 6.35539 30.0424 6.32842 29.9531C6.30144 29.8639 6.31067 29.7668 6.35248 29.6781C6.39439 29.5897 6.46545 29.5169 6.55163 29.4809C6.62451 29.4526 6.70046 29.4304 6.77598 29.4139C7.00484 29.3659 7.20945 29.3645 7.24459 29.3227L7.17628 29.3463C7.17916 29.3446 7.18203 29.3429 7.1849 29.3413C7.71219 29.0141 8.42354 28.7651 9.00726 28.8069C9.24144 28.8196 9.45816 28.8658 9.66779 28.911C9.77548 28.9343 9.87768 29.0134 9.98154 29.092C10.0359 29.1332 10.09 29.1741 10.1458 29.2069Z" fill="black"/>
<circle cx="5" cy="5" r="5" transform="matrix(-1 0 0 1 27.8212 4.54443)" fill="#FF8000"/>
<circle cx="3" cy="3" r="2.5" transform="matrix(-1 0 0 1 25.8212 6.54443)" fill="#FF8000" stroke="white"/>
<circle cx="3" cy="3" r="3" transform="matrix(0.920494 -0.390756 -0.390756 -0.920494 28.1658 25.2202)" fill="black"/>
</svg>
