<svg width="37" height="36" viewBox="0 0 37 36" fill="none" xmlns="http://www.w3.org/2000/svg">
<path d="M24.8136 11.7967C25.3846 11.5791 26.0101 11.4648 26.6192 11.5597C27.228 11.6543 27.7663 11.9453 28.1376 12.3954C28.509 12.8455 28.6925 13.4292 28.6698 14.0449C28.6474 14.6609 28.4164 15.2533 28.0943 15.7726C28.0183 15.8943 27.9393 16.0125 27.8574 16.1272C27.53 16.5859 27.1563 16.9885 26.7363 17.3351C25.2663 18.548 23.5474 19.4591 21.5794 20.0685C21.4388 20.112 21.297 20.154 21.1539 20.1945C20.8005 20.2924 20.4262 20.3435 20.0675 20.2808C19.7088 20.2182 19.3962 20.0484 19.1802 19.7866C18.9641 19.5248 18.8568 19.1857 18.8634 18.8216C18.87 18.4575 18.9912 18.0997 19.1545 17.7714C19.2214 17.6385 19.2895 17.5072 19.3589 17.3775C20.3309 15.561 21.5518 14.0463 23.0218 12.8334C23.4417 12.4868 23.908 12.1964 24.4205 11.962C24.5487 11.9034 24.6797 11.8483 24.8136 11.7967Z" fill="black"/>
<path d="M15.7238 17.0758C15.8986 16.7805 16.1565 16.53 16.4776 16.3928C16.7984 16.2555 17.1519 16.2412 17.4696 16.3564C17.7872 16.4716 18.0494 16.7092 18.2076 17.0202C18.366 17.3314 18.4034 17.689 18.3482 18.0277C18.3298 18.1391 18.3095 18.2498 18.2873 18.3597C18.1982 18.7997 18.0781 19.2283 17.9267 19.6456C17.4741 20.8936 16.7322 22.0366 16.1281 23.2297C16.0251 23.4329 15.9174 23.6344 15.8096 23.836C15.7567 23.9348 15.7039 24.0337 15.6516 24.1328C15.5486 24.3271 15.3589 24.4804 15.1408 24.5651C14.9216 24.6494 14.692 24.6581 14.4857 24.5833C14.2794 24.5085 14.1087 24.3545 13.9946 24.1494C13.8814 23.9445 13.8341 23.7052 13.8797 23.4901C13.9031 23.3806 13.9259 23.2708 13.9487 23.161C13.9952 22.9373 14.0416 22.7135 14.0929 22.4916C14.3941 21.1886 14.5575 19.8357 15.0101 18.5878C15.1615 18.1705 15.344 17.7644 15.5577 17.3697C15.6111 17.2711 15.6665 17.1731 15.7238 17.0758Z" fill="black"/>
<path d="M14.3492 8.89424C14.34 8.27626 14.5731 7.67788 15.001 7.23062C15.429 6.78337 16.016 6.5239 16.6338 6.50928C17.2516 6.49466 17.8503 6.72607 18.2989 7.15258C18.7476 7.57909 19.0087 8.16578 19.0287 8.7835C19.0335 8.93247 19.0382 9.08145 19.0428 9.23043C19.061 9.82634 19.0772 10.4223 19.0913 11.0183C19.1335 12.8007 18.828 14.5913 18.6719 16.3784C18.6453 16.6829 18.5941 16.9879 18.543 17.293C18.5179 17.4427 18.4929 17.5923 18.4709 17.742C18.418 18.0944 18.207 18.4363 17.9194 18.6915C17.6298 18.9467 17.2872 19.0943 16.9319 19.1027C16.5765 19.1111 16.2274 18.9799 15.926 18.7386C15.6266 18.4974 15.3997 18.1659 15.3302 17.8163C15.3011 17.6679 15.269 17.5196 15.2369 17.3712C15.1714 17.0689 15.1058 16.7666 15.0649 16.4638C14.8244 14.6861 14.4346 12.9119 14.3924 11.1295C14.3783 10.5335 14.3663 9.93745 14.3563 9.34133C14.3538 9.1923 14.3514 9.04327 14.3492 8.89424Z" fill="black"/>
<path d="M15.3725 10.3629C15.0778 9.92738 14.828 9.4509 14.7305 8.94376C14.633 8.43657 14.6956 7.94073 14.9276 7.52387C15.1596 7.10701 15.548 6.79247 16.0304 6.608C16.5127 6.42357 17.0494 6.38479 17.5748 6.40561C17.7873 6.41527 17.9952 6.43321 18.1984 6.45945C19.0114 6.56441 19.7506 6.80203 20.416 7.17231C21.915 8.00653 23.07 9.45876 24.569 10.293C25.3988 10.7548 26.238 11.1994 27.0868 11.627C27.2569 11.7127 27.4275 11.7977 27.5984 11.8821C28.1589 12.1585 28.563 12.6633 28.7327 13.266C28.9023 13.8689 28.8216 14.5238 28.5104 15.083C28.1992 15.6422 27.6852 16.0559 27.0834 16.2295C26.4818 16.403 25.8398 16.3256 25.3095 15.995C25.1477 15.8942 24.9856 15.7941 24.8231 15.6946C24.0123 15.1987 23.1921 14.7198 22.3624 14.258C20.8634 13.4238 19.0205 13.2076 17.5215 12.3734C16.8561 12.0031 16.2646 11.5001 15.7469 10.8645C15.6175 10.7056 15.4927 10.5384 15.3725 10.3629Z" fill="black"/>
<path d="M18.9655 18.1791C19.0609 17.9104 19.1823 17.6474 19.3625 17.4376C19.5428 17.2278 19.7681 17.0882 20.0174 17.0445C20.2668 17.0007 20.5261 17.0554 20.7671 17.1913C21.0079 17.3273 21.2116 17.5333 21.3927 17.7535C21.5428 17.9385 21.6818 18.1255 21.8098 18.3143C22.3405 19.0978 22.6803 19.9147 22.8294 20.7651C23.1156 22.3972 22.6298 24.1646 22.7851 25.8196C22.9001 27.0444 23.0804 28.2577 23.2423 29.4742C23.2698 29.6807 23.2967 29.8873 23.3227 30.094C23.3542 30.3455 23.2814 30.6048 23.1274 30.8135C22.9731 31.0223 22.7502 31.1635 22.5007 31.2073C22.2512 31.251 21.9935 31.1941 21.7773 31.0503C21.5616 30.9063 21.4049 30.6873 21.3489 30.4401C21.303 30.2368 21.2581 30.0334 21.2137 29.8299C20.952 28.6308 20.7088 27.4286 20.4002 26.2377C19.9833 24.6286 18.9251 23.1319 18.639 21.4998C18.4899 20.6495 18.5316 19.7656 18.7641 18.8484C18.8201 18.6272 18.8873 18.4041 18.9655 18.1791Z" fill="black"/>
<path d="M22.8972 30.2118C22.959 30.2477 23.017 30.3208 23.059 30.3956C23.1009 30.4716 23.1234 30.5432 23.1209 30.614C23.1183 30.6848 23.0908 30.7546 23.0435 30.8274C22.9963 30.899 22.9332 30.9678 22.8689 30.9992C22.8066 31.0277 22.7448 31.0636 22.6819 31.0987C22.562 31.166 22.4409 31.2307 22.3255 31.2382C22.1006 31.2528 21.8827 31.2619 21.6819 31.2512C21.1815 31.2226 20.7744 31.0656 20.3015 31.1891C20.2991 31.1897 20.2967 31.1904 20.2942 31.191L20.2259 31.2146C19.9176 31.2595 19.7644 31.2097 19.6454 31.2182C19.6048 31.2189 19.5667 31.2218 19.5271 31.2275C19.4355 31.2453 19.336 31.224 19.2521 31.1736C19.1682 31.1229 19.1067 31.0472 19.0798 30.958C19.0528 30.8687 19.062 30.7717 19.1038 30.683C19.1457 30.5946 19.2168 30.5218 19.303 30.4858C19.3758 30.4575 19.4518 30.4352 19.5273 30.4188C19.7562 30.3708 19.9608 30.3694 19.9959 30.3276L19.9276 30.3512C19.9305 30.3495 19.9334 30.3478 19.9362 30.3462C20.4635 30.019 21.1749 29.77 21.7586 29.8118C21.9928 29.8245 22.2095 29.8707 22.4191 29.9159C22.5268 29.9392 22.629 30.0183 22.7329 30.0969C22.7872 30.138 22.8413 30.179 22.8972 30.2118Z" fill="black"/>
<circle cx="5" cy="5" r="5" transform="matrix(-1 0 0 1 19.0078 20.6646)" fill="#FF8000"/>
<circle cx="3" cy="3" r="2.5" transform="matrix(-1 0 0 1 17.0078 22.6646)" fill="#FF8000" stroke="white"/>
<circle cx="3" cy="3" r="3" transform="matrix(-1 0 0 1 15.901 4)" fill="black"/>
</svg>
