<svg width="14" height="14" viewBox="0 0 14 14" fill="none" xmlns="http://www.w3.org/2000/svg">
<path d="M6.37598 8.30566C6.37891 7.93652 6.41553 7.6377 6.48584 7.40918C6.55908 7.17773 6.66016 6.99316 6.78906 6.85547C6.91797 6.71484 7.09082 6.57715 7.30762 6.44238C7.74121 6.17871 7.95801 5.8418 7.95801 5.43164C7.95801 5.25293 7.91553 5.09619 7.83057 4.96143C7.74854 4.82373 7.63428 4.71826 7.48779 4.64502C7.34424 4.57178 7.18457 4.53516 7.00879 4.53516C6.84473 4.53516 6.69092 4.57031 6.54736 4.64062C6.40381 4.70801 6.28516 4.81201 6.19141 4.95264C6.09766 5.09326 6.04492 5.26758 6.0332 5.47559H5.08398C5.0957 5.1123 5.18652 4.80029 5.35645 4.53955C5.5293 4.27881 5.75928 4.08105 6.04639 3.94629C6.3335 3.81152 6.6543 3.74414 7.00879 3.74414C7.38379 3.74414 7.71484 3.81592 8.00195 3.95947C8.29199 4.1001 8.51611 4.29785 8.67432 4.55273C8.83545 4.80762 8.91602 5.10059 8.91602 5.43164C8.91602 5.77148 8.83984 6.06592 8.6875 6.31494C8.53516 6.56104 8.3125 6.77344 8.01953 6.95215C7.83789 7.06348 7.69434 7.17773 7.58887 7.29492C7.4834 7.40918 7.4043 7.54688 7.35156 7.70801C7.30176 7.86914 7.27539 8.06836 7.27246 8.30566V8.3584H6.37598V8.30566ZM6.23535 9.6416C6.23535 9.52734 6.26318 9.42188 6.31885 9.3252C6.37451 9.22852 6.44922 9.15234 6.54297 9.09668C6.63965 9.03809 6.74512 9.00879 6.85938 9.00879C6.9707 9.00879 7.07324 9.03662 7.16699 9.09229C7.26367 9.14795 7.33984 9.22412 7.39551 9.3208C7.4541 9.41748 7.4834 9.52148 7.4834 9.63281C7.4834 9.74414 7.4541 9.84814 7.39551 9.94482C7.33984 10.0386 7.26367 10.1147 7.16699 10.1733C7.07324 10.229 6.9707 10.2568 6.85938 10.2568C6.74805 10.2568 6.64404 10.229 6.54736 10.1733C6.45361 10.1177 6.37744 10.043 6.31885 9.94922C6.26318 9.85547 6.23535 9.75293 6.23535 9.6416Z" fill="#777777"/>
<circle cx="7" cy="7" r="6.5" stroke="#777777"/>
</svg>
