<svg width="20" height="22" viewBox="0 0 20 22" fill="none" xmlns="http://www.w3.org/2000/svg">
<g id="&#234;&#184;&#176;&#235;&#161;&#157;">
<path id="Rectangle 154837" d="M1 8.33349C1 7.89765 1.21077 7.48872 1.56575 7.23586L9.21811 1.78475C9.68608 1.4514 10.3139 1.4514 10.7819 1.78475L18.4342 7.23586L19.0144 6.42138L18.4342 7.23586C18.7892 7.48872 19 7.89765 19 8.33349V19.6524C19 20.3966 18.3966 21 17.6524 21H2.34764C1.60336 21 1 20.3966 1 19.6524V8.33349Z" fill="white" stroke="#333333" stroke-width="2" stroke-linejoin="round"/>
<g id="Group 815966">
<rect id="Rectangle 154839" x="11" y="8" width="10" height="2" rx="1" transform="rotate(90 11 8)" fill="#333333"/>
<rect id="Rectangle 154840" x="15" y="14" width="10" height="2" rx="1" transform="rotate(-180 15 14)" fill="#333333"/>
</g>
</g>
</svg>
