<svg width="6" height="14" viewBox="0 0 6 14" fill="none" xmlns="http://www.w3.org/2000/svg">
<g id="Group 815972">
<path id="Union" fill-rule="evenodd" clip-rule="evenodd" d="M1.95254 0.0169678C1.75971 0.0169678 1.60339 0.173288 1.60339 0.366119V1.04035C1.60339 1.11792 1.66627 1.18081 1.74384 1.18081C1.82429 1.18081 1.8883 1.24824 1.88411 1.32858L1.70602 4.74189C1.69778 4.89983 1.60565 5.03954 1.47329 5.12609C0.829482 5.54709 0.370073 6.22668 0.242549 7.01735C0.202977 7.26271 0.408255 7.46554 0.656783 7.46554H5.34321C5.59174 7.46554 5.79702 7.26271 5.75744 7.01735C5.62992 6.22668 5.17051 5.54709 4.5267 5.12609C4.39434 5.03954 4.30221 4.89983 4.29397 4.74189L4.11588 1.32858C4.11169 1.24824 4.1757 1.18081 4.25615 1.18081C4.33372 1.18081 4.3966 1.11792 4.3966 1.04035V0.366119C4.3966 0.173288 4.24028 0.0169678 4.04745 0.0169678H1.95254Z" fill="#333333" fill-opacity="0.3"/>
<path id="Rectangle 154854" d="M0.206787 11.1898H5.79321V13.533C5.79321 13.7816 5.59174 13.983 5.34321 13.983H0.656787C0.408259 13.983 0.206787 13.7816 0.206787 13.533V11.1898Z" fill="#333333" fill-opacity="0.3"/>
<rect id="Rectangle 154855" x="0.206787" y="7.93109" width="5.58643" height="2.79321" rx="0.45" fill="#333333" fill-opacity="0.3"/>
</g>
</svg>
