<svg width="12" height="16" viewBox="0 0 12 16" fill="none" xmlns="http://www.w3.org/2000/svg">
<rect width="12" height="16" fill="#F5F5F5"/>
<g id="Main_&#236;&#139;&#157;&#235;&#139;&#168;" clip-path="url(#clip0_0_1)">
<rect width="375" height="812" transform="translate(-24 -294)" fill="white"/>
<rect id="Rectangle 3" x="-24" y="-180" width="375" height="698" fill="#F5F5F5"/>
<g id="Frame 1216117369">
<rect width="375" height="256" transform="translate(-24 -172)" fill="white"/>
<g id="Frame 1216117368">
<g id="Frame 1216117358">
<g id="Frame 1216117353">
<g id="ico_cal">
<g id="Group 1216117410">
<path id="Ellipse 1895" d="M11.9883 9.59376C11.9883 12.901 9.30724 15.582 6 15.582C2.69276 15.582 0.0117188 12.901 0.0117188 9.59376C0.0117188 8.51785 0.295464 7.50821 0.792205 6.63559C2.0125 6.169 4.68659 8.56386 6.79059 8.58818C8.761 8.61096 10.1687 6.23493 11.2078 6.63559C11.7045 7.50821 11.9883 8.51785 11.9883 9.59376Z" fill="#FF5656"/>
<path id="Vector 481" d="M3.00883 3.72331C1.30952 5.02354 0.209071 6.67724 0.0396633 9.0068L11.9583 9.00679C11.7426 5.78997 9.60601 4.55568 8.65085 4.35773C9.44539 6.40324 8.25285 7.41754 7.04004 7.09749C6.01664 6.82743 5.71446 5.79041 6.24163 5.13986C6.73168 4.53512 6.86762 4.03847 6.90853 3.14831C6.95456 2.1466 6.6501 0.973385 6.2113 0.417969C6.0156 0.978947 5.52845 1.94908 4.82695 2.47132C3.97688 3.10416 3.19269 3.58263 3.00883 3.72331Z" fill="#FF5656"/>
</g>
</g>
</g>
</g>
</g>
</g>
</g>
<defs>
<clipPath id="clip0_0_1">
<rect width="375" height="812" fill="white" transform="translate(-24 -294)"/>
</clipPath>
</defs>
</svg>
