<svg width="16" height="16" viewBox="0 0 16 16" fill="none" xmlns="http://www.w3.org/2000/svg">
<path d="M8.00061 4.15731V4.65731C8.1332 4.65731 8.26035 4.60465 8.35412 4.51091L8.00061 4.15731ZM12.2867 4.15731L12.6403 3.80376L12.6403 3.80374L12.2867 4.15731ZM12.2867 8.44442L12.6403 8.79802L12.6403 8.79798L12.2867 8.44442ZM7.99964 12.7306L7.64608 13.0841C7.84133 13.2794 8.15788 13.2794 8.35315 13.0841L7.99964 12.7306ZM3.7135 4.15731L3.35998 3.80373L3.35995 3.80376L3.7135 4.15731ZM7.88733 4.04989L8.23294 3.68857C8.22953 3.68531 8.22607 3.68209 8.22257 3.67892L7.88733 4.04989ZM7.99964 4.15731L7.65402 4.51863C7.74707 4.60764 7.87087 4.65731 7.99964 4.65731V4.15731ZM8.00061 4.15731L8.35412 4.51091C9.34263 3.52267 10.9448 3.52263 11.9332 4.51089L12.2867 4.15731L12.6403 3.80374C11.2613 2.42497 9.02607 2.42512 7.64711 3.80371L8.00061 4.15731ZM12.2867 4.15731L11.9332 4.51087C12.9217 5.49936 12.9217 7.10237 11.9332 8.09087L12.2867 8.44442L12.6403 8.79798C14.0193 7.41895 14.0193 5.18278 12.6403 3.80376L12.2867 4.15731ZM12.2867 8.44442L11.9332 8.09083L7.64612 12.377L7.99964 12.7306L8.35315 13.0841L12.6403 8.79802L12.2867 8.44442ZM7.99964 12.7306L8.35319 12.377L4.06706 8.09087L3.7135 8.44442L3.35995 8.79798L7.64608 13.0841L7.99964 12.7306ZM3.7135 8.44442L4.06706 8.09087C3.07856 7.10237 3.07856 5.49936 4.06706 4.51087L3.7135 4.15731L3.35995 3.80376C1.98093 5.18278 1.98093 7.41895 3.35995 8.79798L3.7135 8.44442ZM3.7135 4.15731L4.06703 4.5109C5.02465 3.55343 6.5589 3.52333 7.5521 4.42086L7.88733 4.04989L8.22257 3.67892C6.83609 2.426 4.69605 2.46789 3.35998 3.80373L3.7135 4.15731ZM7.88733 4.04989L7.54172 4.41121L7.65402 4.51863L7.99964 4.15731L8.34525 3.79599L8.23294 3.68857L7.88733 4.04989ZM7.99964 4.15731V4.65731H8.00061V4.15731V3.65731H7.99964V4.15731Z" fill="#777777"/>
</svg>
