<svg width="20" height="20" viewBox="0 0 20 20" fill="none" xmlns="http://www.w3.org/2000/svg">
<g id="ico_prot">
<path id="Union" d="M6.7934 6.21507C8.34512 4.66335 10.854 4.65358 12.4185 6.18469L13.2658 5.33741C13.366 5.23692 13.3468 5.06906 13.2464 4.96866C12.7488 4.4704 12.7485 3.66304 13.2464 3.16499C13.7445 2.66703 14.5525 2.66668 15.0508 3.1643C15.17 3.28345 15.2604 3.42076 15.3222 3.56688C15.4674 3.91001 15.8416 4.2841 16.1847 4.42935C16.3309 4.49129 16.468 4.58156 16.5872 4.70073C17.0855 5.19895 17.0847 6.00685 16.5865 6.5051C16.0883 7.00323 15.2811 7.00331 14.7829 6.5051C14.7092 6.43172 14.5885 6.42054 14.5149 6.49405L13.6221 7.38691L13.7851 7.54988C15.347 9.11198 15.3471 11.6447 13.7851 13.2067L10.3814 16.6104C8.81936 18.1724 6.28666 18.1723 4.72456 16.6104L3.38975 15.2756C1.82766 13.7135 1.82766 11.1808 3.38975 9.61872L6.7934 6.21507Z" fill="#FF9900"/>
</g>
</svg>
