<svg width="16" height="16" viewBox="0 0 16 16" fill="none" xmlns="http://www.w3.org/2000/svg">
<path d="M12.5 5.5H13H12.5ZM12.5 12.5L12.2094 12.9069L13 13.4716V12.5H12.5ZM9.7002 10.5L9.99083 10.0931L9.86044 10H9.7002V10.5ZM3.5 8.5H3H3.5ZM5.5 3.5V3V3.5ZM10.5 3.5V4C11.3284 4 12 4.67157 12 5.5H12.5H13C13 4.11929 11.8807 3 10.5 3V3.5ZM12.5 5.5H12V12.5H12.5H13V5.5H12.5ZM12.5 12.5L12.7906 12.0931L9.99083 10.0931L9.7002 10.5L9.40956 10.9069L12.2094 12.9069L12.5 12.5ZM9.7002 10.5V10H5.5V10.5V11H9.7002V10.5ZM5.5 10.5V10C4.67157 10 4 9.32843 4 8.5H3.5H3C3 9.88071 4.11929 11 5.5 11V10.5ZM3.5 8.5H4V5.5H3.5H3V8.5H3.5ZM3.5 5.5H4C4 4.67157 4.67157 4 5.5 4V3.5V3C4.11929 3 3 4.11929 3 5.5H3.5ZM5.5 3.5V4H10.5V3.5V3H5.5V3.5Z" fill="#777777"/>
</svg>
