<svg width="37" height="36" viewBox="0 0 37 36" fill="none" xmlns="http://www.w3.org/2000/svg">
<path d="M23.3218 19.8658C23.7181 20.3272 24.0425 20.869 24.1704 21.467C24.2984 22.0647 24.2222 22.6646 23.9402 23.1675C23.6582 23.6704 23.1861 24.0482 22.6094 24.2508C22.0325 24.4536 21.4011 24.4594 20.8007 24.362C20.6686 24.34 20.5387 24.314 20.411 24.2841C19.9003 24.1644 19.4252 23.9814 18.9856 23.7349C17.447 22.8722 16.0998 21.6682 14.944 20.1229C14.8614 20.0126 14.7799 19.9004 14.6992 19.7866C14.4897 19.4872 14.3133 19.1564 14.2449 18.8024C14.1765 18.4484 14.2214 18.101 14.3849 17.8095C14.5483 17.5179 14.8213 17.2985 15.159 17.1722C15.4967 17.0459 15.871 17.0239 16.2357 17.0465C16.3749 17.0558 16.5131 17.067 16.6504 17.0798C18.5716 17.26 20.3015 17.7815 21.8401 18.6442C22.2797 18.8907 22.6837 19.2006 23.0522 19.5739C23.1443 19.6673 23.2342 19.7646 23.3218 19.8658Z" fill="black"/>
<path d="M21.0665 16.2668C20.9492 16.589 20.7424 16.8827 20.4527 17.0771C20.1633 17.2716 19.8191 17.3515 19.4859 17.2976C19.1527 17.2437 18.8512 17.0594 18.6378 16.7837C18.4241 16.5079 18.3205 16.1639 18.3107 15.8211C18.3077 15.7098 18.3068 15.5987 18.3079 15.488C18.3123 15.0452 18.3495 14.6077 18.4193 14.1755C18.6284 12.8829 19.1411 11.6394 19.5092 10.3726C19.5719 10.1567 19.6397 9.94171 19.7074 9.72669C19.7407 9.62119 19.7739 9.51568 19.8066 9.41007C19.8718 9.20046 20.0298 9.01488 20.2283 8.8913C20.4278 8.76789 20.6515 8.7166 20.8678 8.75157C21.084 8.78653 21.2801 8.9057 21.4306 9.0857C21.58 9.26554 21.6715 9.49147 21.6673 9.71095C21.665 9.82146 21.6633 9.93207 21.6616 10.0427C21.6582 10.2681 21.6548 10.4935 21.6462 10.7181C21.5963 12.0364 21.691 13.3781 21.482 14.6707C21.4121 15.1029 21.3095 15.5299 21.1742 15.9515C21.1403 16.0569 21.1044 16.162 21.0665 16.2668Z" fill="black"/>
<path d="M15.9339 13.2131C15.6873 12.6494 15.6663 12.0098 15.8828 11.4318C16.0992 10.8538 16.5341 10.3852 17.0931 10.1286C17.652 9.872 18.2908 9.84763 18.8702 10.0603C19.4497 10.2729 19.9211 10.7057 20.1878 11.2601C20.2192 11.3254 20.2505 11.3908 20.2816 11.4561C20.4063 11.7177 20.529 11.9801 20.6499 12.2433C21.0113 13.0307 21.0567 13.9631 21.238 14.8331C21.2688 14.9814 21.2773 15.1399 21.2859 15.2983C21.2901 15.3761 21.2944 15.4538 21.3013 15.5303C21.3283 15.8421 21.2117 16.2065 21.0326 16.518C20.8502 16.831 20.62 17.0654 20.3373 17.1952C20.0546 17.325 19.7268 17.3467 19.3706 17.281C19.0175 17.2139 18.6652 17.0647 18.4463 16.841C18.3929 16.7859 18.3367 16.732 18.2805 16.6781C18.1659 16.5683 18.0512 16.4586 17.9589 16.3385C17.4172 15.6339 16.7397 14.9917 16.3783 14.2044C16.2574 13.9412 16.1384 13.677 16.0213 13.412C15.9921 13.3458 15.9629 13.2795 15.9339 13.2131Z" fill="black"/>
<path d="M15.5159 12.7C15.5585 12.1769 15.6556 11.6508 15.8863 11.1935C16.1172 10.7362 16.4634 10.3849 16.8952 10.1968C17.3269 10.0086 17.8199 9.99421 18.3121 10.1365C18.8041 10.2788 19.2555 10.5659 19.6677 10.8908C19.8264 11.0175 19.9764 11.148 20.1178 11.2823C20.6831 11.8194 21.1092 12.4172 21.3961 13.0756C22.0425 14.5591 22.0406 16.325 22.687 17.8084C23.0448 18.6296 23.4206 19.4429 23.8143 20.2483C23.8932 20.4098 23.9728 20.571 24.0532 20.7318C24.3327 21.2909 24.3478 21.9373 24.1168 22.5194C23.8856 23.1016 23.4234 23.5735 22.8358 23.8295C22.2483 24.0856 21.588 24.1028 21.0042 23.8758C20.4206 23.6487 19.9574 23.1975 19.7382 22.6122C19.6751 22.4438 19.6113 22.2757 19.5467 22.108C19.2248 21.2712 18.8849 20.4423 18.5271 19.6212C17.8807 18.1378 16.5859 16.9369 15.9394 15.4535C15.6525 14.795 15.5048 14.0759 15.4962 13.2962C15.4941 13.1013 15.5006 12.9025 15.5159 12.7Z" fill="black"/>
<path d="M14.227 18.2846C14.3223 18.0158 14.4438 17.7529 14.624 17.5431C14.8043 17.3333 15.0295 17.1937 15.2789 17.1499C15.5283 17.1062 15.7876 17.1609 16.0286 17.2968C16.2694 17.4328 16.473 17.6387 16.6541 17.859C16.8043 18.044 16.9433 18.2309 17.0712 18.4198C17.6019 19.2033 17.9418 20.0202 18.0909 20.8706C18.3771 22.5026 17.8913 24.2701 18.0466 25.9251C18.1616 27.1498 18.3419 28.3631 18.5038 29.5797C18.5313 29.7862 18.5582 29.9927 18.5842 30.1995C18.6157 30.451 18.5429 30.7103 18.3889 30.919C18.2345 31.1278 18.0116 31.269 17.7622 31.3127C17.5127 31.3565 17.255 31.2996 17.0388 31.1557C16.823 31.0118 16.6664 30.7928 16.6104 30.5456C16.5645 30.3423 16.5196 30.1389 16.4752 29.9353C16.2135 28.7363 15.9703 27.534 15.6617 26.3432C15.2447 24.7341 14.1866 23.2374 13.9005 21.6053C13.7514 20.7549 13.7931 19.8711 14.0255 18.9538C14.0816 18.7327 14.1487 18.5096 14.227 18.2846Z" fill="black"/>
<path d="M18.1588 30.3172C18.2206 30.3531 18.2786 30.4262 18.3206 30.5011C18.3625 30.5771 18.385 30.6487 18.3825 30.7195C18.3799 30.7903 18.3524 30.86 18.3051 30.9328C18.2579 31.0045 18.1948 31.0733 18.1305 31.1046C18.0682 31.1332 18.0064 31.169 17.9435 31.2042C17.8236 31.2714 17.7025 31.3362 17.5871 31.3437C17.3622 31.3582 17.1443 31.3674 16.9435 31.3566C16.4431 31.3281 16.036 31.1711 15.5631 31.2946C15.5607 31.2952 15.5583 31.2959 15.5558 31.2965L15.4875 31.3201C15.1792 31.365 15.026 31.3152 14.907 31.3237C14.8664 31.3244 14.8283 31.3272 14.7887 31.333C14.6971 31.3508 14.5976 31.3295 14.5137 31.2791C14.4298 31.2284 14.3683 31.1527 14.3414 31.0635C14.3144 30.9742 14.3236 30.8772 14.3654 30.7885C14.4073 30.7001 14.4784 30.6272 14.5646 30.5913C14.6374 30.563 14.7134 30.5407 14.7889 30.5243C15.0178 30.4763 15.2224 30.4749 15.2575 30.433L15.1892 30.4566C15.1921 30.455 15.195 30.4533 15.1978 30.4516C15.7251 30.1245 16.4365 29.8755 17.0202 29.9173C17.2544 29.9299 17.4711 29.9762 17.6807 30.0214C17.7884 30.0447 17.8906 30.1238 17.9945 30.2024C18.0488 30.2435 18.1029 30.2845 18.1588 30.3172Z" fill="black"/>
<circle cx="3" cy="3" r="3" transform="matrix(-0.681007 -0.732277 -0.732277 0.681007 19.7438 9.34766)" fill="black"/>
<circle cx="5" cy="5" r="5" transform="matrix(-1 0 0 1 26.7236 3.43359)" fill="#FF8000"/>
<circle cx="3" cy="3" r="2.5" transform="matrix(-1 0 0 1 24.7236 5.43359)" fill="#FF8000" stroke="white"/>
</svg>
