<svg width="124" height="124" viewBox="0 0 124 124" fill="none" xmlns="http://www.w3.org/2000/svg">
<path d="M77.4884 11.9534C78.1029 12.1456 78.7151 12.3511 79.3228 12.5679C80.0802 12.836 80.8332 13.122 81.5794 13.4236C81.8163 13.5197 82.0531 13.6135 82.2877 13.7141C83.0719 14.0447 83.845 14.3955 84.6091 14.7619C85.3017 15.0948 85.9877 15.4456 86.6624 15.8076C87.8779 16.46 89.0665 17.1571 90.2261 17.9011C90.2864 17.9324 90.3468 17.9614 90.4115 17.9145C90.5076 17.9838 90.5948 18.1089 90.7355 18.1134C90.9433 18.1245 91.0751 17.9637 91.2561 17.9324C91.3835 17.7983 91.5242 17.6911 91.6002 17.528C91.4237 17.3604 91.3187 17.7425 91.0885 17.6598C91.0193 17.633 90.9858 17.5548 91.0327 17.5012C91.0952 17.423 91.2516 17.3626 91.2807 17.2621C89.9468 16.384 88.5705 15.5663 87.1562 14.8066C86.6244 14.5206 86.0882 14.2436 85.5453 13.9755C84.0662 13.2471 82.5514 12.5835 80.9985 11.9892C80.3685 11.7479 79.7339 11.52 79.0949 11.301C77.3343 10.7022 75.5312 10.1951 73.6946 9.78172C72.0793 9.41753 70.4348 9.12484 68.768 8.90811C68.6161 8.888 68.4619 8.8679 68.31 8.85002C68.2519 8.95727 68.1223 9.06898 67.9771 9.06451C67.785 9.1025 67.5861 8.94386 67.5794 8.76735C66.5382 8.65564 65.4903 8.5752 64.4313 8.52382C64.4402 8.58861 64.4559 8.65787 64.476 8.72937C64.4291 8.84332 64.3241 8.94163 64.1855 8.94386C63.9174 9.03994 64.0157 8.6467 63.7431 8.75171C63.6292 8.70032 63.5867 8.59531 63.5934 8.48807C63.4527 8.4836 63.3119 8.47913 63.1712 8.47466C63.0125 8.61095 62.8293 8.70032 62.6126 8.68468C62.4696 8.70256 62.3959 8.5551 62.3132 8.46126C62.1412 8.46126 61.9713 8.45679 61.7993 8.45679C60.7201 8.45679 59.6477 8.48807 58.5842 8.55063C58.0591 8.58191 57.5363 8.62212 57.0135 8.66904C56.361 8.72714 55.7131 8.7964 55.0696 8.87683C55.0562 8.87683 55.0406 8.8813 55.0272 8.8813C55.0272 8.90364 55.025 8.92375 55.0205 8.9461C55.0049 9.04217 54.9624 9.1226 54.8596 9.16952C54.7903 9.2008 54.7122 9.21421 54.6228 9.20751C54.558 9.13154 54.3994 9.08909 54.3547 8.96844C52.8019 9.18293 51.2691 9.46668 49.761 9.81076C49.8995 9.76384 50.0559 9.81523 50.1743 9.86439C50.2279 9.92471 50.2413 10.0431 50.2279 10.1146C50.1631 10.2263 50.1095 10.3537 49.9688 10.3045C49.7811 10.2152 49.7409 9.99398 49.7565 9.813C49.4772 9.87779 49.2002 9.94259 48.9254 10.0096C48.9321 10.1035 48.9254 10.1906 48.8516 10.2465C48.8673 10.166 48.8628 10.0945 48.8449 10.0297C48.7712 10.0476 48.6975 10.0655 48.626 10.0833C48.1679 10.1995 47.7099 10.3202 47.2563 10.4475C45.2745 11.0039 43.3396 11.6697 41.4561 12.4405C40.3412 12.8963 39.2464 13.3879 38.1695 13.9151C38.1539 13.9978 38.1337 14.0805 38.1293 14.1632C38.0801 14.1743 37.9975 14.1408 37.9841 14.2212C37.9327 14.1565 37.8701 14.1207 37.7986 14.0984C37.4456 14.2749 37.0948 14.4558 36.7463 14.6391L36.7641 14.6748L36.7418 14.6435C36.3821 14.8312 36.0268 15.0256 35.6716 15.2222C35.6961 15.363 35.6492 15.5149 35.5822 15.6355C35.4549 15.6244 35.3431 15.5439 35.2537 15.4568C34.5589 15.8523 33.8752 16.2634 33.2027 16.6879C33.1982 16.7482 33.1312 16.8443 33.2161 16.8845C33.3166 16.9761 33.3926 16.8063 33.4529 16.9247C33.4239 16.9806 33.3211 16.9493 33.2831 17.0119C33.2719 17.1593 33.368 17.2755 33.4775 17.3023C33.4485 17.3582 33.3859 17.3671 33.3434 17.423C33.3546 17.519 33.3278 17.6442 33.4417 17.6889C33.4328 17.7894 33.3367 17.7045 33.3032 17.7536C33.3658 17.8028 33.3278 17.8743 33.3166 17.9369C35.8458 16.3081 38.5136 14.896 41.3109 13.7118C41.5813 13.5979 41.8516 13.4884 42.1242 13.3789C43.5452 12.8047 44.9863 12.2953 46.4431 11.8507C47.558 11.5111 48.684 11.2094 49.8168 10.9435C51.2557 10.6084 52.708 10.3358 54.1737 10.1236C54.8887 10.0208 55.6059 9.93142 56.3253 9.85768C56.7699 9.81076 57.2168 9.77055 57.6659 9.73703C57.6659 9.73703 57.6681 9.73703 57.6704 9.73703C57.6771 9.72586 57.6815 9.71246 57.6927 9.70352C57.715 9.70799 57.724 9.71916 57.7329 9.73256C57.8402 9.72363 57.9474 9.71692 58.0546 9.71022C58.115 9.56946 58.1284 9.38625 58.2557 9.30135C58.3004 9.43317 58.1909 9.5784 58.1909 9.70352C58.3741 9.69235 58.5551 9.68118 58.7383 9.67C58.7518 9.65883 58.7674 9.65213 58.7785 9.63872C58.6825 9.61862 58.5529 9.57393 58.5328 9.47562C58.5462 9.40412 58.64 9.40859 58.6847 9.44211C58.8143 9.49126 58.8702 9.58957 58.9461 9.6566C59.0221 9.65213 59.0981 9.64766 59.174 9.64319C59.288 9.60298 59.3907 9.52701 59.4824 9.44211C59.4287 9.38625 59.4891 9.31028 59.5404 9.279C59.7125 9.1092 59.9716 9.31028 60.1392 9.11143C60.271 8.99302 60.2509 8.82544 60.4006 8.72267C60.4632 8.72937 60.528 8.75395 60.5526 8.81204C60.5727 9.03547 60.2822 9.07122 60.3917 9.32146C60.4453 9.37731 60.5168 9.32146 60.5749 9.29911C60.5906 9.11814 60.7693 9.04887 60.843 8.90141C60.8363 8.97961 60.9101 8.93939 60.9413 8.95056C60.8609 9.19187 60.5906 9.36838 60.5079 9.59851C60.9391 9.58734 61.3681 9.58287 61.8015 9.58287C64.7664 9.58287 67.6911 9.82864 70.5689 10.309C72.9126 10.7022 75.2229 11.2496 77.4907 11.9579L77.4884 11.9534ZM49.1331 11.062L49.1622 11.0798L49.1801 11.0999L49.1331 11.062ZM49.2426 11.0441L49.2382 11.0016L49.2605 11.0329L49.2448 11.0441H49.2426ZM65.3786 9.41753L65.3496 9.4354L65.4054 9.38178L65.3786 9.4153V9.41753ZM65.4188 9.54488L65.4077 9.52254H65.4613L65.4166 9.54488H65.4188Z" fill="#E5B700"/>
<path d="M26.7077 101.577C26.7077 101.544 26.7144 101.508 26.7233 101.47C26.6496 101.403 26.5736 101.338 26.4999 101.273C26.5535 101.399 26.6205 101.521 26.7077 101.577Z" fill="#E5B700"/>
<path d="M39.2532 110.794C39.1839 110.532 38.9359 110.233 39.1794 109.987C39.1794 109.88 39.2554 109.862 39.3291 109.835C38.3528 109.373 37.3898 108.883 36.4469 108.365C34.8293 107.476 33.2608 106.502 31.7482 105.447C30.039 104.256 28.4012 102.963 26.835 101.568C26.7948 101.638 26.7412 101.689 26.7076 101.749C26.7188 101.941 26.8506 102.082 26.9959 102.198C27.0383 102.14 27.1188 102.185 27.1545 102.227C27.3355 102.362 27.1903 102.63 27.3981 102.757C27.5254 102.862 27.6796 102.817 27.798 102.94C27.8002 103.001 27.7891 103.063 27.7377 103.092C27.5344 103.144 27.4584 102.882 27.2439 103.018C27.2014 103.076 27.2617 103.132 27.293 103.184C27.4628 103.173 27.5522 103.327 27.7019 103.371C27.6282 103.378 27.6773 103.438 27.6706 103.47C27.4226 103.43 27.2104 103.182 26.9713 103.161C28.3275 104.317 29.7418 105.407 31.212 106.426C32.7782 107.512 34.4025 108.515 36.0827 109.431C37.2066 110.045 38.3572 110.619 39.528 111.153C39.4051 111.06 39.2978 110.952 39.2554 110.789L39.2532 110.794Z" fill="#E5B700"/>
<path d="M69.6484 115.204C69.8495 114.822 69.5099 114.605 69.4652 114.306C68.9625 114.38 68.4576 114.444 67.9526 114.503C65.9217 114.737 63.8706 114.86 61.7994 114.86C60.2756 114.86 58.763 114.793 57.2616 114.666C56.2807 114.583 55.3043 114.471 54.3324 114.335C53.1326 114.165 51.9417 113.953 50.7598 113.7C50.4716 113.64 50.1856 113.578 49.8996 113.51C49.8169 113.752 49.8214 114.047 49.7856 114.237C49.8326 114.013 50.1007 113.884 50.2035 113.796C50.1096 114.107 50.0046 114.241 49.8415 114.487C49.8683 114.547 49.8996 114.603 49.9354 114.659C50.4559 114.777 50.9788 114.887 51.5061 114.99C51.5306 114.954 51.5552 114.918 51.5753 114.88C51.6222 114.82 51.658 114.692 51.7764 114.753C51.9015 114.844 51.7384 114.972 51.6714 115.021C52.5696 115.193 53.4767 115.343 54.3905 115.468C54.605 115.497 54.8195 115.524 55.0362 115.55C57.2526 115.83 59.5093 115.975 61.8016 115.975C63.8371 115.975 65.8457 115.859 67.823 115.64C68.433 115.573 69.0385 115.492 69.6395 115.405C69.5926 115.336 69.5591 115.251 69.4474 115.314C69.4831 115.206 69.606 115.298 69.6507 115.204H69.6484ZM50.6414 113.872C50.6682 113.837 50.628 113.783 50.6324 113.734C50.6324 113.716 50.6369 113.698 50.657 113.685C50.6391 113.7 50.6324 113.718 50.6324 113.734C50.6369 113.785 50.6972 113.841 50.6414 113.872ZM52.6478 114.735C52.4668 114.853 52.2277 114.88 52.0199 114.929C51.9529 114.876 51.9998 114.824 52.0423 114.784C52.2791 114.78 52.5093 114.585 52.7349 114.634C52.7506 114.675 52.726 114.809 52.65 114.737L52.6478 114.735ZM53.7448 114.8C53.6465 114.668 53.6353 114.525 53.7448 114.402C53.8632 114.297 54.0353 114.275 54.1559 114.317C54.2833 114.38 54.1782 114.514 54.2252 114.608C54.1872 114.826 53.8923 114.889 53.7426 114.8H53.7448Z" fill="#E5B700"/>
<path d="M71.7262 114.733C71.686 114.847 71.6994 114.956 71.7195 115.061C72.8523 114.849 73.9739 114.603 75.0821 114.321C75.8686 114.12 76.6506 113.904 77.4237 113.669C77.5644 113.627 77.7074 113.582 77.8482 113.537C78.0202 113.484 78.1945 113.428 78.3665 113.372C79.4814 113.012 80.5785 112.614 81.6599 112.186C81.5995 112.152 81.5079 112.172 81.4543 112.094C81.2242 112.092 80.9985 112.045 80.7662 112.112C80.7617 112.029 80.9583 112.058 81.0052 111.929C81.0745 111.768 80.9136 111.681 80.8354 111.587C80.7326 111.529 80.5986 111.506 80.5427 111.421C80.3729 111.486 80.2053 111.551 80.0355 111.614C79.7429 111.721 79.4479 111.826 79.153 111.929C78.7665 112.063 78.3799 112.194 77.9912 112.32C76.5523 112.784 75.0978 113.191 73.6276 113.528C72.8166 113.714 71.9988 113.881 71.1788 114.029C71.2347 114.12 71.2816 114.219 71.3062 114.326C71.3889 114.38 71.4581 114.567 71.6011 114.482C71.7575 114.389 71.8603 114.277 71.9117 114.127C72.0167 113.993 72.1195 114.163 72.2133 114.029C72.2848 114.183 71.9988 114.25 72.0658 114.424C71.9541 114.511 71.7798 114.569 71.7285 114.73L71.7262 114.733Z" fill="#E5B700"/>
<path d="M104.981 93.6074C105.053 93.5225 105.131 93.4465 105.223 93.3862C105.308 93.3304 105.402 93.2879 105.509 93.2656C105.567 93.2656 105.643 93.2388 105.723 93.2164C105.842 93.0488 105.958 92.879 106.074 92.7115C108.407 89.331 110.364 85.6712 111.881 81.7903H110.679C110.556 82.0986 110.431 82.4069 110.301 82.713C108.105 87.9078 105.118 92.6623 101.409 96.8918C100.665 97.7408 99.8918 98.5698 99.0897 99.3741C99.0651 99.3987 99.0427 99.4233 99.0181 99.4456C97.1168 101.347 95.088 103.087 92.9498 104.66C91.2451 105.914 89.4688 107.062 87.6255 108.101C86.4034 108.789 85.1499 109.431 83.8697 110.023C83.3446 110.264 82.8196 110.501 82.2856 110.727C81.7203 110.966 81.1506 111.191 80.5808 111.408C80.8958 111.571 81.2288 111.263 81.5438 111.435C81.7315 111.538 82.0376 111.558 82.0465 111.83C82.1202 111.902 82.0599 111.964 82.0398 112.036C82.833 111.712 83.6172 111.37 84.3903 111.012C86.4793 110.043 88.4947 108.944 90.4296 107.724C91.0954 107.304 91.75 106.872 92.3957 106.426C93.6961 105.523 94.954 104.564 96.1672 103.554C96.1583 103.503 96.1047 103.454 96.1896 103.436C96.232 103.416 96.2678 103.427 96.3035 103.443C97.3268 102.585 98.3188 101.689 99.2773 100.757C100.059 99.9975 100.817 99.211 101.552 98.4044C101.556 98.2525 101.69 98.1363 101.827 98.0983C102.785 97.0303 103.703 95.9244 104.575 94.7804C104.564 94.5615 104.566 94.3447 104.626 94.1369C104.738 93.9649 104.845 93.7705 104.981 93.6052V93.6074ZM90.9233 106.707C90.8518 106.87 90.6105 106.859 90.5122 106.763C90.4608 106.642 90.4809 106.528 90.5904 106.455C90.7021 106.396 90.8407 106.412 90.9256 106.47C91.0127 106.544 90.9032 106.627 90.9256 106.709L90.9233 106.707ZM95.7673 103.329C95.7382 103.3 95.7047 103.235 95.7717 103.226C95.8879 103.271 95.7539 103.289 95.7673 103.329Z" fill="#E5B700"/>
<path d="M13.3665 82.8734C13.3443 82.8223 13.322 82.7733 13.2998 82.7222C13.302 82.7422 13.3087 82.76 13.3154 82.78C13.3287 82.8156 13.3465 82.8445 13.3643 82.8734H13.3665Z" fill="#E5B700"/>
<path d="M11.9972 82.4897C12.2608 82.5433 12.5446 82.5746 12.7636 82.7422C12.8574 82.731 13.0205 82.8248 13.0741 82.6774C13.13 82.5143 13.1389 82.3713 13.083 82.2305C13.083 82.2193 13.083 82.2104 13.0875 82.1992C13.0317 82.0607 12.9736 81.9244 12.9199 81.7859H11.7179C11.8095 82.0205 11.9056 82.2551 11.9994 82.4897H11.9972Z" fill="#E5B700"/>
<path d="M26.8015 22.5773C26.9266 22.5437 27.0249 22.5683 27.1165 22.6175C27.474 22.3024 27.8359 21.9941 28.2024 21.6903C28.4951 21.4467 28.7877 21.2099 29.0849 20.973C29.4469 20.6848 29.8133 20.4011 30.1842 20.1218C30.3696 19.9833 30.5551 19.847 30.7405 19.7107C31.2857 19.313 31.8331 18.922 32.3917 18.5444C32.3045 18.493 32.2219 18.4416 32.204 18.3321C32.0364 18.2427 31.9604 18.4126 31.8755 18.4729C31.7884 18.4304 31.7415 18.3008 31.6722 18.2696C31.6387 18.4103 31.4778 18.3857 31.4041 18.4751C31.3929 18.4997 31.384 18.522 31.3684 18.5444C31.3751 18.5131 31.3884 18.493 31.4041 18.4751C31.5002 18.2718 31.5046 18.0104 31.5605 17.7668C31.1002 18.0819 30.6422 18.4014 30.1931 18.7298C29.7619 19.0426 29.3351 19.3644 28.9151 19.6906C28.4548 20.0481 28.0013 20.4122 27.5522 20.7831C27.2237 21.0557 26.8975 21.3305 26.5758 21.6098C26.5981 21.6098 26.6205 21.6053 26.6428 21.6009C26.6674 21.7863 26.8439 21.8221 26.9869 21.9003C27.0428 21.9316 27.0964 21.9673 27.1321 22.0209C27.074 22.0388 27.0048 21.9762 26.9445 21.974L26.9869 21.9181C26.969 21.9271 26.9556 21.9249 26.9445 21.9226C26.9199 21.9159 26.9043 21.8958 26.8663 21.9137L26.8752 21.9025C26.8238 21.898 26.7478 21.7774 26.7434 21.8891C26.6696 21.8578 26.6562 21.7595 26.6339 21.6724C26.5624 21.8131 26.5244 21.6053 26.4954 21.7707C26.4328 21.7327 26.5468 21.7126 26.4954 21.6791C26.3926 21.7685 26.2943 21.8578 26.1915 21.9472C26.2742 22.0075 26.33 21.8623 26.4127 21.9919C26.3122 21.9137 26.2898 21.9785 26.1781 21.9718C26.2764 22.0187 26.187 22.1215 26.2518 22.1438L26.2898 22.0589C26.2809 22.1036 26.3099 22.117 26.3524 22.1237C26.3971 22.1326 26.4552 22.1304 26.4954 22.1527L26.4864 22.1639C26.4864 22.1639 26.4931 22.1684 26.4954 22.1706C26.5177 22.1885 26.5378 22.1572 26.5557 22.155L26.5222 22.2108C26.7121 22.3583 26.9042 22.1215 27.0562 22.2823C26.9623 22.3449 26.8238 22.2108 26.7635 22.3605C26.5691 22.3851 26.3703 22.3918 26.1937 22.3382C26.0954 22.3069 26.0061 22.2555 25.9279 22.1796C25.6396 22.4365 25.3559 22.6979 25.0744 22.9616C24.1337 23.8419 23.2266 24.7557 22.3508 25.7008C22.4111 25.8304 22.3932 25.9868 22.3284 26.0829C22.2413 26.1856 22.143 26.056 22.0447 26.0806C22.0357 26.0762 22.029 26.0695 22.0201 26.065C21.6961 26.4202 21.3766 26.7822 21.0616 27.1464C19.9333 28.4579 18.863 29.8208 17.8643 31.2374C17.1471 32.254 16.4634 33.2974 15.8177 34.3631C15.7976 34.4905 15.773 34.6178 15.744 34.7497C15.6725 34.7631 15.6546 34.8882 15.5854 34.7988C15.5764 34.7921 15.5742 34.7854 15.5697 34.7765C15.344 35.1541 15.1251 35.5361 14.9084 35.9204C14.7654 36.1751 14.6246 36.4298 14.4861 36.6868C14.5911 36.7069 14.7006 36.7248 14.8034 36.7538C14.781 36.6019 14.7721 36.4499 14.7922 36.298C14.8771 36.1126 14.9575 35.9048 15.0692 35.7216C15.1273 35.6277 15.1944 35.5406 15.277 35.4669C15.353 35.3998 15.4401 35.344 15.5429 35.306C15.5541 35.306 15.5675 35.2993 15.5809 35.2948C15.5809 35.2256 15.6166 35.2546 15.6479 35.2702C15.7954 35.2077 15.9808 35.1004 16.1216 35.239C16.2891 35.2032 16.4299 35.23 16.5573 35.2859C16.5796 35.2479 16.6019 35.2077 16.6243 35.1697C17.2231 34.1687 17.8576 33.1901 18.5234 32.2316C19.3814 30.996 20.2908 29.7962 21.256 28.6366C22.3016 27.3787 23.4054 26.1633 24.5739 24.997C25.2598 24.3111 25.9636 23.6475 26.683 23.004C26.6696 22.9772 26.6428 22.9504 26.5937 22.9303C26.5311 22.7672 26.6562 22.6287 26.7992 22.5795L26.8015 22.5773ZM26.2742 22.0209V22.012L26.3613 22.0008V22.0098L26.2742 22.0209ZM26.4038 22.0857C26.4216 22.0634 26.4082 22.0455 26.406 22.0254C26.4484 22.05 26.4417 22.0611 26.4038 22.0857ZM26.797 22.2354L26.759 22.1796L26.8015 22.193L26.797 22.2332V22.2354ZM26.931 22.0969L27.0003 22.1595C26.978 22.1416 26.8886 22.1527 26.931 22.0969Z" fill="#E5B700"/>
<path d="M32.9235 18.196C33.0307 18.1268 33.1357 18.0553 33.2429 17.986C33.2295 17.9793 33.2139 17.9771 33.196 17.9838C33.0486 18.0218 32.9749 18.1022 32.9235 18.196Z" fill="#E5B700"/>
<path d="M98.6516 15.6579C99.4894 16.3237 100.309 17.0141 101.114 17.7246C101.827 18.3569 102.526 19.0071 103.214 19.6751C103.312 19.7689 103.408 19.865 103.504 19.9589C103.603 19.7868 103.676 19.5902 103.819 19.4561C103.815 19.4561 103.811 19.4539 103.806 19.4539C103.779 19.4092 103.853 19.3869 103.898 19.3578C103.949 19.2394 103.768 19.2014 103.732 19.1255L103.844 19.0227L103.761 18.911C103.806 18.8641 103.933 18.8328 103.891 18.7367C103.873 18.5915 103.69 18.6764 103.723 18.5356C103.788 18.511 103.851 18.6093 103.925 18.5848C104.038 18.4708 104.043 18.3077 103.969 18.2072C104.034 18.1826 104.092 18.2184 104.166 18.2049C104.226 18.1178 104.336 18.0351 104.275 17.9145C104.353 17.8385 104.374 17.9748 104.436 17.9592C104.423 17.8921 104.472 17.8586 104.519 17.8273C104.262 17.5816 104.003 17.338 103.744 17.0967C103.35 16.7303 102.95 16.3684 102.546 16.0109C101.889 15.4322 101.221 14.8669 100.54 14.3151C100.312 14.1296 100.084 13.9442 99.8536 13.7632C99.8112 13.8503 99.7799 13.9397 99.7866 14.0134C99.8537 13.9643 99.9564 13.9106 100.03 13.9531C100.066 14.0023 100.01 14.0603 99.9654 14.067C99.8536 14.1229 99.7553 14.0939 99.6637 14.1073C99.5341 14.2234 99.5073 14.3955 99.5073 14.5631C99.5721 14.5631 99.5855 14.6435 99.5766 14.6926C99.5833 14.8982 99.3107 14.9429 99.3375 15.1618C99.3353 15.3115 99.4515 15.3942 99.4314 15.5484C99.3912 15.5841 99.3398 15.6109 99.2884 15.5908C99.1387 15.4746 99.2817 15.2736 99.0627 15.1976C98.9979 15.1976 98.9912 15.2758 98.9711 15.3249C99.0672 15.43 99.0247 15.5663 99.056 15.6891C99.0582 15.7003 99.0605 15.7092 99.065 15.7204C99.0203 15.6713 99.0024 15.7405 98.9778 15.7539C98.9644 15.7316 98.9555 15.7048 98.9465 15.6802C98.8639 15.4434 98.9331 15.1261 98.7074 14.9853C98.665 15.0121 98.6293 15.0814 98.5756 15.0345C98.5578 14.9898 98.5377 14.9183 98.4751 14.8826C98.2762 14.8915 98.1735 15.0479 98.0551 15.1887C98.2539 15.3428 98.4505 15.497 98.6471 15.6512L98.6516 15.6579ZM101.279 16.4756C101.181 16.5694 101.027 16.5829 100.913 16.527C100.843 16.4935 100.79 16.4354 100.772 16.3572C100.734 16.2499 100.785 16.1695 100.841 16.1025C100.868 16.069 100.897 16.0377 100.917 16.0086C101.027 15.9371 101.188 15.8791 101.304 15.9617C101.384 15.9796 101.409 16.0533 101.433 16.1293C101.444 16.2432 101.398 16.4041 101.277 16.4756H101.279Z" fill="#E5B700"/>
<path d="M97.74 14.9496C97.8227 15.0121 97.9031 15.0747 97.9858 15.1372C98.0573 14.9719 98.0997 14.7865 98.1533 14.6636C98.0774 14.8334 97.8539 14.8982 97.7422 14.9496H97.74Z" fill="#E5B700"/>
<path d="M95.4499 20.5018C95.4678 20.4794 95.4812 20.4526 95.4968 20.4303C95.4767 20.3901 95.4678 20.3498 95.4678 20.3096C95.4298 20.2783 95.3918 20.2493 95.3539 20.218C95.3382 20.285 95.298 20.3476 95.2801 20.399C95.2756 20.4035 95.2712 20.4057 95.2667 20.4102C95.2734 20.4481 95.2958 20.4839 95.3382 20.5196C95.3471 20.5263 95.3516 20.5353 95.3628 20.542C95.403 20.5509 95.4276 20.5308 95.4499 20.5018Z" fill="#E5B700"/>
<path d="M96.3973 21.0737C96.3213 21.1877 96.2565 21.3016 96.194 21.3821C96.2833 21.2726 96.4308 21.2346 96.5604 21.2145C96.5045 21.1676 96.4509 21.1207 96.3973 21.0737Z" fill="#E5B700"/>
<path d="M95.5952 20.4124C95.593 20.4347 95.5907 20.457 95.5885 20.4794C95.5729 20.6246 95.5796 20.7631 95.6846 20.8726C95.7382 20.857 95.7963 20.7899 95.841 20.857C95.8477 20.9084 95.8499 20.9933 95.9058 21.0491C96.0421 21.0782 96.156 21.0313 96.2633 20.9642C96.0644 20.7989 95.8656 20.6335 95.6645 20.4682C95.6421 20.4503 95.6198 20.4325 95.5975 20.4146L95.5952 20.4124Z" fill="#E5B700"/>
<path d="M95.0232 19.9566C94.5897 19.617 94.1518 19.2818 93.7094 18.9556C93.1017 18.5065 92.485 18.0708 91.8594 17.6486C91.8058 17.6932 91.7544 17.7245 91.6896 17.6262C91.6338 17.6821 91.4796 17.7178 91.5354 17.8206C91.6963 17.8876 91.7879 18.1044 91.989 18.0708C92.0225 18.1021 91.9644 18.1401 91.9309 18.1736C91.913 18.2898 92.0784 18.2809 92.1275 18.3367L92.1052 18.3725L92.0538 18.4507L92.1499 18.5289C92.1298 18.5669 92.0694 18.6048 92.0605 18.6518C92.0761 18.6741 92.0851 18.7009 92.0895 18.7277C92.1454 18.8126 92.2661 18.7233 92.2683 18.8439C92.2281 18.873 92.1722 18.835 92.1208 18.8372C92.2303 18.9735 92.2571 19.121 92.2571 19.2707C92.2817 19.2885 92.3063 19.3064 92.3309 19.3243C92.7554 19.6259 93.1732 19.9387 93.5888 20.2537C93.7876 20.4057 93.9864 20.5554 94.1853 20.7095C94.3573 20.8436 94.5249 20.9799 94.6947 21.1162C94.6947 21.1095 94.6992 21.1028 94.7014 21.0961C94.6299 21.0804 94.6389 20.9866 94.6634 20.9374C94.7104 20.7386 94.9584 20.7386 95.0343 20.5665C95.0388 20.5576 95.041 20.5464 95.0433 20.5353C95.0142 20.5375 94.9829 20.5353 94.9539 20.5241C94.8802 20.5263 94.8422 20.4682 94.8042 20.4101C94.7684 20.3141 94.7729 20.1621 94.8601 20.0728C94.898 20.0124 94.9584 19.9722 95.0232 19.9521V19.9566Z" fill="#E5B700"/>
<path d="M118.769 40.7177C118.7 40.5613 118.606 40.454 118.472 40.3892C118.358 40.2775 118.528 40.1993 118.412 40.0965C118.564 40.0474 118.595 40.3222 118.767 40.2775C118.836 40.3915 118.872 40.5613 119.017 40.6283C119.189 40.7132 119.361 40.6551 119.529 40.6573C118.72 38.4923 117.793 36.3832 116.756 34.341C115.889 32.6363 114.944 30.9784 113.93 29.3697C113.49 28.6749 113.036 27.9889 112.571 27.312C112.017 26.5054 111.443 25.7144 110.851 24.9369C110.683 24.718 110.516 24.4968 110.346 24.2778C110.328 24.3024 110.315 24.3292 110.304 24.356C110.279 24.4208 110.274 24.4901 110.295 24.5504C110.301 24.5705 110.304 24.5884 110.312 24.6062C110.306 24.6062 110.297 24.6062 110.29 24.6062C110.228 24.6129 110.174 24.5794 110.102 24.5839C110.029 24.6688 109.901 24.7425 109.953 24.8766C109.859 24.9459 109.857 24.8006 109.787 24.8096C109.799 24.9682 109.517 24.9213 109.602 25.1067C109.499 25.062 109.602 24.9503 109.51 24.8967C109.077 24.6174 108.811 25.1425 108.411 24.9615C108.487 24.7537 108.279 24.5191 108.431 24.327C108.375 24.1125 108.17 24.184 108.051 24.1594C108.018 24.0521 108.092 23.9091 108.065 23.8265C107.917 23.9069 107.812 23.7527 107.678 23.7594C107.649 23.7684 107.62 23.7796 107.591 23.784C107.622 23.7661 107.649 23.7594 107.678 23.7594C108.047 23.6433 108.362 23.25 108.789 23.1919C108.849 23.116 109.039 23.0646 108.97 22.9149C108.891 22.754 108.791 22.6423 108.648 22.5797C108.525 22.4658 108.702 22.3787 108.576 22.2736C108.697 22.229 108.751 22.3898 108.851 22.4412C108.418 21.9296 107.978 21.4224 107.529 20.9241C107.513 20.9934 107.562 21.0805 107.45 21.0649C107.348 21.0783 107.301 20.9778 107.229 20.942C106.99 20.6359 106.798 20.2717 106.514 20.0103C106.454 19.9321 106.311 19.8472 106.414 19.7199C106.242 19.5389 106.065 19.3601 105.889 19.1814C105.784 19.2596 105.67 19.3266 105.542 19.3579C105.493 19.4361 105.323 19.5031 105.404 19.635C105.493 19.778 105.598 19.8696 105.739 19.9142C105.864 20.0081 105.71 20.1086 105.837 20.1913C105.696 20.2606 105.627 19.9969 105.466 20.0639C105.384 19.9634 105.326 19.8025 105.174 19.7578C105.113 19.7377 105.055 19.7355 104.999 19.74C104.988 19.778 104.979 19.8137 104.977 19.8494C104.796 19.7556 104.758 19.9835 104.584 19.9701C104.537 20.0237 104.49 20.0773 104.441 20.1287C104.512 20.1042 104.586 20.0952 104.662 20.1466C104.729 20.1935 104.742 20.2874 104.675 20.3343C104.552 20.4259 104.253 20.4304 104.336 20.665C104.345 20.7253 104.407 20.799 104.398 20.8593C105.868 22.3742 107.256 23.9516 108.547 25.596C108.818 25.9401 109.084 26.2887 109.347 26.6394C109.611 26.9925 109.87 27.3477 110.127 27.7052C110.485 28.2057 110.835 28.7106 111.177 29.2223C112.25 30.8243 113.242 32.4754 114.153 34.1779C115.011 35.7777 115.798 37.4199 116.51 39.1045C116.846 39.8955 117.158 40.6931 117.458 41.4952C117.478 41.4885 117.496 41.484 117.514 41.484C117.867 41.3835 118.179 41.0171 118.588 40.9746C118.649 40.9031 118.83 40.8607 118.767 40.7154L118.769 40.7177ZM107.92 21.3799C107.942 21.4291 107.958 21.5207 107.87 21.5051C107.745 21.4023 107.917 21.4358 107.92 21.3799ZM106.541 20.9621C106.514 20.9174 106.492 20.8348 106.572 20.8415C106.7 20.9264 106.534 20.9107 106.541 20.9621ZM106.948 21.371C106.986 21.3017 106.892 21.2012 107.015 21.2012C107.111 21.1788 107.164 21.266 107.234 21.2928C107.488 21.5542 107.707 21.8737 107.998 22.086C108.065 22.153 108.212 22.22 108.118 22.3563C107.982 22.4993 107.848 22.2602 107.806 22.1731C107.441 21.9743 107.2 21.6838 106.95 21.371H106.948ZM117.371 38.9146C117.272 38.9235 117.23 38.8275 117.163 38.7895C116.944 38.4901 116.77 38.1371 116.508 37.8824C116.452 37.8042 116.312 37.717 116.425 37.5941C116.584 37.4713 116.682 37.7304 116.714 37.8243C117.051 38.0767 117.252 38.403 117.46 38.7537C117.413 38.8185 117.493 38.9325 117.368 38.9146H117.371ZM117.764 39.3391C117.648 39.2363 117.811 39.2743 117.813 39.2229C117.833 39.2699 117.844 39.3592 117.764 39.3391Z" fill="#E5B700"/>
<path d="M123.093 55.922C122.988 54.8875 122.856 53.8598 122.702 52.8409C122.297 50.1911 121.721 47.5971 120.99 45.0701C120.959 45.2086 120.887 45.336 120.863 45.4164C120.782 45.1282 120.793 44.9606 120.8 44.7037C120.8 44.6813 120.8 44.659 120.8 44.6344C120.554 44.4668 120.244 44.3864 119.958 44.3484C119.909 44.3707 119.877 44.4244 119.848 44.478C119.792 44.5808 119.743 44.6969 119.603 44.6545C119.58 44.5607 119.656 44.5115 119.73 44.4512C119.784 44.4065 119.837 44.3573 119.848 44.2814C119.801 44.1674 119.906 44.0222 119.815 43.9149C119.788 43.9351 119.728 43.9976 119.71 43.9306C119.679 43.83 119.813 43.6647 119.652 43.6513C119.598 43.6513 119.524 43.6647 119.5 43.6982C119.493 43.6535 119.495 43.5776 119.486 43.5172C119.241 43.4949 119.419 43.772 119.272 43.8479C119.299 43.3966 119.082 42.9765 119.044 42.5453C118.903 42.5185 118.776 42.5699 118.651 42.6213C118.501 42.6816 118.351 42.7397 118.179 42.6548C118.258 42.4582 118.065 42.2303 118.215 42.0516C118.166 41.846 117.969 41.9086 117.858 41.8817C117.829 41.779 117.902 41.6449 117.88 41.5645C117.737 41.6382 117.641 41.4885 117.514 41.4907C117.496 41.4952 117.476 41.5019 117.458 41.5064C117.686 42.1208 117.907 42.7375 118.115 43.3564C118.202 43.6133 118.282 43.8725 118.365 44.1317C119.544 47.8182 120.356 51.6009 120.791 55.4595C121.044 57.6916 121.176 59.9482 121.176 62.2272C121.176 64.1755 121.082 66.1103 120.896 68.0274C120.755 69.4908 120.559 70.9453 120.311 72.3865C120.166 73.2243 120.003 74.0599 119.822 74.8888C119.67 75.5882 119.509 76.2875 119.33 76.9801C118.602 79.8222 117.661 82.6105 116.508 85.3364C114.761 89.4676 112.571 93.3485 109.966 96.9524C109.403 97.7299 108.822 98.4963 108.219 99.2493C108.413 99.3789 108.505 99.6492 108.677 99.8123C108.46 100.011 108.704 100.293 108.605 100.536C108.552 100.494 108.563 100.391 108.525 100.333L108.605 100.337C108.543 100.304 108.592 100.257 108.529 100.221H108.545C108.516 100.172 108.579 100.025 108.471 100.092C108.451 100.002 108.534 99.9263 108.601 99.8481C108.424 99.8726 108.592 99.7028 108.42 99.7855C108.416 99.6961 108.523 99.8145 108.503 99.7095C108.469 99.542 108.313 99.4168 108.154 99.3252C108.145 99.3342 108.138 99.3453 108.13 99.3543C108.152 99.3766 108.165 99.4012 108.145 99.4369C108.13 99.4101 108.112 99.4012 108.096 99.3967C108.069 99.4302 108.042 99.4638 108.016 99.4973C107.962 99.5643 107.908 99.6313 107.855 99.6984C107.971 99.7252 107.951 99.5576 108.06 99.5933C108.029 99.743 108.232 99.6805 108.161 99.8548C108.168 99.7118 108.094 99.7319 108.027 99.6246C108.045 99.7453 107.895 99.7319 107.915 99.8034L108.02 99.7833C107.973 99.8034 107.98 99.8413 108 99.8838C108.022 99.9307 108.06 99.9843 108.067 100.034H108.051C108.033 100.08 108.089 100.074 108.105 100.092L108.033 100.096C108.022 100.369 108.364 100.391 108.315 100.637C108.197 100.592 108.23 100.378 108.051 100.418C107.904 100.257 107.77 100.08 107.705 99.886C107.363 100.304 107.012 100.715 106.659 101.124C106.159 101.698 105.645 102.263 105.122 102.822C105.129 102.826 105.136 102.829 105.142 102.833C105.145 102.833 105.147 102.835 105.151 102.838C105.352 103.023 105.314 103.316 105.225 103.537C105.033 103.544 104.854 103.416 104.722 103.307C104.716 103.293 104.713 103.275 104.711 103.26C104.405 103.579 104.097 103.897 103.782 104.212C103.478 104.515 103.172 104.815 102.861 105.11C102.888 105.17 102.906 105.23 102.937 105.282C103.12 105.376 103.321 105.333 103.509 105.259C103.48 105.188 103.565 105.139 103.623 105.13C103.846 105.036 104.014 105.318 104.244 105.192C104.412 105.132 104.454 104.967 104.631 104.924C104.686 104.956 104.74 105 104.738 105.063C104.675 105.277 104.392 105.206 104.401 105.478C104.43 105.55 104.517 105.523 104.579 105.525C104.66 105.362 104.852 105.365 104.975 105.253C104.941 105.324 105.024 105.313 105.048 105.335C104.841 105.586 104.378 105.619 104.316 105.961C104.363 105.997 104.456 106.006 104.427 106.086C104.387 106.124 104.316 106.178 104.302 106.26C104.365 106.403 104.481 106.47 104.613 106.52C105.801 105.371 106.943 104.176 108.036 102.936C108.279 102.659 108.523 102.38 108.762 102.096C109.716 100.972 110.63 99.8145 111.503 98.6259C112.093 97.8216 112.663 97.0038 113.215 96.1704C114.196 94.6869 115.118 93.1608 115.972 91.5901C115.782 91.6616 115.594 91.7354 115.429 91.8739C115.38 91.7778 115.628 91.7086 115.612 91.532C115.608 91.3064 115.373 91.2885 115.232 91.2215C115.051 91.2058 114.841 91.2773 114.739 91.1254C115.266 91.2483 115.494 90.6205 115.988 90.6629C116.135 90.6741 116.309 90.6406 116.463 90.6562C116.968 89.6888 117.449 88.7079 117.902 87.7114C119.209 84.8381 120.3 81.8486 121.158 78.7586C121.772 76.5489 122.266 74.2901 122.632 71.991C122.889 70.3845 123.084 68.758 123.213 67.1113C123.341 65.4981 123.405 63.8694 123.405 62.2249C123.405 60.0979 123.298 57.9977 123.088 55.9265L123.093 55.922ZM120.447 45.5862C120.443 45.6309 120.505 45.6555 120.53 45.7001C120.541 45.7158 120.545 45.7314 120.534 45.756C120.541 45.7337 120.537 45.7158 120.53 45.7001C120.499 45.6599 120.418 45.6421 120.447 45.5862ZM120.532 45.8543C120.523 45.8431 120.512 45.832 120.514 45.8186L120.532 45.8543ZM120.528 45.9616C120.49 45.9616 120.469 45.9325 120.465 45.9035C120.474 45.8565 120.503 45.9035 120.534 45.9146L120.525 45.9616H120.528ZM120.785 50.4368C120.878 50.3072 120.961 50.1575 121.126 50.238C121.345 50.372 121.365 50.6491 121.323 50.868C121.146 50.9105 120.959 50.8256 120.818 50.7496C120.76 50.667 120.76 50.524 120.785 50.4346V50.4368ZM108.1 99.542C108.089 99.5062 108.067 99.4973 108.042 99.4928C108.062 99.4928 108.08 99.4839 108.096 99.4526C108.152 99.4794 108.078 99.4839 108.1 99.542ZM108.15 99.495C108.15 99.495 108.172 99.5196 108.172 99.5353C108.147 99.5263 108.116 99.5084 108.15 99.495ZM108.051 99.7386L108.06 99.7319L108.13 99.8078L108.121 99.8145L108.051 99.7386ZM108.078 99.8994C108.109 99.8994 108.118 99.8771 108.136 99.8615C108.141 99.9173 108.125 99.9173 108.078 99.8994ZM108.402 99.6023L108.36 99.6403L108.337 99.5844L108.4 99.6023H108.402ZM108.409 100.393L108.395 100.496C108.395 100.465 108.328 100.389 108.409 100.393ZM108.194 100.36L108.221 100.288L108.235 100.337L108.194 100.36ZM108.217 99.4503C108.25 99.4034 108.27 99.4928 108.304 99.4772C108.208 99.4727 108.317 99.5576 108.284 99.5554C108.239 99.4906 108.197 99.5286 108.217 99.4481V99.4503ZM105.185 105.503C105.165 105.378 105.25 105.487 105.279 105.454C105.267 105.496 105.227 105.557 105.185 105.503ZM105.301 104.969C105.236 104.985 105.227 105.101 105.158 105.023C105.091 104.976 105.113 104.893 105.091 104.835C105.109 104.529 105.183 104.212 105.149 103.912C105.153 103.832 105.109 103.704 105.247 103.684C105.413 103.689 105.341 103.906 105.312 103.984C105.395 104.321 105.352 104.636 105.301 104.969ZM106.04 103.528L106.025 103.499L106.099 103.519L106.04 103.528ZM106.338 102.25L106.324 102.201L106.349 102.194L106.338 102.25ZM106.382 103.336L106.396 103.316L106.414 103.304L106.382 103.336ZM106.461 102.183L106.447 102.149L106.492 102.216L106.461 102.183ZM107.021 102.806L107.068 102.842C107.026 102.855 107.039 102.835 107.021 102.806ZM108.038 101.41C107.98 101.432 107.877 101.403 107.875 101.499C107.794 101.421 107.701 101.385 107.596 101.374C107.511 101.365 107.421 101.37 107.321 101.379C107.211 101.309 107.129 101.186 107.151 101.043C107.1 100.753 107.484 100.921 107.426 100.623C107.537 100.46 107.743 100.485 107.884 100.588C108.06 100.735 108.065 100.916 108.051 101.104C108.045 101.204 108.033 101.309 108.04 101.41H108.038ZM109.774 98.3868L109.752 98.331L109.776 98.3086L109.772 98.3891L109.774 98.3868ZM110.02 98.6393L110.044 98.6482L110.06 98.6639L110.022 98.6393H110.02ZM110.665 99.2247C110.643 99.1845 110.665 99.1934 110.692 99.1688L110.665 99.2247ZM121.138 77.4248L121.117 77.4449V77.3778L121.138 77.4248ZM120.894 77.1768L120.874 77.1701L120.86 77.1566L120.894 77.1768ZM120.297 76.7567L120.318 76.7098C120.338 76.7433 120.318 76.7366 120.297 76.7567Z" fill="#E5B700"/>
<path d="M102.872 107.449C102.879 107.482 102.912 107.558 102.848 107.554C102.982 107.641 103.075 107.791 102.993 107.961C102.953 108.079 102.805 108.115 102.709 108.144C102.62 108.119 102.519 108.099 102.439 108.059C102.36 108.019 102.3 107.961 102.287 107.858C102.287 107.847 102.287 107.838 102.287 107.827C102.276 107.824 102.267 107.82 102.255 107.818C101.851 107.717 101.42 107.728 101.058 107.536C101.002 107.48 100.942 107.424 100.881 107.366C100.859 107.382 100.837 107.395 100.812 107.409C100.761 107.436 100.709 107.465 100.676 107.514C100.667 107.543 100.658 107.574 100.645 107.601C100.647 107.563 100.66 107.536 100.676 107.514C100.703 107.436 100.718 107.353 100.727 107.268C100.727 107.252 100.727 107.234 100.732 107.217C100.703 107.188 100.678 107.156 100.651 107.125C100.651 107.125 100.647 107.127 100.647 107.129C99.228 108.361 97.7556 109.518 96.2341 110.604C93.3317 112.675 90.2462 114.476 87.002 115.997C86.3116 116.321 85.6145 116.636 84.9085 116.936C83.3177 117.608 81.7023 118.205 80.0713 118.734C79.0994 119.049 78.123 119.338 77.1376 119.601C73.8734 120.473 70.5376 121.06 67.1504 121.362C65.3786 121.518 63.5956 121.603 61.797 121.603C59.3974 121.603 57.0179 121.46 54.6652 121.179C52.1851 120.884 49.7364 120.432 47.3256 119.829C45.8554 119.46 44.3987 119.036 42.9576 118.553C42.6001 118.435 42.247 118.308 41.8918 118.182C41.5902 118.075 41.2885 117.964 40.9869 117.852C40.9824 117.856 40.9802 117.863 40.9757 117.867C41.0271 117.896 41.0003 117.968 40.969 118.002C40.8774 118.165 40.6428 118.073 40.5624 118.258C40.4909 118.375 40.5423 118.495 40.4551 118.605C40.406 118.614 40.3524 118.611 40.3233 118.571C40.2585 118.41 40.4663 118.321 40.33 118.158C40.2786 118.129 40.2384 118.185 40.1982 118.216C40.225 118.352 40.1088 118.444 40.0865 118.569C40.0731 118.509 40.0284 118.556 40.0016 118.553C40.0083 118.303 40.2742 118.064 40.1513 117.825C40.1066 117.825 40.0463 117.865 40.0239 117.803C40.0306 117.76 40.0485 117.695 40.0172 117.637C39.7715 117.505 39.5368 117.758 39.2799 117.72C39.414 117.684 39.5368 117.588 39.6463 117.494C39.5503 117.552 39.4318 117.573 39.3224 117.514C39.0654 117.472 39.262 117.226 39.0967 117.141C39.0878 117.15 39.0766 117.157 39.0565 117.152C39.0721 117.152 39.0833 117.148 39.0945 117.139C39.0744 117.128 39.0498 117.121 39.0185 117.117C39.0118 117.108 39.0096 117.101 39.0051 117.092C38.9984 117.081 38.9917 117.07 38.9872 117.059C38.8867 117.016 38.7861 116.978 38.6856 116.936C37.9058 116.605 37.135 116.257 36.3731 115.895C36.1229 116.105 35.6671 116.087 35.5576 116.42C35.6001 116.462 35.6939 116.482 35.6537 116.56C35.6067 116.594 35.5285 116.639 35.504 116.723C35.609 117.083 36.067 117.07 36.2726 117.349C35.9955 117.186 35.5799 117.217 35.3319 117.177C35.571 117.222 35.7162 117.501 35.8101 117.608C35.4772 117.519 35.3342 117.409 35.066 117.242C34.9409 117.302 34.8248 117.383 34.7153 117.474C34.6974 117.499 34.675 117.523 34.646 117.539C34.8806 117.653 35.113 117.769 35.3498 117.881C35.3498 117.881 35.3543 117.881 35.3565 117.883C35.3632 117.881 35.3721 117.876 35.3788 117.874C35.4816 117.843 35.5889 117.821 35.6939 117.821C35.7922 117.821 35.8927 117.834 35.9933 117.872C36.1184 117.95 36.4424 117.952 36.4625 118.194C36.6166 118.281 36.706 118.399 36.7641 118.529C36.8088 118.549 36.8535 118.569 36.9004 118.587C37.4388 118.826 37.984 119.056 38.5314 119.28C38.6074 119.195 38.7012 119.13 38.8219 119.103C38.9425 119.049 39.0408 119.188 39.1347 119.226C39.1749 119.331 39.1525 119.425 39.1123 119.516C39.5145 119.675 39.9212 119.829 40.3278 119.981C40.3323 119.977 40.3367 119.972 40.3412 119.97C40.5803 119.843 40.8439 119.974 41.0227 120.131C41.0137 120.162 40.9958 120.191 40.9802 120.218C41.0137 120.231 41.0495 120.242 41.083 120.254C42.0817 120.611 43.0938 120.942 44.1171 121.248C45.2142 121.576 46.3224 121.874 47.4418 122.142C49.8369 122.714 52.2857 123.145 54.7791 123.426C57.0827 123.688 59.4242 123.826 61.7993 123.826C63.513 123.826 65.2088 123.753 66.889 123.616C67.7492 123.547 68.6049 123.46 69.4562 123.355C69.4227 123.339 69.3914 123.315 69.3668 123.272C69.483 123.23 69.5969 123.411 69.7019 123.268C69.769 123.274 69.8338 123.286 69.8986 123.299C71.5966 123.076 73.2723 122.781 74.9257 122.423C74.9547 122.249 74.9592 122.063 75.0642 121.938C75.1089 121.943 75.2206 122.034 75.1156 122.068C75.1245 122.173 75.1067 122.282 75.0821 122.39C75.6786 122.258 76.273 122.119 76.8628 121.972C78.304 121.61 79.7249 121.197 81.1258 120.734C81.1348 120.732 81.1437 120.727 81.1549 120.725C81.137 120.696 81.1258 120.663 81.1281 120.627C81.1035 120.562 81.1437 120.513 81.1862 120.464C81.2599 120.406 81.3917 120.365 81.4967 120.417C81.5727 120.435 81.633 120.493 81.6665 120.56C83.4495 119.952 85.1967 119.264 86.9037 118.502C86.8568 118.424 86.8434 118.33 86.8613 118.256C86.9015 118.149 87.0154 118.223 87.0869 118.176C87.183 118.182 87.2478 118.252 87.2768 118.334C87.5338 118.218 87.7885 118.095 88.0454 117.977C91.4661 116.364 94.717 114.447 97.7579 112.257C97.807 112.221 97.8584 112.183 97.9076 112.148C98.5823 111.658 99.2504 111.158 99.905 110.642C100.544 110.139 101.17 109.621 101.789 109.093C101.789 109.08 101.789 109.064 101.789 109.049C101.789 109.049 101.789 109.046 101.789 109.044C101.809 108.765 102.048 108.423 102.378 108.548C102.387 108.55 102.396 108.555 102.405 108.559C102.488 108.486 102.571 108.412 102.653 108.34C102.883 108.137 103.113 107.932 103.341 107.726C103.321 107.666 103.297 107.608 103.236 107.572C103.109 107.572 103.015 107.411 102.877 107.456L102.872 107.449ZM38.9403 117.182L38.9023 117.186C38.8956 117.157 38.9135 117.137 38.9358 117.126C38.9738 117.123 38.9425 117.155 38.9403 117.182ZM38.9671 117.184C38.9894 117.175 38.9895 117.148 39.0096 117.146L38.9671 117.184ZM40.1379 118.665V118.641L40.187 118.67H40.1379V118.665ZM40.1669 118.531H40.1312L40.2071 118.513L40.1647 118.531H40.1669ZM43.105 119.487C43 119.557 42.8212 119.597 42.6894 119.519C42.4615 119.445 42.361 119.121 42.5397 118.971C42.6649 118.833 42.8347 118.918 42.9508 118.931C43.0782 118.998 43.2167 119.123 43.1966 119.277C43.2212 119.364 43.1631 119.427 43.1028 119.487H43.105ZM47.8082 121.299C47.6875 121.364 47.5892 121.259 47.5132 121.223C47.444 121.143 47.3792 121.022 47.4328 120.919C47.4373 120.852 47.4954 120.826 47.5512 120.797C47.6406 120.776 47.7747 120.794 47.8462 120.882C47.9847 120.991 47.9713 121.241 47.8082 121.299ZM49.3074 122.215H49.3409L49.3655 122.22L49.3074 122.215ZM49.3856 122.144L49.3588 122.113L49.3923 122.128L49.3856 122.146V122.144ZM49.5889 121.17C49.39 121.197 49.2426 121.038 49.1599 120.884C49.2471 120.772 49.4012 120.732 49.5263 120.707C49.6023 120.727 49.6738 120.817 49.7006 120.882C49.7073 121.007 49.7297 121.138 49.5911 121.17H49.5889ZM53.4386 122.394C53.481 122.557 53.4386 122.743 53.4229 122.91C53.3671 122.946 53.3403 122.897 53.3202 122.857C53.3783 122.68 53.2933 122.459 53.3849 122.305C53.4185 122.305 53.5123 122.356 53.4386 122.394ZM53.7648 121.596C53.6419 121.637 53.5324 121.608 53.4699 121.494C53.4229 121.38 53.4498 121.246 53.5123 121.167C53.5905 121.089 53.6642 121.201 53.7469 121.19C53.9011 121.275 53.8698 121.507 53.767 121.596H53.7648ZM70.0348 122.705C70.0572 122.897 69.8874 123.011 69.7176 123.024C69.3713 123.029 69.2729 122.716 69.0741 122.513C69.1031 122.459 69.197 122.414 69.1389 122.34C69.3377 122.352 69.4763 122.235 69.6282 122.075C69.7533 122.057 69.8941 122.095 69.97 122.215C70.1957 122.399 69.8003 122.519 70.0371 122.705H70.0348ZM75.7211 121.089C75.5513 121.114 75.4128 121.054 75.3525 120.89C75.3145 120.73 75.3793 120.558 75.4798 120.47C75.6027 120.383 75.6719 120.549 75.7837 120.551C75.9691 120.696 75.8775 120.998 75.7211 121.092V121.089ZM83.0518 118.232C83.1166 118.245 83.1546 118.245 83.197 118.29C83.2328 118.339 83.2395 118.39 83.2082 118.437C83.1635 118.462 83.0987 118.484 83.0339 118.471C82.9624 118.442 82.8932 118.419 82.8641 118.35C82.8999 118.292 82.9714 118.227 83.0518 118.234V118.232ZM83.2283 119.936C83.0563 120.046 82.8507 119.963 82.7077 119.856C82.739 119.715 82.8664 119.61 82.9714 119.536C83.0496 119.523 83.1546 119.574 83.2082 119.624C83.2663 119.735 83.3445 119.847 83.2305 119.936H83.2283Z" fill="#E5B700"/>
<path d="M102.657 107.476C102.682 107.48 102.706 107.487 102.731 107.496C102.673 107.453 102.62 107.418 102.575 107.473C102.602 107.469 102.628 107.467 102.657 107.476Z" fill="#E5B700"/>
<path d="M102.372 107.601C102.372 107.601 102.365 107.599 102.363 107.599C102.361 107.603 102.361 107.608 102.358 107.612C102.363 107.61 102.368 107.605 102.372 107.601Z" fill="#E5B700"/>
<path d="M103.951 106.81C103.694 106.975 103.493 107.235 103.339 107.489C103.341 107.545 103.377 107.597 103.417 107.646C103.585 107.492 103.753 107.335 103.918 107.179C103.918 107.179 103.913 107.174 103.913 107.172C103.949 107.089 104.068 107.045 104.094 106.98C104.001 106.96 103.985 106.877 103.951 106.808V106.81Z" fill="#E5B700"/>
<path d="M104.364 106.76C104.384 106.743 104.402 106.723 104.422 106.705C104.339 106.709 104.264 106.714 104.199 106.714C104.259 106.716 104.313 106.736 104.364 106.763V106.76Z" fill="#E5B700"/>
<path d="M111.255 41.1196C108.659 35.0424 104.977 29.5416 100.453 24.8607C99.2415 23.6095 97.9725 22.4164 96.6475 21.2859C96.4822 21.4378 96.3414 21.5048 96.1337 21.6233C96.118 21.9115 96.2051 22.2086 96.3146 22.4656C96.442 22.5505 96.6922 22.3963 96.7459 22.6086C96.6632 22.6913 96.5581 22.6086 96.4442 22.584C97.2217 23.2655 97.9814 23.9737 98.7254 24.7043C98.8237 24.8027 98.9265 24.8965 99.0248 24.997C102.754 28.7261 105.859 32.9288 108.304 37.5291C108.386 37.6833 108.467 37.8375 108.547 37.9916C108.78 38.0698 108.905 38.2955 109.097 38.4363C109.001 38.5346 109.168 38.5659 109.2 38.6597C109.249 38.7088 109.352 38.7021 109.387 38.7714C109.347 38.8585 109.224 38.7044 109.215 38.8429C109.193 39.0887 109.521 39.0909 109.591 39.2741C109.437 39.2875 109.323 39.0619 109.177 39.178C109.177 39.1982 109.177 39.2205 109.177 39.2406C109.22 39.3277 109.262 39.4171 109.305 39.5043C109.334 39.473 109.367 39.4506 109.408 39.4529C109.459 39.4774 109.439 39.5467 109.408 39.5735C109.394 39.5936 109.378 39.6093 109.363 39.6249C109.691 40.3175 110.009 41.0191 110.308 41.7274C110.438 42.0335 110.56 42.3418 110.686 42.6501H111.508C111.508 42.6501 111.521 42.6434 111.53 42.6367L111.523 42.6501H111.888C111.687 42.1362 111.476 41.6268 111.26 41.1196H111.255ZM98.4573 23.0756C98.2495 23.0979 98.0283 23.0152 97.8272 22.9661C97.7937 22.8901 97.8563 22.8655 97.9099 22.8499C98.1177 22.9504 98.4014 22.8834 98.5757 23.0242C98.5712 23.0644 98.4908 23.1716 98.4573 23.0756ZM110.875 41.9999L110.862 41.9553L110.882 41.9396L110.875 41.9999ZM111.048 42.201L111.065 42.21L111.077 42.2234L111.05 42.201H111.048Z" fill="#E5B700"/>
<path d="M62.7869 8.47001C62.7109 8.47001 62.6327 8.47001 62.5545 8.46777C62.5568 8.48788 62.55 8.51246 62.521 8.53704C62.6394 8.56161 62.6729 8.51693 62.7869 8.49682C62.7869 8.48565 62.7869 8.47894 62.7869 8.47001Z" fill="#E5B700"/>
<path d="M48.5903 113.211C48.798 113.448 48.76 113.895 49.0796 114.007C49.1198 113.966 49.1421 113.879 49.2159 113.919C49.2449 113.964 49.2873 114.04 49.3655 114.065C49.6359 113.993 49.6918 113.705 49.8392 113.497C48.8807 113.274 47.9289 113.023 46.9838 112.746C46.6889 112.659 46.3962 112.574 46.1035 112.483C45.7572 112.376 45.4131 112.264 45.069 112.148C43.8022 111.723 42.5488 111.249 41.311 110.724C40.8261 110.519 40.348 110.307 39.8721 110.088C39.9078 110.15 39.9637 110.213 39.9436 110.304C40.1424 110.519 40.2966 110.765 40.5602 110.923C40.4887 111.001 40.3435 110.791 40.1849 110.863C39.9771 110.939 40.0374 111.162 40.0173 111.317C40.024 111.341 40.0307 111.366 40.0396 111.39C41.559 112.065 43.1163 112.668 44.7071 113.202C45.3438 113.414 45.9851 113.618 46.6308 113.808C46.7671 113.848 46.9034 113.886 47.0396 113.926C47.4463 114.042 47.8552 114.154 48.2663 114.261C48.3222 114.174 48.3735 114.085 48.3311 113.966C48.2976 113.797 48.1456 113.732 48.1322 113.555C48.1702 113.506 48.2216 113.464 48.2819 113.473C48.4785 113.564 48.3668 113.826 48.6283 113.859C48.702 113.841 48.6886 113.754 48.6997 113.694C48.5567 113.591 48.5858 113.408 48.4986 113.274C48.5612 113.316 48.5634 113.236 48.588 113.216L48.5903 113.211Z" fill="#E5B700"/>
<path d="M39.003 119.403C39.0723 119.293 38.8466 119.315 38.9203 119.199C38.8265 119.208 38.8109 119.246 38.7327 119.289C38.7483 119.385 38.86 119.311 38.8712 119.396C38.86 119.398 38.8511 119.403 38.8421 119.409C38.8757 119.423 38.907 119.436 38.9382 119.449C38.9382 119.432 38.9382 119.407 38.9583 119.423C38.9561 119.429 38.9494 119.445 38.9404 119.449C38.9538 119.454 38.9673 119.461 38.9807 119.465C38.9851 119.461 38.9918 119.454 39.012 119.452C39.0343 119.456 39.0298 119.47 39.0253 119.483C39.0387 119.487 39.0499 119.494 39.0633 119.499C39.0767 119.436 39.0834 119.369 39.0857 119.309C39.0499 119.331 39.0656 119.409 39.003 119.403ZM38.9136 119.403C38.9337 119.385 38.9338 119.365 38.927 119.347C38.9338 119.36 38.9471 119.369 38.9717 119.369C38.9717 119.414 38.9449 119.369 38.9136 119.4V119.403Z" fill="#E5B700"/>
<path d="M35.7074 115.937C35.7275 116.013 35.8191 115.999 35.8839 116.008C35.9688 115.883 36.1096 115.877 36.2369 115.827C36.1431 115.783 36.0492 115.738 35.9554 115.693C35.8459 115.738 35.7253 115.758 35.7074 115.937Z" fill="#E5B700"/>
<path d="M38.8283 119.402C38.8283 119.402 38.8348 119.389 38.8392 119.382C38.8305 119.389 38.8217 119.393 38.813 119.395C38.8174 119.395 38.8239 119.4 38.8283 119.402Z" fill="#E5B700"/>
<path d="M34.9611 115.475C35.2024 115.407 35.3342 115.718 35.5867 115.622C35.6336 115.611 35.6738 115.593 35.7096 115.568C35.0773 115.26 34.4539 114.941 33.835 114.61C32.1615 113.716 30.535 112.744 28.9598 111.696C28.8056 111.594 28.6492 111.491 28.495 111.386C28.3811 111.31 28.2694 111.229 28.1577 111.153C28.0348 111.068 27.9119 110.984 27.789 110.899C27.8248 111.044 28.0303 111.118 28.0527 111.27C27.9074 111.249 27.8471 111.017 27.6885 111.095C27.655 111.229 27.6125 111.404 27.655 111.509C27.6997 111.451 27.7712 111.379 27.8449 111.397C27.8873 111.43 27.8561 111.491 27.8181 111.509C27.7376 111.585 27.646 111.582 27.5745 111.618C27.4941 111.748 27.5142 111.9 27.5567 112.043C27.6103 112.025 27.6438 112.09 27.646 112.134C27.7019 112.304 27.4829 112.411 27.5611 112.59C27.5879 112.688 27.6661 112.737 27.7086 112.816C27.7198 112.838 27.7309 112.863 27.7354 112.892C27.7108 112.932 27.6728 112.965 27.6281 112.963C27.4717 112.903 27.5433 112.697 27.3399 112.688C27.2863 112.706 27.2997 112.771 27.2952 112.818C27.4114 112.887 27.398 113.03 27.474 113.128C27.4226 113.099 27.4271 113.16 27.4092 113.18C27.2371 113.012 27.2394 112.666 26.9891 112.599C26.9601 112.63 26.9489 112.7 26.8908 112.675C26.8663 112.641 26.8305 112.588 26.7679 112.572C26.6696 112.606 26.6138 112.677 26.5691 112.76C26.8506 112.956 27.1344 113.155 27.4181 113.347C27.6527 113.506 27.8918 113.66 28.1309 113.817C28.142 113.823 28.151 113.83 28.1621 113.837C28.5353 113.776 28.58 113.303 28.9397 113.227C29.0045 113.213 29.0737 113.184 29.1408 113.16C29.2927 113.104 29.4469 113.059 29.5742 113.196C29.6815 113.2 29.6703 113.296 29.706 113.365C29.7574 113.513 29.639 113.629 29.6122 113.745C29.5385 113.689 29.4871 113.725 29.4312 113.756C29.3932 113.779 29.353 113.799 29.2994 113.783C29.1229 113.931 28.9263 114.045 28.7945 114.246C29.21 114.512 29.6301 114.771 30.0546 115.025C30.4456 115.26 30.8388 115.492 31.2343 115.72C31.3706 115.798 31.5114 115.874 31.6476 115.953C31.6633 115.944 31.6767 115.933 31.6968 115.926C31.8241 115.479 32.2509 115.421 32.5525 115.182C32.6441 115.338 32.7424 115.137 32.872 115.13C32.9502 115.086 32.9793 114.949 33.0798 114.932C33.1759 115.012 32.9368 115.115 33.1111 115.175C33.4172 115.289 33.5311 114.873 33.7903 114.849C33.7523 115.048 33.4261 115.115 33.5244 115.34C33.7076 115.396 33.9445 115.466 34.0942 115.414C34.0182 115.349 33.9221 115.242 33.9534 115.144C34.0026 115.086 34.0852 115.137 34.1076 115.189C34.2059 115.305 34.1992 115.43 34.2439 115.535C34.4182 115.655 34.6304 115.638 34.8293 115.591C34.8092 115.515 34.9008 115.474 34.9633 115.472L34.9611 115.475ZM31.6409 115.282C31.6521 115.323 31.6521 115.394 31.5896 115.369C31.5091 115.276 31.6342 115.325 31.6409 115.282ZM31.1717 114.865C31.031 114.601 30.9304 114.301 30.7517 114.067C30.7159 113.998 30.6132 113.913 30.7182 113.828C30.8589 113.747 30.9081 113.964 30.9237 114.042C31.165 114.281 31.2902 114.565 31.4153 114.867C31.3706 114.911 31.422 115.014 31.3237 114.985C31.2432 114.981 31.2209 114.9 31.1717 114.862V114.865Z" fill="#E5B700"/>
<path d="M39.7779 117.376C39.7601 117.369 39.7423 117.362 39.7267 117.354C39.7178 117.382 39.7089 117.411 39.7023 117.442C39.729 117.418 39.7534 117.396 39.7779 117.376Z" fill="#E5B700"/>
<path d="M25.9479 111.817C25.9301 111.859 25.8965 111.893 25.8854 111.946C25.9412 112.036 25.9725 112.168 26.1043 112.161C26.1423 112.264 26.0105 112.226 25.9993 112.288C26.0731 112.304 26.0775 112.373 26.0909 112.436C26.1401 112.469 26.187 112.503 26.2361 112.539C26.2741 112.456 26.321 112.38 26.3747 112.282C26.2764 112.096 26.1133 111.942 25.9479 111.819V111.817Z" fill="#E5B700"/>
<path d="M26.4237 112.665C26.4237 112.592 26.4237 112.525 26.4326 112.469C26.4259 112.527 26.397 112.578 26.3615 112.623C26.3815 112.639 26.4037 112.652 26.4237 112.667V112.665Z" fill="#E5B700"/>
<path d="M25.9659 111.442C25.9413 111.444 25.8787 111.466 25.8899 111.415C25.9056 111.334 26.0553 111.272 25.9502 111.205C25.9145 111.187 25.8609 111.167 25.8318 111.182C25.843 111.149 25.872 111.1 25.8877 111.055C25.729 110.952 25.7514 111.203 25.6263 111.203C25.8363 110.856 25.8028 110.421 26.0128 110.092C26.1089 110.009 26.2072 109.916 26.3144 109.837C26.3122 109.835 26.3077 109.833 26.3055 109.831C24.6097 108.564 22.9809 107.196 21.4169 105.744C20.8762 105.241 20.3399 104.732 19.8149 104.207C17.7593 102.151 15.8714 99.9685 14.1532 97.6672C13.0048 96.13 11.9368 94.537 10.9448 92.897C10.9224 92.9573 10.9113 92.9998 10.8554 93.0378C10.7906 93.0713 10.7236 93.0713 10.6744 93.0199C10.6543 92.9618 10.6387 92.8791 10.6677 92.8032C10.7057 92.7384 10.7392 92.6781 10.7951 92.6445C10.2298 91.6994 9.69133 90.7365 9.17968 89.7578C8.42449 88.3167 7.72293 86.8421 7.08616 85.3317C6.80911 84.6748 6.54769 84.0135 6.29521 83.3499C5.864 82.2194 5.46631 81.0776 5.10659 79.927C5.08201 80.0052 5.04401 80.0812 4.98369 80.1482C4.80271 80.347 4.68654 80.7157 4.34916 80.6464C4.23521 80.7179 4.17488 80.6129 4.08774 80.5682C3.92687 80.4543 3.96487 80.2465 3.90678 80.108C4.10563 80.1124 4.04082 79.8979 4.20169 79.8376C4.27542 79.5561 4.39609 79.2947 4.38715 78.9886C4.48993 79.0065 4.39384 79.2411 4.53907 79.3349C4.67536 79.4377 4.80049 79.3572 4.9122 79.2857C4.69101 78.5507 4.48321 77.8111 4.29107 77.0671C4.11903 76.4013 3.96039 75.731 3.81293 75.0585C3.80175 75.0987 3.77941 75.1344 3.73026 75.1546C3.70792 75.0674 3.84646 74.9982 3.74815 74.911C3.75262 74.8864 3.75931 74.8619 3.76601 74.8395C3.7325 74.6898 3.70121 74.5379 3.66769 74.3882C3.33702 72.7951 3.06891 71.1887 2.87006 69.5666C2.63323 67.6496 2.49023 65.7125 2.44107 63.7597C2.4366 63.6256 2.43662 63.4916 2.43439 63.3575C2.42769 62.9777 2.42097 62.6001 2.42097 62.218C2.42097 59.7827 2.56842 57.3674 2.85664 54.9834C2.9192 54.4606 2.98848 53.94 3.06668 53.4194C3.25436 52.1481 3.48896 50.8835 3.7593 49.6301C3.76601 49.5966 3.77494 49.5608 3.78164 49.5273C3.78611 49.505 3.79059 49.4826 3.7973 49.4603C3.53142 49.3955 3.39513 49.3061 3.1583 49.1765C2.90359 49.315 2.69355 49.5452 2.53045 49.7775C2.52598 49.9295 2.78962 50.0658 2.63545 50.2222C2.47905 50.1842 2.5662 49.9429 2.42321 49.8423C2.30256 49.8334 2.22436 49.6748 2.0903 49.706C2.09477 49.7396 2.12157 49.8178 2.05678 49.8043C1.954 49.7865 1.87135 49.5943 1.78868 49.7306C1.76633 49.7775 1.74176 49.8468 1.75963 49.8825C1.71718 49.8691 1.65239 49.8312 1.59653 49.8133C1.46694 50.0166 1.78644 49.9853 1.78644 50.1484C1.66579 50.0769 1.53621 50.0278 1.40215 49.9898C1.36193 50.1886 1.32618 50.3897 1.2882 50.5908C1.34629 50.5595 1.41108 50.5327 1.45353 50.497C1.75963 50.5327 1.82443 50.8813 2.01434 51.069C1.81996 51.2365 2.02549 51.489 1.93388 51.7013C1.88696 51.6633 1.90039 51.5739 1.86911 51.5225L1.93836 51.527C1.88473 51.4957 1.92944 51.4555 1.87582 51.4242H1.88921C1.86463 51.3818 1.92272 51.2522 1.82664 51.308C1.811 51.2298 1.88474 51.165 1.9473 51.1002C1.79314 51.1181 1.94284 50.9729 1.79091 51.0399C1.79091 50.9617 1.88028 51.0667 1.86464 50.9751C1.83559 50.8053 1.66132 50.6802 1.50715 50.593C1.51162 50.6422 1.59876 50.669 1.56078 50.7293C1.48481 50.5975 1.38426 50.8433 1.30383 50.7048C1.26138 50.8075 1.29488 50.8433 1.29264 50.9483C1.40213 50.984 1.38427 50.8299 1.48034 50.8634C1.44906 50.9952 1.62781 50.9438 1.56301 51.0935C1.57195 50.9684 1.50715 50.9841 1.4513 50.8902C1.4647 50.9952 1.33286 50.9796 1.3485 51.0444L1.44012 51.0287C1.39766 51.0466 1.40214 51.0779 1.42001 51.1159C1.43789 51.1561 1.46917 51.2052 1.47364 51.2477H1.46022C1.44234 51.2879 1.49151 51.2834 1.50492 51.2991H1.44235C1.42671 51.5382 1.72388 51.5672 1.67473 51.7795C1.57195 51.737 1.6077 51.5493 1.4513 51.5806C1.33735 51.451 1.23681 51.308 1.17872 51.1539C1.15861 51.2656 1.1385 51.3773 1.11839 51.489C1.10945 51.5426 1.10052 51.5985 1.09158 51.6521C1.13403 51.6521 1.17423 51.6655 1.21445 51.6834C1.24126 51.6968 1.26807 51.7102 1.29264 51.7303C1.42223 51.8465 1.43787 51.9805 1.43117 52.1213C1.42447 52.2308 1.40436 52.3425 1.40883 52.452C1.35744 52.4698 1.2703 52.443 1.2636 52.5257C1.18093 52.4408 1.0804 52.4118 0.966448 52.4051C0.796642 53.4663 0.653638 54.5343 0.537455 55.6135C0.30509 57.7852 0.184448 59.9882 0.184448 62.2225C0.184448 64.4568 0.316262 66.8274 0.566502 69.0773C0.785462 71.0569 1.09827 73.0096 1.50045 74.9289C1.61439 75.4718 1.73728 76.0125 1.86464 76.551C2.46342 79.0623 3.21415 81.5133 4.1101 83.8951C4.95913 86.1539 5.9355 88.3502 7.03254 90.4728C8.46695 93.2478 10.1069 95.8977 11.9301 98.4045C14.4012 101.803 17.2075 104.942 20.3064 107.766C21.3052 108.678 22.3374 109.554 23.3942 110.396C23.4233 110.347 23.4545 110.3 23.4925 110.253C23.6199 110.126 23.7986 110.097 23.9706 110.038C24.1628 110.05 24.2164 110.289 24.3885 110.313C24.4845 110.409 24.4957 110.572 24.5046 110.711C24.5046 110.724 24.5046 110.738 24.5069 110.751C24.3393 110.823 24.5583 111.104 24.3036 111.082C24.3036 111.091 24.3036 111.1 24.3036 111.109C24.384 111.171 24.4644 111.232 24.5449 111.294C24.6789 111.272 24.8197 111.261 24.8934 111.127C24.9448 111.12 24.9359 111.196 24.9448 111.247C25.0319 111.341 25.1392 111.191 25.2196 111.189L25.2688 111.332L25.4028 111.301C25.4274 111.361 25.4028 111.489 25.5101 111.486C25.6508 111.529 25.6441 111.328 25.7603 111.413C25.7581 111.482 25.6419 111.5 25.6352 111.576C25.6687 111.661 25.7335 111.716 25.8028 111.745C25.8229 111.734 25.843 111.721 25.8586 111.701C25.8676 111.607 25.9904 111.547 25.9659 111.442ZM1.51386 50.8187C1.50493 50.7874 1.4848 50.7785 1.46469 50.774C1.48256 50.774 1.49822 50.7673 1.51386 50.7405C1.56078 50.7651 1.49822 50.7673 1.51386 50.8187ZM1.55854 50.7785C1.55854 50.7785 1.57864 50.8008 1.5764 50.8142C1.5563 50.8053 1.52949 50.7897 1.55854 50.7785ZM1.46693 50.9908L1.47364 50.984L1.53173 51.0511L1.52502 51.0578L1.46693 50.9908ZM1.48482 51.1315C1.51163 51.1315 1.52056 51.1136 1.5362 51.1002C1.54067 51.1494 1.52503 51.1494 1.48482 51.1315ZM3.23202 50.0859L3.24544 50.1015L3.21192 50.0792L3.23202 50.0881V50.0859ZM3.00859 49.7842L3.00412 49.8535L2.98625 49.8043L3.00859 49.7842ZM3.04434 51.3482C3.06669 51.5806 3.27448 51.7884 3.24544 52.0118C3.20745 52.0297 3.07337 52.0163 3.13817 51.9381C3.00858 51.7705 2.9639 51.5382 2.89911 51.3393C2.94603 51.27 3.00189 51.3125 3.04211 51.3482H3.04434ZM1.77526 50.879L1.73729 50.9103L1.7194 50.8612L1.77302 50.879H1.77526ZM1.76187 51.5717L1.74845 51.661C1.74845 51.6342 1.6926 51.5672 1.76187 51.5717ZM1.57417 51.5359L1.59874 51.4756L1.60992 51.518L1.57417 51.5359ZM1.61663 50.7405C1.64791 50.7003 1.66355 50.7785 1.69259 50.7673C1.60992 50.7606 1.70154 50.8388 1.67473 50.8366C1.63674 50.7785 1.59876 50.8098 1.61887 50.7405H1.61663ZM1.97411 74.6719L1.99645 74.6429L2.00987 74.6541L1.97411 74.6719ZM2.05678 74.7479L2.06349 74.7166L2.07688 74.6943L2.05678 74.7479ZM2.19978 70.3374C2.31596 70.2145 2.52821 70.3017 2.58407 70.4201C2.59077 70.5452 2.53715 70.6413 2.41426 70.6726C2.29584 70.6882 2.17744 70.6301 2.11935 70.5519C2.06572 70.4581 2.1886 70.4179 2.19754 70.3374H2.19978ZM2.88346 74.882C2.87899 74.7904 2.91475 74.6921 3.00859 74.6451C3.15605 74.4954 3.21637 74.7881 3.36607 74.6317C3.50683 74.6295 3.57834 74.7591 3.57611 74.882C3.556 75.1322 3.32361 75.1814 3.16274 75.311C3.12699 75.2864 3.1002 75.2149 3.04434 75.2529C3.06669 75.1099 2.9907 75.0026 2.88569 74.882H2.88346ZM8.62335 90.5532C8.53845 90.7566 8.23234 90.8236 8.10945 90.6471C7.99103 90.522 8.08266 90.3723 8.10277 90.2673C8.17427 90.1555 8.29939 90.0371 8.44015 90.0684C8.52282 90.0528 8.5742 90.1109 8.62558 90.1712C8.68144 90.274 8.70378 90.4393 8.62111 90.5555L8.62335 90.5532ZM9.24225 92.7831C9.09479 92.8322 8.9451 92.9037 8.85796 92.7473C8.75965 92.5172 8.90039 92.2848 9.05902 92.1351C9.22213 92.2021 9.3249 92.3742 9.39193 92.515C9.39193 92.6133 9.30928 92.7272 9.24001 92.7831H9.24225ZM25.3313 109.712C25.3559 109.645 25.4051 109.601 25.4721 109.603C25.5257 109.632 25.5927 109.681 25.6218 109.755C25.6419 109.846 25.6643 109.929 25.6129 110.005C25.5302 110.005 25.4185 109.98 25.3715 109.895C25.3425 109.822 25.3157 109.784 25.3336 109.712H25.3313Z" fill="#E5B700"/>
<path d="M28.8526 113.957C28.799 113.792 28.6225 113.832 28.5041 113.812C28.4102 113.832 28.3142 113.884 28.2292 113.886C28.4169 114.009 28.6046 114.13 28.7945 114.25C28.7364 114.19 28.904 114.085 28.8549 113.957H28.8526ZM28.6851 114.067V114.025L28.7029 114.013L28.6851 114.067Z" fill="#E5B700"/>
<path d="M18.1794 93.6411C18.7067 94.3717 19.2496 95.0867 19.8127 95.7882C21.1778 97.493 22.6413 99.1129 24.2008 100.639C24.2254 100.587 24.2567 100.541 24.2902 100.496C24.3461 100.424 24.4131 100.36 24.5002 100.308C24.6298 100.264 24.8152 100.029 25.0029 100.154C25.0923 100.118 25.1772 100.105 25.2576 100.107C25.1035 99.9596 24.9516 99.81 24.7974 99.658C24.7237 99.5843 24.6499 99.515 24.5762 99.4413C23.2892 98.1543 22.0783 96.8093 20.941 95.4129C20.3065 94.6353 19.6987 93.8399 19.1111 93.0311C19.0821 92.9931 19.053 92.9529 19.0262 92.9149C18.9838 92.9261 18.9391 92.9328 18.8877 92.9261C18.7827 93.0043 18.7179 92.906 18.6285 92.8703C18.4654 92.772 18.4855 92.5686 18.4185 92.4368C18.5324 92.4323 18.5525 92.3586 18.5794 92.2849C18.242 91.8023 17.9136 91.3152 17.5941 90.8214C17.5561 90.8415 17.5181 90.8639 17.4846 90.8885C17.3349 90.6606 17.0377 90.8415 16.8299 90.7142C16.8768 90.6695 16.9707 90.6985 17.0288 90.6717L17.0131 90.7455C17.0534 90.6941 17.0891 90.7455 17.1315 90.6941V90.7097C17.1785 90.6896 17.3058 90.77 17.2611 90.6606C17.346 90.6561 17.4041 90.7432 17.4644 90.817C17.4667 90.7164 17.5159 90.741 17.5427 90.741C17.4377 90.5801 17.3349 90.417 17.2321 90.2539C17.0534 90.2807 16.9729 90.5042 16.783 90.4327C16.8433 90.3321 17.0355 90.3947 17.0243 90.2249C17.069 90.1958 17.1137 90.169 17.1606 90.1422C17.1025 90.0506 17.0466 89.959 16.9908 89.8674C16.9729 89.9299 16.9372 89.9903 16.888 90.0372C16.6378 90.2517 16.3764 90.0819 16.1082 90.0573C16.0971 90.0014 16.1395 89.9121 16.0524 89.8942C16.2043 89.7825 16.2334 89.6127 16.2468 89.4027C16.3272 89.3133 16.4523 89.2552 16.5797 89.2976C16.6065 89.2976 16.6266 89.3021 16.6467 89.3088C16.3093 88.748 15.9854 88.1827 15.6703 87.6085C15.3151 86.9606 14.971 86.3059 14.6425 85.6423C14.5733 85.5061 14.5063 85.3675 14.4392 85.2312C14.256 84.8559 14.0795 84.4783 13.9052 84.0985C13.8762 84.0985 13.836 84.0761 13.8002 84.0649C13.6707 84.0985 13.7578 84.2683 13.7198 84.3442L13.5656 84.3197L13.5299 84.4559C13.4628 84.4492 13.3578 84.3666 13.3087 84.4626C13.2037 84.5699 13.3891 84.6615 13.2528 84.7241C13.1925 84.6883 13.2305 84.5744 13.1634 84.5297C13.0629 84.5185 12.9758 84.5543 12.9132 84.6123C13.436 85.7518 13.9968 86.869 14.5956 87.9638C15.6726 89.9344 16.8701 91.8313 18.1794 93.6433V93.6411ZM18.3559 92.2938L18.3448 92.3139L18.3269 92.3251L18.3559 92.2938ZM17.7639 92.8323L17.7169 92.7988C17.7571 92.7854 17.746 92.8055 17.7639 92.8323ZM17.1114 90.3924L17.0645 90.3969L17.0511 90.3567L17.1114 90.3924ZM16.9885 90.5488L16.8947 90.522C16.9238 90.5287 17.0019 90.4773 16.9885 90.5488ZM15.6435 88.3592V88.3838L15.5966 88.3659L15.6435 88.3615V88.3592ZM15.6726 88.4799L15.6055 88.5112L15.6413 88.4888L15.6726 88.4799ZM14.5912 87.1505C14.6135 86.9717 14.7565 86.8288 14.8772 86.7237C14.9732 86.6992 15.1073 86.7483 15.1788 86.8019C15.2659 86.9338 15.3754 87.0634 15.2436 87.1885C15.0447 87.3449 14.7788 87.2667 14.5912 87.1505Z" fill="#E5B700"/>
<path d="M16.8118 89.5764C16.794 89.5475 16.7762 89.5208 16.7606 89.4941C16.7695 89.5275 16.7851 89.5564 16.8118 89.5764Z" fill="#E5B700"/>
<path d="M4.14141 47.9678C3.91798 48.0862 3.63201 48.1421 3.56721 48.3923C3.60966 48.4303 3.69681 48.4437 3.6633 48.5174C3.62085 48.551 3.55157 48.5956 3.53369 48.6738C3.59402 48.8459 3.74148 48.9174 3.89788 48.9822C3.97608 48.6426 4.05874 48.3052 4.14141 47.9656V47.9678Z" fill="#E5B700"/>
<path d="M3.80625 49.4111C3.81295 49.3776 3.81967 49.3441 3.82861 49.3106C3.84202 49.2458 3.85541 49.181 3.87105 49.1184C3.79732 49.114 3.72583 49.1117 3.65657 49.1117C3.56273 49.1117 3.47335 49.1117 3.40186 49.1028C3.58507 49.1251 3.71688 49.2994 3.80848 49.4111H3.80625Z" fill="#E5B700"/>
<path d="M2.16406 47.5499C2.09033 47.4941 1.99648 47.4002 2.02106 47.3086C2.03447 47.2907 2.05236 47.2863 2.07024 47.284C2.10822 47.284 2.14842 47.3086 2.16406 47.3399C2.21098 47.389 2.23556 47.4427 2.25344 47.4941C2.27131 47.5477 2.28471 47.6013 2.30706 47.6505C2.34727 47.675 2.38974 47.6929 2.43443 47.7041C2.56848 47.7376 2.71371 47.713 2.85 47.6706C2.82766 47.6013 2.91033 47.5588 2.96619 47.5544C3.18291 47.4806 3.32143 47.7599 3.54933 47.6572C3.71243 47.6102 3.76382 47.4583 3.93362 47.4315C3.98501 47.465 4.03194 47.5097 4.02524 47.57C3.9515 47.7689 3.68561 47.6795 3.67667 47.9409C3.69902 48.0102 3.78392 47.9923 3.84425 47.9968C3.92021 47.8716 4.06097 47.8627 4.17939 47.8024C4.38494 46.9779 4.61061 46.1602 4.85191 45.3447C4.89213 45.2128 4.92788 45.081 4.9681 44.9492C5.08428 44.5627 5.20717 44.1784 5.33229 43.7963C5.40602 43.5684 5.47975 43.3428 5.55572 43.1149C5.53561 43.1014 5.51325 43.097 5.48197 43.1149C5.51101 42.9361 5.41496 42.7998 5.28314 42.6479C5.27644 42.5317 5.32335 42.4088 5.43953 42.3507C5.59593 42.1921 5.67414 42.4312 5.81043 42.3865C6.01151 41.819 6.21929 41.2537 6.43825 40.6929C6.35111 40.6638 6.27069 40.6169 6.20143 40.5655C6.23941 40.3868 6.39804 40.2505 6.52986 40.1544C6.56561 40.1477 6.60583 40.1544 6.64828 40.1656C6.79128 39.8103 6.93203 39.4551 7.08172 39.1043C7.18227 38.8652 7.28952 38.6306 7.39229 38.3938C7.38336 38.3759 7.37666 38.3558 7.37219 38.3312C7.39007 38.3156 7.41018 38.3111 7.43028 38.3089C7.47274 38.2106 7.51518 38.1101 7.55986 38.0117C7.77212 37.5358 7.98886 37.0644 8.21228 36.5952C8.46923 36.059 8.73286 35.5272 9.00544 34.9999C9.00544 34.8301 9.0278 34.6603 9.05014 34.486C9.1127 34.4682 9.1194 34.3542 9.18867 34.4302C9.23112 34.4592 9.23782 34.5017 9.24452 34.5441C9.53498 33.99 9.83438 33.4426 10.1427 32.8997C10.1852 32.826 10.2231 32.7522 10.2656 32.6785C10.1829 32.6606 10.0936 32.6495 10.0019 32.6405C9.81204 32.6226 9.61317 32.6048 9.4523 32.502C9.37857 32.5176 9.24005 32.4528 9.20877 32.5757C9.17525 32.7098 9.17972 32.826 9.23334 32.9354C9.24898 33.065 9.10152 33.0293 9.12386 33.1522C9.00098 33.1075 9.12163 32.9153 8.98981 32.8595C9.00322 32.7522 9.06577 32.6271 9.00768 32.5109C8.92501 32.3389 8.73511 32.3031 8.6301 32.1713C8.46699 32.1289 8.31729 32.0618 8.15195 32.073C8.0961 32.2897 8.45135 32.2048 8.48486 32.426C8.4938 32.4931 8.44465 32.5534 8.37986 32.54C8.25474 32.5199 8.0827 32.3411 7.98886 32.5243C7.9464 32.5802 7.94863 32.7187 7.83691 32.6763C7.79446 32.6763 7.75647 32.6763 7.71849 32.6673C7.113 33.7711 6.54327 34.8994 6.00481 36.0433C5.99587 36.0634 5.9847 36.0858 5.97576 36.1059C5.99811 36.0947 6.02267 36.0925 6.04948 36.0992C6.05172 36.0992 6.0562 36.0992 6.05843 36.0992C6.08748 36.1081 6.11653 36.1282 6.14781 36.1483C6.26846 36.2288 6.39803 36.3494 6.51868 36.2288C6.52762 36.2198 6.53655 36.2154 6.54325 36.2042C6.61028 36.1439 6.63712 35.9696 6.76447 36.0478C6.99237 36.0746 7.151 36.2042 7.26271 36.3897C7.30516 36.4611 7.34091 36.5393 7.37219 36.6265C7.41241 36.8119 7.33644 36.9884 7.28952 37.1739C7.21803 37.27 7.10406 37.2789 6.99682 37.299C6.92309 37.3124 6.85383 37.3303 6.80467 37.3884C6.65274 37.4219 6.48516 37.3169 6.34663 37.2454C6.37791 37.0555 6.00481 37.089 6.17014 36.8767C6.08748 36.8365 5.99141 36.6801 5.89757 36.7807C5.88416 36.984 5.67859 37.1672 5.79254 37.3772C5.77019 37.4264 5.7054 37.3772 5.65625 37.3526C5.52219 37.3772 5.59593 37.556 5.54901 37.6297L5.39262 37.5917L5.34344 37.728C5.31887 37.7235 5.28758 37.7079 5.25854 37.6945C4.767 38.825 4.30675 39.969 3.88447 41.133C3.4823 42.2345 3.11586 43.3517 2.77625 44.4822C2.55729 45.2106 2.3495 45.9457 2.15735 46.6852C2.11043 46.8685 2.06574 47.0517 2.01882 47.2349C1.99201 47.3466 1.9652 47.4583 1.93616 47.57C2.01883 47.5767 2.09702 47.5767 2.15735 47.5521L2.16406 47.5499ZM9.15962 33.9632C9.18196 34.0861 9.09705 33.9811 9.07024 34.0124C9.08141 33.9722 9.1194 33.9096 9.15962 33.9632ZM6.64158 39.6316L6.5969 39.6428C6.5835 39.6093 6.59913 39.5802 6.62371 39.5646C6.6684 39.5534 6.63711 39.5981 6.64158 39.6294V39.6316ZM6.6751 39.6294C6.69967 39.6137 6.69519 39.5824 6.71753 39.5757L6.6751 39.6294ZM6.89405 39.4283C6.85383 39.4417 6.85606 39.5042 6.82925 39.5422C6.82031 39.5579 6.80691 39.569 6.78234 39.569C6.80468 39.5646 6.82031 39.5556 6.82925 39.5422C6.85159 39.4998 6.83596 39.4238 6.89405 39.4283ZM6.61477 38.4988C6.69743 38.5145 6.74434 38.5145 6.8002 38.5703C6.84489 38.6306 6.85831 38.6977 6.81586 38.758C6.76 38.7893 6.67733 38.8206 6.5969 38.8027C6.50306 38.7669 6.4159 38.7401 6.38015 38.6508C6.42484 38.577 6.51422 38.4921 6.617 38.4988H6.61477ZM5.76125 37.6744C5.96681 37.6766 6.17238 37.7838 6.36229 37.8553C6.38687 37.9335 6.32206 37.9492 6.26844 37.9581C6.07853 37.8352 5.79255 37.8665 5.64062 37.7079C5.64956 37.6677 5.74114 37.5738 5.76125 37.6721V37.6744ZM4.27771 41.3699C4.37155 41.2939 4.5391 41.2403 4.67092 41.3051C4.89435 41.3565 5.01949 41.6559 4.86086 41.8145C4.75361 41.9575 4.58381 41.8905 4.47209 41.8905C4.34474 41.8368 4.20173 41.7318 4.2062 41.5821C4.17492 41.5017 4.22409 41.4369 4.27547 41.3721L4.27771 41.3699ZM4.14587 42.3842L4.17492 42.3485L4.19281 42.3619L4.14587 42.382V42.3842ZM4.24866 42.4781L4.25758 42.4379L4.27324 42.4111L4.24866 42.4781Z" fill="#E5B700"/>
<path d="M14.2158 37.1829C14.1711 37.2678 14.1287 37.3549 14.084 37.4398C14.1197 37.4041 14.1622 37.3772 14.2203 37.3705C14.265 37.2923 14.2493 37.2342 14.2158 37.1829Z" fill="#E5B700"/>
<path d="M5.9109 36.2581C5.86398 36.3586 5.81706 36.4591 5.77014 36.5597C5.92654 36.6379 6.07624 36.7206 6.24828 36.7384C6.36 36.4904 5.94218 36.5061 5.9109 36.2581Z" fill="#E5B700"/>
<path d="M8.19211 31.9592C8.26137 31.9793 8.35745 32.0865 8.41777 31.9971C8.3999 31.8385 8.53619 31.6665 8.41777 31.519C8.42894 31.4788 8.4848 31.5078 8.52725 31.519C8.62779 31.4833 8.54737 31.3514 8.57195 31.2889L8.69706 31.2978L8.71719 31.1861C8.77081 31.1861 8.8624 31.2464 8.89591 31.1638C8.97411 31.0699 8.81771 31.0096 8.92049 30.9493C8.97187 30.9738 8.94953 31.0677 9.00539 31.099C9.06125 31.099 9.10817 31.0833 9.14839 31.0587C9.20648 31.023 9.24669 30.9716 9.25787 30.9113C9.30925 30.9359 9.32043 30.9917 9.37182 31.0275C9.45895 31.0141 9.57068 31.0319 9.60643 30.9292C9.6958 30.9336 9.62652 31.023 9.6712 31.052C9.7427 30.9515 9.8857 31.1191 9.92815 30.9671C9.96837 31.0453 9.84996 31.061 9.879 31.1369C9.99742 31.519 10.4175 31.3403 10.5627 31.6464C10.413 31.7313 10.4219 31.9748 10.2365 32.0128C10.1628 32.1669 10.3192 32.2273 10.3772 32.301C10.3437 32.3814 10.2298 32.4284 10.203 32.4932C10.27 32.5066 10.2968 32.5535 10.3192 32.6026C10.6588 32.0128 11.0118 31.4296 11.3715 30.851C12.3233 29.3205 13.3466 27.8369 14.437 26.398C15.8825 24.4922 17.4488 22.669 19.129 20.933C19.129 20.9173 19.1334 20.8994 19.1446 20.8793C19.1781 20.5799 19.3926 20.4012 19.6875 20.2984C19.7099 20.294 19.7322 20.294 19.7545 20.2917C19.7746 20.2716 19.7925 20.2537 19.8104 20.2336C19.9109 20.1331 20.0137 20.037 20.1143 19.9365C20.1344 19.9164 20.1567 19.8963 20.1768 19.8761C21.4928 18.5825 22.8602 17.3536 24.2745 16.1963C24.5985 15.9326 24.9225 15.669 25.2509 15.412C25.2375 15.4009 25.2263 15.3875 25.2151 15.3741C25.1101 15.278 24.9939 15.1931 24.8778 15.1193C24.7258 15.1193 24.6052 15.3875 24.4443 15.2445C24.4733 15.0881 24.7146 15.164 24.8085 15.0188C24.813 14.9004 24.9649 14.8155 24.9269 14.6837C24.8956 14.6904 24.8197 14.7194 24.8286 14.6569C24.842 14.5563 25.0252 14.4647 24.8889 14.3887C24.842 14.3686 24.7727 14.3485 24.737 14.3686C24.7482 14.3262 24.7817 14.2614 24.7973 14.2055C24.5918 14.0871 24.6364 14.3999 24.4778 14.4066C24.7191 13.9575 24.6499 13.4101 24.8912 12.9834C25.0252 12.856 25.1615 12.7086 25.3157 12.5924C25.3961 12.532 25.4833 12.4829 25.5749 12.4471C25.6598 12.4159 25.7536 12.398 25.8519 12.4002C25.986 12.4315 26.2697 12.331 26.3613 12.5387C26.7769 12.6125 26.8707 12.9923 27.1143 13.2425C26.9825 13.3409 27.1724 13.4101 27.1902 13.5285C27.2394 13.5956 27.3623 13.609 27.3891 13.6983C27.3243 13.7922 27.2104 13.5866 27.1724 13.7497C27.1523 13.8302 27.1701 13.895 27.2037 13.9486C27.2819 13.8927 27.3578 13.8346 27.4338 13.781C27.5634 13.6894 27.693 13.6023 27.8226 13.5107C30.3786 11.7232 33.0731 10.1414 35.8928 8.77398C35.933 8.44107 35.9062 8.09923 36.0358 7.7976C36.1453 7.66801 36.2547 7.51608 36.3843 7.39543C36.4514 7.33287 36.5251 7.27701 36.6078 7.23679C36.6837 7.19881 36.7664 7.172 36.858 7.16529C36.9831 7.1787 37.2334 7.05805 37.3406 7.23903C37.7115 7.26137 37.8433 7.5697 38.0734 7.77525C38.0824 7.77078 38.0913 7.76855 38.1003 7.76408C38.2947 7.67918 38.4868 7.59204 38.6812 7.50937C41.7399 6.21572 44.8768 5.19242 48.0786 4.435C49.0818 4.19816 50.0894 3.98591 51.106 3.80269C52.5985 3.53235 54.1022 3.31785 55.6171 3.16145C56.8593 3.0341 58.1105 2.94696 59.3662 2.89781C60.1728 2.86653 60.9816 2.84419 61.7926 2.84419C65.7048 2.84419 69.5612 3.22178 73.3349 3.96356C74.1817 4.13113 75.0263 4.31658 75.8641 4.52213C75.9267 4.34116 76.0987 4.18699 76.1702 4.00825C76.4048 4.12443 76.5612 3.83174 76.7936 3.83397C76.7757 3.89207 76.6864 3.91664 76.6506 3.9658L76.6283 3.89877C76.6193 3.96133 76.5657 3.93452 76.5568 3.99708L76.5523 3.98367C76.521 4.02389 76.378 4.01942 76.4674 4.08645C76.4004 4.13113 76.311 4.08645 76.2239 4.05517C76.2998 4.19369 76.1077 4.10879 76.2283 4.22497C76.1568 4.25625 76.2194 4.13113 76.139 4.18029C76.025 4.25402 75.9714 4.39478 75.9424 4.53777C76.0005 4.55118 76.0585 4.56459 76.1166 4.58023C76.1233 4.58023 76.13 4.57799 76.1367 4.57129C76.1323 4.57576 76.1323 4.58023 76.1278 4.58246C76.1479 4.58693 76.168 4.5914 76.1881 4.5981C76.1881 4.59363 76.1859 4.58916 76.1859 4.58469C76.32 4.56235 76.2038 4.41265 76.3691 4.41712C76.2484 4.45734 76.2887 4.51096 76.2216 4.60257C76.2909 4.56235 76.3311 4.62491 76.3669 4.64055C76.3691 4.64055 76.3713 4.64055 76.3736 4.64055C76.3847 4.64279 76.3937 4.64279 76.4048 4.63608L76.3557 4.55565C76.387 4.58693 76.416 4.57129 76.4451 4.54224C76.4764 4.50873 76.5099 4.45957 76.5478 4.43947L76.5523 4.45287C76.597 4.45287 76.5747 4.40819 76.5836 4.39031L76.6104 4.4484C76.8383 4.3702 76.7489 4.07975 76.9679 4.04176C76.9679 4.15348 76.7802 4.19593 76.8696 4.32999C76.8025 4.46628 76.7221 4.60033 76.6238 4.70758C77.7879 5.00697 78.9408 5.34435 80.0869 5.71748C80.1763 5.68843 80.2724 5.67503 80.3618 5.67726C80.3819 5.72195 80.3886 5.76887 80.393 5.81579C81.3493 6.13082 82.2966 6.47043 83.2373 6.83685C83.3065 6.79664 83.3714 6.75195 83.3624 6.65811C83.4607 6.61789 83.4294 6.74748 83.492 6.75642C83.5188 6.61343 83.7579 6.71844 83.7244 6.53523C83.8048 6.59779 83.6886 6.67375 83.7557 6.74078C84.0752 7.08933 84.4326 6.68492 84.7454 6.93963C84.6516 7.07369 84.7164 7.26584 84.6516 7.4066C84.7343 7.44235 84.8192 7.47363 84.9018 7.50937C86.5217 8.1953 88.1013 8.95049 89.643 9.77047C91.2338 10.615 92.7799 11.5311 94.2836 12.5142C94.8578 12.8918 95.4276 13.2761 95.9906 13.6715C96.1157 13.6581 96.2453 13.6648 96.3659 13.6626C96.4129 13.7207 96.3637 13.7564 96.3213 13.7832C96.2654 13.7721 96.2051 13.7743 96.147 13.7788C96.6787 14.1564 97.2016 14.5451 97.7199 14.9406C97.8518 14.7105 97.9657 14.6144 98.1445 14.4401C98.0931 14.1877 97.9501 13.9486 97.7959 13.7497C97.6663 13.705 97.4831 13.895 97.3893 13.7252C97.463 13.6 97.644 13.7386 97.7691 13.6425C97.8093 13.5419 97.9635 13.5174 97.9702 13.3945C97.9411 13.39 97.8674 13.3945 97.8964 13.3409C97.9389 13.2582 98.1221 13.2381 98.0305 13.1308C97.997 13.0996 97.9434 13.0616 97.9076 13.0683C97.93 13.037 97.9791 12.9901 98.0081 12.9476C97.8696 12.7845 97.8138 13.0638 97.6752 13.0214C97.8562 12.856 97.9724 12.6415 98.0908 12.4337C97.883 12.2818 97.6775 12.1276 97.4675 11.9802C92.5967 8.51704 87.2031 5.74429 81.4253 3.80269C79.1284 3.03187 76.769 2.39063 74.3605 1.89238C70.303 1.05229 66.1003 0.607666 61.7949 0.607666C61.5312 0.607666 61.2676 0.614369 61.0039 0.616603C60.1571 0.627775 59.3148 0.652352 58.4769 0.697037C58.4814 0.726083 58.4814 0.755129 58.4769 0.786409C58.4479 0.770769 58.4323 0.737255 58.4166 0.701506C58.3742 0.70374 58.3317 0.708209 58.2893 0.710443L58.296 0.795346C58.2915 0.768535 58.2267 0.721615 58.287 0.710443C58.2245 0.714912 58.1641 0.71938 58.1016 0.721615C58.1798 0.7663 58.2558 0.808752 58.2558 0.918232C58.1507 0.900357 58.1418 0.71938 58.0033 0.784175C57.9809 0.768535 57.9586 0.75066 57.9362 0.732786C55.2484 0.898123 52.6053 1.23773 50.0224 1.73821C40.8529 3.51224 32.4073 7.31946 25.1749 12.675C21.5911 15.3294 18.3045 18.3613 15.3753 21.715C15.458 21.7172 15.5586 21.7663 15.6077 21.7932C16.0166 21.7529 16.3785 21.8557 16.7584 21.9719C16.7673 22.0501 16.9014 22.0791 16.7986 22.1484C16.7338 22.2199 16.6399 22.1775 16.5684 22.1953C16.2132 22.1238 15.8535 21.9831 15.4982 21.9719C15.4133 21.954 15.2748 21.9764 15.2525 21.8535C14.8637 22.3003 14.4839 22.7539 14.1085 23.2119C14.104 23.4577 14.075 23.699 14.151 23.947C14.0504 23.9559 14.0817 23.7169 13.9231 23.6633C13.8493 23.6342 13.789 23.6431 13.7354 23.6722C13.6415 23.7884 13.5477 23.9023 13.4561 24.0185C13.4136 24.1325 13.3734 24.2397 13.2595 24.2665C13.2595 24.2665 13.2572 24.271 13.255 24.2732C12.0664 25.7903 10.947 27.3655 9.90358 28.9943C9.56173 29.5283 9.23106 30.0667 8.90486 30.6119C8.66132 31.0185 8.42002 31.4296 8.18542 31.843C8.21224 31.8653 8.22562 31.8966 8.19211 31.9614V31.9592ZM76.0295 4.50426C75.9803 4.49085 76.0474 4.44617 76.025 4.42383C76.0518 4.50426 76.0876 4.38808 76.0965 4.41489C76.0563 4.47298 76.101 4.49532 76.0295 4.50426ZM76.0898 4.54448C76.0898 4.54448 76.1032 4.51767 76.1166 4.5132C76.1166 4.53554 76.1122 4.56682 76.0898 4.54448ZM76.101 4.35903L76.0965 4.30094L76.1412 4.32328L76.101 4.35903ZM76.3222 4.54671L76.3132 4.54224L76.3535 4.46181L76.3624 4.46628L76.3222 4.54671ZM76.3981 4.43947C76.4428 4.41712 76.4473 4.43053 76.4473 4.47521C76.4383 4.4484 76.416 4.4484 76.3981 4.43947ZM86.229 6.17551C86.2737 6.24253 86.3005 6.32297 86.3117 6.41681C86.2312 6.51065 86.2223 6.73184 86.0391 6.76312C85.8023 6.83685 85.4425 6.74748 85.4403 6.43245C85.4224 6.28945 85.5565 6.17551 85.6414 6.09507C85.7486 6.07496 85.8626 6.04368 85.9676 6.04368C86.0704 6.04368 86.1642 6.07496 86.2312 6.17327L86.229 6.17551ZM80.726 4.00378C80.7304 3.83844 80.8958 3.79599 80.9807 3.7379C81.1058 3.71109 81.2734 3.71332 81.3493 3.83174C81.4164 3.87643 81.4119 3.95239 81.4074 4.02836C81.3761 4.1356 81.2778 4.26743 81.1438 4.28977C80.9471 4.37244 80.6902 4.21157 80.7237 4.00378H80.726ZM78.9519 5.16561L78.9162 5.19242L78.9028 5.17455L78.9519 5.16561ZM78.876 5.04943L78.8581 5.08517L78.8358 5.10752L78.876 5.04943ZM77.0818 4.41712C77.1846 4.11996 77.4795 4.13337 77.7141 4.02389C77.7499 4.06411 77.7588 4.15795 77.8415 4.13113C77.77 4.29647 77.8303 4.45064 77.9197 4.62938C77.8974 4.74109 77.8214 4.85057 77.6963 4.87739C77.4728 5.01368 77.4885 4.64055 77.2606 4.78578C77.0908 4.74556 77.0439 4.56682 77.0841 4.41712H77.0818ZM76.7244 4.23168L76.7601 4.20487L76.7914 4.23168H76.7244ZM76.7512 4.04176L76.8405 4.01942C76.8137 4.02836 76.7735 4.10879 76.7512 4.04176ZM75.0598 2.54479C75.033 2.57607 75.033 2.55373 75.0062 2.54032L75.0598 2.54479ZM74.7895 3.22848L74.7805 3.2687V3.24636L74.7895 3.22848ZM74.6509 3.55245L74.6107 3.5882L74.5839 3.5748L74.6509 3.55245ZM57.5229 1.06346C57.5855 0.911529 57.7597 0.895889 57.8916 0.956215C58.1507 1.09697 58.0949 1.36956 58.1597 1.60192C58.1172 1.62873 58.0279 1.62427 58.0413 1.70247C57.8983 1.61086 57.7463 1.64214 57.5676 1.698C57.467 1.66001 57.3777 1.57288 57.371 1.45223C57.2794 1.22433 57.6234 1.29583 57.5229 1.06123V1.06346ZM57.0314 2.52468L57.0001 2.50234L56.9822 2.47776L57.0314 2.52468ZM56.9107 2.52915V2.57607L56.8928 2.53809L56.9107 2.52915ZM22.7775 15.8187C22.9362 15.6846 23.1618 15.6288 23.3562 15.555C23.4255 15.5975 23.3875 15.6533 23.354 15.6958C23.1261 15.7293 22.9295 15.9438 22.7105 15.9259C22.6904 15.8902 22.6993 15.7561 22.7798 15.8187H22.7775ZM21.7185 15.8924C21.828 16.0064 21.857 16.1427 21.7676 16.2745C21.6671 16.3884 21.504 16.4331 21.3856 16.4063C21.256 16.3616 21.3409 16.2209 21.2828 16.136C21.2917 15.9215 21.5666 15.8254 21.7207 15.8924H21.7185ZM17.3236 22.0791C17.3706 22.0993 17.4376 22.1573 17.3661 22.1953C17.2142 22.1953 17.3571 22.1171 17.3236 22.0791Z" fill="#E5B700"/>
<path d="M12.5826 41.2449C12.4418 41.2516 12.4552 41.0975 12.3815 41.0237C12.1558 41.5466 11.9391 42.0739 11.7313 42.6056C11.7671 42.619 11.8028 42.6347 11.8386 42.6503H12.3458C12.5111 42.5073 12.6541 42.3308 12.7702 42.1543C12.7702 41.9957 12.491 41.8638 12.6451 41.6963C12.8105 41.7298 12.7278 41.9822 12.8797 42.0828C12.9624 42.0873 13.0294 42.1565 13.1054 42.1945C13.1679 42.0381 13.2305 41.8839 13.2953 41.7298C13.512 41.2204 13.7377 40.7154 13.9678 40.2127C13.9902 40.1658 14.0125 40.1189 14.0326 40.0719C14.0594 40.0138 14.0885 39.9535 14.1153 39.8954C14.0773 39.9379 14.0416 39.9803 14.0058 40.0228C13.9745 40.0585 13.941 40.0943 13.9075 40.1233C13.8606 40.1635 13.8092 40.1971 13.7489 40.2149C13.7131 40.1859 13.6684 40.0474 13.7757 40.0764C13.7891 40.0496 13.8092 40.0272 13.8271 40.0027C13.8584 39.958 13.8896 39.9178 13.9276 39.8775C14.0326 39.7681 14.1555 39.6698 14.2628 39.5715C14.2628 39.5715 14.265 39.5715 14.2672 39.5715C14.4303 39.2318 14.5957 38.8945 14.7655 38.5571C14.7699 38.528 14.7766 38.499 14.7543 38.4811C14.6649 38.5861 14.5219 38.3873 14.4616 38.5504C14.4259 38.461 14.5554 38.4543 14.5331 38.3672C14.4482 37.9806 14.055 38.0678 13.8785 37.8376C13.7064 38.175 13.5389 38.5124 13.3735 38.8542C13.3311 38.9436 13.2864 39.0352 13.2439 39.1246C13.0071 39.6206 12.7792 40.1211 12.558 40.626C12.6116 40.5992 12.6675 40.5813 12.7189 40.5836C12.8797 40.6551 12.9646 40.7847 12.9244 40.9567C12.8686 41.1153 12.7189 41.2271 12.5848 41.2472L12.5826 41.2449Z" fill="#E5B700"/>
<path d="M26.1464 21.9876C26.1108 22.0187 26.0729 22.0521 26.0374 22.0832C26.0663 22.0988 26.0974 22.1121 26.1397 22.1388C26.2064 22.0854 26.1508 22.0343 26.1464 21.9854V21.9876Z" fill="#E5B700"/>
<path d="M25.7381 64.7362V54.4831C25.7381 52.9146 26.8441 52.041 28.0774 52.041C29.3107 52.041 30.4167 52.9146 30.4167 54.4831V70.6705C30.4167 72.239 29.0538 73.0344 27.8987 73.1371C26.6653 73.2399 25.1751 72.7506 24.5316 71.6469L18.2622 60.5469V72.8288H13.5858V54.6618C13.5858 53.0688 14.9733 52.222 16.1552 52.0924C17.3886 51.9628 18.8275 52.4767 19.4709 53.5827L25.7403 64.734L25.7381 64.7362Z" fill="#E5B700"/>
<path d="M32.8788 63.8382C32.8788 58.3128 36.8357 56.7197 40.3301 56.7197C43.8246 56.7197 47.7815 58.3128 47.7815 63.8382V66.202C47.7815 71.7274 43.7464 73.3205 40.3301 73.3205C36.9139 73.3205 32.8788 71.7274 32.8788 66.202V63.8382ZM42.6181 63.6058C42.6181 61.7804 41.4361 61.0609 40.3301 61.0609C39.2242 61.0609 38.0422 61.7804 38.0422 63.6058V66.4322C38.0422 68.2576 39.2242 68.977 40.3301 68.977C41.4361 68.977 42.6181 68.2576 42.6181 66.4322V63.6058Z" fill="#E5B700"/>
<path d="M50.1454 72.831V59.3404C50.1454 57.6446 51.3787 56.771 52.7416 56.771C53.7448 56.771 54.6944 57.2603 55.1323 58.2099C56.0819 57.3095 57.2906 56.771 58.5508 56.771C58.9373 56.771 59.373 56.8224 59.7595 56.9765C60.7359 57.3877 61.3012 58.4154 61.1224 59.6242C60.9437 60.8329 60.0187 61.6038 58.8859 61.6038C58.5262 61.6038 58.0637 61.5769 57.704 61.6038C56.2897 61.7065 55.4429 62.5042 55.3647 63.7889V72.8333H50.1476L50.1454 72.831Z" fill="#E5B700"/>
<path d="M62.454 72.831V59.3404C62.454 57.6446 63.6873 56.771 65.0503 56.771C66.0535 56.771 67.003 57.2603 67.4141 58.1853C68.3905 57.2603 69.6506 56.771 71.0113 56.771C72.5798 56.771 74.0946 57.2849 75.1738 58.5696C76.2261 57.4636 77.7186 56.771 79.7987 56.771C83.063 56.771 85.914 58.4422 85.914 63.8112V72.831H80.621V63.5029C80.621 61.7557 79.515 61.1636 78.6682 61.1636C77.8214 61.1636 76.6886 61.7557 76.6886 63.5029V72.831H71.6012V63.5029C71.6012 61.7557 70.4952 61.1636 69.6484 61.1636C68.8016 61.1636 67.7202 61.7289 67.6688 63.3733V72.8288H62.4518L62.454 72.831Z" fill="#E5B700"/>
<path d="M98.0664 72.831L97.8609 71.7519C96.8845 72.6769 95.497 73.269 93.9553 73.269H93.39C91.2563 73.269 88.1216 72.1116 88.1216 68.0787C88.1216 64.0458 91.0776 62.9644 94.4178 62.9644H97.0654C97.014 61.4474 95.9349 61.0362 94.7016 61.0362C94.1095 61.0362 93.5956 61.139 92.9789 61.32C92.5678 61.4474 92.2349 61.6283 91.7702 61.8339C90.8452 62.2964 89.4823 61.9367 89.0198 60.9089C88.5305 59.8811 88.9438 58.8265 89.842 58.1585C91.2049 57.1575 93.3632 56.771 95.1104 56.771C98.8372 56.771 102.126 58.0825 102.126 63.6325V72.831H98.0664ZM97.0632 66.7404H94.7239C93.7475 66.7404 93.2068 67.2297 93.2068 68.0519C93.2068 68.8741 93.7475 69.312 94.6457 69.312H95.0054C95.9572 69.312 97.061 68.7468 97.061 67.6676V66.7426L97.0632 66.7404Z" fill="#E5B700"/>
<path d="M104.72 53.6876C104.72 51.9136 105.929 51.1182 107.368 51.1182C108.807 51.1182 110.015 51.9136 110.015 53.6876V72.831H104.722V53.6876H104.72Z" fill="#E5B700"/>
</svg>
