<svg width="125" height="124" viewBox="0 0 125 124" fill="none" xmlns="http://www.w3.org/2000/svg">
<g opacity="0.3">
<path d="M78.2402 11.7545C78.8546 11.9466 79.4668 12.1522 80.0745 12.3689C80.8319 12.637 81.5849 12.923 82.3311 13.2246C82.568 13.3207 82.8048 13.4145 83.0394 13.5151C83.8236 13.8458 84.5967 14.1965 85.3608 14.563C86.0535 14.8959 86.7394 15.2467 87.4141 15.6086C88.6296 16.261 89.8182 16.9581 90.9778 17.7021C91.0382 17.7334 91.0985 17.7625 91.1633 17.7155C91.2593 17.7848 91.3465 17.9099 91.4872 17.9144C91.695 17.9256 91.8269 17.7647 92.0078 17.7334C92.1352 17.5994 92.2759 17.4921 92.3519 17.329C92.1754 17.1614 92.0704 17.5435 91.8403 17.4608C91.771 17.434 91.7375 17.3558 91.7844 17.3022C91.847 17.224 92.0034 17.1637 92.0324 17.0631C90.6985 16.1851 89.3222 15.3673 87.9079 14.6077C87.3761 14.3217 86.8399 14.0446 86.297 13.7765C84.8179 13.0481 83.303 12.3845 81.7502 11.7902C81.1202 11.5489 80.4856 11.321 79.8466 11.1021C78.086 10.5033 76.2829 9.99609 74.4463 9.58274C72.831 9.21856 71.1865 8.92586 69.5197 8.70914C69.3678 8.68903 69.2136 8.66892 69.0617 8.65105C69.0036 8.75829 68.874 8.87001 68.7288 8.86554C68.5367 8.90352 68.3378 8.74489 68.3311 8.56838C67.2899 8.45666 66.2421 8.37623 65.183 8.32484C65.1919 8.38964 65.2076 8.4589 65.2277 8.5304C65.1808 8.64434 65.0757 8.74265 64.9372 8.74489C64.6691 8.84096 64.7674 8.44773 64.4948 8.55274C64.3809 8.50135 64.3384 8.39634 64.3451 8.28909C64.2044 8.28462 64.0636 8.28016 63.9229 8.27569C63.7642 8.41198 63.581 8.50135 63.3643 8.48571C63.2213 8.50358 63.1476 8.35612 63.0649 8.26228C62.8928 8.26228 62.723 8.25781 62.551 8.25781C61.4718 8.25781 60.3994 8.28909 59.3359 8.35165C58.8108 8.38293 58.288 8.42315 57.7652 8.47007C57.1128 8.52816 56.4648 8.59742 55.8213 8.67786C55.8079 8.67786 55.7923 8.68233 55.7789 8.68233C55.7789 8.70467 55.7767 8.72478 55.7722 8.74712C55.7565 8.8432 55.7141 8.92363 55.6113 8.97055C55.5421 9.00183 55.4639 9.01524 55.3745 9.00853C55.3097 8.93257 55.151 8.89012 55.1064 8.76946C53.5535 8.98396 52.0208 9.26771 50.5127 9.61179C50.6512 9.56487 50.8076 9.61626 50.926 9.66541C50.9796 9.72574 50.9931 9.84416 50.9796 9.91565C50.9149 10.0274 50.8612 10.1547 50.7205 10.1056C50.5328 10.0162 50.4926 9.795 50.5082 9.61402C50.2289 9.67882 49.9519 9.74361 49.6771 9.81064C49.6838 9.90448 49.677 9.99162 49.6033 10.0475C49.619 9.96704 49.6145 9.89554 49.5966 9.83075C49.5229 9.84862 49.4492 9.8665 49.3777 9.88437C48.9196 10.0006 48.4616 10.1212 48.008 10.2486C46.0262 10.8049 44.0913 11.4707 42.2078 12.2415C41.0929 12.6973 39.9981 13.1889 38.9212 13.7162C38.9056 13.7988 38.8855 13.8815 38.881 13.9642C38.8318 13.9753 38.7492 13.9418 38.7358 14.0223C38.6844 13.9575 38.6218 13.9217 38.5503 13.8994C38.1973 14.0759 37.8465 14.2569 37.498 14.4401L37.5158 14.4758L37.4935 14.4445C37.1338 14.6322 36.7785 14.8266 36.4233 15.0232C36.4478 15.164 36.4009 15.3159 36.3339 15.4366C36.2066 15.4254 36.0948 15.345 36.0055 15.2578C35.3106 15.6533 34.6269 16.0644 33.9544 16.4889C33.9499 16.5492 33.8829 16.6453 33.9678 16.6855C34.0683 16.7771 34.1443 16.6073 34.2046 16.7258C34.1756 16.7816 34.0728 16.7503 34.0348 16.8129C34.0236 16.9604 34.1197 17.0765 34.2292 17.1033C34.2002 17.1592 34.1376 17.1681 34.0951 17.224C34.1063 17.3201 34.0795 17.4452 34.1935 17.4899C34.1845 17.5904 34.0884 17.5055 34.0549 17.5547C34.1175 17.6038 34.0795 17.6753 34.0683 17.7379C36.5975 16.1091 39.2653 14.697 42.0626 13.5129C42.333 13.3989 42.6033 13.2894 42.8759 13.1799C44.2969 12.6057 45.738 12.0963 47.1948 11.6517C48.3097 11.3121 49.4357 11.0105 50.5685 10.7446C52.0074 10.4094 53.4597 10.1368 54.9254 9.92459C55.6404 9.82181 56.3576 9.73244 57.077 9.65871C57.5216 9.61179 57.9685 9.57157 58.4176 9.53806C58.4176 9.53806 58.4198 9.53806 58.4221 9.53806C58.4288 9.52689 58.4332 9.51348 58.4444 9.50454C58.4667 9.50901 58.4757 9.52018 58.4846 9.53359C58.5918 9.52465 58.6991 9.51795 58.8063 9.51125C58.8667 9.37049 58.8801 9.18728 59.0074 9.10237C59.0521 9.2342 58.9426 9.37942 58.9426 9.50454C59.1259 9.49337 59.3068 9.4822 59.49 9.47103C59.5034 9.45986 59.5191 9.45316 59.5303 9.43975C59.4342 9.41964 59.3046 9.37496 59.2845 9.27665C59.2979 9.20515 59.3917 9.20962 59.4364 9.24313C59.566 9.29229 59.6219 9.3906 59.6978 9.45762C59.7738 9.45316 59.8498 9.44869 59.9257 9.44422C60.0397 9.404 60.1424 9.32804 60.2341 9.24313C60.1804 9.18728 60.2408 9.11131 60.2921 9.08003C60.4642 8.91022 60.7234 9.11131 60.8909 8.91246C61.0228 8.79404 61.0026 8.62647 61.1523 8.52369C61.2149 8.5304 61.2797 8.55497 61.3043 8.61306C61.3244 8.83649 61.0339 8.87224 61.1434 9.12248C61.197 9.17834 61.2685 9.12248 61.3266 9.10014C61.3423 8.91916 61.521 8.8499 61.5947 8.70244C61.588 8.78064 61.6618 8.74042 61.693 8.75159C61.6126 8.99289 61.3423 9.1694 61.2596 9.39953C61.6908 9.38836 62.1198 9.38389 62.5532 9.38389C65.5181 9.38389 68.4428 9.62966 71.3206 10.11C73.6643 10.5033 75.9746 11.0507 78.2424 11.7589L78.2402 11.7545ZM49.8871 10.863L49.9161 10.8809L49.934 10.901L49.8871 10.863ZM49.9966 10.8451L49.9921 10.8027L50.0144 10.8339L49.9988 10.8451H49.9966ZM66.1326 9.21856L66.1035 9.23643L66.1594 9.18281L66.1326 9.21632V9.21856ZM66.1706 9.34591L66.1594 9.32357H66.213L66.1683 9.34591H66.1706Z" fill="#59A710"/>
<path d="M27.4616 101.379C27.4616 101.345 27.4683 101.309 27.4772 101.271C27.4035 101.204 27.3275 101.14 27.2538 101.075C27.3074 101.2 27.3744 101.323 27.4616 101.379Z" fill="#59A710"/>
<path d="M40.0071 110.595C39.9378 110.333 39.6898 110.034 39.9333 109.788C39.9333 109.681 40.0093 109.663 40.083 109.636C39.1066 109.174 38.1437 108.684 37.2008 108.166C35.5832 107.277 34.0147 106.303 32.5021 105.248C30.7929 104.057 29.1551 102.764 27.5889 101.369C27.5487 101.439 27.4951 101.49 27.4615 101.55C27.4727 101.743 27.6045 101.883 27.7498 101.999C27.7922 101.941 27.8727 101.986 27.9084 102.028C28.0894 102.163 27.9442 102.431 28.1519 102.558C28.2793 102.663 28.4335 102.618 28.5519 102.741C28.5541 102.802 28.5429 102.864 28.4916 102.893C28.2882 102.945 28.2123 102.683 27.9978 102.819C27.9553 102.878 28.0156 102.933 28.0469 102.985C28.2167 102.974 28.3061 103.128 28.4558 103.172C28.3821 103.179 28.4312 103.239 28.4245 103.271C28.1765 103.231 27.9643 102.983 27.7252 102.962C29.0814 104.118 30.4957 105.208 31.9659 106.227C33.5321 107.313 35.1564 108.316 36.8366 109.232C37.9605 109.846 39.1111 110.42 40.2819 110.954C40.159 110.861 40.0518 110.753 40.0093 110.59L40.0071 110.595Z" fill="#59A710"/>
<path d="M70.4001 115.005C70.6012 114.623 70.2616 114.406 70.2169 114.107C69.7142 114.181 69.2093 114.245 68.7043 114.304C66.6734 114.538 64.6223 114.661 62.5511 114.661C61.0273 114.661 59.5147 114.594 58.0133 114.467C57.0324 114.384 56.056 114.272 55.0841 114.136C53.8843 113.966 52.6934 113.754 51.5115 113.501C51.2233 113.441 50.9373 113.379 50.6513 113.312C50.5686 113.553 50.5731 113.848 50.5374 114.038C50.5843 113.814 50.8524 113.685 50.9552 113.598C50.8613 113.908 50.7563 114.042 50.5932 114.288C50.62 114.348 50.6513 114.404 50.687 114.46C51.2076 114.578 51.7305 114.688 52.2577 114.791C52.2823 114.755 52.3069 114.719 52.327 114.681C52.3739 114.621 52.4097 114.493 52.5281 114.554C52.6532 114.645 52.4901 114.773 52.4231 114.822C53.3213 114.994 54.2284 115.144 55.1422 115.269C55.3567 115.298 55.5712 115.325 55.7879 115.351C58.0043 115.631 60.261 115.776 62.5533 115.776C64.5888 115.776 66.5974 115.66 68.5747 115.441C69.1847 115.374 69.7902 115.293 70.3912 115.206C70.3443 115.137 70.3108 115.052 70.1991 115.115C70.2348 115.007 70.3577 115.099 70.4024 115.005H70.4001ZM51.3953 113.673C51.4221 113.638 51.3819 113.584 51.3864 113.535C51.3864 113.517 51.3908 113.499 51.411 113.486C51.3931 113.501 51.3864 113.519 51.3864 113.535C51.3908 113.586 51.4512 113.642 51.3953 113.673ZM53.4017 114.536C53.2207 114.654 52.9817 114.681 52.7739 114.73C52.7068 114.677 52.7538 114.625 52.7962 114.585C53.033 114.581 53.2632 114.386 53.4888 114.435C53.5045 114.476 53.4799 114.61 53.4039 114.538L53.4017 114.536ZM54.4987 114.601C54.4004 114.469 54.3893 114.326 54.4987 114.203C54.6172 114.098 54.7892 114.076 54.9098 114.118C55.0372 114.181 54.9322 114.315 54.9791 114.409C54.9411 114.628 54.6462 114.69 54.4965 114.601H54.4987Z" fill="#59A710"/>
<path d="M72.4779 114.534C72.4377 114.648 72.4511 114.757 72.4712 114.862C73.604 114.65 74.7256 114.404 75.8338 114.123C76.6203 113.922 77.4023 113.705 78.1754 113.47C78.3161 113.428 78.4591 113.383 78.5999 113.339C78.7719 113.285 78.9462 113.229 79.1182 113.173C80.2331 112.813 81.3302 112.416 82.4116 111.987C82.3512 111.953 82.2596 111.973 82.206 111.895C81.9759 111.893 81.7502 111.846 81.5179 111.913C81.5134 111.83 81.71 111.859 81.7569 111.73C81.8262 111.569 81.6653 111.482 81.5871 111.388C81.4843 111.33 81.3503 111.308 81.2944 111.223C81.1246 111.287 80.957 111.352 80.7872 111.415C80.4945 111.522 80.1996 111.627 79.9047 111.73C79.5182 111.864 79.1316 111.996 78.7429 112.121C77.304 112.586 75.8495 112.992 74.3793 113.33C73.5683 113.515 72.7505 113.683 71.9305 113.83C71.9864 113.922 72.0333 114.02 72.0579 114.127C72.1406 114.181 72.2098 114.369 72.3528 114.284C72.5092 114.19 72.612 114.078 72.6634 113.928C72.7684 113.794 72.8712 113.964 72.965 113.83C73.0365 113.984 72.7505 114.051 72.8175 114.226C72.7058 114.313 72.5316 114.371 72.4802 114.532L72.4779 114.534Z" fill="#59A710"/>
<path d="M105.735 93.4087C105.807 93.3238 105.885 93.2478 105.977 93.1875C106.062 93.1316 106.155 93.0892 106.263 93.0668C106.321 93.0668 106.397 93.04 106.477 93.0177C106.596 92.8501 106.712 92.6803 106.828 92.5127C109.161 89.1323 111.118 85.4725 112.635 81.5916H111.433C111.31 81.8999 111.185 82.2082 111.055 82.5143C108.859 87.709 105.872 92.4636 102.163 96.6931C101.419 97.5421 100.646 98.371 99.8435 99.1754C99.819 99.2 99.7966 99.2245 99.772 99.2469C97.8707 101.148 95.8419 102.889 93.7037 104.462C91.999 105.715 90.2227 106.864 88.3794 107.903C87.1573 108.591 85.9038 109.232 84.6236 109.824C84.0985 110.065 83.5735 110.302 83.0395 110.528C82.4742 110.767 81.9045 110.993 81.3347 111.209C81.6498 111.372 81.9827 111.064 82.2977 111.236C82.4854 111.339 82.7915 111.359 82.8004 111.632C82.8741 111.703 82.8138 111.766 82.7937 111.837C83.5869 111.513 84.3711 111.171 85.1442 110.814C87.2332 109.844 89.2486 108.745 91.1835 107.525C91.8493 107.105 92.5039 106.674 93.1496 106.227C94.45 105.324 95.7079 104.366 96.9211 103.356C96.9122 103.304 96.8585 103.255 96.9434 103.237C96.9859 103.217 97.0216 103.228 97.0574 103.244C98.0807 102.386 99.0727 101.49 100.031 100.558C100.813 99.7987 101.571 99.0123 102.306 98.2057C102.31 98.0538 102.444 97.9376 102.581 97.8996C103.539 96.8316 104.457 95.7256 105.329 94.5817C105.318 94.3627 105.32 94.146 105.38 93.9382C105.492 93.7662 105.599 93.5718 105.735 93.4065V93.4087ZM91.6772 106.508C91.6057 106.671 91.3644 106.66 91.2661 106.564C91.2147 106.444 91.2348 106.33 91.3443 106.256C91.456 106.198 91.5946 106.213 91.6795 106.271C91.7666 106.345 91.6571 106.428 91.6795 106.511L91.6772 106.508ZM96.5211 103.13C96.4921 103.101 96.4586 103.036 96.5256 103.027C96.6418 103.072 96.5077 103.09 96.5211 103.13Z" fill="#59A710"/>
<path d="M14.1203 82.6744C14.0981 82.6233 14.0758 82.5744 14.0536 82.5232C14.0558 82.5432 14.0625 82.561 14.0692 82.581C14.0825 82.6166 14.1003 82.6455 14.1181 82.6744H14.1203Z" fill="#59A710"/>
<path d="M12.7511 82.291C13.0147 82.3446 13.2985 82.3759 13.5174 82.5434C13.6113 82.5323 13.7744 82.6261 13.828 82.4786C13.8839 82.3155 13.8928 82.1725 13.8369 82.0318C13.8369 82.0206 13.8369 82.0117 13.8414 82.0005C13.7855 81.862 13.7275 81.7257 13.6738 81.5872H12.4718C12.5634 81.8218 12.6595 82.0564 12.7533 82.291H12.7511Z" fill="#59A710"/>
<path d="M27.5555 22.3785C27.6806 22.345 27.7789 22.3696 27.8705 22.4187C28.228 22.1037 28.59 21.7954 28.9564 21.4915C29.2491 21.248 29.5418 21.0112 29.8389 20.7743C30.2009 20.4861 30.5673 20.2023 30.9382 19.9231C31.1236 19.7845 31.3091 19.6482 31.4945 19.5119C32.0397 19.1142 32.5871 18.7232 33.1457 18.3456C33.0585 18.2943 32.9759 18.2429 32.958 18.1334C32.7904 18.044 32.7145 18.2138 32.6296 18.2742C32.5424 18.2317 32.4955 18.1021 32.4262 18.0708C32.3927 18.2116 32.2319 18.187 32.1581 18.2764C32.147 18.301 32.138 18.3233 32.1224 18.3456C32.1291 18.3144 32.1425 18.2943 32.1581 18.2764C32.2542 18.0731 32.2587 17.8117 32.3145 17.5681C31.8543 17.8831 31.3962 18.2027 30.9471 18.5311C30.5159 18.8439 30.0892 19.1656 29.6691 19.4918C29.2089 19.8493 28.7553 20.2135 28.3062 20.5844C27.9778 20.857 27.6516 21.1318 27.3298 21.4111C27.3522 21.4111 27.3745 21.4066 27.3969 21.4022C27.4214 21.5876 27.5979 21.6233 27.7409 21.7015C27.7968 21.7328 27.8504 21.7686 27.8862 21.8222C27.8281 21.8401 27.7588 21.7775 27.6985 21.7753L27.7409 21.7194C27.7231 21.7284 27.7097 21.7261 27.6985 21.7239C27.6739 21.7172 27.6583 21.6971 27.6203 21.715L27.6292 21.7038C27.5778 21.6993 27.5019 21.5787 27.4974 21.6904C27.4237 21.6591 27.4103 21.5608 27.3879 21.4736C27.3164 21.6144 27.2784 21.4066 27.2494 21.572C27.1868 21.534 27.3008 21.5139 27.2494 21.4803C27.1466 21.5697 27.0483 21.6591 26.9455 21.7485C27.0282 21.8088 27.0841 21.6636 27.1667 21.7931C27.0662 21.715 27.0438 21.7797 26.9321 21.773C27.0304 21.82 26.9411 21.9227 27.0059 21.9451L27.0438 21.8602C27.0349 21.9049 27.064 21.9183 27.1064 21.925C27.1511 21.9339 27.2092 21.9317 27.2494 21.954L27.2405 21.9652C27.2405 21.9652 27.2472 21.9697 27.2494 21.9719C27.2717 21.9898 27.2919 21.9585 27.3097 21.9563L27.2762 22.0121C27.4661 22.1596 27.6583 21.9227 27.8102 22.0836C27.7164 22.1462 27.5778 22.0121 27.5175 22.1618C27.3231 22.1864 27.1243 22.1931 26.9478 22.1395C26.8495 22.1082 26.7601 22.0568 26.6819 21.9808C26.3937 22.2378 26.1099 22.4992 25.8284 22.7628C24.8878 23.6431 23.9806 24.557 23.1048 25.5021C23.1651 25.6317 23.1473 25.7881 23.0825 25.8841C22.9953 25.9869 22.897 25.8573 22.7987 25.8819C22.7898 25.8774 22.7831 25.8707 22.7741 25.8663C22.4502 26.2215 22.1306 26.5835 21.8156 26.9476C20.6873 28.2592 19.6171 29.6221 18.6184 31.0386C17.9011 32.0552 17.2175 33.0986 16.5718 34.1644C16.5516 34.2917 16.5271 34.4191 16.498 34.5509C16.4265 34.5643 16.4087 34.6894 16.3394 34.6001C16.3305 34.5934 16.3282 34.5867 16.3237 34.5777C16.0981 34.9553 15.8791 35.3374 15.6624 35.7217C15.5194 35.9764 15.3786 36.2311 15.2401 36.488C15.3451 36.5082 15.4546 36.526 15.5574 36.5551C15.535 36.4031 15.5261 36.2512 15.5462 36.0993C15.6311 35.9138 15.7116 35.706 15.8233 35.5228C15.8814 35.429 15.9484 35.3419 16.0311 35.2681C16.107 35.2011 16.1942 35.1452 16.2969 35.1073C16.3081 35.1073 16.3215 35.1006 16.3349 35.0961C16.3349 35.0268 16.3707 35.0559 16.4019 35.0715C16.5494 35.0089 16.7349 34.9017 16.8756 35.0402C17.0432 35.0045 17.1839 35.0313 17.3113 35.0871C17.3336 35.0492 17.356 35.009 17.3783 34.971C17.9771 33.97 18.6117 32.9914 19.2775 32.0329C20.1354 30.7973 21.0448 29.5975 22.01 28.4379C23.0556 27.18 24.1594 25.9646 25.3279 24.7983C26.0138 24.1123 26.7176 23.4488 27.4371 22.8053C27.4237 22.7785 27.3969 22.7517 27.3477 22.7315C27.2851 22.5684 27.4103 22.4299 27.5533 22.3808L27.5555 22.3785ZM27.0282 21.8222V21.8133L27.1153 21.8021V21.811L27.0282 21.8222ZM27.1578 21.8848C27.1757 21.8624 27.1623 21.8445 27.16 21.8244C27.2025 21.849 27.1958 21.8602 27.1578 21.8848ZM27.551 22.0367L27.513 21.9808L27.5555 21.9942L27.551 22.0345V22.0367ZM27.6851 21.8982L27.7543 21.9607C27.732 21.9428 27.6426 21.954 27.6851 21.8982Z" fill="#59A710"/>
<path d="M33.6774 17.9971C33.7846 17.9278 33.8896 17.8563 33.9969 17.787C33.9835 17.7803 33.9678 17.7781 33.9499 17.7848C33.8025 17.8228 33.7288 17.9032 33.6774 17.9971Z" fill="#59A710"/>
<path d="M99.4056 15.4589C100.244 16.1247 101.063 16.8151 101.868 17.5256C102.581 18.1579 103.28 18.8081 103.968 19.4761C104.066 19.57 104.162 19.666 104.259 19.7599C104.357 19.5878 104.431 19.3912 104.574 19.2572C104.569 19.2572 104.565 19.2549 104.56 19.2549C104.533 19.2102 104.607 19.1879 104.652 19.1589C104.703 19.0404 104.522 19.0025 104.486 18.9265L104.598 18.8237L104.515 18.712C104.56 18.6651 104.687 18.6338 104.645 18.5377C104.627 18.3925 104.444 18.4774 104.477 18.3366C104.542 18.3121 104.605 18.4104 104.679 18.3858C104.793 18.2718 104.797 18.1087 104.723 18.0082C104.788 17.9836 104.846 18.0194 104.92 18.006C104.98 17.9188 105.09 17.8362 105.029 17.7155C105.108 17.6395 105.128 17.7758 105.19 17.7602C105.177 17.6932 105.226 17.6597 105.273 17.6284C105.016 17.3826 104.757 17.1391 104.498 16.8978C104.104 16.5313 103.704 16.1694 103.3 15.8119C102.643 15.2332 101.975 14.6679 101.294 14.1161C101.066 13.9306 100.838 13.7452 100.608 13.5642C100.565 13.6513 100.534 13.7407 100.541 13.8144C100.608 13.7653 100.71 13.7117 100.784 13.7541C100.82 13.8033 100.764 13.8614 100.719 13.8681C100.608 13.9239 100.509 13.8949 100.418 13.9083C100.288 14.0245 100.261 14.1965 100.261 14.3641C100.326 14.3641 100.34 14.4445 100.331 14.4937C100.337 14.6992 100.065 14.7439 100.092 14.9629C100.089 15.1126 100.206 15.1952 100.185 15.3494C100.145 15.3852 100.094 15.412 100.042 15.3919C99.8927 15.2757 100.036 15.0746 99.8167 14.9986C99.752 14.9986 99.7453 15.0768 99.7252 15.126C99.8212 15.231 99.7788 15.3673 99.8101 15.4902C99.8123 15.5013 99.8145 15.5103 99.819 15.5214C99.7743 15.4723 99.7564 15.5416 99.7318 15.555C99.7184 15.5326 99.7095 15.5058 99.7006 15.4812C99.6179 15.2444 99.6872 14.9271 99.4615 14.7864C99.4191 14.8132 99.3833 14.8824 99.3297 14.8355C99.3118 14.7908 99.2917 14.7193 99.2291 14.6836C99.0303 14.6925 98.9275 14.8489 98.8091 14.9897C99.0079 15.1438 99.2046 15.298 99.4012 15.4522L99.4056 15.4589ZM102.033 16.2766C101.935 16.3705 101.781 16.3839 101.667 16.328C101.597 16.2945 101.544 16.2364 101.526 16.1582C101.488 16.051 101.539 15.9705 101.595 15.9035C101.622 15.87 101.651 15.8387 101.671 15.8097C101.781 15.7382 101.942 15.6801 102.058 15.7627C102.138 15.7806 102.163 15.8544 102.187 15.9303C102.198 16.0443 102.152 16.2051 102.031 16.2766H102.033Z" fill="#59A710"/>
<path d="M98.494 14.7506C98.5767 14.8131 98.6571 14.8757 98.7398 14.9383C98.8113 14.7729 98.8537 14.5875 98.9074 14.4646C98.8314 14.6344 98.608 14.6992 98.4963 14.7506H98.494Z" fill="#59A710"/>
<path d="M96.2017 20.3028C96.2195 20.2805 96.2329 20.2536 96.2486 20.2313C96.2285 20.1911 96.2195 20.1509 96.2195 20.1106C96.1815 20.0794 96.1436 20.0503 96.1056 20.019C96.0899 20.0861 96.0497 20.1486 96.0319 20.2C96.0274 20.2045 96.0229 20.2067 96.0184 20.2112C96.0251 20.2492 96.0475 20.2849 96.0899 20.3207C96.0989 20.3274 96.1033 20.3363 96.1145 20.343C96.1547 20.352 96.1793 20.3318 96.2017 20.3028Z" fill="#59A710"/>
<path d="M97.1512 20.8748C97.0752 20.9887 97.0104 21.1027 96.9479 21.1831C97.0372 21.0736 97.1847 21.0356 97.3143 21.0155C97.2584 20.9686 97.2048 20.9217 97.1512 20.8748Z" fill="#59A710"/>
<path d="M96.3491 20.2134C96.3469 20.2357 96.3447 20.2581 96.3424 20.2804C96.3268 20.4256 96.3335 20.5642 96.4385 20.6736C96.4921 20.658 96.5502 20.591 96.5949 20.658C96.6016 20.7094 96.6038 20.7943 96.6597 20.8501C96.796 20.8792 96.9099 20.8323 97.0172 20.7652C96.8183 20.5999 96.6195 20.4346 96.4184 20.2692C96.396 20.2514 96.3737 20.2335 96.3513 20.2156L96.3491 20.2134Z" fill="#59A710"/>
<path d="M95.7772 19.7579C95.3437 19.4182 94.9058 19.0831 94.4634 18.7569C93.8557 18.3078 93.239 17.8721 92.6134 17.4498C92.5598 17.4945 92.5084 17.5258 92.4436 17.4275C92.3878 17.4833 92.2336 17.5191 92.2895 17.6219C92.4503 17.6889 92.5419 17.9056 92.743 17.8721C92.7765 17.9034 92.7184 17.9414 92.6849 17.9749C92.6671 18.0911 92.8324 18.0821 92.8815 18.138L92.8592 18.1737L92.8078 18.2519L92.9039 18.3301C92.8838 18.3681 92.8235 18.4061 92.8145 18.453C92.8302 18.4754 92.8391 18.5022 92.8436 18.529C92.8994 18.6139 93.0201 18.5245 93.0223 18.6452C92.9821 18.6742 92.9262 18.6362 92.8748 18.6385C92.9843 18.7748 93.0111 18.9222 93.0111 19.0719C93.0357 19.0898 93.0603 19.1077 93.0849 19.1255C93.5094 19.4272 93.9272 19.74 94.3428 20.055C94.5416 20.2069 94.7405 20.3566 94.9393 20.5108C95.1114 20.6449 95.2789 20.7812 95.4487 20.9174C95.4487 20.9107 95.4532 20.904 95.4554 20.8973C95.3839 20.8817 95.3929 20.7879 95.4175 20.7387C95.4644 20.5398 95.7124 20.5399 95.7884 20.3678C95.7928 20.3589 95.795 20.3477 95.7973 20.3365C95.7682 20.3388 95.737 20.3365 95.7079 20.3254C95.6342 20.3276 95.5962 20.2695 95.5582 20.2114C95.5225 20.1153 95.5269 19.9634 95.6141 19.874C95.6521 19.8137 95.7124 19.7735 95.7772 19.7534V19.7579Z" fill="#59A710"/>
<path d="M119.521 40.5187C119.452 40.3623 119.358 40.2551 119.224 40.1903C119.11 40.0785 119.28 40.0003 119.163 39.8976C119.315 39.8484 119.347 40.1232 119.519 40.0785C119.588 40.1925 119.624 40.3623 119.769 40.4293C119.941 40.5142 120.113 40.4561 120.28 40.4584C119.472 38.2934 118.544 36.1842 117.508 34.142C116.641 32.4373 115.696 30.7794 114.681 29.1708C114.241 28.4759 113.788 27.79 113.323 27.113C112.769 26.3064 112.195 25.5155 111.603 24.7379C111.435 24.519 111.267 24.2978 111.098 24.0788C111.08 24.1034 111.066 24.1302 111.055 24.157C111.031 24.2218 111.026 24.2911 111.046 24.3514C111.053 24.3715 111.055 24.3894 111.064 24.4073C111.057 24.4073 111.048 24.4073 111.042 24.4073C110.979 24.414 110.926 24.3805 110.854 24.3849C110.78 24.4698 110.653 24.5436 110.704 24.6776C110.61 24.7469 110.608 24.6017 110.539 24.6106C110.55 24.7692 110.269 24.7223 110.354 24.9077C110.251 24.8631 110.354 24.7513 110.262 24.6977C109.828 24.4184 109.563 24.9435 109.163 24.7625C109.239 24.5547 109.031 24.3201 109.183 24.128C109.127 23.9135 108.921 23.985 108.803 23.9604C108.769 23.8532 108.843 23.7102 108.816 23.6275C108.669 23.7079 108.564 23.5538 108.43 23.5605C108.401 23.5694 108.372 23.5806 108.343 23.585C108.374 23.5672 108.401 23.5605 108.43 23.5605C108.798 23.4443 109.114 23.0511 109.54 22.993C109.601 22.917 109.791 22.8656 109.721 22.7159C109.643 22.555 109.542 22.4433 109.399 22.3808C109.277 22.2668 109.453 22.1797 109.328 22.0747C109.449 22.03 109.502 22.1909 109.603 22.2422C109.169 21.7306 108.729 21.2234 108.28 20.7252C108.264 20.7944 108.314 20.8816 108.202 20.8659C108.099 20.8793 108.052 20.7788 107.981 20.743C107.742 20.4369 107.55 20.0728 107.266 19.8113C107.205 19.7331 107.062 19.6482 107.165 19.5209C106.993 19.3399 106.817 19.1612 106.64 18.9824C106.535 19.0606 106.421 19.1277 106.294 19.1589C106.245 19.2371 106.075 19.3042 106.155 19.436C106.245 19.579 106.35 19.6706 106.49 19.7153C106.616 19.8091 106.461 19.9097 106.589 19.9923C106.448 20.0616 106.379 19.7979 106.218 19.865C106.135 19.7644 106.077 19.6036 105.925 19.5589C105.865 19.5388 105.807 19.5365 105.751 19.541C105.74 19.579 105.731 19.6147 105.729 19.6505C105.548 19.5566 105.51 19.7845 105.335 19.7711C105.288 19.8247 105.242 19.8784 105.192 19.9298C105.264 19.9052 105.338 19.8962 105.414 19.9476C105.481 19.9946 105.494 20.0884 105.427 20.1353C105.304 20.2269 105.005 20.2314 105.087 20.466C105.096 20.5263 105.159 20.6 105.15 20.6604C106.62 22.1752 108.008 23.7526 109.299 25.3971C109.569 25.7411 109.835 26.0897 110.099 26.4405C110.362 26.7935 110.622 27.1487 110.879 27.5062C111.236 28.0067 111.587 28.5116 111.929 29.0233C113.001 30.6253 113.993 32.2764 114.905 33.9789C115.763 35.5787 116.549 37.2209 117.262 38.9055C117.597 39.6965 117.91 40.4941 118.209 41.2962C118.229 41.2895 118.247 41.2851 118.265 41.2851C118.618 41.1845 118.931 40.8181 119.34 40.7756C119.4 40.7041 119.581 40.6617 119.519 40.5165L119.521 40.5187ZM108.673 21.181C108.696 21.2301 108.711 21.3217 108.624 21.3061C108.499 21.2033 108.671 21.2368 108.673 21.181ZM107.295 20.7631C107.268 20.7185 107.246 20.6358 107.326 20.6425C107.453 20.7274 107.288 20.7118 107.295 20.7631ZM107.701 21.172C107.739 21.1028 107.646 21.0022 107.768 21.0022C107.865 20.9799 107.918 21.067 107.987 21.0938C108.242 21.3552 108.461 21.6747 108.752 21.887C108.819 21.954 108.966 22.021 108.872 22.1573C108.736 22.3003 108.602 22.0613 108.559 21.9741C108.195 21.7753 107.954 21.4848 107.704 21.172H107.701ZM118.124 38.7134C118.026 38.7223 117.984 38.6263 117.917 38.5883C117.698 38.2889 117.523 37.9359 117.262 37.6812C117.206 37.603 117.065 37.5158 117.179 37.3929C117.338 37.27 117.436 37.5292 117.468 37.6231C117.805 37.8755 118.006 38.2017 118.214 38.5525C118.167 38.6173 118.247 38.7313 118.122 38.7134H118.124ZM118.518 39.1401C118.401 39.0374 118.565 39.0754 118.567 39.024C118.587 39.0709 118.598 39.1603 118.518 39.1401Z" fill="#59A710"/>
<path d="M123.846 55.7208C123.741 54.6864 123.61 53.6586 123.455 52.6397C123.051 49.9899 122.475 47.3959 121.744 44.8689C121.713 45.0074 121.641 45.1348 121.617 45.2152C121.536 44.927 121.547 44.7594 121.554 44.5025C121.554 44.4801 121.554 44.4578 121.554 44.4332C121.308 44.2656 120.998 44.1852 120.712 44.1472C120.663 44.1696 120.631 44.2232 120.602 44.2768C120.546 44.3796 120.497 44.4958 120.357 44.4533C120.334 44.3595 120.41 44.3103 120.484 44.25C120.537 44.2053 120.591 44.1562 120.602 44.0802C120.555 43.9662 120.66 43.821 120.569 43.7138C120.542 43.7339 120.482 43.7964 120.464 43.7294C120.432 43.6289 120.567 43.4635 120.406 43.4501C120.352 43.4501 120.278 43.4635 120.254 43.497C120.247 43.4524 120.249 43.3764 120.24 43.3161C119.995 43.2937 120.173 43.5708 120.026 43.6467C120.053 43.1954 119.836 42.7754 119.798 42.3442C119.657 42.3173 119.53 42.3687 119.405 42.4201C119.255 42.4804 119.105 42.5385 118.933 42.4536C119.011 42.257 118.819 42.0291 118.969 41.8504C118.92 41.6448 118.723 41.7074 118.612 41.6806C118.582 41.5778 118.656 41.4437 118.634 41.3633C118.491 41.437 118.395 41.2873 118.267 41.2896C118.25 41.294 118.229 41.3007 118.212 41.3052C118.439 41.9196 118.661 42.5363 118.868 43.1552C118.956 43.4121 119.036 43.6713 119.119 43.9305C120.298 47.6171 121.109 51.3997 121.545 55.2583C121.798 57.4904 121.929 59.747 121.929 62.026C121.929 63.9743 121.836 65.9092 121.65 67.8262C121.509 69.2896 121.313 70.7442 121.065 72.1853C120.92 73.0231 120.756 73.8588 120.575 74.6877C120.424 75.387 120.263 76.0863 120.084 76.779C119.356 79.621 118.415 82.4094 117.262 85.1352C115.515 89.2664 113.325 93.1473 110.72 96.7512C110.157 97.5288 109.576 98.2951 108.973 99.0481C109.167 99.1777 109.259 99.448 109.431 99.6111C109.214 99.81 109.458 100.092 109.359 100.335C109.306 100.293 109.317 100.19 109.279 100.132L109.359 100.136C109.297 100.103 109.346 100.056 109.283 100.02H109.299C109.27 99.9709 109.333 99.8234 109.225 99.8904C109.205 99.801 109.288 99.7251 109.355 99.6469C109.178 99.6715 109.346 99.5016 109.174 99.5843C109.169 99.4949 109.277 99.6134 109.257 99.5084C109.223 99.3408 109.067 99.2157 108.908 99.1241C108.899 99.133 108.892 99.1442 108.883 99.1531C108.906 99.1754 108.919 99.2 108.899 99.2358C108.883 99.209 108.866 99.2 108.85 99.1956C108.823 99.2291 108.796 99.2626 108.77 99.2961C108.716 99.3631 108.662 99.4302 108.609 99.4972C108.725 99.524 108.705 99.3564 108.814 99.3922C108.783 99.5419 108.986 99.4793 108.915 99.6536C108.921 99.5106 108.848 99.5307 108.781 99.4235C108.799 99.5441 108.649 99.5307 108.669 99.6022L108.774 99.5821C108.727 99.6022 108.734 99.6402 108.754 99.6826C108.776 99.7295 108.814 99.7832 108.821 99.8323H108.805C108.787 99.8792 108.843 99.8725 108.859 99.8904L108.787 99.8949C108.776 100.167 109.118 100.19 109.069 100.436C108.95 100.391 108.984 100.176 108.805 100.217C108.658 100.056 108.524 99.8792 108.459 99.6849C108.117 100.103 107.766 100.514 107.413 100.923C106.913 101.497 106.399 102.062 105.876 102.621C105.883 102.625 105.89 102.627 105.896 102.632C105.898 102.632 105.901 102.634 105.905 102.636C106.106 102.822 106.068 103.114 105.979 103.336C105.787 103.342 105.608 103.215 105.476 103.106C105.469 103.092 105.467 103.074 105.465 103.059C105.159 103.378 104.851 103.695 104.536 104.01C104.232 104.314 103.926 104.614 103.615 104.909C103.642 104.969 103.66 105.029 103.691 105.081C103.874 105.175 104.075 105.132 104.263 105.058C104.234 104.987 104.319 104.938 104.377 104.929C104.6 104.835 104.768 105.116 104.998 104.991C105.166 104.931 105.208 104.766 105.385 104.723C105.44 104.754 105.494 104.799 105.492 104.862C105.429 105.076 105.145 105.005 105.154 105.277C105.183 105.349 105.271 105.322 105.333 105.324C105.414 105.161 105.606 105.163 105.729 105.052C105.695 105.123 105.778 105.112 105.802 105.134C105.595 105.385 105.132 105.418 105.07 105.76C105.116 105.796 105.21 105.805 105.181 105.885C105.141 105.923 105.07 105.977 105.056 106.059C105.119 106.202 105.235 106.269 105.367 106.318C106.555 105.17 107.697 103.975 108.79 102.735C109.033 102.458 109.277 102.178 109.516 101.895C110.47 100.771 111.384 99.6134 112.257 98.4247C112.847 97.6204 113.417 96.8026 113.969 95.9692C114.95 94.4857 115.872 92.9597 116.726 91.389C116.536 91.4605 116.348 91.5342 116.183 91.6727C116.134 91.5766 116.382 91.5074 116.366 91.3309C116.362 91.1052 116.127 91.0873 115.986 91.0203C115.805 91.0047 115.595 91.0762 115.492 90.9242C116.02 91.0471 116.248 90.4193 116.741 90.4617C116.889 90.4729 117.063 90.4394 117.217 90.455C117.722 89.4876 118.203 88.5067 118.656 87.5102C119.963 84.637 121.054 81.6475 121.912 78.5575C122.526 76.3478 123.02 74.0889 123.386 71.7898C123.643 70.1834 123.838 68.5568 123.967 66.9101C124.094 65.297 124.159 63.6682 124.159 62.0237C124.159 59.8967 124.052 57.7965 123.842 55.7253L123.846 55.7208ZM121.201 45.3873C121.197 45.4319 121.259 45.4565 121.284 45.5012C121.295 45.5168 121.299 45.5325 121.288 45.5571C121.295 45.5347 121.29 45.5168 121.284 45.5012C121.252 45.461 121.172 45.4431 121.201 45.3873ZM121.286 45.6554C121.277 45.6442 121.266 45.633 121.268 45.6196L121.286 45.6554ZM121.282 45.7626C121.244 45.7626 121.223 45.7336 121.219 45.7045C121.228 45.6576 121.257 45.7045 121.288 45.7157L121.279 45.7626H121.282ZM121.538 50.2379C121.632 50.1083 121.715 49.9586 121.88 50.039C122.099 50.1731 122.119 50.4501 122.077 50.6691C121.9 50.7116 121.713 50.6267 121.572 50.5507C121.514 50.468 121.514 50.325 121.538 50.2357V50.2379ZM108.854 99.3408C108.843 99.305 108.821 99.2961 108.796 99.2916C108.816 99.2916 108.834 99.2827 108.85 99.2514C108.906 99.2782 108.832 99.2827 108.854 99.3408ZM108.904 99.2961C108.904 99.2961 108.926 99.3207 108.926 99.3363C108.901 99.3274 108.87 99.3095 108.904 99.2961ZM108.805 99.5396L108.814 99.5329L108.883 99.6089L108.875 99.6156L108.805 99.5396ZM108.832 99.7005C108.863 99.7005 108.872 99.6782 108.89 99.6625C108.895 99.7184 108.879 99.7184 108.832 99.7005ZM109.156 99.4033L109.114 99.4413L109.091 99.3855L109.154 99.4033H109.156ZM109.163 100.194L109.149 100.297C109.149 100.266 109.082 100.19 109.163 100.194ZM108.948 100.161L108.975 100.089L108.988 100.138L108.948 100.161ZM108.971 99.2514C109.004 99.2045 109.024 99.2939 109.058 99.2782C108.962 99.2738 109.071 99.3587 109.038 99.3564C108.993 99.2916 108.95 99.3296 108.971 99.2492V99.2514ZM105.939 105.304C105.919 105.179 106.003 105.288 106.033 105.255C106.021 105.297 105.981 105.358 105.939 105.304ZM106.055 104.77C105.99 104.786 105.981 104.902 105.912 104.824C105.845 104.777 105.867 104.694 105.845 104.636C105.863 104.33 105.936 104.013 105.903 103.713C105.907 103.633 105.863 103.505 106.001 103.485C106.167 103.49 106.095 103.707 106.066 103.785C106.149 104.122 106.106 104.437 106.055 104.77ZM106.792 103.329L106.777 103.3L106.85 103.32L106.792 103.329ZM107.092 102.051L107.078 102.002L107.103 101.995L107.092 102.051ZM107.136 103.137L107.15 103.117L107.168 103.106L107.136 103.137ZM107.214 101.984L107.201 101.95L107.246 102.017L107.214 101.984ZM107.773 102.607L107.82 102.643C107.777 102.656 107.791 102.636 107.773 102.607ZM108.792 101.211C108.734 101.233 108.631 101.204 108.629 101.3C108.548 101.222 108.454 101.186 108.349 101.175C108.265 101.166 108.175 101.171 108.075 101.18C107.965 101.11 107.882 100.987 107.905 100.844C107.853 100.554 108.238 100.722 108.18 100.424C108.291 100.261 108.497 100.286 108.638 100.389C108.814 100.536 108.819 100.717 108.805 100.905C108.799 101.005 108.787 101.11 108.794 101.211H108.792ZM110.528 98.1879L110.506 98.132L110.53 98.1097L110.526 98.1901L110.528 98.1879ZM110.774 98.4381L110.798 98.4471L110.814 98.4627L110.776 98.4381H110.774ZM111.419 99.0257C111.397 98.9855 111.419 98.9945 111.446 98.9699L111.419 99.0257ZM121.889 77.2258L121.869 77.2459V77.1789L121.889 77.2258ZM121.648 76.9778L121.628 76.9711L121.614 76.9577L121.648 76.9778ZM121.049 76.5578L121.069 76.5109C121.089 76.5444 121.069 76.5377 121.049 76.5578Z" fill="#59A710"/>
<path d="M103.626 107.25C103.633 107.284 103.666 107.359 103.602 107.355C103.736 107.442 103.829 107.592 103.747 107.762C103.707 107.88 103.559 107.916 103.463 107.945C103.374 107.92 103.273 107.9 103.193 107.86C103.114 107.82 103.054 107.762 103.041 107.659C103.041 107.648 103.041 107.639 103.041 107.628C103.03 107.625 103.021 107.621 103.009 107.619C102.605 107.518 102.174 107.529 101.812 107.337C101.756 107.281 101.696 107.225 101.635 107.167C101.613 107.183 101.591 107.196 101.566 107.21C101.515 107.237 101.463 107.266 101.43 107.315C101.421 107.344 101.412 107.375 101.399 107.402C101.401 107.364 101.414 107.337 101.43 107.315C101.457 107.237 101.472 107.154 101.481 107.069C101.481 107.053 101.481 107.036 101.486 107.018C101.457 106.989 101.432 106.957 101.405 106.926C101.405 106.926 101.401 106.928 101.401 106.93C99.982 108.162 98.5097 109.319 96.9881 110.405C94.0858 112.476 91.0002 114.277 87.756 115.798C87.0656 116.122 86.3685 116.437 85.6625 116.737C84.0717 117.409 82.4563 118.006 80.8253 118.535C79.8534 118.85 78.877 119.139 77.8917 119.402C74.6274 120.274 71.2916 120.861 67.9044 121.163C66.1326 121.319 64.3496 121.404 62.5511 121.404C60.1514 121.404 57.7719 121.261 55.4192 120.98C52.9392 120.685 50.4904 120.233 48.0796 119.63C46.6094 119.262 45.1527 118.837 43.7116 118.354C43.3541 118.236 43.0011 118.109 42.6458 117.984C42.3442 117.876 42.0426 117.765 41.7409 117.653C41.7365 117.657 41.7342 117.664 41.7297 117.668C41.7811 117.698 41.7543 117.769 41.723 117.803C41.6314 117.966 41.3968 117.874 41.3164 118.059C41.2449 118.176 41.2963 118.296 41.2092 118.406C41.16 118.415 41.1064 118.412 41.0773 118.372C41.0125 118.211 41.2203 118.122 41.084 117.959C41.0327 117.93 40.9924 117.986 40.9522 118.017C40.979 118.153 40.8628 118.245 40.8405 118.37C40.8271 118.31 40.7824 118.357 40.7556 118.354C40.7623 118.104 41.0282 117.865 40.9053 117.626C40.8606 117.626 40.8003 117.666 40.7779 117.604C40.7846 117.561 40.8025 117.496 40.7712 117.438C40.5255 117.307 40.2909 117.559 40.0339 117.521C40.168 117.485 40.2909 117.389 40.4004 117.295C40.3043 117.353 40.1859 117.374 40.0764 117.315C39.8194 117.273 40.0161 117.027 39.8507 116.942C39.8418 116.951 39.8306 116.958 39.8105 116.953C39.8261 116.953 39.8373 116.949 39.8485 116.94C39.8284 116.929 39.8038 116.922 39.7725 116.918C39.7658 116.909 39.7636 116.902 39.7591 116.893C39.7524 116.882 39.7457 116.871 39.7412 116.86C39.6407 116.817 39.5401 116.779 39.4396 116.737C38.6598 116.406 37.889 116.058 37.1271 115.696C36.8769 115.906 36.4211 115.888 36.3116 116.221C36.3541 116.263 36.4479 116.283 36.4077 116.361C36.3608 116.395 36.2826 116.44 36.258 116.525C36.363 116.884 36.821 116.871 37.0266 117.15C36.7495 116.987 36.3339 117.018 36.0859 116.978C36.325 117.023 36.4702 117.302 36.5641 117.409C36.2312 117.32 36.0882 117.21 35.8201 117.043C35.695 117.103 35.5788 117.184 35.4693 117.275C35.4514 117.3 35.4291 117.324 35.4 117.34C35.6346 117.454 35.867 117.57 36.1038 117.682C36.1038 117.682 36.1083 117.682 36.1105 117.684C36.1172 117.682 36.1262 117.677 36.1329 117.675C36.2356 117.644 36.3429 117.622 36.4479 117.622C36.5462 117.622 36.6467 117.635 36.7473 117.673C36.8724 117.751 37.1964 117.753 37.2165 117.995C37.3707 118.082 37.46 118.2 37.5181 118.33C37.5628 118.35 37.6075 118.37 37.6544 118.388C38.1929 118.627 38.738 118.857 39.2854 119.081C39.3614 118.996 39.4553 118.931 39.5759 118.904C39.6966 118.85 39.7949 118.989 39.8887 119.027C39.9289 119.132 39.9066 119.226 39.8664 119.317C40.2685 119.476 40.6752 119.63 41.0818 119.782C41.0863 119.778 41.0907 119.773 41.0952 119.771C41.3343 119.644 41.5979 119.775 41.7767 119.932C41.7677 119.963 41.7499 119.992 41.7342 120.019C41.7677 120.032 41.8035 120.044 41.837 120.055C42.8357 120.412 43.8478 120.743 44.8712 121.049C45.9682 121.377 47.0764 121.675 48.1958 121.943C50.5909 122.515 53.0397 122.946 55.5332 123.227C57.8367 123.489 60.1782 123.627 62.5533 123.627C64.267 123.627 65.9628 123.554 67.643 123.417C68.5032 123.348 69.3589 123.261 70.2102 123.156C70.1767 123.14 70.1454 123.116 70.1208 123.073C70.237 123.031 70.3509 123.212 70.456 123.069C70.523 123.075 70.5878 123.087 70.6526 123.1C72.3506 122.877 74.0263 122.582 75.6797 122.224C75.7088 122.05 75.7132 121.864 75.8182 121.739C75.8629 121.744 75.9746 121.835 75.8696 121.869C75.8786 121.974 75.8607 122.083 75.8361 122.191C76.4327 122.059 77.027 121.92 77.6168 121.773C79.0579 121.411 80.479 120.998 81.8799 120.535C81.8888 120.533 81.8977 120.528 81.9089 120.526C81.891 120.497 81.8799 120.464 81.8821 120.428C81.8575 120.363 81.8977 120.314 81.9402 120.265C82.0139 120.207 82.1457 120.166 82.2508 120.218C82.3267 120.236 82.387 120.294 82.4205 120.361C84.2035 119.753 85.9507 119.065 87.6577 118.303C87.6108 118.225 87.5974 118.131 87.6153 118.057C87.6555 117.95 87.7694 118.024 87.8409 117.977C87.937 117.984 88.0018 118.053 88.0308 118.135C88.2878 118.019 88.5425 117.896 88.7994 117.778C92.2201 116.165 95.471 114.248 98.5119 112.058C98.561 112.022 98.6124 111.984 98.6616 111.949C99.3363 111.459 100.004 110.959 100.659 110.443C101.298 109.94 101.924 109.422 102.543 108.894C102.543 108.881 102.543 108.865 102.543 108.85C102.543 108.85 102.543 108.848 102.543 108.845C102.563 108.566 102.802 108.224 103.132 108.349C103.141 108.351 103.15 108.356 103.159 108.36C103.242 108.287 103.325 108.213 103.407 108.141C103.637 107.938 103.867 107.733 104.095 107.527C104.075 107.467 104.051 107.409 103.99 107.373C103.863 107.373 103.769 107.212 103.631 107.257L103.626 107.25ZM39.6943 116.983L39.6563 116.987C39.6496 116.958 39.6675 116.938 39.6898 116.927C39.7278 116.924 39.6965 116.956 39.6943 116.983ZM39.7211 116.985C39.7435 116.976 39.7435 116.949 39.7636 116.947L39.7211 116.985ZM40.8919 118.466V118.442L40.941 118.471H40.8919V118.466ZM40.9209 118.332H40.8852L40.9612 118.314L40.9187 118.332H40.9209ZM43.859 119.288C43.754 119.358 43.5753 119.398 43.4435 119.32C43.2156 119.246 43.115 118.922 43.2937 118.772C43.4189 118.634 43.5887 118.719 43.7049 118.732C43.8322 118.799 43.9707 118.924 43.9506 119.078C43.9752 119.165 43.9171 119.228 43.8568 119.288H43.859ZM48.5622 121.1C48.4415 121.165 48.3432 121.06 48.2673 121.024C48.198 120.944 48.1332 120.823 48.1868 120.721C48.1913 120.653 48.2494 120.627 48.3052 120.598C48.3946 120.578 48.5287 120.595 48.6002 120.683C48.7387 120.792 48.7253 121.042 48.5622 121.1ZM50.0614 122.016H50.0949L50.1195 122.021L50.0614 122.016ZM50.1396 121.945L50.1128 121.914L50.1463 121.929L50.1396 121.947V121.945ZM50.3407 120.971C50.1418 120.998 49.9944 120.839 49.9117 120.685C49.9988 120.573 50.153 120.533 50.2781 120.508C50.3541 120.528 50.4256 120.618 50.4524 120.683C50.4591 120.808 50.4815 120.939 50.3429 120.971H50.3407ZM54.1904 122.195C54.2328 122.358 54.1904 122.544 54.1747 122.711C54.1189 122.747 54.092 122.698 54.0719 122.658C54.13 122.481 54.0451 122.26 54.1367 122.106C54.1703 122.106 54.2641 122.157 54.1904 122.195ZM54.5188 121.397C54.3959 121.438 54.2864 121.409 54.2239 121.295C54.177 121.181 54.2038 121.047 54.2663 120.969C54.3445 120.89 54.4183 121.002 54.5009 120.991C54.6551 121.076 54.6238 121.308 54.521 121.397H54.5188ZM70.7889 122.506C70.8112 122.698 70.6414 122.812 70.4716 122.825C70.1253 122.83 70.027 122.517 69.8281 122.314C69.8572 122.26 69.951 122.215 69.8929 122.142C70.0918 122.153 70.2303 122.036 70.3822 121.876C70.5073 121.858 70.6481 121.896 70.7241 122.016C70.9497 122.2 70.5543 122.32 70.7911 122.506H70.7889ZM76.4751 120.89C76.3053 120.915 76.1668 120.855 76.1065 120.691C76.0685 120.531 76.1333 120.359 76.2338 120.271C76.3567 120.184 76.426 120.35 76.5377 120.352C76.7231 120.497 76.6315 120.799 76.4751 120.893V120.89ZM83.8058 118.033C83.8706 118.046 83.9086 118.046 83.951 118.091C83.9868 118.14 83.9935 118.191 83.9622 118.238C83.9175 118.263 83.8527 118.285 83.7879 118.272C83.7164 118.243 83.6472 118.22 83.6181 118.151C83.6539 118.093 83.7254 118.028 83.8058 118.035V118.033ZM83.9823 119.737C83.8103 119.847 83.6047 119.764 83.4617 119.657C83.493 119.516 83.6204 119.411 83.7254 119.337C83.8036 119.324 83.9086 119.375 83.9622 119.425C84.0203 119.536 84.0985 119.648 83.9845 119.737H83.9823Z" fill="#59A710"/>
<path d="M103.411 107.277C103.436 107.281 103.46 107.288 103.485 107.297C103.427 107.254 103.373 107.219 103.329 107.274C103.356 107.27 103.382 107.268 103.411 107.277Z" fill="#59A710"/>
<path d="M103.126 107.402C103.126 107.402 103.119 107.4 103.117 107.4C103.115 107.404 103.115 107.409 103.112 107.413C103.117 107.411 103.121 107.406 103.126 107.402Z" fill="#59A710"/>
<path d="M104.705 106.611C104.448 106.776 104.247 107.036 104.093 107.29C104.095 107.346 104.131 107.398 104.171 107.447C104.339 107.293 104.506 107.136 104.672 106.98C104.672 106.98 104.667 106.975 104.667 106.973C104.703 106.89 104.821 106.846 104.848 106.781C104.754 106.761 104.739 106.678 104.705 106.609V106.611Z" fill="#59A710"/>
<path d="M105.118 106.562C105.138 106.544 105.156 106.524 105.176 106.506C105.094 106.511 105.018 106.515 104.953 106.515C105.013 106.517 105.067 106.537 105.118 106.564V106.562Z" fill="#59A710"/>
<path d="M112.009 40.9209C109.413 34.8437 105.731 29.3428 101.206 24.662C99.9955 23.4108 98.7264 22.2177 97.4015 21.0872C97.2361 21.2391 97.0954 21.3061 96.8876 21.4245C96.8719 21.7128 96.9591 22.0099 97.0686 22.2669C97.1959 22.3518 97.4461 22.1976 97.4998 22.4099C97.4171 22.4925 97.3121 22.4099 97.1981 22.3853C97.9757 23.0667 98.7353 23.775 99.4793 24.5056C99.5776 24.6039 99.6804 24.6978 99.7787 24.7983C103.508 28.5273 106.613 32.73 109.058 37.3304C109.14 37.4846 109.221 37.6387 109.301 37.7929C109.534 37.8711 109.659 38.0968 109.851 38.2375C109.755 38.3358 109.922 38.3671 109.954 38.461C110.003 38.5101 110.106 38.5034 110.141 38.5727C110.101 38.6598 109.978 38.5056 109.969 38.6442C109.947 38.8899 110.275 38.8922 110.345 39.0754C110.19 39.0888 110.077 38.8631 109.931 38.9793C109.931 38.9994 109.931 39.0218 109.931 39.0419C109.974 39.129 110.016 39.2184 110.059 39.3055C110.088 39.2742 110.121 39.2519 110.161 39.2541C110.213 39.2787 110.193 39.348 110.161 39.3748C110.148 39.3949 110.132 39.4105 110.117 39.4262C110.445 40.1188 110.762 40.8204 111.062 41.5286C111.191 41.8347 111.314 42.1431 111.439 42.4514H112.262C112.262 42.4514 112.275 42.4447 112.284 42.438L112.277 42.4514H112.642C112.44 41.9375 112.23 41.4281 112.014 40.9209H112.009ZM99.2112 22.8768C99.0034 22.8992 98.7823 22.8165 98.5812 22.7673C98.5477 22.6914 98.6102 22.6668 98.6638 22.6512C98.8716 22.7517 99.1554 22.6847 99.3296 22.8254C99.3252 22.8657 99.2447 22.9729 99.2112 22.8768ZM111.629 41.8012L111.616 41.7565L111.636 41.7409L111.629 41.8012ZM111.801 42.0023L111.819 42.0112L111.83 42.0246L111.804 42.0023H111.801Z" fill="#59A710"/>
<path d="M63.5408 8.27128C63.4648 8.27128 63.3866 8.27128 63.3084 8.26904C63.3107 8.28915 63.3039 8.31373 63.2749 8.33831C63.3933 8.36288 63.4268 8.3182 63.5408 8.29809C63.5408 8.28692 63.5408 8.28021 63.5408 8.27128Z" fill="#59A710"/>
<path d="M49.3442 113.012C49.552 113.249 49.514 113.696 49.8335 113.808C49.8737 113.768 49.896 113.681 49.9698 113.721C49.9988 113.765 50.0413 113.841 50.1195 113.866C50.3898 113.794 50.4457 113.506 50.5931 113.298C49.6346 113.075 48.6828 112.825 47.7377 112.548C47.4428 112.461 47.1501 112.376 46.8574 112.284C46.5111 112.177 46.167 112.065 45.8229 111.949C44.5561 111.524 43.3027 111.051 42.0649 110.526C41.58 110.32 41.1019 110.108 40.626 109.889C40.6617 109.951 40.7176 110.014 40.6975 110.106C40.8963 110.32 41.0505 110.566 41.3141 110.725C41.2426 110.803 41.0974 110.593 40.9388 110.664C40.731 110.74 40.7913 110.964 40.7712 111.118C40.7779 111.142 40.7846 111.167 40.7935 111.192C42.3129 111.866 43.8702 112.47 45.461 113.004C46.0977 113.216 46.739 113.419 47.3847 113.609C47.521 113.649 47.6573 113.687 47.7936 113.727C48.2002 113.844 48.6091 113.955 49.0202 114.063C49.076 113.975 49.1274 113.886 49.085 113.768C49.0515 113.598 48.8995 113.533 48.8861 113.357C48.9241 113.307 48.9755 113.265 49.0358 113.274C49.2324 113.365 49.1207 113.627 49.3821 113.66C49.4559 113.643 49.4425 113.555 49.4536 113.495C49.3106 113.392 49.3397 113.209 49.2526 113.075C49.3151 113.117 49.3173 113.037 49.3419 113.017L49.3442 113.012Z" fill="#59A710"/>
<path d="M39.7569 119.204C39.8262 119.094 39.6005 119.116 39.6743 119C39.5804 119.009 39.5648 119.047 39.4866 119.09C39.5022 119.186 39.6139 119.112 39.6251 119.197C39.6139 119.199 39.605 119.204 39.5961 119.21C39.6296 119.224 39.6608 119.237 39.6921 119.25C39.6921 119.233 39.6921 119.208 39.7122 119.224C39.71 119.23 39.7033 119.246 39.6944 119.25C39.7078 119.255 39.7212 119.262 39.7346 119.266C39.739 119.262 39.7457 119.255 39.7659 119.253C39.7882 119.257 39.7837 119.271 39.7793 119.284C39.7927 119.288 39.8038 119.295 39.8172 119.3C39.8306 119.237 39.8374 119.17 39.8396 119.11C39.8038 119.132 39.8195 119.21 39.7569 119.204ZM39.6675 119.204C39.6877 119.186 39.6877 119.166 39.681 119.148C39.6877 119.161 39.7011 119.17 39.7256 119.17C39.7256 119.215 39.6988 119.17 39.6675 119.201V119.204Z" fill="#59A710"/>
<path d="M36.4613 115.738C36.4814 115.814 36.573 115.801 36.6378 115.81C36.7227 115.685 36.8635 115.678 36.9908 115.629C36.897 115.584 36.8031 115.539 36.7093 115.495C36.5998 115.539 36.4792 115.559 36.4613 115.738Z" fill="#59A710"/>
<path d="M39.5823 119.203C39.5823 119.203 39.5889 119.19 39.5932 119.183C39.5845 119.19 39.5758 119.194 39.567 119.196C39.5714 119.196 39.5779 119.201 39.5823 119.203Z" fill="#59A710"/>
<path d="M35.715 115.276C35.9563 115.209 36.0881 115.519 36.3406 115.423C36.3875 115.412 36.4277 115.394 36.4635 115.37C35.8312 115.061 35.2078 114.742 34.5889 114.411C32.9154 113.517 31.2889 112.545 29.7137 111.498C29.5595 111.395 29.4031 111.292 29.249 111.187C29.135 111.111 29.0233 111.031 28.9116 110.955C28.7887 110.87 28.6658 110.785 28.5429 110.7C28.5787 110.845 28.7842 110.919 28.8066 111.071C28.6613 111.051 28.601 110.818 28.4424 110.897C28.4089 111.031 28.3664 111.205 28.4089 111.31C28.4535 111.252 28.525 111.18 28.5988 111.198C28.6412 111.232 28.61 111.292 28.572 111.31C28.4915 111.386 28.3999 111.384 28.3284 111.419C28.248 111.549 28.2681 111.701 28.3105 111.844C28.3642 111.826 28.3977 111.891 28.3999 111.936C28.4558 112.105 28.2368 112.213 28.315 112.391C28.3418 112.49 28.42 112.539 28.4625 112.617C28.4736 112.639 28.4848 112.664 28.4893 112.693C28.4647 112.733 28.4267 112.767 28.382 112.764C28.2256 112.704 28.2971 112.499 28.0938 112.49C28.0402 112.507 28.0536 112.572 28.0491 112.619C28.1653 112.688 28.1519 112.831 28.2279 112.93C28.1765 112.901 28.181 112.961 28.1631 112.981C27.9911 112.814 27.9933 112.467 27.743 112.4C27.714 112.432 27.7028 112.501 27.6447 112.476C27.6202 112.443 27.5844 112.389 27.5219 112.373C27.4235 112.407 27.3677 112.478 27.323 112.561C27.6045 112.758 27.8883 112.957 28.172 113.149C28.4066 113.307 28.6457 113.462 28.8848 113.618C28.8959 113.625 28.9049 113.631 28.916 113.638C29.2892 113.578 29.3339 113.104 29.6936 113.028C29.7584 113.015 29.8276 112.986 29.8947 112.961C30.0466 112.905 30.2008 112.861 30.3281 112.997C30.4354 113.001 30.4242 113.097 30.4599 113.167C30.5113 113.314 30.3929 113.43 30.3661 113.546C30.2924 113.491 30.241 113.526 30.1851 113.558C30.1471 113.58 30.1069 113.6 30.0533 113.584C29.8768 113.732 29.6802 113.846 29.5484 114.047C29.9639 114.313 30.384 114.572 30.8085 114.827C31.1995 115.061 31.5927 115.294 31.9882 115.522C32.1245 115.6 32.2652 115.676 32.4015 115.754C32.4172 115.745 32.4306 115.734 32.4507 115.727C32.578 115.28 33.0048 115.222 33.3064 114.983C33.398 115.139 33.4963 114.938 33.6259 114.932C33.7041 114.887 33.7332 114.751 33.8337 114.733C33.9298 114.813 33.6907 114.916 33.865 114.976C34.1711 115.09 34.285 114.675 34.5442 114.65C34.5062 114.849 34.18 114.916 34.2783 115.142C34.4615 115.198 34.6984 115.267 34.8481 115.215C34.7721 115.151 34.676 115.043 34.7073 114.945C34.7565 114.887 34.8391 114.938 34.8615 114.99C34.9598 115.106 34.9531 115.231 34.9978 115.336C35.172 115.457 35.3843 115.439 35.5831 115.392C35.563 115.316 35.6547 115.276 35.7172 115.274L35.715 115.276ZM32.3948 115.084C32.406 115.124 32.406 115.195 32.3434 115.171C32.263 115.077 32.3881 115.126 32.3948 115.084ZM31.9256 114.664C31.7849 114.4 31.6843 114.101 31.5056 113.866C31.4698 113.797 31.3671 113.712 31.4721 113.627C31.6128 113.546 31.662 113.763 31.6776 113.841C31.9189 114.08 32.044 114.364 32.1692 114.666C32.1245 114.711 32.1759 114.813 32.0776 114.784C31.9971 114.78 31.9748 114.699 31.9256 114.661V114.664Z" fill="#59A710"/>
<path d="M40.5319 117.177C40.5141 117.17 40.4963 117.163 40.4808 117.155C40.4719 117.183 40.463 117.212 40.4563 117.244C40.483 117.219 40.5075 117.197 40.5319 117.177Z" fill="#59A710"/>
<path d="M26.702 111.618C26.6841 111.661 26.6506 111.694 26.6394 111.748C26.6953 111.837 26.7265 111.969 26.8584 111.962C26.8963 112.065 26.7645 112.027 26.7534 112.09C26.8271 112.105 26.8315 112.174 26.845 112.237C26.8941 112.271 26.941 112.304 26.9902 112.34C27.0282 112.257 27.0751 112.181 27.1287 112.083C27.0304 111.897 26.8673 111.743 26.702 111.62V111.618Z" fill="#59A710"/>
<path d="M27.1775 112.466C27.1775 112.393 27.1775 112.326 27.1864 112.271C27.1797 112.328 27.1508 112.38 27.1152 112.424C27.1353 112.44 27.1575 112.453 27.1775 112.468V112.466Z" fill="#59A710"/>
<path d="M26.7198 111.243C26.6952 111.245 26.6326 111.267 26.6438 111.216C26.6595 111.136 26.8091 111.073 26.7041 111.006C26.6684 110.988 26.6148 110.968 26.5857 110.984C26.5969 110.95 26.6259 110.901 26.6416 110.856C26.4829 110.754 26.5053 111.004 26.3802 111.004C26.5902 110.657 26.5567 110.222 26.7667 109.893C26.8628 109.811 26.9611 109.717 27.0683 109.639C27.0661 109.636 27.0616 109.634 27.0594 109.632C25.3636 108.365 23.7348 106.998 22.1708 105.545C21.6301 105.043 21.0939 104.533 20.5688 104.008C18.5133 101.953 16.6253 99.7698 14.9071 97.4685C13.7587 95.9313 12.6907 94.3382 11.6987 92.6983C11.6763 92.7586 11.6652 92.8011 11.6093 92.839C11.5445 92.8726 11.4775 92.8726 11.4283 92.8212C11.4082 92.7631 11.3926 92.6804 11.4216 92.6044C11.4596 92.5396 11.4931 92.4793 11.549 92.4458C10.9837 91.5007 10.4452 90.5377 9.93359 89.5591C9.1784 88.118 8.47684 86.6434 7.84007 85.133C7.56301 84.4761 7.30161 83.8148 7.04913 83.1512C6.61792 82.0206 6.22021 80.8789 5.86049 79.7283C5.83591 79.8065 5.79793 79.8824 5.73761 79.9494C5.55663 80.1483 5.44044 80.517 5.10307 80.4477C4.98912 80.5192 4.9288 80.4142 4.84166 80.3695C4.68079 80.2555 4.71877 80.0478 4.66068 79.9092C4.85953 79.9137 4.79474 79.6992 4.95561 79.6389C5.02934 79.3574 5.14998 79.096 5.14105 78.7899C5.24382 78.8077 5.14776 79.0423 5.29299 79.1362C5.42928 79.2389 5.5544 79.1585 5.66611 79.087C5.44492 78.3519 5.23712 77.6124 5.04497 76.8684C4.87293 76.2026 4.71431 75.5323 4.56685 74.8597C4.55567 74.9 4.53333 74.9357 4.48418 74.9558C4.46184 74.8687 4.60035 74.7994 4.50204 74.7123C4.50651 74.6877 4.51322 74.6631 4.51992 74.6408C4.48641 74.4911 4.45513 74.3392 4.42161 74.1895C4.09094 72.5964 3.82282 70.99 3.62397 69.3679C3.38714 67.4509 3.24415 65.5137 3.19499 63.561C3.19052 63.4269 3.19052 63.2928 3.18828 63.1588C3.18158 62.779 3.17488 62.4014 3.17488 62.0193C3.17488 59.5839 3.32234 57.1687 3.61056 54.7847C3.67312 54.2619 3.74239 53.7413 3.82059 53.2207C4.00827 51.9494 4.24286 50.6848 4.51321 49.4313C4.51991 49.3978 4.52886 49.3621 4.53556 49.3286C4.54003 49.3062 4.5445 49.2839 4.5512 49.2615C4.28532 49.1967 4.14902 49.1074 3.91219 48.9778C3.65748 49.1163 3.44746 49.3464 3.28435 49.5788C3.27989 49.7307 3.54354 49.867 3.38937 50.0234C3.23297 49.9854 3.32011 49.7441 3.17711 49.6436C3.05646 49.6347 2.97826 49.476 2.84421 49.5073C2.84868 49.5408 2.87548 49.619 2.81069 49.6056C2.70791 49.5877 2.62525 49.3956 2.54258 49.5319C2.52024 49.5788 2.49566 49.6481 2.51354 49.6838C2.47109 49.6704 2.40628 49.6324 2.35042 49.6146C2.22084 49.8179 2.54035 49.7866 2.54035 49.9497C2.4197 49.8782 2.2901 49.829 2.15604 49.7911C2.11583 49.9899 2.08007 50.191 2.04209 50.3921C2.10018 50.3608 2.16499 50.334 2.20744 50.2982C2.51354 50.334 2.57832 50.6825 2.76823 50.8702C2.57385 51.0378 2.77941 51.2903 2.6878 51.5025C2.64088 51.4645 2.65429 51.3752 2.62301 51.3238L2.69228 51.3282C2.63865 51.297 2.68333 51.2568 2.62971 51.2255H2.64312C2.61854 51.183 2.67664 51.0534 2.58056 51.1093C2.56492 51.0311 2.63865 50.9663 2.70121 50.9015C2.54704 50.9194 2.69674 50.7741 2.54481 50.8412C2.54481 50.763 2.63418 50.868 2.61854 50.7764C2.5895 50.6066 2.41523 50.4815 2.26106 50.3943C2.26553 50.4435 2.35266 50.4703 2.31468 50.5306C2.23872 50.3988 2.13817 50.6446 2.05773 50.506C2.01528 50.6088 2.0488 50.6446 2.04657 50.7496C2.15604 50.7853 2.13818 50.6312 2.23425 50.6647C2.20297 50.7965 2.38171 50.7451 2.31692 50.8948C2.32586 50.7697 2.26106 50.7853 2.2052 50.6915C2.21861 50.7965 2.08678 50.7809 2.10242 50.8456L2.19404 50.83C2.15158 50.8479 2.15605 50.8792 2.17392 50.9171C2.1918 50.9574 2.22307 51.0065 2.22754 51.049H2.21414C2.19626 51.0892 2.24542 51.0847 2.25882 51.1004H2.19626C2.18062 51.3394 2.47779 51.3685 2.42863 51.5807C2.32586 51.5383 2.3616 51.3506 2.2052 51.3819C2.09126 51.2523 1.99071 51.1093 1.93261 50.9551C1.91251 51.0668 1.89241 51.1786 1.8723 51.2903C1.86336 51.3439 1.85441 51.3997 1.84547 51.4534C1.88793 51.4534 1.92815 51.4668 1.96837 51.4846C1.99518 51.4981 2.02199 51.5115 2.04657 51.5316C2.17615 51.6478 2.19179 51.7818 2.18509 51.9226C2.17839 52.032 2.15828 52.1438 2.16275 52.2532C2.11136 52.2711 2.02422 52.2443 2.01752 52.327C1.93485 52.2421 1.8343 52.213 1.72035 52.2063C1.55055 53.2676 1.40756 54.3356 1.29138 55.4148C1.05901 57.5865 0.938354 59.7895 0.938354 62.0238C0.938354 64.2581 1.07018 66.6286 1.32042 68.8786C1.53938 70.8581 1.85218 72.8109 2.25435 74.7302C2.3683 75.2731 2.49119 75.8138 2.61854 76.3522C3.21733 78.8636 3.96805 81.3146 4.864 83.6963C5.71302 85.9552 6.68941 88.1515 7.78645 90.2741C9.22086 93.0491 10.8608 95.6989 12.684 98.2058C15.1551 101.604 17.9614 104.743 21.0603 107.567C22.0591 108.479 23.0913 109.355 24.1481 110.197C24.1772 110.148 24.2084 110.101 24.2464 110.054C24.3738 109.927 24.5525 109.898 24.7246 109.84C24.9167 109.851 24.9703 110.09 25.1424 110.115C25.2384 110.211 25.2496 110.374 25.2586 110.512C25.2586 110.526 25.2586 110.539 25.2608 110.552C25.0932 110.624 25.3122 110.905 25.0575 110.883C25.0575 110.892 25.0575 110.901 25.0575 110.91C25.1379 110.973 25.2183 111.033 25.2988 111.095C25.4328 111.073 25.5736 111.062 25.6473 110.928C25.6987 110.921 25.6898 110.997 25.6987 111.048C25.7858 111.142 25.8931 110.993 25.9735 110.99L26.0227 111.133L26.1567 111.102C26.1813 111.162 26.1567 111.29 26.264 111.288C26.4047 111.33 26.398 111.129 26.5142 111.214C26.512 111.283 26.3958 111.301 26.3891 111.377C26.4226 111.462 26.4874 111.518 26.5567 111.547C26.5768 111.536 26.5969 111.522 26.6125 111.502C26.6215 111.408 26.7444 111.348 26.7198 111.243ZM2.26776 50.62C2.25882 50.5887 2.23872 50.5798 2.21861 50.5753C2.23648 50.5753 2.25212 50.5686 2.26776 50.5418C2.31468 50.5664 2.25212 50.5686 2.26776 50.62ZM2.31245 50.5798C2.31245 50.5798 2.33256 50.6021 2.33032 50.6155C2.31021 50.6066 2.2834 50.5909 2.31245 50.5798ZM2.21861 50.792L2.22531 50.7853L2.2834 50.8523L2.2767 50.8591L2.21861 50.792ZM2.23871 50.9328C2.26552 50.9328 2.27447 50.9149 2.29011 50.9015C2.29458 50.9507 2.27893 50.9507 2.23871 50.9328ZM3.98592 49.8871L3.99933 49.9028L3.96582 49.8804L3.98592 49.8894V49.8871ZM3.76249 49.5833L3.75804 49.6525L3.74016 49.6034L3.76249 49.5833ZM3.79825 51.1495C3.82059 51.3819 4.02837 51.5897 3.99933 51.8131C3.96135 51.831 3.82729 51.8176 3.89209 51.7394C3.7625 51.5718 3.71781 51.3394 3.65302 51.1406C3.69994 51.0713 3.7558 51.1138 3.79601 51.1495H3.79825ZM2.52918 50.6803L2.49119 50.7116L2.47332 50.6624L2.52694 50.6803H2.52918ZM2.51354 51.3729L2.50013 51.4623C2.50013 51.4355 2.44427 51.3685 2.51354 51.3729ZM2.32809 51.3372L2.35266 51.2769L2.36383 51.3193L2.32809 51.3372ZM2.37054 50.5418C2.40182 50.5016 2.41745 50.5798 2.4465 50.5686C2.36383 50.5619 2.45544 50.6401 2.42863 50.6379C2.39065 50.5798 2.35267 50.611 2.37278 50.5418H2.37054ZM2.72802 74.4732L2.75037 74.4442L2.76378 74.4553L2.72802 74.4732ZM2.81069 74.5469L2.8174 74.5157L2.8308 74.4933L2.81069 74.5469ZM2.95368 70.1387C3.06987 70.0158 3.28213 70.103 3.33799 70.2214C3.34469 70.3465 3.29107 70.4426 3.16818 70.4738C3.04976 70.4895 2.93134 70.4314 2.87325 70.3532C2.81963 70.2594 2.94251 70.2191 2.95145 70.1387H2.95368ZM3.63514 74.6832C3.63067 74.5916 3.66642 74.4933 3.76026 74.4464C3.90772 74.2967 3.96805 74.5894 4.11775 74.433C4.25851 74.4308 4.33001 74.5604 4.32778 74.6832C4.30767 74.9335 4.07529 74.9826 3.91442 75.1122C3.87868 75.0876 3.85187 75.0161 3.79601 75.0541C3.81836 74.9111 3.74239 74.8039 3.63738 74.6832H3.63514ZM9.37502 90.3545C9.29012 90.5578 8.98402 90.6249 8.86114 90.4484C8.74272 90.3232 8.83433 90.1735 8.85444 90.0685C8.92594 89.9568 9.05105 89.8384 9.19181 89.8697C9.27447 89.854 9.32587 89.9121 9.37726 89.9725C9.43311 90.0752 9.45545 90.2406 9.37278 90.3568L9.37502 90.3545ZM9.99616 92.5843C9.84869 92.6335 9.69899 92.705 9.61185 92.5486C9.51354 92.3185 9.65431 92.0861 9.81294 91.9364C9.97605 92.0034 10.0788 92.1755 10.1459 92.3162C10.1459 92.4145 10.0632 92.5285 9.99392 92.5843H9.99616ZM26.0852 109.514C26.1098 109.446 26.159 109.402 26.226 109.404C26.2796 109.433 26.3467 109.482 26.3757 109.556C26.3958 109.648 26.4181 109.73 26.3668 109.806C26.2841 109.806 26.1724 109.782 26.1255 109.697C26.0964 109.623 26.0696 109.585 26.0875 109.514H26.0852Z" fill="#59A710"/>
<path d="M29.6065 113.759C29.5529 113.593 29.3764 113.633 29.258 113.613C29.1641 113.633 29.0681 113.685 28.9832 113.687C29.1708 113.81 29.3585 113.931 29.5484 114.051C29.4903 113.991 29.6579 113.886 29.6088 113.759H29.6065ZM29.4389 113.866V113.823L29.4568 113.812L29.4389 113.866Z" fill="#59A710"/>
<path d="M18.9333 93.4421C19.4606 94.1727 20.0035 94.8877 20.5666 95.5893C21.9317 97.294 23.3952 98.9139 24.9547 100.44C24.9793 100.389 25.0106 100.342 25.0441 100.297C25.0999 100.225 25.167 100.161 25.2541 100.109C25.3837 100.065 25.5691 99.8299 25.7568 99.9551C25.8462 99.9193 25.9311 99.9059 26.0115 99.9081C25.8574 99.7607 25.7054 99.611 25.5513 99.459C25.4775 99.3853 25.4038 99.3161 25.3301 99.2423C24.0431 97.9554 22.8322 96.6103 21.6949 95.2139C21.0604 94.4364 20.4526 93.641 19.865 92.8322C19.836 92.7942 19.8069 92.754 19.7801 92.716C19.7377 92.7271 19.693 92.7338 19.6416 92.7271C19.5366 92.8053 19.4718 92.707 19.3824 92.6713C19.2193 92.573 19.2394 92.3697 19.1724 92.2378C19.2863 92.2334 19.3064 92.1596 19.3333 92.0859C18.9959 91.6033 18.6674 91.1162 18.3479 90.6225C18.31 90.6426 18.272 90.6649 18.2385 90.6895C18.0888 90.4616 17.7916 90.6426 17.5838 90.5152C17.6307 90.4705 17.7246 90.4996 17.7827 90.4728L17.767 90.5465C17.8072 90.4951 17.843 90.5465 17.8854 90.4951V90.5107C17.9324 90.4906 18.0597 90.5711 18.015 90.4616C18.0999 90.4571 18.158 90.5442 18.2184 90.618C18.2206 90.5174 18.2697 90.542 18.2965 90.542C18.1915 90.3811 18.0888 90.218 17.986 90.0549C17.8072 90.0818 17.7268 90.3052 17.5369 90.2337C17.5972 90.1331 17.7894 90.1957 17.7782 90.0259C17.8229 89.9968 17.8676 89.97 17.9145 89.9432C17.8564 89.8516 17.8005 89.76 17.7447 89.6684C17.7268 89.731 17.6911 89.7913 17.6419 89.8382C17.3917 90.0527 17.1303 89.8829 16.8621 89.8583C16.851 89.8025 16.8934 89.7131 16.8063 89.6952C16.9582 89.5835 16.9873 89.4137 17.0007 89.2037C17.0811 89.1143 17.2062 89.0562 17.3336 89.0987C17.3604 89.0987 17.3805 89.1031 17.4006 89.1098C17.0632 88.549 16.7392 87.9838 16.4242 87.4095C16.069 86.7616 15.7249 86.107 15.3964 85.4434C15.3272 85.3071 15.2602 85.1686 15.1931 85.0323C15.0099 84.6569 14.8334 84.2793 14.6591 83.8995C14.6301 83.8995 14.5899 83.8771 14.5541 83.866C14.4245 83.8995 14.5117 84.0693 14.4737 84.1453L14.3195 84.1207L14.2838 84.257C14.2168 84.2503 14.1117 84.1676 14.0626 84.2637C13.9576 84.3709 14.143 84.4625 14.0067 84.5251C13.9464 84.4893 13.9844 84.3754 13.9174 84.3307C13.8168 84.3195 13.7297 84.3553 13.6671 84.4134C14.1899 85.5529 14.7507 86.67 15.3495 87.7648C16.4264 89.7354 17.624 91.6323 18.9333 93.4444V93.4421ZM19.1076 92.0948L19.0964 92.115L19.0785 92.1261L19.1076 92.0948ZM18.5178 92.6333L18.4708 92.5998C18.511 92.5864 18.4999 92.6065 18.5178 92.6333ZM17.8653 90.1935L17.8184 90.1979L17.805 90.1577L17.8653 90.1935ZM17.7402 90.3499L17.6464 90.3231C17.6754 90.3298 17.7536 90.2784 17.7402 90.3499ZM16.3974 88.1603V88.1848L16.3505 88.167L16.3974 88.1625V88.1603ZM16.4265 88.2809L16.3594 88.3122L16.3952 88.2899L16.4265 88.2809ZM15.3428 86.9515C15.3652 86.7728 15.5082 86.6298 15.6288 86.5248C15.7249 86.5002 15.8589 86.5493 15.9304 86.603C16.0176 86.7348 16.1271 86.8644 15.9952 86.9895C15.7964 87.1459 15.5305 87.0677 15.3428 86.9515Z" fill="#59A710"/>
<path d="M17.5657 89.3777C17.5479 89.3488 17.5301 89.3221 17.5145 89.2954C17.5234 89.3288 17.539 89.3577 17.5657 89.3777Z" fill="#59A710"/>
<path d="M4.89532 47.7688C4.67189 47.8873 4.3859 47.9431 4.3211 48.1934C4.36356 48.2313 4.45069 48.2447 4.41718 48.3185C4.37472 48.352 4.30547 48.3967 4.2876 48.4749C4.34792 48.6469 4.49539 48.7184 4.65179 48.7832C4.72999 48.4436 4.81265 48.1062 4.89532 47.7666V47.7688Z" fill="#59A710"/>
<path d="M4.56017 49.2121C4.56687 49.1786 4.57357 49.1451 4.5825 49.1116C4.59591 49.0468 4.60932 48.982 4.62496 48.9194C4.55122 48.915 4.47974 48.9127 4.41047 48.9127C4.31663 48.9127 4.22726 48.9127 4.15576 48.9038C4.33897 48.9262 4.4708 49.1004 4.5624 49.2121H4.56017Z" fill="#59A710"/>
<path d="M2.91796 47.3512C2.84423 47.2953 2.75039 47.2015 2.77497 47.1099C2.78837 47.092 2.80624 47.0875 2.82412 47.0853C2.8621 47.0853 2.90232 47.1099 2.91796 47.1412C2.96488 47.1903 2.98945 47.2439 3.00733 47.2953C3.0252 47.3489 3.03861 47.4026 3.06095 47.4517C3.10117 47.4763 3.14362 47.4942 3.1883 47.5053C3.32236 47.5389 3.4676 47.5143 3.60389 47.4718C3.58155 47.4026 3.66421 47.3601 3.72007 47.3556C3.93679 47.2819 4.07531 47.5612 4.30321 47.4584C4.46631 47.4115 4.51771 47.2596 4.68752 47.2328C4.7389 47.2663 4.78582 47.311 4.77911 47.3713C4.70538 47.5701 4.4395 47.4808 4.43057 47.7422C4.45291 47.8114 4.53781 47.7936 4.59814 47.798C4.6741 47.6729 4.81486 47.664 4.93328 47.6037C5.13884 46.7792 5.3645 45.9615 5.6058 45.1459C5.64602 45.0141 5.68177 44.8823 5.72199 44.7505C5.83817 44.3639 5.96106 43.9796 6.08618 43.5976C6.15991 43.3697 6.23364 43.144 6.30961 42.9161C6.2895 42.9027 6.26715 42.8982 6.23587 42.9161C6.26492 42.7374 6.16884 42.6011 6.03702 42.4492C6.03032 42.333 6.07724 42.2101 6.19342 42.152C6.34982 41.9934 6.42803 42.2324 6.56432 42.1877C6.76541 41.6202 6.97319 41.055 7.19215 40.4942C7.10502 40.4651 7.02458 40.4182 6.95532 40.3668C6.9933 40.1881 7.15193 40.0518 7.28375 39.9557C7.3195 39.949 7.35973 39.9557 7.40218 39.9669C7.54517 39.6116 7.68593 39.2564 7.83563 38.9056C7.93617 38.6665 8.04341 38.4319 8.14618 38.1951C8.13725 38.1772 8.13055 38.1571 8.12608 38.1325C8.14396 38.1169 8.16407 38.1124 8.18418 38.1102C8.22663 38.0119 8.26907 37.9113 8.31376 37.813C8.52601 37.3371 8.74275 36.8657 8.96618 36.3965C9.22312 35.8602 9.48676 35.3285 9.75935 34.8012C9.75935 34.6314 9.78169 34.4616 9.80403 34.2873C9.86659 34.2694 9.8733 34.1555 9.94256 34.2315C9.98501 34.2605 9.99171 34.303 9.99842 34.3454C10.2889 33.7913 10.5883 33.2439 10.8966 32.701C10.939 32.6272 10.977 32.5535 11.0195 32.4798C10.9368 32.4619 10.8474 32.4507 10.7558 32.4418C10.5659 32.4239 10.3671 32.406 10.2062 32.3033C10.1325 32.3189 9.99394 32.2541 9.96266 32.377C9.92915 32.5111 9.93361 32.6272 9.98723 32.7367C10.0029 32.8663 9.85541 32.8306 9.87776 32.9534C9.75487 32.9088 9.87553 32.7166 9.7437 32.6608C9.75711 32.5535 9.81967 32.4284 9.76158 32.3122C9.67891 32.1402 9.489 32.1044 9.38399 31.9726C9.22088 31.9301 9.07118 31.8631 8.90585 31.8743C8.84999 32.091 9.20524 32.0061 9.23875 32.2273C9.24769 32.2943 9.19854 32.3547 9.13375 32.3412C9.00863 32.3211 8.83659 32.1424 8.74275 32.3256C8.7003 32.3815 8.70252 32.52 8.59081 32.4775C8.54835 32.4775 8.51038 32.4775 8.4724 32.4686C7.8669 33.5723 7.29716 34.7007 6.7587 35.8446C6.74976 35.8647 6.73859 35.8871 6.72966 35.9072C6.752 35.896 6.77657 35.8938 6.80338 35.9005C6.80561 35.9005 6.81009 35.9005 6.81232 35.9005C6.84137 35.9094 6.87041 35.9295 6.90169 35.9496C7.02234 36.0301 7.15193 36.1507 7.27259 36.0301C7.28152 36.0211 7.29046 36.0166 7.29716 36.0055C7.36419 35.9451 7.391 35.7709 7.51835 35.8491C7.74625 35.8759 7.90489 36.0055 8.01661 36.1909C8.05906 36.2624 8.0948 36.3406 8.12608 36.4278C8.1663 36.6132 8.09034 36.7897 8.04342 36.9752C7.97192 37.0712 7.85797 37.0802 7.75073 37.1003C7.67699 37.1137 7.60772 37.1316 7.55857 37.1896C7.40664 37.2232 7.23907 37.1182 7.10054 37.0467C7.13182 36.8567 6.7587 36.8903 6.92404 36.678C6.84137 36.6378 6.74529 36.4814 6.65145 36.5819C6.63804 36.7852 6.43249 36.9685 6.54644 37.1785C6.5241 37.2276 6.45931 37.1785 6.41015 37.1539C6.2761 37.1785 6.34982 37.3572 6.3029 37.431L6.1465 37.393L6.09735 37.5293C6.07277 37.5248 6.04149 37.5092 6.01244 37.4957C5.5209 38.6263 5.06063 39.7702 4.63835 40.9343C4.23618 42.0358 3.86977 43.153 3.53016 44.2835C3.3112 45.0119 3.1034 45.747 2.91126 46.4865C2.86434 46.6697 2.81965 46.8529 2.77273 47.0361C2.74592 47.1479 2.71911 47.2596 2.69006 47.3713C2.77273 47.378 2.85093 47.378 2.91126 47.3534L2.91796 47.3512ZM9.91351 33.7645C9.93585 33.8874 9.85095 33.7824 9.82414 33.8136C9.83531 33.7734 9.8733 33.7109 9.91351 33.7645ZM7.39547 39.4329L7.35078 39.444C7.33737 39.4105 7.35301 39.3815 7.37759 39.3658C7.42228 39.3547 7.391 39.3994 7.39547 39.4306V39.4329ZM7.42675 39.4306C7.45133 39.415 7.44686 39.3837 7.4692 39.377L7.42675 39.4306ZM7.64794 39.2296C7.60773 39.243 7.60997 39.3055 7.58315 39.3435C7.57422 39.3591 7.56081 39.3703 7.53623 39.3703C7.55857 39.3658 7.57422 39.3569 7.58315 39.3435C7.6055 39.301 7.58985 39.2251 7.64794 39.2296ZM7.36866 38.3001C7.45133 38.3157 7.49825 38.3157 7.55411 38.3716C7.59879 38.4319 7.6122 38.4989 7.56975 38.5593C7.51389 38.5905 7.43121 38.6218 7.35078 38.604C7.25694 38.5682 7.16981 38.5414 7.13406 38.452C7.17875 38.3783 7.26812 38.2934 7.37089 38.3001H7.36866ZM6.51516 37.4756C6.72071 37.4779 6.92627 37.5851 7.11618 37.6566C7.14076 37.7348 7.07597 37.7505 7.02235 37.7594C6.83243 37.6365 6.54644 37.6678 6.39451 37.5092C6.40345 37.4689 6.49505 37.3751 6.51516 37.4734V37.4756ZM5.03159 41.1711C5.12543 41.0952 5.293 41.0416 5.42483 41.1063C5.64826 41.1577 5.77338 41.4571 5.61475 41.6158C5.5075 41.7588 5.33769 41.6917 5.22597 41.6917C5.09862 41.6381 4.95562 41.5331 4.96009 41.3834C4.92881 41.303 4.97797 41.2382 5.02935 41.1734L5.03159 41.1711ZM4.89978 42.1855L4.92882 42.1498L4.94669 42.1632L4.89978 42.1833V42.1855ZM5.00254 42.2794L5.01149 42.2391L5.02713 42.2123L5.00254 42.2794Z" fill="#59A710"/>
<path d="M14.9697 36.9839C14.925 37.0688 14.8826 37.1559 14.8379 37.2408C14.8736 37.2051 14.9161 37.1783 14.9742 37.1716C15.0189 37.0934 15.0032 37.0353 14.9697 36.9839Z" fill="#59A710"/>
<path d="M6.66493 36.0591C6.61801 36.1596 6.57109 36.2602 6.52417 36.3607C6.68057 36.4389 6.83027 36.5216 7.00231 36.5395C7.11402 36.2914 6.69621 36.3071 6.66493 36.0591Z" fill="#59A710"/>
<path d="M8.94604 31.7602C9.0153 31.7803 9.11138 31.8875 9.17171 31.7982C9.15383 31.6395 9.29012 31.4675 9.17171 31.32C9.18288 31.2798 9.23873 31.3089 9.28118 31.32C9.38173 31.2843 9.30129 31.1525 9.32587 31.0899L9.45099 31.0988L9.47109 30.9871C9.52471 30.9871 9.61633 31.0474 9.64985 30.9648C9.72805 30.8709 9.57164 30.8106 9.67442 30.7503C9.72581 30.7749 9.70347 30.8687 9.75932 30.9C9.81518 30.9 9.8621 30.8843 9.90232 30.8598C9.96041 30.824 10.0006 30.7726 10.0118 30.7123C10.0632 30.7369 10.0744 30.7927 10.1257 30.8285C10.2129 30.8151 10.3246 30.833 10.3603 30.7302C10.4497 30.7346 10.3805 30.824 10.4251 30.8531C10.4966 30.7525 10.6396 30.9201 10.6821 30.7682C10.7223 30.8464 10.6039 30.862 10.6329 30.938C10.7513 31.32 11.1714 31.1413 11.3166 31.4474C11.1669 31.5323 11.1759 31.7758 10.9904 31.8138C10.9167 31.968 11.0731 32.0283 11.1312 32.102C11.0977 32.1825 10.9837 32.2294 10.9569 32.2942C11.0239 32.3076 11.0507 32.3545 11.0731 32.4037C11.4127 31.8138 11.7657 31.2307 12.1254 30.652C13.0772 29.1215 14.1005 27.6379 15.1909 26.199C16.6365 24.2932 18.2027 22.47 19.8829 20.734C19.8829 20.7183 19.8873 20.7005 19.8985 20.6804C19.932 20.381 20.1465 20.2022 20.4414 20.0994C20.4638 20.095 20.4861 20.095 20.5085 20.0927C20.5286 20.0726 20.5464 20.0548 20.5643 20.0347C20.6649 19.9341 20.7676 19.838 20.8682 19.7375C20.8883 19.7174 20.9106 19.6973 20.9307 19.6772C22.2467 18.3835 23.6141 17.1547 25.0284 15.9973C25.3524 15.7337 25.6764 15.47 26.0048 15.2131C25.9914 15.2019 25.9802 15.1885 25.9691 15.1751C25.864 15.079 25.7479 14.9941 25.6317 14.9204C25.4797 14.9204 25.3591 15.1885 25.1982 15.0455C25.2273 14.8891 25.4686 14.9651 25.5624 14.8198C25.5669 14.7014 25.7188 14.6165 25.6808 14.4847C25.6496 14.4914 25.5736 14.5204 25.5825 14.4579C25.5959 14.3573 25.7791 14.2657 25.6429 14.1898C25.5959 14.1697 25.5267 14.1495 25.4909 14.1697C25.5021 14.1272 25.5356 14.0624 25.5513 14.0066C25.3457 13.8881 25.3904 14.2009 25.2317 14.2076C25.4731 13.7585 25.4038 13.2111 25.6451 12.7844C25.7791 12.657 25.9154 12.5096 26.0696 12.3934C26.15 12.3331 26.2372 12.2839 26.3288 12.2482C26.4137 12.2169 26.5075 12.199 26.6058 12.2013C26.7399 12.2325 27.0236 12.132 27.1152 12.3398C27.5308 12.4135 27.6247 12.7933 27.8682 13.0436C27.7364 13.1419 27.9263 13.2111 27.9442 13.3296C27.9933 13.3966 28.1162 13.41 28.143 13.4994C28.0782 13.5932 27.9643 13.3877 27.9263 13.5508C27.9062 13.6312 27.9241 13.696 27.9576 13.7496C28.0358 13.6938 28.1117 13.6357 28.1877 13.582C28.3173 13.4904 28.4469 13.4033 28.5765 13.3117C31.1325 11.5243 33.827 9.94239 36.6467 8.575C36.6869 8.2421 36.6601 7.90025 36.7897 7.59862C36.8992 7.46903 37.0087 7.3171 37.1383 7.19645C37.2053 7.13389 37.279 7.07803 37.3617 7.03782C37.4376 6.99983 37.5203 6.97302 37.6119 6.96632C37.737 6.97972 37.9873 6.85907 38.0945 7.04005C38.4654 7.06239 38.5972 7.37072 38.8274 7.57628C38.8363 7.57181 38.8452 7.56958 38.8542 7.56511C39.0486 7.4802 39.2407 7.39307 39.4351 7.3104C42.4938 6.01675 45.6308 4.99344 48.8325 4.23602C49.8357 3.99919 50.8434 3.78693 51.86 3.60372C53.3525 3.33337 54.8561 3.11888 56.371 2.96248C57.6132 2.83513 58.8644 2.74799 60.1201 2.69883C60.9267 2.66755 61.7355 2.64521 62.5466 2.64521C66.4588 2.64521 70.3152 3.02281 74.0889 3.76459C74.9357 3.93216 75.7802 4.11761 76.6181 4.32316C76.6806 4.14218 76.8527 3.98802 76.9242 3.80927C77.1588 3.92546 77.3152 3.63277 77.5475 3.635C77.5297 3.69309 77.4403 3.71767 77.4045 3.76682L77.3822 3.69979C77.3733 3.76235 77.3196 3.73554 77.3107 3.7981L77.3062 3.7847C77.275 3.82491 77.132 3.82045 77.2213 3.88747C77.1543 3.93216 77.0649 3.88747 76.9778 3.85619C77.0538 3.99472 76.8616 3.90982 76.9823 4.026C76.9108 4.05728 76.9733 3.93216 76.8929 3.98131C76.7789 4.05505 76.7253 4.19581 76.6963 4.3388C76.7544 4.35221 76.8125 4.36561 76.8706 4.38125C76.8773 4.38125 76.8839 4.37902 76.8907 4.37231C76.8862 4.37678 76.8862 4.38125 76.8817 4.38349C76.9018 4.38795 76.9219 4.39242 76.942 4.39913C76.942 4.39466 76.9398 4.39019 76.9398 4.38572C77.0739 4.36338 76.9577 4.21368 77.123 4.21815C77.0024 4.25837 77.0426 4.31199 76.9756 4.40359C77.0448 4.36338 77.085 4.42594 77.1208 4.44158C77.123 4.44158 77.1253 4.44158 77.1275 4.44158C77.1387 4.44381 77.1476 4.44381 77.1588 4.43711L77.1096 4.35667C77.1409 4.38795 77.1699 4.37231 77.199 4.34327C77.2303 4.30975 77.2638 4.2606 77.3018 4.24049L77.3062 4.2539C77.3509 4.2539 77.3286 4.20921 77.3375 4.19134L77.3643 4.24943C77.5922 4.17123 77.5029 3.88077 77.7218 3.84279C77.7218 3.9545 77.5341 3.99695 77.6235 4.13101C77.5565 4.2673 77.476 4.40136 77.3777 4.50861C78.5418 4.808 79.6947 5.14538 80.8409 5.5185C80.9303 5.48946 81.0263 5.47605 81.1157 5.47829C81.1358 5.52297 81.1425 5.56989 81.147 5.61681C82.1032 5.93185 83.0506 6.27146 83.9912 6.63788C84.0605 6.59766 84.1253 6.55298 84.1163 6.45914C84.2146 6.41892 84.1834 6.54851 84.2459 6.55745C84.2727 6.41445 84.5118 6.51946 84.4783 6.33625C84.5587 6.39881 84.4425 6.47478 84.5096 6.54181C84.8291 6.89035 85.1866 6.48595 85.4994 6.74066C85.4055 6.87471 85.4703 7.06686 85.4055 7.20762C85.4882 7.24337 85.5731 7.27465 85.6558 7.3104C87.2756 7.99633 88.8553 8.75151 90.3969 9.5715C91.9877 10.4161 93.5338 11.3321 95.0375 12.3152C95.6117 12.6928 96.1815 13.0771 96.7445 13.4726C96.8696 13.4592 96.9992 13.4659 97.1199 13.4636C97.1668 13.5217 97.1176 13.5575 97.0752 13.5843C97.0193 13.5731 96.959 13.5753 96.9009 13.5798C97.4327 13.9574 97.9555 14.3462 98.4738 14.7416C98.6057 14.5115 98.7196 14.4154 98.8984 14.2412C98.847 13.9887 98.704 13.7496 98.5498 13.5508C98.4202 13.5061 98.237 13.696 98.1432 13.5262C98.2169 13.4011 98.3979 13.5396 98.523 13.4435C98.5632 13.343 98.7174 13.3184 98.7241 13.1955C98.695 13.191 98.6213 13.1955 98.6504 13.1419C98.6928 13.0592 98.876 13.0391 98.7844 12.9319C98.7509 12.9006 98.6973 12.8626 98.6615 12.8693C98.6839 12.838 98.733 12.7911 98.7621 12.7486C98.6236 12.5855 98.5677 12.8648 98.4292 12.8224C98.6101 12.657 98.7263 12.4426 98.8447 12.2348C98.637 12.0828 98.4314 11.9287 98.2214 11.7812C93.3506 8.31806 87.9571 5.54531 82.1792 3.60372C79.8824 2.83289 77.523 2.19165 75.1144 1.69341C71.0569 0.853314 66.8542 0.408691 62.5488 0.408691C62.2851 0.408691 62.0215 0.415394 61.7578 0.417629C60.911 0.4288 60.0687 0.453377 59.2309 0.498063C59.2353 0.527109 59.2353 0.556154 59.2309 0.587434C59.2018 0.571794 59.1862 0.53828 59.1705 0.502531C59.1281 0.504766 59.0856 0.509234 59.0432 0.511469L59.0499 0.596371C59.0454 0.56956 58.9806 0.52264 59.041 0.511469C58.9784 0.515937 58.9181 0.520406 58.8555 0.52264C58.9337 0.567326 59.0097 0.609777 59.0097 0.719257C58.9047 0.701383 58.8957 0.520406 58.7572 0.5852C58.7349 0.56956 58.7125 0.551686 58.6902 0.533811C56.0023 0.699149 53.3592 1.03876 50.7763 1.53924C41.6068 3.31326 33.1612 7.12048 25.9288 12.4761C22.3451 15.1304 19.0584 18.1623 16.1293 21.516C16.2119 21.5182 16.3125 21.5674 16.3616 21.5942C16.7705 21.554 17.1325 21.6567 17.5123 21.7729C17.5212 21.8511 17.6553 21.8802 17.5525 21.9494C17.4877 22.0209 17.3939 21.9785 17.3224 21.9964C16.9671 21.9249 16.6074 21.7841 16.2522 21.7729C16.1673 21.7551 16.0287 21.7774 16.0064 21.6545C15.6176 22.1014 15.2378 22.5549 14.8624 23.013C14.858 23.2587 14.8289 23.5 14.9049 23.748C14.8043 23.757 14.8356 23.5179 14.677 23.4643C14.6033 23.4352 14.5429 23.4442 14.4893 23.4732C14.3955 23.5894 14.3016 23.7034 14.21 23.8195C14.1676 23.9335 14.1273 24.0407 14.0134 24.0675C14.0134 24.0675 14.0112 24.072 14.0089 24.0742C12.8203 25.5913 11.7009 27.1665 10.6575 28.7953C10.3157 29.3293 9.98498 29.8677 9.65878 30.4129C9.41524 30.8195 9.17393 31.2307 8.93933 31.644C8.96614 31.6663 8.97955 31.6976 8.94604 31.7624V31.7602ZM76.7834 4.30529C76.7343 4.29188 76.8013 4.24719 76.7789 4.22485C76.8057 4.30529 76.8415 4.1891 76.8504 4.21591C76.8102 4.27401 76.8549 4.29635 76.7834 4.30529ZM76.8415 4.3455C76.8415 4.3455 76.8549 4.31869 76.8683 4.31422C76.8683 4.33657 76.8638 4.36785 76.8415 4.3455ZM76.8549 4.16006L76.8504 4.10197L76.8951 4.12431L76.8549 4.16006ZM77.0761 4.34774L77.0672 4.34327L77.1074 4.26283L77.1163 4.2673L77.0761 4.34774ZM77.1521 4.24049C77.1968 4.21815 77.2012 4.23155 77.2012 4.27624C77.1923 4.24943 77.1699 4.24943 77.1521 4.24049ZM86.9829 5.97653C87.0276 6.04356 87.0544 6.12399 87.0656 6.21783C86.9852 6.31167 86.9762 6.53287 86.793 6.56415C86.5562 6.63788 86.1965 6.54851 86.1942 6.23347C86.1763 6.09048 86.3104 5.97653 86.3953 5.8961C86.5026 5.87599 86.6165 5.84471 86.7215 5.84471C86.8243 5.84471 86.9181 5.87599 86.9852 5.9743L86.9829 5.97653ZM81.4799 3.80481C81.4844 3.63947 81.6497 3.59702 81.7346 3.53893C81.8597 3.51211 82.0273 3.51435 82.1032 3.63277C82.1703 3.67745 82.1658 3.75342 82.1613 3.82938C82.1301 3.93663 82.0318 4.06845 81.8977 4.09079C81.7011 4.17346 81.4441 4.01259 81.4776 3.80481H81.4799ZM79.7059 4.96663L79.6701 4.99345L79.6567 4.97557L79.7059 4.96663ZM79.6299 4.85045L79.612 4.8862L79.5897 4.90854L79.6299 4.85045ZM77.8358 4.21815C77.9385 3.92099 78.2335 3.93439 78.4681 3.82491C78.5038 3.86513 78.5127 3.95897 78.5954 3.93216C78.5239 4.0975 78.5843 4.25166 78.6736 4.43041C78.6513 4.54212 78.5753 4.6516 78.4502 4.67841C78.2268 4.8147 78.2424 4.44158 78.0145 4.58681C77.8447 4.54659 77.7978 4.36785 77.838 4.21815H77.8358ZM77.4783 4.0327L77.514 4.00589L77.5453 4.0327H77.4783ZM77.5051 3.84279L77.5945 3.82045C77.5676 3.82938 77.5274 3.90982 77.5051 3.84279ZM75.8137 2.34582C75.7869 2.3771 75.7869 2.35475 75.7601 2.34135L75.8137 2.34582ZM75.5434 3.02951L75.5345 3.06973V3.04738L75.5434 3.02951ZM75.4049 3.35348L75.3646 3.38923L75.3378 3.37582L75.4049 3.35348ZM58.2768 0.864486C58.3394 0.712554 58.5137 0.696914 58.6455 0.75724C58.9047 0.898 58.8488 1.17058 58.9136 1.40295C58.8712 1.42976 58.7818 1.42529 58.7952 1.50349C58.6522 1.41189 58.5003 1.44317 58.3215 1.49902C58.221 1.46104 58.1316 1.3739 58.1249 1.25325C58.0333 1.02535 58.3774 1.09685 58.2768 0.862251V0.864486ZM57.7853 2.32571L57.754 2.30337L57.7361 2.27879L57.7853 2.32571ZM57.6646 2.33018V2.3771L57.6468 2.33911L57.6646 2.33018ZM23.5315 15.6197C23.6901 15.4857 23.9158 15.4298 24.1101 15.3561C24.1794 15.3985 24.1414 15.4544 24.1079 15.4968C23.88 15.5303 23.6834 15.7448 23.4644 15.727C23.4443 15.6912 23.4532 15.5571 23.5337 15.6197H23.5315ZM22.4724 15.6934C22.5819 15.8074 22.6109 15.9437 22.5216 16.0755C22.421 16.1894 22.2579 16.2341 22.1395 16.2073C22.0099 16.1626 22.0948 16.0219 22.0367 15.937C22.0457 15.7225 22.3205 15.6264 22.4746 15.6934H22.4724ZM18.0753 21.8802C18.1222 21.9003 18.1893 21.9584 18.1178 21.9964C17.9658 21.9964 18.1088 21.9182 18.0753 21.8802Z" fill="#59A710"/>
<path d="M13.3364 41.046C13.1956 41.0527 13.209 40.8985 13.1353 40.8248C12.9096 41.3476 12.6929 41.8749 12.4851 42.4066C12.5209 42.42 12.5566 42.4357 12.5923 42.4513H13.0995C13.2649 42.3083 13.4079 42.1318 13.524 41.9553C13.524 41.7967 13.2448 41.6649 13.3989 41.4973C13.5643 41.5308 13.4816 41.7833 13.6335 41.8838C13.7162 41.8883 13.7832 41.9575 13.8592 41.9955C13.9217 41.8391 13.9843 41.685 14.0491 41.5308C14.2658 41.0214 14.4915 40.5164 14.7216 40.0137C14.744 39.9668 14.7663 39.9199 14.7864 39.873C14.8132 39.8149 14.8423 39.7545 14.8691 39.6964C14.8311 39.7389 14.7954 39.7814 14.7596 39.8238C14.7283 39.8596 14.6948 39.8953 14.6613 39.9243C14.6144 39.9646 14.563 39.9981 14.5027 40.016C14.4669 39.9869 14.4222 39.8484 14.5295 39.8774C14.5429 39.8506 14.563 39.8283 14.5809 39.8037C14.6121 39.759 14.6434 39.7188 14.6814 39.6786C14.7864 39.5691 14.9093 39.4708 15.0165 39.3725C15.0165 39.3725 15.0188 39.3725 15.021 39.3725C15.1841 39.0329 15.3495 38.6955 15.5193 38.3581C15.5237 38.3291 15.5304 38.3 15.5081 38.2821C15.4187 38.3872 15.2757 38.1883 15.2154 38.3514C15.1796 38.262 15.3092 38.2553 15.2869 38.1682C15.202 37.7817 14.8088 37.8688 14.6323 37.6387C14.4602 37.976 14.2926 38.3134 14.1273 38.6553C14.0849 38.7446 14.0402 38.8362 13.9977 38.9256C13.7609 39.4216 13.533 39.9221 13.3118 40.4271C13.3654 40.4002 13.4213 40.3824 13.4727 40.3846C13.6335 40.4561 13.7184 40.5857 13.6782 40.7577C13.6224 40.9164 13.4726 41.0281 13.3386 41.0482L13.3364 41.046Z" fill="#59A710"/>
<path d="M26.9003 21.7888C26.8647 21.82 26.8268 21.8534 26.7913 21.8845C26.8202 21.9001 26.8513 21.9134 26.8936 21.9401C26.9603 21.8867 26.9047 21.8356 26.9003 21.7866V21.7888Z" fill="#59A710"/>
<path d="M45.0165 65.9136C45.0165 71.3273 41.2026 73.4901 36.6402 73.4901C32.0778 73.4901 27.3835 71.2223 27.3835 65.3818V59.566C27.3835 53.6719 32.0241 51.4578 36.7184 51.4578C39.1716 51.4578 41.3322 52.0186 42.3734 52.7648C43.4659 53.5379 43.9999 54.8181 43.3609 55.9397C42.8269 56.8737 41.8416 57.2468 40.9345 57.0859C40.32 56.9787 39.8665 56.686 39.4665 56.5251C38.8253 56.2861 37.8936 56.1788 36.7184 56.1788C34.8505 56.1788 32.824 57.3518 32.824 59.8073V65.1428C32.824 67.596 34.7187 68.7712 36.638 68.7712C38.4522 68.7712 40.1324 67.8909 40.1324 65.9963V65.6768C40.1324 65.1428 40.0251 65.0623 39.5179 65.0623H38.6376C37.0915 65.0623 36.5039 63.8893 36.5039 62.8213C36.5039 61.7534 37.1183 60.4999 38.6376 60.4999H41.0641C44.2122 60.4999 45.012 61.4875 45.012 64.4747V65.9158L45.0165 65.9136Z" fill="#59A710"/>
<path d="M46.8285 63.6993C46.8285 57.9639 50.9373 56.3105 54.5636 56.3105C58.1898 56.3105 62.2987 57.9639 62.2987 63.6993V66.1526C62.2987 71.888 58.1116 73.5414 54.5636 73.5414C51.0155 73.5414 46.8285 71.888 46.8285 66.1526V63.6993ZM56.9386 63.4603C56.9386 61.5656 55.712 60.8193 54.5658 60.8193C53.4196 60.8193 52.193 61.5656 52.193 63.4603V66.3939C52.193 68.2886 53.4196 69.0348 54.5658 69.0348C55.712 69.0348 56.9386 68.2886 56.9386 66.3939V63.4603Z" fill="#59A710"/>
<path d="M64.5397 63.6993C64.5397 57.9639 68.6485 56.3105 72.2748 56.3105C75.901 56.3105 80.0099 57.9639 80.0099 63.6993V66.1526C80.0099 71.888 75.8228 73.5414 72.2748 73.5414C68.7267 73.5414 64.5397 71.888 64.5397 66.1526V63.6993ZM74.6476 63.4603C74.6476 61.5656 73.421 60.8193 72.2725 60.8193C71.1241 60.8193 69.8975 61.5656 69.8975 63.4603V66.3939C69.8975 68.2886 71.1241 69.0348 72.2725 69.0348C73.421 69.0348 74.6476 68.2886 74.6476 66.3939V63.4603Z" fill="#59A710"/>
<path d="M93.4781 73.0366L93.1854 71.3028C92.171 72.6635 90.6249 73.4901 88.7034 73.4901C85.1822 73.4901 82.1949 71.7563 82.1949 66.1282V63.7263C82.1949 58.0981 85.1822 56.3643 88.7034 56.3643C90.1713 56.3643 91.3712 56.8447 92.3051 57.6178V53.1626C92.3051 51.402 93.6121 50.4949 95.0264 50.4949C96.4407 50.4949 97.721 51.402 97.721 53.1626V73.0343H93.4803L93.4781 73.0366ZM87.6913 66.5013C87.6913 68.3155 89.052 68.9277 89.9859 68.9277C90.9198 68.9277 92.2269 68.3401 92.3073 66.6331V63.2191C92.2269 61.5121 90.893 60.9245 89.9859 60.9245C89.0788 60.9245 87.6913 61.5389 87.6913 63.351V66.4991V66.5013Z" fill="#59A710"/>
</g>
</svg>
