<svg width="124" height="124" viewBox="0 0 124 124" fill="none" xmlns="http://www.w3.org/2000/svg">
<g opacity="0.3">
<path d="M15.9908 66.6465V72.7997H10.6643V56.0716C10.6643 53.0977 11.596 51.9873 14.6972 51.9873H19.197C23.6701 51.9873 26.9545 54.2104 26.9545 59.0968V59.537C26.9545 64.4233 23.6701 66.6465 19.197 66.6465H15.9908ZM15.9908 62.1466H18.9379C20.6694 62.1466 21.6525 60.853 21.6525 59.4051V59.2242C21.6525 57.7763 20.6694 56.4827 18.9379 56.4827H16.7393C16.145 56.4827 15.9886 56.6123 15.9886 57.2334V62.1466H15.9908Z" fill="#0D86E7"/>
<path d="M28.5587 66.0765V63.802C28.5587 58.2945 32.6184 56.6389 35.9274 56.6389C39.5224 56.6389 43.0637 58.0353 43.0637 64.8879C43.0637 65.3281 43.0123 66.052 42.9341 66.4899H33.6775V66.5167C33.6775 68.2751 35.3845 68.8694 36.6245 68.8694C37.8645 68.8694 38.4343 68.7666 39.1336 68.5342C39.5224 68.4047 39.9089 68.1991 40.349 68.1455C41.2271 68.0427 42.056 68.3533 42.3912 69.1286C42.9341 70.3954 42.313 71.4813 41.073 72.2052C40.2463 72.6967 38.4097 73.2397 36.5217 73.2397C32.7726 73.2397 28.5587 71.4813 28.5587 66.0788V66.0765ZM33.6775 63.1049H38.0477C38.1259 61.3979 37.0915 60.8304 35.9542 60.8304C34.817 60.8304 33.7043 61.4002 33.6797 63.1049H33.6775Z" fill="#0D86E7"/>
<path d="M45.3896 72.7995V59.2262C45.3896 57.5192 46.6297 56.6411 48.0015 56.6411C49.0092 56.6411 49.9655 57.1327 50.4056 58.0889C51.3619 57.184 52.5773 56.6411 53.8442 56.6411C54.2329 56.6411 54.6709 56.6925 55.0596 56.8489C56.0427 57.2622 56.6102 58.2967 56.4293 59.5122C56.2483 60.7276 55.3166 61.5029 54.1793 61.5029C53.8174 61.5029 53.3526 61.4761 52.9907 61.5029C51.5697 61.6057 50.7162 62.4078 50.638 63.7015V72.8017H45.3896V72.7995Z" fill="#0D86E7"/>
<path d="M59.6377 72.7995V61.4225H58.7596C57.1308 61.4225 56.4851 60.4149 56.4851 59.3022C56.4851 58.1895 57.1062 57.1305 58.7596 57.1305H59.6377V56.5607C59.6377 52.3983 61.6552 50.9504 65.3776 50.9504C66.3852 50.9504 67.5247 51.1582 68.3514 51.6743C69.2295 52.2173 69.4641 53.0954 69.2295 54.0784C68.9971 54.8537 68.3246 55.5531 67.4711 55.5531C67.0577 55.5531 66.85 55.5017 66.4098 55.4235C66.0992 55.3721 65.9183 55.3453 65.6859 55.3453C65.1698 55.3453 64.9106 55.6045 64.9106 56.4043V57.1282H66.3852C68.0408 57.1282 68.6597 58.2141 68.6597 59.3C68.6597 60.3858 68.014 61.4203 66.3852 61.4203H64.9106V72.7973H59.6354L59.6377 72.7995Z" fill="#0D86E7"/>
<path d="M69.6427 66.0765V63.802C69.6427 58.2945 73.7024 56.6389 77.0114 56.6389C80.6064 56.6389 84.1477 58.0353 84.1477 64.8879C84.1477 65.3281 84.0963 66.052 84.0181 66.4899H74.7615V66.5167C74.7615 68.2751 76.4685 68.8694 77.7085 68.8694C78.9485 68.8694 79.5183 68.7666 80.2154 68.5342C80.6041 68.4047 80.9907 68.1991 81.4308 68.1455C82.3089 68.0427 83.1378 68.3533 83.473 69.1286C84.0159 70.3954 83.3948 71.4813 82.1547 72.2052C81.3281 72.6967 79.4915 73.2397 77.6035 73.2397C73.8544 73.2397 69.6405 71.4813 69.6405 66.0788L69.6427 66.0765ZM74.7615 63.1049H79.1318C79.21 61.3979 78.1755 60.8304 77.0382 60.8304C75.901 60.8304 74.7883 61.4002 74.7637 63.1049H74.7615Z" fill="#0D86E7"/>
<path d="M91.5946 66.1033C91.5946 68.3018 92.9396 68.818 94.1283 68.818C94.9818 68.818 95.5247 68.7152 96.1972 68.4046C96.5592 68.2237 96.9725 67.9645 97.4641 67.8885C98.2148 67.7589 98.9901 68.0181 99.428 68.742C100.152 69.9306 99.5062 71.3539 98.2908 72.1024C97.3345 72.6967 95.8599 73.2396 94.1283 73.2396C90.3792 73.2396 86.2681 71.6376 86.2681 66.0787V63.8042C86.2681 58.3749 90.3792 56.6411 93.9473 56.6411C95.7839 56.6411 97.1535 57.1327 97.9802 57.6488C99.1956 58.3995 99.8413 59.7423 99.1688 60.9064C98.6773 61.7599 97.902 61.9408 97.0753 61.8381C96.6106 61.7867 96.2218 61.5789 95.8353 61.3979C95.3192 61.1655 94.9304 61.0628 94.1283 61.0628C92.991 61.0628 91.5946 61.5789 91.5946 63.7774V66.1055V66.1033Z" fill="#0D86E7"/>
<path d="M103.644 61.4228H102.791C101.162 61.4228 100.516 60.3883 100.516 59.3024C100.516 58.2166 101.137 57.1307 102.791 57.1307H103.644V54.4406C103.644 52.6822 104.911 51.8801 106.205 51.8801C107.498 51.8801 108.765 52.6822 108.765 54.4406V57.1307H110.291C111.947 57.1307 112.566 58.2434 112.566 59.3024C112.566 60.3615 111.92 61.4228 110.291 61.4228H108.765V67.8352C108.765 68.6105 109.154 68.7914 109.592 68.8182C109.981 68.8451 110.213 68.7155 110.729 68.7155C111.583 68.7155 112.306 69.2852 112.487 70.1365C112.72 71.1978 112.255 72.0758 111.531 72.5406C110.937 72.9293 109.954 73.2377 109.076 73.2377C105.637 73.2377 103.646 71.8412 103.646 67.9379V61.4228H103.644Z" fill="#0D86E7"/>
<path d="M77.304 11.8304C77.9184 12.0225 78.5306 12.2281 79.1384 12.4448C79.8958 12.7129 80.6487 12.9989 81.395 13.3006C81.6318 13.3966 81.8686 13.4905 82.1032 13.591C82.8875 13.9217 83.6605 14.2725 84.4247 14.6389C85.1173 14.9718 85.8032 15.3226 86.478 15.6845C87.6934 16.337 88.8821 17.034 90.0417 17.7781C90.102 17.8093 90.1623 17.8384 90.2271 17.7915C90.3232 17.8607 90.4103 17.9859 90.5511 17.9903C90.7589 18.0015 90.8907 17.8406 91.0717 17.8093C91.199 17.6753 91.3398 17.568 91.4157 17.4049C91.2392 17.2374 91.1342 17.6194 90.9041 17.5368C90.8348 17.51 90.8013 17.4318 90.8482 17.3781C90.9108 17.2999 91.0672 17.2396 91.0962 17.1391C89.7624 16.261 88.3861 15.4432 86.9718 14.6836C86.44 14.3976 85.9038 14.1205 85.3608 13.8524C83.8817 13.124 82.3669 12.4605 80.8141 11.8661C80.184 11.6248 79.5495 11.3969 78.9105 11.178C77.1498 10.5792 75.3468 10.072 73.5102 9.65867C71.8948 9.29448 70.2504 9.00179 68.5836 8.78507C68.4317 8.76496 68.2775 8.74485 68.1256 8.72697C68.0675 8.83422 67.9379 8.94593 67.7927 8.94147C67.6005 8.97945 67.4016 8.82081 67.3949 8.64431C66.3538 8.53259 65.3059 8.45216 64.2468 8.40077C64.2558 8.46556 64.2714 8.53483 64.2915 8.60632C64.2446 8.72027 64.1396 8.81858 64.0011 8.82081C63.733 8.91689 63.8313 8.52365 63.5587 8.62867C63.4447 8.57728 63.4023 8.47227 63.409 8.36502C63.2682 8.36055 63.1275 8.35608 62.9867 8.35161C62.8281 8.48791 62.6449 8.57728 62.4281 8.56164C62.2851 8.57951 62.2114 8.43205 62.1287 8.33821C61.9567 8.33821 61.7869 8.33374 61.6149 8.33374C60.5357 8.33374 59.4632 8.36502 58.3997 8.42758C57.8747 8.45886 57.3518 8.49908 56.829 8.546C56.1766 8.60409 55.5287 8.67335 54.8852 8.75379C54.8718 8.75379 54.8561 8.75825 54.8427 8.75825C54.8427 8.7806 54.8405 8.80071 54.836 8.82305C54.8204 8.91912 54.7779 8.99956 54.6752 9.04648C54.6059 9.07776 54.5277 9.09116 54.4383 9.08446C54.3735 9.00849 54.2149 8.96604 54.1702 8.84539C52.6174 9.05988 51.0847 9.34364 49.5765 9.68772C49.715 9.6408 49.8714 9.69219 49.9899 9.74134C50.0435 9.80167 50.0569 9.92008 50.0435 9.99158C49.9787 10.1033 49.9251 10.2306 49.7843 10.1815C49.5966 10.0921 49.5564 9.87093 49.5721 9.68995C49.2928 9.75475 49.0157 9.81954 48.7409 9.88657C48.7476 9.98041 48.7409 10.0675 48.6672 10.1234C48.6828 10.043 48.6783 9.97147 48.6605 9.90668C48.5867 9.92455 48.513 9.94243 48.4415 9.9603C47.9835 10.0765 47.5254 10.1971 47.0719 10.3245C45.0901 10.8808 43.1552 11.5466 41.2717 12.3175C40.1568 12.7733 39.062 13.2648 37.985 13.7921C37.9694 13.8748 37.9493 13.9574 37.9448 14.0401C37.8957 14.0513 37.813 14.0178 37.7996 14.0982C37.7482 14.0334 37.6857 13.9977 37.6142 13.9753C37.2611 14.1518 36.9104 14.3328 36.5618 14.516L36.5797 14.5518L36.5573 14.5205C36.1976 14.7082 35.8424 14.9025 35.4871 15.0992C35.5117 15.2399 35.4648 15.3918 35.3977 15.5125C35.2704 15.5013 35.1587 15.4209 35.0693 15.3338C34.3744 15.7292 33.6908 16.1403 33.0182 16.5648C33.0138 16.6252 32.9467 16.7212 33.0316 16.7615C33.1322 16.8531 33.2081 16.6833 33.2685 16.8017C33.2394 16.8575 33.1366 16.8263 33.0987 16.8888C33.0875 17.0363 33.1836 17.1525 33.293 17.1793C33.264 17.2351 33.2014 17.2441 33.159 17.2999C33.1702 17.396 33.1433 17.5211 33.2573 17.5658C33.2484 17.6664 33.1523 17.5814 33.1188 17.6306C33.1813 17.6798 33.1433 17.7513 33.1322 17.8138C35.6614 16.185 38.3291 14.773 41.1265 13.5888C41.3968 13.4748 41.6671 13.3654 41.9397 13.2559C43.3607 12.6817 44.8019 12.1722 46.2586 11.7276C47.3735 11.388 48.4996 11.0864 49.6324 10.8205C51.0713 10.4854 52.5235 10.2128 53.9892 10.0005C54.7042 9.89774 55.4214 9.80837 56.1408 9.73464C56.5855 9.68772 57.0323 9.6475 57.4814 9.61399C57.4814 9.61399 57.4837 9.61399 57.4859 9.61399C57.4926 9.60281 57.4971 9.58941 57.5082 9.58047C57.5306 9.58494 57.5395 9.59611 57.5484 9.60952C57.6557 9.60058 57.7629 9.59388 57.8702 9.58717C57.9305 9.44641 57.9439 9.2632 58.0713 9.1783C58.116 9.31012 58.0065 9.45535 58.0065 9.58047C58.1897 9.5693 58.3707 9.55813 58.5539 9.54696C58.5673 9.53579 58.5829 9.52908 58.5941 9.51568C58.498 9.49557 58.3684 9.45088 58.3483 9.35257C58.3617 9.28108 58.4556 9.28555 58.5003 9.31906C58.6298 9.36821 58.6857 9.46652 58.7617 9.53355C58.8376 9.52908 58.9136 9.52461 58.9896 9.52015C59.1035 9.47993 59.2063 9.40396 59.2979 9.31906C59.2443 9.2632 59.3046 9.18724 59.356 9.15596C59.528 8.98615 59.7872 9.18724 59.9548 8.98839C60.0866 8.86997 60.0665 8.7024 60.2162 8.59962C60.2787 8.60632 60.3435 8.6309 60.3681 8.68899C60.3882 8.91242 60.0978 8.94817 60.2072 9.19841C60.2609 9.25427 60.3324 9.19841 60.3905 9.17607C60.4061 8.99509 60.5848 8.92583 60.6586 8.77836C60.6519 8.85656 60.7256 8.81635 60.7569 8.82752C60.6765 9.06882 60.4061 9.24533 60.3234 9.47546C60.7547 9.46429 61.1836 9.45982 61.6171 9.45982C64.582 9.45982 67.5067 9.70559 70.3844 10.186C72.7282 10.5792 75.0384 11.1266 77.3062 11.8349L77.304 11.8304ZM48.9487 10.9389L48.9777 10.9568L48.9956 10.9769L48.9487 10.9389ZM49.0582 10.921L49.0537 10.8786L49.076 10.9099L49.0604 10.921H49.0582ZM65.1942 9.29448L65.1651 9.31236L65.221 9.25873L65.1942 9.29225V9.29448ZM65.2344 9.42184L65.2232 9.39949H65.2768L65.2322 9.42184H65.2344Z" fill="#0D86E7"/>
<path d="M26.5254 101.454C26.5254 101.421 26.5321 101.385 26.5411 101.347C26.4673 101.28 26.3914 101.215 26.3176 101.15C26.3712 101.276 26.4383 101.398 26.5254 101.454Z" fill="#0D86E7"/>
<path d="M39.0687 110.671C38.9994 110.409 38.7514 110.11 38.995 109.864C38.995 109.757 39.0709 109.739 39.1447 109.712C38.1683 109.25 37.2053 108.76 36.2624 108.242C34.6448 107.353 33.0764 106.379 31.5637 105.324C29.8545 104.133 28.2168 102.84 26.6505 101.445C26.6103 101.515 26.5567 101.566 26.5232 101.626C26.5344 101.818 26.6662 101.959 26.8114 102.075C26.8539 102.017 26.9343 102.062 26.9701 102.104C27.151 102.238 27.0058 102.507 27.2136 102.634C27.3409 102.739 27.4951 102.694 27.6135 102.817C27.6158 102.877 27.6046 102.94 27.5532 102.969C27.3499 103.02 27.2739 102.759 27.0594 102.895C27.017 102.953 27.0773 103.009 27.1086 103.061C27.2784 103.05 27.3678 103.204 27.5175 103.248C27.4437 103.255 27.4929 103.315 27.4862 103.347C27.2382 103.306 27.0259 103.058 26.7868 103.038C28.1431 104.193 29.5574 105.284 31.0275 106.303C32.5937 107.389 34.2181 108.392 35.8983 109.308C37.0221 109.922 38.1728 110.496 39.3435 111.03C39.2206 110.937 39.1134 110.829 39.0709 110.666L39.0687 110.671Z" fill="#0D86E7"/>
<path d="M69.464 115.081C69.6651 114.699 69.3255 114.482 69.2808 114.183C68.7781 114.257 68.2731 114.322 67.7682 114.38C65.7372 114.614 63.6861 114.737 61.615 114.737C60.0912 114.737 58.5786 114.67 57.0771 114.543C56.0963 114.46 55.1199 114.348 54.148 114.212C52.9482 114.042 51.7573 113.83 50.5753 113.578C50.2871 113.517 50.0011 113.455 49.7151 113.388C49.6325 113.629 49.6369 113.924 49.6012 114.114C49.6481 113.89 49.9162 113.761 50.019 113.674C49.9252 113.984 49.8202 114.118 49.6571 114.364C49.6839 114.424 49.7151 114.48 49.7509 114.536C50.2715 114.655 50.7943 114.764 51.3216 114.867C51.3462 114.831 51.3707 114.795 51.3909 114.757C51.4378 114.697 51.4735 114.57 51.5919 114.63C51.7171 114.722 51.554 114.849 51.4869 114.898C52.3851 115.07 53.2922 115.22 54.2061 115.345C54.4206 115.374 54.635 115.401 54.8518 115.428C57.0682 115.707 59.3248 115.852 61.6172 115.852C63.6526 115.852 65.6612 115.736 67.6386 115.517C68.2485 115.45 68.854 115.37 69.4551 115.282C69.4081 115.213 69.3746 115.128 69.2629 115.191C69.2987 115.084 69.4215 115.175 69.4662 115.081H69.464ZM50.4569 113.75C50.4837 113.714 50.4435 113.66 50.448 113.611C50.448 113.593 50.4525 113.575 50.4726 113.562C50.4547 113.578 50.448 113.595 50.448 113.611C50.4525 113.663 50.5128 113.718 50.4569 113.75ZM52.4633 114.612C52.2823 114.73 52.0433 114.757 51.8355 114.806C51.7685 114.753 51.8154 114.701 51.8578 114.661C52.0947 114.657 52.3248 114.462 52.5505 114.512C52.5661 114.552 52.5415 114.686 52.4655 114.614L52.4633 114.612ZM53.5604 114.677C53.462 114.545 53.4509 114.402 53.5604 114.279C53.6788 114.174 53.8508 114.152 53.9715 114.194C54.0988 114.257 53.9938 114.391 54.0407 114.485C54.0027 114.704 53.7078 114.766 53.5581 114.677H53.5604Z" fill="#0D86E7"/>
<path d="M71.5418 114.61C71.5016 114.724 71.515 114.833 71.5351 114.938C72.6679 114.726 73.7895 114.48 74.8977 114.199C75.6841 113.998 76.4662 113.781 77.2392 113.546C77.38 113.504 77.523 113.459 77.6637 113.414C77.8358 113.361 78.01 113.305 78.1821 113.249C79.297 112.889 80.394 112.492 81.4754 112.063C81.4151 112.029 81.3235 112.049 81.2699 111.971C81.0397 111.969 80.8141 111.922 80.5817 111.989C80.5772 111.906 80.7739 111.935 80.8208 111.806C80.89 111.645 80.7292 111.558 80.651 111.464C80.5482 111.406 80.4141 111.383 80.3583 111.299C80.1885 111.363 80.0209 111.428 79.8511 111.491C79.5584 111.598 79.2635 111.703 78.9685 111.806C78.582 111.94 78.1955 112.072 77.8067 112.197C76.3678 112.661 74.9133 113.068 73.4432 113.406C72.6321 113.591 71.8144 113.759 70.9944 113.906C71.0502 113.998 71.0972 114.096 71.1217 114.203C71.2044 114.257 71.2737 114.444 71.4167 114.36C71.5731 114.266 71.6758 114.154 71.7272 114.004C71.8322 113.87 71.935 114.04 72.0289 113.906C72.1004 114.06 71.8144 114.127 71.8814 114.301C71.7697 114.389 71.5954 114.447 71.544 114.608L71.5418 114.61Z" fill="#0D86E7"/>
<path d="M104.797 93.4846C104.868 93.3997 104.947 93.3238 105.038 93.2634C105.123 93.2076 105.217 93.1651 105.324 93.1428C105.382 93.1428 105.458 93.116 105.539 93.0936C105.657 92.926 105.773 92.7562 105.889 92.5887C108.222 89.2082 110.179 85.5484 111.696 81.6675H110.494C110.371 81.9758 110.246 82.2841 110.117 82.5902C107.92 87.785 104.933 92.5395 101.224 96.769C100.48 97.618 99.7072 98.447 98.9051 99.2513C98.8805 99.2759 98.8581 99.3005 98.8336 99.3228C96.9322 101.224 94.9035 102.965 92.7652 104.538C91.0605 105.791 89.2842 106.939 87.4409 107.978C86.2188 108.667 84.9654 109.308 83.6851 109.9C83.1601 110.141 82.635 110.378 82.101 110.604C81.5357 110.843 80.966 111.068 80.3962 111.285C80.7113 111.448 81.0442 111.14 81.3592 111.312C81.5469 111.415 81.853 111.435 81.8619 111.707C81.9357 111.779 81.8753 111.842 81.8552 111.913C82.6484 111.589 83.4326 111.247 84.2057 110.89C86.2948 109.92 88.3101 108.821 90.245 107.601C90.9108 107.181 91.5654 106.75 92.2111 106.303C93.5115 105.4 94.7694 104.442 95.9826 103.432C95.9737 103.38 95.9201 103.331 96.005 103.313C96.0474 103.293 96.0832 103.304 96.1189 103.32C97.1422 102.462 98.1342 101.566 99.0927 100.634C99.8747 99.8747 100.632 99.0882 101.367 98.2816C101.372 98.1297 101.506 98.0135 101.642 97.9755C102.601 96.9075 103.519 95.8016 104.39 94.6576C104.379 94.4387 104.381 94.2219 104.442 94.0141C104.553 93.8421 104.661 93.6477 104.797 93.4824V93.4846ZM90.7387 106.584C90.6672 106.747 90.4259 106.736 90.3276 106.64C90.2762 106.519 90.2964 106.405 90.4058 106.332C90.5176 106.274 90.6561 106.289 90.741 106.347C90.8281 106.421 90.7186 106.504 90.741 106.586L90.7387 106.584ZM95.5827 103.206C95.5536 103.177 95.5201 103.112 95.5871 103.103C95.7033 103.148 95.5693 103.166 95.5827 103.206Z" fill="#0D86E7"/>
<path d="M13.182 82.7506C13.1597 82.6995 13.1375 82.6505 13.1152 82.5994C13.1175 82.6194 13.1241 82.6372 13.1308 82.6572C13.1442 82.6928 13.1619 82.7217 13.1797 82.7506H13.182Z" fill="#0D86E7"/>
<path d="M11.8126 82.3669C12.0763 82.4205 12.36 82.4518 12.579 82.6194C12.6728 82.6082 12.8359 82.702 12.8895 82.5546C12.9454 82.3915 12.9543 82.2485 12.8985 82.1077C12.8985 82.0965 12.8985 82.0876 12.9029 82.0764C12.8471 81.9379 12.789 81.8016 12.7354 81.6631H11.5333C11.6249 81.8977 11.721 82.1323 11.8148 82.3669H11.8126Z" fill="#0D86E7"/>
<path d="M26.617 22.4545C26.7421 22.4209 26.8404 22.4455 26.9321 22.4947C27.2895 22.1796 27.6515 21.8713 28.0179 21.5674C28.3106 21.3239 28.6033 21.0871 28.9005 20.8502C29.2624 20.562 29.6288 20.2783 29.9997 19.999C30.1852 19.8605 30.3706 19.7242 30.5561 19.5879C31.1012 19.1902 31.6486 18.7992 32.2072 18.4216C32.1201 18.3702 32.0374 18.3188 32.0195 18.2093C31.8519 18.1199 31.776 18.2898 31.6911 18.3501C31.6039 18.3076 31.557 18.178 31.4878 18.1468C31.4542 18.2875 31.2934 18.2629 31.2196 18.3523C31.2085 18.3769 31.1995 18.3992 31.1839 18.4216C31.1906 18.3903 31.204 18.3702 31.2196 18.3523C31.3157 18.149 31.3202 17.8876 31.376 17.644C30.9158 17.9591 30.4578 18.2786 30.0087 18.607C29.5774 18.9198 29.1507 19.2416 28.7307 19.5678C28.2704 19.9252 27.8168 20.2894 27.3677 20.6603C27.0393 20.9329 26.7131 21.2077 26.3914 21.487C26.4137 21.487 26.436 21.4825 26.4584 21.4781C26.483 21.6635 26.6595 21.6993 26.8025 21.7775C26.8583 21.8088 26.9119 21.8445 26.9477 21.8981C26.8896 21.916 26.8203 21.8534 26.76 21.8512L26.8025 21.7953C26.7846 21.8043 26.7712 21.802 26.76 21.7998C26.7354 21.7931 26.7198 21.773 26.6818 21.7909L26.6907 21.7797C26.6394 21.7752 26.5634 21.6546 26.5589 21.7663C26.4852 21.735 26.4718 21.6367 26.4494 21.5496C26.3779 21.6903 26.34 21.4825 26.3109 21.6479C26.2484 21.6099 26.3623 21.5898 26.3109 21.5563C26.2081 21.6456 26.1098 21.735 26.0071 21.8244C26.0897 21.8847 26.1456 21.7395 26.2283 21.8691C26.1277 21.7909 26.1054 21.8557 25.9937 21.849C26.092 21.8959 26.0026 21.9987 26.0674 22.021L26.1054 21.9361C26.0964 21.9808 26.1255 21.9942 26.1679 22.0009C26.2126 22.0098 26.2707 22.0076 26.3109 22.0299L26.302 22.0411C26.302 22.0411 26.3087 22.0456 26.3109 22.0478C26.3333 22.0657 26.3534 22.0344 26.3712 22.0322L26.3377 22.088C26.5276 22.2355 26.7198 21.9987 26.8717 22.1595C26.7779 22.2221 26.6394 22.088 26.579 22.2377C26.3847 22.2623 26.1858 22.269 26.0093 22.2154C25.911 22.1841 25.8216 22.1327 25.7434 22.0568C25.4552 22.3137 25.1714 22.5751 24.8899 22.8388C23.9493 23.7191 23.0422 24.6329 22.1663 25.578C22.2266 25.7076 22.2088 25.864 22.144 25.9601C22.0568 26.0628 21.9585 25.9332 21.8602 25.9578C21.8513 25.9534 21.8446 25.9466 21.8356 25.9422C21.5117 26.2974 21.1922 26.6594 20.8771 27.0236C19.7488 28.3351 18.6786 29.698 17.6799 31.1145C16.9627 32.1311 16.279 33.1746 15.6333 34.2403C15.6132 34.3677 15.5886 34.495 15.5595 34.6268C15.488 34.6403 15.4702 34.7654 15.4009 34.676C15.392 34.6693 15.3897 34.6626 15.3853 34.6537C15.1596 35.0313 14.9406 35.4133 14.7239 35.7976C14.5809 36.0523 14.4402 36.307 14.3016 36.564C14.4066 36.5841 14.5161 36.602 14.6189 36.631C14.5966 36.4791 14.5876 36.3271 14.6077 36.1752C14.6926 35.9898 14.7731 35.782 14.8848 35.5988C14.9429 35.5049 15.0099 35.4178 15.0926 35.3441C15.1685 35.277 15.2557 35.2212 15.3585 35.1832C15.3696 35.1832 15.383 35.1765 15.3964 35.172C15.3964 35.1027 15.4322 35.1318 15.4635 35.1474C15.6109 35.0849 15.7964 34.9776 15.9371 35.1162C16.1047 35.0804 16.2455 35.1072 16.3728 35.1631C16.3952 35.1251 16.4175 35.0849 16.4398 35.0469C17.0386 34.0459 17.6732 33.0673 18.339 32.1088C19.197 30.8732 20.1063 29.6734 21.0715 28.5138C22.1172 27.2559 23.2209 26.0405 24.3894 24.8742C25.0754 24.1883 25.7792 23.5247 26.4986 22.8812C26.4852 22.8544 26.4584 22.8276 26.4092 22.8075C26.3467 22.6444 26.4718 22.5058 26.6148 22.4567L26.617 22.4545ZM26.0897 21.8981V21.8892L26.1769 21.878V21.887L26.0897 21.8981ZM26.2193 21.9607C26.2372 21.9383 26.2238 21.9205 26.2215 21.9004C26.264 21.9249 26.2573 21.9361 26.2193 21.9607ZM26.6125 22.1126L26.5746 22.0568L26.617 22.0702L26.6125 22.1104V22.1126ZM26.7466 21.9741L26.8159 22.0366C26.7935 22.0188 26.7042 22.0299 26.7466 21.9741Z" fill="#0D86E7"/>
<path d="M32.739 18.073C32.8463 18.0037 32.9513 17.9322 33.0585 17.863C33.0451 17.8563 33.0295 17.854 33.0116 17.8607C32.8641 17.8987 32.7904 17.9792 32.739 18.073Z" fill="#0D86E7"/>
<path d="M98.4672 15.5348C99.305 16.2006 100.125 16.891 100.929 17.6015C101.642 18.2338 102.341 18.884 103.03 19.5521C103.128 19.6459 103.224 19.742 103.32 19.8358C103.418 19.6638 103.492 19.4672 103.635 19.3331C103.631 19.3331 103.626 19.3309 103.622 19.3309C103.595 19.2862 103.669 19.2638 103.713 19.2348C103.765 19.1164 103.584 19.0784 103.548 19.0024L103.66 18.8996L103.577 18.7879C103.622 18.741 103.749 18.7097 103.707 18.6137C103.689 18.4684 103.505 18.5533 103.539 18.4126C103.604 18.388 103.666 18.4863 103.74 18.4617C103.854 18.3478 103.858 18.1847 103.785 18.0841C103.85 18.0596 103.908 18.0953 103.981 18.0819C104.042 17.9948 104.151 17.9121 104.091 17.7914C104.169 17.7155 104.189 17.8518 104.252 17.8361C104.238 17.7691 104.287 17.7356 104.334 17.7043C104.077 17.4585 103.818 17.215 103.559 16.9737C103.166 16.6073 102.766 16.2453 102.362 15.8878C101.705 15.3091 101.037 14.7439 100.355 14.192C100.127 14.0066 99.8993 13.8211 99.6692 13.6401C99.6268 13.7273 99.5955 13.8166 99.6022 13.8904C99.6692 13.8412 99.772 13.7876 99.8457 13.8301C99.8815 13.8792 99.8256 13.9373 99.7809 13.944C99.6692 13.9999 99.5709 13.9708 99.4793 13.9842C99.3497 14.1004 99.3229 14.2724 99.3229 14.44C99.3877 14.44 99.4011 14.5204 99.3922 14.5696C99.3989 14.7752 99.1263 14.8198 99.1531 15.0388C99.1508 15.1885 99.267 15.2712 99.2469 15.4253C99.2067 15.4611 99.1553 15.4879 99.1039 15.4678C98.9542 15.3516 99.0972 15.1505 98.8783 15.0745C98.8135 15.0745 98.8068 15.1527 98.7867 15.2019C98.8827 15.3069 98.8403 15.4432 98.8716 15.5661C98.8738 15.5773 98.876 15.5862 98.8805 15.5974C98.8358 15.5482 98.8179 15.6175 98.7934 15.6309C98.78 15.6085 98.771 15.5817 98.7621 15.5572C98.6794 15.3203 98.7487 15.0031 98.523 14.8623C98.4806 14.8891 98.4448 14.9584 98.3912 14.9114C98.3733 14.8668 98.3532 14.7953 98.2907 14.7595C98.0918 14.7685 97.989 14.9249 97.8706 15.0656C98.0695 15.2198 98.2661 15.3739 98.4627 15.5281L98.4672 15.5348ZM101.095 16.3526C100.996 16.4464 100.842 16.4598 100.728 16.4039C100.659 16.3704 100.605 16.3123 100.587 16.2341C100.55 16.1269 100.601 16.0465 100.657 15.9794C100.684 15.9459 100.713 15.9146 100.733 15.8856C100.842 15.8141 101.003 15.756 101.119 15.8387C101.2 15.8565 101.224 15.9303 101.249 16.0062C101.26 16.1202 101.213 16.2811 101.092 16.3526H101.095Z" fill="#0D86E7"/>
<path d="M97.5557 14.8268C97.6383 14.8893 97.7188 14.9519 97.8014 15.0144C97.8729 14.8491 97.9154 14.6637 97.969 14.5408C97.893 14.7106 97.6696 14.7754 97.5579 14.8268H97.5557Z" fill="#0D86E7"/>
<path d="M95.2655 20.379C95.2834 20.3566 95.2968 20.3298 95.3124 20.3075C95.2923 20.2673 95.2834 20.227 95.2834 20.1868C95.2454 20.1555 95.2074 20.1265 95.1694 20.0952C95.1538 20.1622 95.1136 20.2248 95.0957 20.2762C95.0912 20.2807 95.0867 20.2829 95.0823 20.2874C95.089 20.3253 95.1113 20.3611 95.1538 20.3968C95.1627 20.4035 95.1672 20.4125 95.1784 20.4192C95.2186 20.4281 95.2431 20.408 95.2655 20.379Z" fill="#0D86E7"/>
<path d="M96.2127 20.9509C96.1367 21.0649 96.072 21.1788 96.0094 21.2593C96.0988 21.1498 96.2462 21.1118 96.3758 21.0917C96.32 21.0448 96.2663 20.9978 96.2127 20.9509Z" fill="#0D86E7"/>
<path d="M95.4108 20.2896C95.4085 20.3119 95.4063 20.3342 95.4041 20.3566C95.3884 20.5018 95.3951 20.6403 95.5001 20.7498C95.5538 20.7342 95.6118 20.6671 95.6565 20.7342C95.6632 20.7856 95.6655 20.8705 95.7213 20.9263C95.8576 20.9554 95.9716 20.9084 96.0788 20.8414C95.88 20.6761 95.6811 20.5107 95.48 20.3454C95.4577 20.3275 95.4353 20.3097 95.413 20.2918L95.4108 20.2896Z" fill="#0D86E7"/>
<path d="M94.8387 19.8338C94.4053 19.4942 93.9673 19.159 93.5249 18.8328C92.9172 18.3837 92.3006 17.948 91.675 17.5258C91.6213 17.5704 91.5699 17.6017 91.5052 17.5034C91.4493 17.5593 91.2951 17.595 91.351 17.6978C91.5119 17.7648 91.6035 17.9816 91.8045 17.948C91.8381 17.9793 91.78 18.0173 91.7465 18.0508C91.7286 18.167 91.8939 18.1581 91.9431 18.2139L91.9207 18.2497L91.8693 18.3279L91.9654 18.4061C91.9453 18.4441 91.885 18.482 91.876 18.529C91.8917 18.5513 91.9006 18.5781 91.9051 18.6049C91.9609 18.6898 92.0816 18.6005 92.0838 18.7211C92.0436 18.7502 91.9878 18.7122 91.9364 18.7144C92.0459 18.8507 92.0727 18.9982 92.0727 19.1479C92.0972 19.1657 92.1218 19.1836 92.1464 19.2015C92.5709 19.5031 92.9887 19.8159 93.4043 20.1309C93.6031 20.2829 93.802 20.4326 94.0008 20.5867C94.1729 20.7208 94.3405 20.8571 94.5103 20.9934C94.5103 20.9867 94.5147 20.98 94.517 20.9733C94.4455 20.9576 94.4544 20.8638 94.479 20.8146C94.5259 20.6158 94.7739 20.6158 94.8499 20.4437C94.8543 20.4348 94.8566 20.4236 94.8588 20.4125C94.8298 20.4147 94.7985 20.4125 94.7694 20.4013C94.6957 20.4035 94.6577 20.3454 94.6197 20.2873C94.584 20.1913 94.5885 20.0393 94.6756 19.95C94.7136 19.8896 94.7739 19.8494 94.8387 19.8293V19.8338Z" fill="#0D86E7"/>
<path d="M118.585 40.5946C118.515 40.4382 118.422 40.331 118.288 40.2662C118.174 40.1545 118.343 40.0763 118.227 39.9735C118.379 39.9243 118.41 40.1992 118.582 40.1545C118.652 40.2684 118.687 40.4382 118.833 40.5053C119.005 40.5902 119.177 40.5321 119.344 40.5343C118.536 38.3693 117.608 36.2601 116.572 34.218C115.705 32.5132 114.76 30.8554 113.745 29.2467C113.305 28.5518 112.851 27.8659 112.387 27.1889C111.833 26.3823 111.258 25.5914 110.666 24.8139C110.499 24.5949 110.331 24.3737 110.161 24.1548C110.144 24.1793 110.13 24.2061 110.119 24.233C110.094 24.2977 110.09 24.367 110.11 24.4273C110.117 24.4474 110.119 24.4653 110.128 24.4832C110.121 24.4832 110.112 24.4832 110.106 24.4832C110.043 24.4899 109.989 24.4564 109.918 24.4609C109.844 24.5458 109.717 24.6195 109.768 24.7535C109.674 24.8228 109.672 24.6776 109.603 24.6865C109.614 24.8451 109.332 24.7982 109.417 24.9837C109.315 24.939 109.417 24.8273 109.326 24.7737C108.892 24.4944 108.626 25.0194 108.227 24.8384C108.302 24.6307 108.095 24.3961 108.247 24.2039C108.191 23.9894 107.985 24.0609 107.867 24.0363C107.833 23.9291 107.907 23.7861 107.88 23.7034C107.733 23.7839 107.628 23.6297 107.494 23.6364C107.465 23.6453 107.436 23.6565 107.407 23.661C107.438 23.6431 107.465 23.6364 107.494 23.6364C107.862 23.5202 108.177 23.127 108.604 23.0689C108.664 22.9929 108.854 22.9415 108.785 22.7918C108.707 22.631 108.606 22.5193 108.463 22.4567C108.34 22.3427 108.517 22.2556 108.392 22.1506C108.513 22.1059 108.566 22.2668 108.667 22.3182C108.233 21.8065 107.793 21.2993 107.344 20.8011C107.328 20.8704 107.377 20.9575 107.266 20.9419C107.163 20.9553 107.116 20.8547 107.045 20.819C106.806 20.5129 106.613 20.1487 106.33 19.8873C106.269 19.8091 106.126 19.7242 106.229 19.5968C106.057 19.4158 105.881 19.2371 105.704 19.0583C105.599 19.1365 105.485 19.2036 105.358 19.2349C105.309 19.3131 105.139 19.3801 105.219 19.5119C105.309 19.6549 105.414 19.7465 105.554 19.7912C105.679 19.885 105.525 19.9856 105.653 20.0682C105.512 20.1375 105.443 19.8739 105.282 19.9409C105.199 19.8403 105.141 19.6795 104.989 19.6348C104.929 19.6147 104.871 19.6125 104.815 19.6169C104.804 19.6549 104.795 19.6907 104.792 19.7264C104.611 19.6326 104.573 19.8605 104.399 19.8471C104.352 19.9007 104.305 19.9543 104.256 20.0057C104.328 19.9811 104.401 19.9722 104.477 20.0236C104.544 20.0705 104.558 20.1643 104.491 20.2112C104.368 20.3028 104.069 20.3073 104.151 20.5419C104.16 20.6022 104.223 20.676 104.214 20.7363C105.684 22.2511 107.071 23.8285 108.363 25.473C108.633 25.8171 108.899 26.1656 109.163 26.5164C109.426 26.8694 109.686 27.2247 109.942 27.5821C110.3 28.0826 110.651 28.5876 110.993 29.0992C112.065 30.7012 113.057 32.3523 113.969 34.0549C114.827 35.6546 115.613 37.2968 116.326 38.9815C116.661 39.7724 116.974 40.57 117.273 41.3722C117.293 41.3655 117.311 41.361 117.329 41.361C117.682 41.2604 117.995 40.894 118.404 40.8516C118.464 40.7801 118.645 40.7376 118.582 40.5924L118.585 40.5946ZM107.735 21.2569C107.757 21.306 107.773 21.3976 107.686 21.382C107.561 21.2792 107.733 21.3127 107.735 21.2569ZM106.356 20.8391C106.33 20.7944 106.307 20.7117 106.388 20.7184C106.515 20.8033 106.35 20.7877 106.356 20.8391ZM106.763 21.2479C106.801 21.1787 106.707 21.0781 106.83 21.0781C106.926 21.0558 106.98 21.1429 107.049 21.1697C107.304 21.4312 107.523 21.7507 107.813 21.9629C107.88 22.0299 108.028 22.097 107.934 22.2333C107.798 22.3763 107.663 22.1372 107.621 22.0501C107.257 21.8512 107.016 21.5607 106.765 21.2479H106.763ZM117.186 38.7893C117.088 38.7983 117.045 38.7022 116.978 38.6642C116.759 38.3648 116.585 38.0118 116.324 37.7571C116.268 37.6789 116.127 37.5917 116.241 37.4689C116.4 37.346 116.498 37.6052 116.529 37.699C116.866 37.9515 117.068 38.2777 117.275 38.6285C117.228 38.6932 117.309 38.8072 117.184 38.7893H117.186ZM117.579 39.2161C117.463 39.1133 117.626 39.1513 117.628 39.0999C117.649 39.1468 117.66 39.2362 117.579 39.2161Z" fill="#0D86E7"/>
<path d="M122.908 55.7968C122.803 54.7623 122.671 53.7345 122.517 52.7157C122.113 50.0658 121.536 47.4718 120.806 44.9448C120.774 45.0834 120.703 45.2107 120.678 45.2911C120.598 45.0029 120.609 44.8353 120.616 44.5784C120.616 44.5561 120.616 44.5337 120.616 44.5091C120.37 44.3416 120.059 44.2611 119.773 44.2232C119.724 44.2455 119.693 44.2991 119.664 44.3527C119.608 44.4555 119.559 44.5717 119.418 44.5293C119.396 44.4354 119.472 44.3863 119.545 44.3259C119.599 44.2812 119.653 44.2321 119.664 44.1561C119.617 44.0422 119.722 43.897 119.63 43.7897C119.604 43.8098 119.543 43.8724 119.525 43.8053C119.494 43.7048 119.628 43.5395 119.467 43.5261C119.414 43.5261 119.34 43.5395 119.315 43.573C119.309 43.5283 119.311 43.4523 119.302 43.392C119.056 43.3697 119.235 43.6467 119.087 43.7227C119.114 43.2713 118.898 42.8513 118.86 42.4201C118.719 42.3933 118.591 42.4447 118.466 42.4961C118.317 42.5564 118.167 42.6145 117.995 42.5296C118.073 42.333 117.881 42.1051 118.031 41.9263C117.981 41.7208 117.785 41.7833 117.673 41.7565C117.644 41.6537 117.718 41.5197 117.696 41.4392C117.553 41.513 117.456 41.3633 117.329 41.3655C117.311 41.37 117.291 41.3767 117.273 41.3811C117.501 41.9956 117.722 42.6122 117.93 43.2311C118.017 43.4881 118.098 43.7473 118.18 44.0064C119.36 47.693 120.171 51.4756 120.607 55.3343C120.859 57.5663 120.991 59.8229 120.991 62.1019C120.991 64.0502 120.897 65.9851 120.712 67.9021C120.571 69.3656 120.374 70.8201 120.126 72.2612C119.981 73.0991 119.818 73.9347 119.637 74.7636C119.485 75.4629 119.324 76.1623 119.146 76.8549C118.417 79.6969 117.477 82.4853 116.324 85.2111C114.576 89.3423 112.387 93.2233 109.782 96.8272C109.219 97.6047 108.638 98.3711 108.034 99.124C108.229 99.2536 108.32 99.524 108.492 99.6871C108.276 99.8859 108.519 100.167 108.421 100.411C108.367 100.369 108.379 100.266 108.341 100.208L108.421 100.212C108.358 100.179 108.408 100.132 108.345 100.096H108.361C108.332 100.047 108.394 99.8993 108.287 99.9664C108.267 99.877 108.349 99.801 108.417 99.7228C108.24 99.7474 108.408 99.5776 108.236 99.6602C108.231 99.5709 108.338 99.6893 108.318 99.5843C108.285 99.4167 108.128 99.2916 107.97 99.2C107.961 99.2089 107.954 99.2201 107.945 99.229C107.967 99.2514 107.981 99.2759 107.961 99.3117C107.945 99.2849 107.927 99.276 107.912 99.2715C107.885 99.305 107.858 99.3385 107.831 99.372C107.778 99.4391 107.724 99.5061 107.67 99.5731C107.786 99.5999 107.766 99.4324 107.876 99.4681C107.845 99.6178 108.048 99.5552 107.976 99.7295C107.983 99.5865 107.909 99.6066 107.842 99.4994C107.86 99.62 107.71 99.6066 107.731 99.6781L107.836 99.658C107.789 99.6781 107.795 99.7161 107.815 99.7586C107.838 99.8055 107.876 99.8591 107.883 99.9083H107.867C107.849 99.9552 107.905 99.9485 107.921 99.9664L107.849 99.9708C107.838 100.243 108.18 100.266 108.131 100.512C108.012 100.467 108.046 100.252 107.867 100.293C107.719 100.132 107.585 99.9552 107.521 99.7608C107.179 100.179 106.828 100.59 106.475 100.999C105.974 101.573 105.461 102.138 104.938 102.697C104.944 102.701 104.951 102.703 104.958 102.708C104.96 102.708 104.962 102.71 104.967 102.712C105.168 102.898 105.13 103.19 105.041 103.412C104.848 103.418 104.67 103.291 104.538 103.181C104.531 103.168 104.529 103.15 104.527 103.135C104.221 103.454 103.912 103.771 103.597 104.086C103.293 104.39 102.987 104.69 102.677 104.985C102.703 105.045 102.721 105.105 102.753 105.157C102.936 105.25 103.137 105.208 103.325 105.134C103.296 105.063 103.38 105.014 103.439 105.005C103.662 104.911 103.83 105.192 104.06 105.067C104.227 105.007 104.27 104.842 104.446 104.799C104.502 104.83 104.556 104.875 104.553 104.938C104.491 105.152 104.207 105.081 104.216 105.353C104.245 105.425 104.332 105.398 104.395 105.4C104.475 105.237 104.667 105.239 104.79 105.128C104.757 105.199 104.839 105.188 104.864 105.21C104.656 105.46 104.194 105.494 104.131 105.836C104.178 105.872 104.272 105.881 104.243 105.961C104.203 105.999 104.131 106.053 104.118 106.135C104.18 106.278 104.296 106.345 104.428 106.394C105.617 105.246 106.759 104.051 107.851 102.811C108.095 102.534 108.338 102.254 108.577 101.971C109.531 100.847 110.445 99.6893 111.319 98.5007C111.909 97.6963 112.478 96.8786 113.03 96.0452C114.011 94.5616 114.934 93.0356 115.787 91.4649C115.597 91.5364 115.41 91.6101 115.244 91.7486C115.195 91.6526 115.443 91.5833 115.428 91.4068C115.423 91.1811 115.189 91.1633 115.048 91.0962C114.867 91.0806 114.657 91.1521 114.554 91.0002C115.081 91.123 115.309 90.4952 115.803 90.5377C115.951 90.5488 116.125 90.5153 116.279 90.531C116.784 89.5635 117.264 88.5827 117.718 87.5862C119.025 84.7129 120.115 81.7234 120.973 78.6334C121.588 76.4237 122.081 74.1648 122.448 71.8657C122.705 70.2593 122.899 68.6327 123.029 66.9861C123.156 65.3729 123.221 63.7441 123.221 62.0997C123.221 59.9726 123.114 57.8724 122.904 55.8012L122.908 55.7968ZM120.263 45.4632C120.258 45.5079 120.321 45.5324 120.345 45.5771C120.357 45.5928 120.361 45.6084 120.35 45.633C120.357 45.6106 120.352 45.5928 120.345 45.5771C120.314 45.5369 120.234 45.519 120.263 45.4632ZM120.348 45.7313C120.339 45.7201 120.327 45.709 120.33 45.6955L120.348 45.7313ZM120.343 45.8385C120.305 45.8385 120.285 45.8095 120.281 45.7805C120.29 45.7335 120.319 45.7805 120.35 45.7916L120.341 45.8385H120.343ZM120.6 50.3138C120.694 50.1842 120.777 50.0345 120.942 50.115C121.161 50.249 121.181 50.5261 121.139 50.745C120.962 50.7875 120.774 50.7026 120.634 50.6266C120.575 50.5439 120.575 50.401 120.6 50.3116V50.3138ZM107.916 99.4167C107.905 99.381 107.883 99.372 107.858 99.3676C107.878 99.3676 107.896 99.3586 107.912 99.3273C107.967 99.3542 107.894 99.3586 107.916 99.4167ZM107.967 99.372C107.967 99.372 107.99 99.3966 107.99 99.4122C107.965 99.4033 107.934 99.3854 107.967 99.372ZM107.867 99.6156L107.876 99.6089L107.945 99.6848L107.936 99.6915L107.867 99.6156ZM107.894 99.7764C107.925 99.7764 107.934 99.7541 107.952 99.7384C107.956 99.7943 107.941 99.7943 107.894 99.7764ZM108.218 99.4793L108.175 99.5173L108.153 99.4614L108.215 99.4793H108.218ZM108.224 100.27L108.211 100.373C108.211 100.342 108.144 100.266 108.224 100.27ZM108.01 100.237L108.037 100.165L108.05 100.214L108.01 100.237ZM108.032 99.3273C108.066 99.2804 108.086 99.3698 108.119 99.3541C108.023 99.3497 108.133 99.4346 108.099 99.4324C108.055 99.3676 108.012 99.4055 108.032 99.3251V99.3273ZM105 105.38C104.98 105.255 105.065 105.364 105.094 105.331C105.083 105.373 105.043 105.434 105 105.38ZM105.116 104.846C105.052 104.862 105.043 104.978 104.973 104.9C104.906 104.853 104.929 104.77 104.906 104.712C104.924 104.406 104.998 104.089 104.965 103.789C104.969 103.709 104.924 103.581 105.063 103.561C105.228 103.566 105.157 103.783 105.128 103.861C105.21 104.198 105.168 104.513 105.116 104.846ZM105.856 103.405L105.84 103.376L105.914 103.396L105.856 103.405ZM106.153 102.127L106.14 102.078L106.164 102.071L106.153 102.127ZM106.198 103.213L106.211 103.193L106.229 103.181L106.198 103.213ZM106.276 102.06L106.263 102.026L106.307 102.093L106.276 102.06ZM106.837 102.683L106.884 102.719C106.841 102.732 106.855 102.712 106.837 102.683ZM107.853 101.287C107.795 101.309 107.693 101.28 107.69 101.376C107.61 101.298 107.516 101.262 107.411 101.251C107.326 101.242 107.237 101.247 107.136 101.256C107.027 101.186 106.944 101.063 106.966 100.92C106.915 100.63 107.299 100.798 107.241 100.5C107.353 100.337 107.559 100.362 107.699 100.465C107.876 100.612 107.88 100.793 107.867 100.981C107.86 101.081 107.849 101.186 107.856 101.287H107.853ZM109.59 98.2638L109.567 98.208L109.592 98.1856L109.587 98.2661L109.59 98.2638ZM109.835 98.5141L109.86 98.523L109.876 98.5386L109.838 98.5141H109.835ZM110.481 99.1017C110.459 99.0615 110.481 99.0704 110.508 99.0458L110.481 99.1017ZM120.953 77.3018L120.933 77.3219V77.2548L120.953 77.3018ZM120.71 77.0537L120.689 77.047L120.676 77.0336L120.71 77.0537ZM120.113 76.6337L120.133 76.5868C120.153 76.6203 120.133 76.6136 120.113 76.6337Z" fill="#0D86E7"/>
<path d="M102.688 107.326C102.695 107.36 102.728 107.436 102.663 107.431C102.797 107.518 102.891 107.668 102.808 107.838C102.768 107.956 102.621 107.992 102.525 108.021C102.435 107.996 102.335 107.976 102.254 107.936C102.176 107.896 102.116 107.838 102.102 107.735C102.102 107.724 102.102 107.715 102.102 107.704C102.091 107.702 102.082 107.697 102.071 107.695C101.667 107.594 101.236 107.605 100.874 107.413C100.818 107.357 100.757 107.302 100.697 107.243C100.675 107.259 100.652 107.273 100.628 107.286C100.576 107.313 100.525 107.342 100.492 107.391C100.483 107.42 100.474 107.451 100.46 107.478C100.462 107.44 100.476 107.413 100.492 107.391C100.518 107.313 100.534 107.23 100.543 107.145C100.543 107.13 100.543 107.112 100.547 107.094C100.518 107.065 100.494 107.033 100.467 107.002C100.467 107.002 100.462 107.004 100.462 107.007C99.0437 108.238 97.5713 109.395 96.0498 110.481C93.1474 112.552 90.0619 114.353 86.8177 115.875C86.1273 116.199 85.4302 116.514 84.7242 116.813C83.1333 117.485 81.518 118.082 79.8869 118.612C78.915 118.927 77.9386 119.215 76.9533 119.478C73.689 120.35 70.3532 120.937 66.9661 121.239C65.1943 121.395 63.4113 121.48 61.6127 121.48C59.2131 121.48 56.8336 121.337 54.4809 121.056C52.0008 120.761 49.552 120.31 47.1412 119.706C45.6711 119.338 44.2143 118.913 42.7732 118.431C42.4157 118.312 42.0627 118.185 41.7075 118.06C41.4058 117.952 41.1042 117.841 40.8026 117.729C40.7981 117.733 40.7959 117.74 40.7914 117.745C40.8428 117.774 40.816 117.845 40.7847 117.879C40.6931 118.042 40.4585 117.95 40.3781 118.136C40.3066 118.252 40.3579 118.372 40.2708 118.482C40.2217 118.491 40.168 118.489 40.139 118.448C40.0742 118.288 40.282 118.198 40.1457 118.035C40.0943 118.006 40.0541 118.062 40.0139 118.093C40.0407 118.229 39.9245 118.321 39.9022 118.446C39.8888 118.386 39.8441 118.433 39.8173 118.431C39.824 118.18 40.0898 117.941 39.9669 117.702C39.9223 117.702 39.8619 117.742 39.8396 117.68C39.8463 117.637 39.8642 117.573 39.8329 117.515C39.5871 117.383 39.3525 117.635 39.0956 117.597C39.2296 117.561 39.3525 117.465 39.462 117.372C39.3659 117.43 39.2475 117.45 39.138 117.392C38.8811 117.349 39.0777 117.103 38.9124 117.018C38.9034 117.027 38.8923 117.034 38.8722 117.03C38.8878 117.03 38.899 117.025 38.9101 117.016C38.89 117.005 38.8654 116.998 38.8342 116.994C38.8275 116.985 38.8252 116.978 38.8208 116.969C38.8141 116.958 38.8074 116.947 38.8029 116.936C38.7023 116.893 38.6018 116.855 38.5013 116.813C37.7215 116.482 36.9507 116.134 36.1888 115.772C35.9385 115.982 35.4827 115.964 35.3733 116.297C35.4157 116.339 35.5096 116.359 35.4693 116.438C35.4224 116.471 35.3442 116.516 35.3196 116.601C35.4246 116.96 35.8827 116.947 36.0882 117.226C35.8112 117.063 35.3956 117.094 35.1476 117.054C35.3867 117.099 35.5319 117.378 35.6257 117.485C35.2928 117.396 35.1498 117.287 34.8817 117.119C34.7566 117.179 34.6404 117.26 34.5309 117.351C34.5131 117.376 34.4907 117.401 34.4617 117.416C34.6963 117.53 34.9286 117.646 35.1655 117.758C35.1655 117.758 35.1699 117.758 35.1722 117.76C35.1789 117.758 35.1878 117.754 35.1945 117.751C35.2973 117.72 35.4045 117.698 35.5096 117.698C35.6079 117.698 35.7084 117.711 35.8089 117.749C35.9341 117.827 36.258 117.83 36.2781 118.071C36.4323 118.158 36.5217 118.276 36.5798 118.406C36.6245 118.426 36.6691 118.446 36.7161 118.464C37.2545 118.703 37.7997 118.933 38.3471 119.157C38.4231 119.072 38.5169 119.007 38.6375 118.98C38.7582 118.927 38.8565 119.065 38.9504 119.103C38.9906 119.208 38.9682 119.302 38.928 119.394C39.3302 119.552 39.7368 119.706 40.1435 119.858C40.1479 119.854 40.1524 119.849 40.1569 119.847C40.3959 119.72 40.6596 119.852 40.8383 120.008C40.8294 120.039 40.8115 120.068 40.7959 120.095C40.8294 120.109 40.8651 120.12 40.8986 120.131C41.8974 120.488 42.9095 120.819 43.9328 121.125C45.0298 121.454 46.138 121.751 47.2574 122.019C49.6526 122.591 52.1014 123.022 54.5948 123.304C56.8984 123.565 59.2399 123.703 61.6149 123.703C63.3286 123.703 65.0245 123.63 66.7046 123.493C67.5648 123.424 68.4206 123.337 69.2718 123.232C69.2383 123.216 69.207 123.192 69.1825 123.149C69.2986 123.107 69.4126 123.288 69.5176 123.145C69.5846 123.152 69.6494 123.163 69.7142 123.176C71.4123 122.953 73.088 122.658 74.7414 122.3C74.7704 122.126 74.7749 121.941 74.8799 121.816C74.9246 121.82 75.0363 121.912 74.9313 121.945C74.9402 122.05 74.9223 122.16 74.8978 122.267C75.4943 122.135 76.0886 121.996 76.6785 121.849C78.1196 121.487 79.5406 121.074 80.9415 120.611C80.9504 120.609 80.9594 120.605 80.9706 120.602C80.9527 120.573 80.9415 120.54 80.9437 120.504C80.9192 120.439 80.9594 120.39 81.0018 120.341C81.0756 120.283 81.2074 120.243 81.3124 120.294C81.3884 120.312 81.4487 120.37 81.4822 120.437C83.2652 119.829 85.0124 119.141 86.7194 118.379C86.6725 118.301 86.659 118.207 86.6769 118.133C86.7171 118.026 86.8311 118.1 86.9026 118.053C86.9987 118.06 87.0635 118.129 87.0925 118.212C87.3494 118.095 87.6041 117.973 87.8611 117.854C91.2818 116.241 94.5327 114.324 97.5735 112.134C97.6227 112.099 97.6741 112.061 97.7232 112.025C98.398 111.536 99.066 111.035 99.7207 110.519C100.36 110.016 100.985 109.498 101.604 108.971C101.604 108.957 101.604 108.942 101.604 108.926C101.604 108.926 101.604 108.924 101.604 108.921C101.624 108.642 101.863 108.3 102.194 108.425C102.203 108.428 102.212 108.432 102.221 108.437C102.304 108.363 102.386 108.289 102.469 108.218C102.699 108.014 102.929 107.809 103.157 107.603C103.137 107.543 103.112 107.485 103.052 107.449C102.925 107.449 102.831 107.288 102.692 107.333L102.688 107.326ZM38.756 117.059L38.718 117.063C38.7113 117.034 38.7292 117.014 38.7515 117.003C38.7895 117.001 38.7582 117.032 38.756 117.059ZM38.7828 117.061C38.8051 117.052 38.8051 117.025 38.8252 117.023L38.7828 117.061ZM39.9535 118.542V118.518L40.0027 118.547H39.9535V118.542ZM39.9826 118.408H39.9468L40.0228 118.39L39.9804 118.408H39.9826ZM42.9207 119.364C42.8157 119.434 42.6369 119.474 42.5051 119.396C42.2772 119.322 42.1767 118.998 42.3554 118.848C42.4805 118.71 42.6503 118.795 42.7665 118.808C42.8939 118.875 43.0324 119 43.0123 119.154C43.0369 119.242 42.9788 119.304 42.9184 119.364H42.9207ZM47.6238 121.176C47.5032 121.241 47.4049 121.136 47.3289 121.101C47.2597 121.02 47.1949 120.899 47.2485 120.797C47.253 120.73 47.311 120.703 47.3669 120.674C47.4563 120.654 47.5903 120.672 47.6618 120.759C47.8004 120.868 47.7869 121.118 47.6238 121.176ZM49.1231 122.093H49.1566L49.1811 122.097L49.1231 122.093ZM49.2013 122.021L49.1744 121.99L49.208 122.005L49.2013 122.023V122.021ZM49.4046 121.047C49.2057 121.074 49.0583 120.915 48.9756 120.761C49.0627 120.649 49.2169 120.609 49.342 120.584C49.418 120.605 49.4895 120.694 49.5163 120.759C49.523 120.884 49.5453 121.016 49.4068 121.047H49.4046ZM53.2542 122.271C53.2967 122.434 53.2542 122.62 53.2386 122.787C53.1827 122.823 53.1559 122.774 53.1358 122.734C53.1939 122.557 53.109 122.336 53.2006 122.182C53.2341 122.182 53.328 122.233 53.2542 122.271ZM53.5805 121.474C53.4576 121.514 53.3481 121.485 53.2855 121.371C53.2386 121.257 53.2654 121.123 53.328 121.045C53.4062 120.966 53.4799 121.078 53.5626 121.067C53.7167 121.152 53.6855 121.384 53.5827 121.474H53.5805ZM69.8505 122.582C69.8729 122.774 69.7031 122.888 69.5332 122.901C69.1869 122.906 69.0886 122.593 68.8898 122.39C68.9188 122.336 69.0127 122.291 68.9546 122.218C69.1534 122.229 69.2919 122.113 69.4439 121.952C69.569 121.934 69.7098 121.972 69.7857 122.093C70.0114 122.276 69.6159 122.396 69.8528 122.582H69.8505ZM75.5368 120.966C75.367 120.991 75.2284 120.931 75.1681 120.768C75.1301 120.607 75.1949 120.435 75.2955 120.348C75.4184 120.26 75.4876 120.426 75.5993 120.428C75.7848 120.573 75.6932 120.875 75.5368 120.969V120.966ZM82.8675 118.109C82.9323 118.122 82.9702 118.122 83.0127 118.167C83.0484 118.216 83.0551 118.267 83.0239 118.314C82.9792 118.339 82.9144 118.361 82.8496 118.348C82.7781 118.319 82.7088 118.297 82.6798 118.227C82.7155 118.169 82.787 118.104 82.8675 118.111V118.109ZM83.044 119.814C82.8719 119.923 82.6664 119.84 82.5234 119.733C82.5547 119.592 82.682 119.487 82.787 119.414C82.8652 119.4 82.9702 119.452 83.0239 119.501C83.082 119.612 83.1602 119.724 83.0462 119.814H83.044Z" fill="#0D86E7"/>
<path d="M102.473 107.353C102.497 107.357 102.522 107.364 102.546 107.373C102.488 107.331 102.435 107.295 102.391 107.351C102.417 107.346 102.444 107.344 102.473 107.353Z" fill="#0D86E7"/>
<path d="M102.188 107.478C102.188 107.478 102.181 107.476 102.178 107.476C102.176 107.48 102.176 107.485 102.174 107.49C102.178 107.487 102.183 107.483 102.188 107.478Z" fill="#0D86E7"/>
<path d="M103.767 106.687C103.51 106.852 103.309 107.112 103.155 107.366C103.157 107.422 103.193 107.474 103.233 107.523C103.4 107.369 103.568 107.212 103.733 107.056C103.733 107.056 103.729 107.051 103.729 107.049C103.765 106.966 103.883 106.922 103.91 106.857C103.816 106.837 103.8 106.754 103.767 106.685V106.687Z" fill="#0D86E7"/>
<path d="M104.179 106.638C104.2 106.62 104.217 106.6 104.237 106.582C104.155 106.586 104.079 106.591 104.015 106.591C104.075 106.593 104.128 106.613 104.179 106.64V106.638Z" fill="#0D86E7"/>
<path d="M111.071 40.9968C108.474 34.9196 104.792 29.4188 100.268 24.7379C99.057 23.4867 97.7879 22.2936 96.463 21.1631C96.2976 21.315 96.1569 21.382 95.9491 21.5005C95.9334 21.7887 96.0206 22.0858 96.1301 22.3428C96.2574 22.4277 96.5077 22.2735 96.5613 22.4858C96.4786 22.5685 96.3736 22.4858 96.2597 22.4612C97.0372 23.1427 97.7968 23.8509 98.5409 24.5815C98.6392 24.6799 98.7419 24.7737 98.8403 24.8742C102.569 28.6033 105.675 32.8059 108.119 37.4063C108.202 37.5605 108.282 37.7147 108.363 37.8688C108.595 37.947 108.72 38.1727 108.912 38.3135C108.816 38.4118 108.984 38.443 109.015 38.5369C109.064 38.586 109.167 38.5793 109.203 38.6486C109.163 38.7357 109.04 38.5816 109.031 38.7201C109.008 38.9659 109.337 38.9681 109.406 39.1513C109.252 39.1647 109.138 38.9391 108.993 39.0552C108.993 39.0754 108.993 39.0977 108.993 39.1178C109.035 39.2049 109.078 39.2943 109.12 39.3814C109.149 39.3502 109.183 39.3278 109.223 39.3301C109.274 39.3546 109.254 39.4239 109.223 39.4507C109.21 39.4708 109.194 39.4865 109.178 39.5021C109.507 40.1947 109.824 40.8963 110.123 41.6046C110.253 41.9107 110.376 42.219 110.501 42.5273H111.323C111.323 42.5273 111.337 42.5206 111.346 42.5139L111.339 42.5273H111.703C111.502 42.0134 111.292 41.504 111.075 40.9968H111.071ZM98.2727 22.9527C98.065 22.9751 97.8438 22.8924 97.6427 22.8433C97.6092 22.7673 97.6717 22.7427 97.7253 22.7271C97.9331 22.8276 98.2169 22.7606 98.3912 22.9014C98.3867 22.9416 98.3063 23.0488 98.2727 22.9527ZM110.691 41.8771L110.678 41.8325L110.698 41.8168L110.691 41.8771ZM110.863 42.0782L110.881 42.0872L110.892 42.1006L110.865 42.0782H110.863Z" fill="#0D86E7"/>
<path d="M62.6024 8.34721C62.5265 8.34721 62.4483 8.3472 62.3701 8.34497C62.3723 8.36508 62.3656 8.38966 62.3365 8.41423C62.455 8.43881 62.4885 8.39413 62.6024 8.37402C62.6024 8.36285 62.6024 8.35614 62.6024 8.34721Z" fill="#0D86E7"/>
<path d="M48.4058 113.088C48.6136 113.325 48.5756 113.772 48.8951 113.884C48.9353 113.844 48.9577 113.756 49.0314 113.797C49.0605 113.841 49.1029 113.917 49.1811 113.942C49.4515 113.87 49.5073 113.582 49.6548 113.374C48.6963 113.151 47.7445 112.901 46.7994 112.624C46.5044 112.537 46.2117 112.452 45.919 112.36C45.5727 112.253 45.2287 112.141 44.8846 112.025C43.6177 111.6 42.3643 111.127 41.1265 110.602C40.6417 110.396 40.1635 110.184 39.6876 109.965C39.7234 110.027 39.7792 110.09 39.7591 110.182C39.958 110.396 40.1121 110.642 40.3758 110.8C40.3043 110.879 40.1591 110.669 40.0004 110.74C39.7926 110.816 39.853 111.04 39.8329 111.194C39.8396 111.218 39.8463 111.243 39.8552 111.267C41.3745 111.942 42.9318 112.545 44.5226 113.079C45.1594 113.292 45.8006 113.495 46.4463 113.685C46.5826 113.725 46.7189 113.763 46.8552 113.803C47.2619 113.92 47.6707 114.031 48.0818 114.138C48.1377 114.051 48.1891 113.962 48.1466 113.844C48.1131 113.674 47.9612 113.609 47.9478 113.432C47.9858 113.383 48.0371 113.341 48.0975 113.35C48.2941 113.441 48.1824 113.703 48.4438 113.736C48.5175 113.718 48.5041 113.631 48.5153 113.571C48.3723 113.468 48.4013 113.285 48.3142 113.151C48.3768 113.193 48.379 113.113 48.4036 113.093L48.4058 113.088Z" fill="#0D86E7"/>
<path d="M38.8184 119.279C38.8877 119.17 38.662 119.192 38.7358 119.076C38.6419 119.085 38.6263 119.123 38.5481 119.166C38.5637 119.262 38.6754 119.188 38.6866 119.273C38.6754 119.275 38.6665 119.279 38.6576 119.286C38.6911 119.3 38.7224 119.313 38.7536 119.326C38.7536 119.309 38.7536 119.284 38.7738 119.3C38.7715 119.306 38.7648 119.322 38.7559 119.326C38.7693 119.331 38.7827 119.338 38.7961 119.342C38.8006 119.338 38.8073 119.331 38.8274 119.329C38.8497 119.333 38.8453 119.347 38.8408 119.36C38.8542 119.364 38.8654 119.371 38.8788 119.376C38.8922 119.313 38.8989 119.246 38.9011 119.186C38.8654 119.208 38.881 119.286 38.8184 119.279ZM38.7291 119.279C38.7492 119.262 38.7492 119.242 38.7425 119.224C38.7492 119.237 38.7626 119.246 38.7872 119.246C38.7872 119.291 38.7604 119.246 38.7291 119.277V119.279Z" fill="#0D86E7"/>
<path d="M35.5229 115.814C35.5431 115.89 35.6347 115.877 35.6995 115.886C35.7844 115.76 35.9251 115.754 36.0525 115.705C35.9586 115.66 35.8648 115.615 35.771 115.571C35.6615 115.615 35.5408 115.635 35.5229 115.814Z" fill="#0D86E7"/>
<path d="M38.6438 119.279C38.6438 119.279 38.6504 119.266 38.6548 119.259C38.646 119.266 38.6373 119.27 38.6285 119.272C38.6329 119.272 38.6395 119.277 38.6438 119.279Z" fill="#0D86E7"/>
<path d="M34.7766 115.352C35.0179 115.285 35.1497 115.595 35.4022 115.499C35.4491 115.488 35.4894 115.47 35.5251 115.446C34.8928 115.137 34.2694 114.818 33.6505 114.487C31.9771 113.593 30.3505 112.621 28.7753 111.574C28.6212 111.471 28.4648 111.368 28.3106 111.263C28.1966 111.187 28.0849 111.107 27.9732 111.031C27.8503 110.946 27.7274 110.861 27.6046 110.776C27.6403 110.921 27.8459 110.995 27.8682 111.147C27.723 111.127 27.6627 110.894 27.504 110.972C27.4705 111.107 27.4281 111.281 27.4705 111.386C27.5152 111.328 27.5867 111.256 27.6604 111.274C27.7029 111.308 27.6716 111.368 27.6336 111.386C27.5532 111.462 27.4616 111.46 27.3901 111.495C27.3096 111.625 27.3297 111.777 27.3722 111.92C27.4258 111.902 27.4593 111.967 27.4616 112.011C27.5174 112.181 27.2985 112.288 27.3767 112.467C27.4035 112.566 27.4817 112.615 27.5241 112.693C27.5353 112.715 27.5465 112.74 27.5509 112.769C27.5264 112.809 27.4884 112.843 27.4437 112.84C27.2873 112.78 27.3588 112.574 27.1555 112.566C27.1018 112.583 27.1153 112.648 27.1108 112.695C27.227 112.764 27.2136 112.907 27.2895 113.006C27.2381 112.977 27.2426 113.037 27.2247 113.057C27.0527 112.89 27.0549 112.543 26.8047 112.476C26.7756 112.507 26.7645 112.577 26.7064 112.552C26.6818 112.519 26.6461 112.465 26.5835 112.449C26.4852 112.483 26.4293 112.554 26.3846 112.637C26.6662 112.834 26.9499 113.033 27.2337 113.225C27.4683 113.383 27.7073 113.537 27.9464 113.694C27.9576 113.701 27.9665 113.707 27.9777 113.714C28.3508 113.654 28.3955 113.18 28.7552 113.104C28.82 113.091 28.8893 113.062 28.9563 113.037C29.1082 112.981 29.2624 112.936 29.3898 113.073C29.497 113.077 29.4858 113.173 29.5216 113.243C29.573 113.39 29.4546 113.506 29.4277 113.622C29.354 113.567 29.3026 113.602 29.2468 113.634C29.2088 113.656 29.1686 113.676 29.1149 113.66C28.9384 113.808 28.7418 113.922 28.61 114.123C29.0256 114.389 29.4456 114.648 29.8701 114.903C30.2611 115.137 30.6544 115.37 31.0498 115.597C31.1861 115.676 31.3269 115.752 31.4632 115.83C31.4788 115.821 31.4922 115.81 31.5123 115.803C31.6397 115.356 32.0664 115.298 32.3681 115.059C32.4597 115.215 32.558 115.014 32.6876 115.008C32.7658 114.963 32.7948 114.827 32.8954 114.809C32.9914 114.889 32.7524 114.992 32.9266 115.052C33.2327 115.166 33.3467 114.751 33.6059 114.726C33.5679 114.925 33.2417 114.992 33.34 115.218C33.5232 115.273 33.76 115.343 33.9097 115.291C33.8337 115.227 33.7377 115.119 33.769 115.021C33.8181 114.963 33.9008 115.014 33.9231 115.066C34.0214 115.182 34.0147 115.307 34.0594 115.412C34.2337 115.533 34.4459 115.515 34.6448 115.468C34.6247 115.392 34.7163 115.352 34.7789 115.349L34.7766 115.352ZM31.4565 115.16C31.4676 115.2 31.4676 115.271 31.4051 115.247C31.3246 115.153 31.4498 115.202 31.4565 115.16ZM30.9873 114.739C30.8465 114.476 30.746 114.176 30.5672 113.942C30.5315 113.873 30.4287 113.788 30.5337 113.703C30.6745 113.622 30.7236 113.839 30.7393 113.917C30.9806 114.156 31.1057 114.44 31.2308 114.742C31.1861 114.786 31.2375 114.889 31.1392 114.86C31.0588 114.856 31.0364 114.775 30.9873 114.737V114.739Z" fill="#0D86E7"/>
<path d="M39.5934 117.253C39.5757 117.246 39.5579 117.24 39.5423 117.231C39.5334 117.26 39.5245 117.289 39.5178 117.32C39.5445 117.295 39.569 117.273 39.5934 117.253Z" fill="#0D86E7"/>
<path d="M25.7636 111.694C25.7457 111.737 25.7122 111.77 25.701 111.824C25.7569 111.913 25.7882 112.045 25.92 112.038C25.958 112.141 25.8262 112.103 25.815 112.166C25.8887 112.181 25.8932 112.25 25.9066 112.313C25.9558 112.347 26.0027 112.38 26.0518 112.416C26.0898 112.333 26.1367 112.257 26.1904 112.159C26.0921 111.973 25.9289 111.819 25.7636 111.696V111.694Z" fill="#0D86E7"/>
<path d="M26.2392 112.542C26.2392 112.469 26.2392 112.402 26.2481 112.347C26.2414 112.405 26.2125 112.456 26.1769 112.5C26.1969 112.516 26.2191 112.529 26.2392 112.545V112.542Z" fill="#0D86E7"/>
<path d="M25.7814 111.319C25.7568 111.321 25.6943 111.343 25.7055 111.292C25.7211 111.212 25.8708 111.149 25.7658 111.082C25.73 111.064 25.6764 111.044 25.6474 111.06C25.6585 111.026 25.6876 110.977 25.7032 110.932C25.5446 110.829 25.5669 111.08 25.4418 111.08C25.6518 110.733 25.6183 110.298 25.8283 109.969C25.9244 109.887 26.0227 109.793 26.13 109.715C26.1277 109.712 26.1233 109.71 26.121 109.708C24.4252 108.441 22.7964 107.074 21.2324 105.621C20.6917 105.119 20.1555 104.609 19.6304 104.084C17.5749 102.029 15.6869 99.8457 13.9688 97.5444C12.8203 96.0072 11.7523 94.4142 10.7603 92.7742C10.738 92.8345 10.7268 92.877 10.6709 92.915C10.6062 92.9485 10.5391 92.9485 10.49 92.8971C10.4699 92.839 10.4542 92.7563 10.4833 92.6804C10.5213 92.6156 10.5548 92.5552 10.6106 92.5217C10.0453 91.5766 9.50688 90.6137 8.99523 89.635C8.24004 88.1939 7.53848 86.7193 6.90171 85.2089C6.62466 84.552 6.36325 83.8907 6.11077 83.2271C5.67955 82.0966 5.28185 80.9548 4.92213 79.8042C4.89755 79.8824 4.85957 79.9583 4.79925 80.0254C4.61827 80.2242 4.50209 80.5929 4.16471 80.5236C4.05076 80.5951 3.99043 80.4901 3.9033 80.4454C3.74243 80.3315 3.78041 80.1237 3.72232 79.9852C3.92117 79.9896 3.85638 79.7751 4.01725 79.7148C4.09098 79.4333 4.21163 79.1719 4.20269 78.8658C4.30547 78.8837 4.20939 79.1183 4.35462 79.2121C4.49091 79.3149 4.61603 79.2344 4.72775 79.1629C4.50655 78.4279 4.29877 77.6883 4.10662 76.9443C3.93458 76.2785 3.77594 75.6082 3.62848 74.9357C3.61731 74.9759 3.59497 75.0116 3.54581 75.0317C3.52347 74.9446 3.66199 74.8753 3.56369 74.7882C3.56815 74.7636 3.57486 74.7391 3.58156 74.7167C3.54805 74.567 3.51677 74.4151 3.48325 74.2654C3.15258 72.6723 2.88446 71.0659 2.68561 69.4438C2.44878 67.5268 2.30578 65.5897 2.25663 63.6369C2.25216 63.5028 2.25216 63.3688 2.24993 63.2347C2.24322 62.8549 2.23652 62.4773 2.23652 62.0952C2.23652 59.6599 2.38398 57.2446 2.67221 54.8606C2.73477 54.3378 2.80403 53.8172 2.88223 53.2966C3.06991 52.0253 3.30451 50.7607 3.57486 49.5073C3.58156 49.4738 3.5905 49.438 3.5972 49.4045C3.60167 49.3821 3.60614 49.3598 3.61284 49.3375C3.34696 49.2727 3.21067 49.1833 2.97383 49.0537C2.71913 49.1922 2.5091 49.4224 2.346 49.6547C2.34153 49.8067 2.60518 49.943 2.45101 50.0994C2.29461 50.0614 2.38175 49.8201 2.23875 49.7195C2.1181 49.7106 2.0399 49.552 1.90585 49.5832C1.91031 49.6167 1.93713 49.695 1.87233 49.6815C1.76955 49.6637 1.68689 49.4715 1.60422 49.6078C1.58187 49.6547 1.5573 49.724 1.57517 49.7597C1.53272 49.7463 1.46793 49.7084 1.41207 49.6905C1.28248 49.8938 1.60198 49.8625 1.60198 50.0256C1.48133 49.9541 1.35174 49.905 1.21769 49.867C1.17747 50.0658 1.14172 50.2669 1.10374 50.468C1.16183 50.4367 1.22662 50.4099 1.26907 50.3742C1.57517 50.4099 1.63997 50.7585 1.82988 50.9462C1.6355 51.1137 1.84105 51.3662 1.74945 51.5785C1.70253 51.5405 1.71593 51.4511 1.68465 51.3997L1.75391 51.4042C1.70029 51.3729 1.74498 51.3327 1.69135 51.3014H1.70476C1.68018 51.259 1.73827 51.1294 1.6422 51.1852C1.62656 51.107 1.70029 51.0422 1.76285 50.9774C1.60869 50.9953 1.75838 50.8501 1.60645 50.9171C1.60645 50.8389 1.69582 50.9439 1.68018 50.8523C1.65114 50.6825 1.47686 50.5574 1.3227 50.4702C1.32717 50.5194 1.4143 50.5462 1.37632 50.6065C1.30035 50.4747 1.19981 50.7205 1.11938 50.582C1.07693 50.6847 1.11044 50.7205 1.10821 50.8255C1.21769 50.8612 1.19981 50.7071 1.29589 50.7406C1.26461 50.8724 1.44335 50.821 1.37855 50.9707C1.38749 50.8456 1.3227 50.8612 1.26684 50.7674C1.28025 50.8724 1.14842 50.8568 1.16406 50.9216L1.25567 50.9059C1.21322 50.9238 1.21769 50.9551 1.23556 50.9931C1.25343 51.0333 1.28471 51.0824 1.28918 51.1249H1.27578C1.2579 51.1651 1.30706 51.1606 1.32046 51.1763H1.2579C1.24226 51.4154 1.53942 51.4444 1.49027 51.6567C1.38749 51.6142 1.42324 51.4265 1.26684 51.4578C1.15289 51.3282 1.05235 51.1852 0.994257 51.0311C0.974149 51.1428 0.95404 51.2545 0.933931 51.3662C0.924994 51.4198 0.916057 51.4757 0.90712 51.5293C0.949571 51.5293 0.989789 51.5427 1.03001 51.5606C1.05682 51.574 1.08363 51.5874 1.10821 51.6075C1.23779 51.7237 1.25343 51.8577 1.24673 51.9985C1.24003 52.108 1.21992 52.2197 1.22439 52.3292C1.173 52.347 1.08586 52.3202 1.07916 52.4029C0.996491 52.318 0.895949 52.289 0.782 52.2823C0.612194 53.3435 0.4692 54.4115 0.353017 55.4907C0.120651 57.6624 0 59.8654 0 62.0997C0 64.334 0.131823 66.7046 0.382063 68.9545C0.601023 70.9341 0.913823 72.8868 1.31599 74.8061C1.42994 75.349 1.55283 75.8897 1.68018 76.4282C2.27897 78.9395 3.02969 81.3905 3.92564 83.7723C4.77467 86.0311 5.75105 88.2274 6.84809 90.35C8.2825 93.125 9.92246 95.7749 11.7456 98.2817C14.2168 101.68 17.023 104.819 20.122 107.643C21.1207 108.555 22.1529 109.431 23.2098 110.273C23.2388 110.224 23.2701 110.177 23.3081 110.13C23.4354 110.003 23.6142 109.974 23.7862 109.916C23.9784 109.927 24.032 110.166 24.204 110.19C24.3001 110.287 24.3113 110.45 24.3202 110.588C24.3202 110.602 24.3202 110.615 24.3224 110.628C24.1549 110.7 24.3738 110.981 24.1191 110.959C24.1191 110.968 24.1191 110.977 24.1191 110.986C24.1995 111.048 24.28 111.109 24.3604 111.171C24.4945 111.149 24.6352 111.138 24.709 111.004C24.7604 110.997 24.7514 111.073 24.7604 111.124C24.8475 111.218 24.9547 111.069 25.0352 111.066L25.0843 111.209L25.2184 111.178C25.243 111.238 25.2184 111.366 25.3256 111.363C25.4664 111.406 25.4597 111.205 25.5759 111.29C25.5736 111.359 25.4575 111.377 25.4507 111.453C25.4843 111.538 25.5491 111.594 25.6183 111.623C25.6384 111.611 25.6585 111.598 25.6742 111.578C25.6831 111.484 25.806 111.424 25.7814 111.319ZM1.3294 50.6959C1.32046 50.6646 1.30035 50.6557 1.28025 50.6512C1.29812 50.6512 1.31376 50.6445 1.3294 50.6177C1.37632 50.6423 1.31376 50.6445 1.3294 50.6959ZM1.37409 50.6557C1.37409 50.6557 1.39419 50.678 1.39196 50.6914C1.37185 50.6825 1.34504 50.6669 1.37409 50.6557ZM1.28248 50.8657L1.28918 50.859L1.34727 50.926L1.34057 50.9327L1.28248 50.8657ZM1.30035 51.0087C1.32717 51.0087 1.3361 50.9908 1.35174 50.9774C1.35621 51.0266 1.34057 51.0266 1.30035 51.0087ZM3.04757 49.9631L3.06097 49.9787L3.02746 49.9564L3.04757 49.9653V49.9631ZM2.82414 49.6592L2.81967 49.7285L2.80179 49.6793L2.82414 49.6592ZM2.85989 51.2254C2.88223 51.4578 3.09002 51.6656 3.06097 51.889C3.02299 51.9069 2.88893 51.8935 2.95373 51.8153C2.82414 51.6477 2.77945 51.4153 2.71466 51.2165C2.76158 51.1472 2.81743 51.1897 2.85765 51.2254H2.85989ZM1.59081 50.7562L1.55283 50.7875L1.53495 50.7384L1.58858 50.7562H1.59081ZM1.57741 51.4489L1.564 51.5382C1.564 51.5114 1.50814 51.4444 1.57741 51.4489ZM1.38973 51.4131L1.4143 51.3528L1.42547 51.3952L1.38973 51.4131ZM1.43218 50.6177C1.46346 50.5775 1.4791 50.6557 1.50814 50.6445C1.42547 50.6378 1.51708 50.716 1.49027 50.7138C1.45229 50.6557 1.4143 50.687 1.43441 50.6177H1.43218ZM1.78966 74.5491L1.81201 74.5201L1.82541 74.5313L1.78966 74.5491ZM1.87233 74.6229L1.87903 74.5916L1.89244 74.5693L1.87233 74.6229ZM2.01533 70.2146C2.13151 70.0917 2.34377 70.1789 2.39962 70.2973C2.40633 70.4224 2.3527 70.5185 2.22982 70.5498C2.1114 70.5654 1.99298 70.5073 1.93489 70.4291C1.88127 70.3353 2.00415 70.2951 2.01309 70.2146H2.01533ZM2.69902 74.7592C2.69455 74.6676 2.7303 74.5693 2.82414 74.5223C2.9716 74.3726 3.03193 74.6653 3.18162 74.5089C3.32238 74.5067 3.39388 74.6363 3.39165 74.7592C3.37154 75.0094 3.13917 75.0586 2.9783 75.1881C2.94255 75.1636 2.91574 75.0921 2.85989 75.1301C2.88223 74.9871 2.80626 74.8798 2.70125 74.7592H2.69902ZM8.4389 90.4304C8.35399 90.6338 8.0479 90.7008 7.92501 90.5243C7.80659 90.3992 7.8982 90.2495 7.91831 90.1445C7.98981 90.0327 8.11492 89.9143 8.25568 89.9456C8.33835 89.93 8.38974 89.9881 8.44113 90.0484C8.49699 90.1512 8.51933 90.3165 8.43666 90.4327L8.4389 90.4304ZM9.05779 92.6603C8.91033 92.7094 8.76063 92.7809 8.6735 92.6245C8.57519 92.3944 8.71595 92.162 8.87458 92.0123C9.03768 92.0793 9.14046 92.2514 9.20749 92.3921C9.20749 92.4905 9.12482 92.6044 9.05556 92.6603H9.05779ZM25.1469 109.589C25.1715 109.522 25.2206 109.478 25.2876 109.48C25.3413 109.509 25.4083 109.558 25.4373 109.632C25.4575 109.723 25.4798 109.806 25.4284 109.882C25.3457 109.882 25.234 109.858 25.1871 109.773C25.1581 109.699 25.1312 109.661 25.1491 109.589H25.1469Z" fill="#0D86E7"/>
<path d="M28.6682 113.834C28.6145 113.669 28.438 113.709 28.3196 113.689C28.2258 113.709 28.1297 113.761 28.0448 113.763C28.2325 113.886 28.4202 114.006 28.6101 114.127C28.552 114.067 28.7196 113.962 28.6704 113.834H28.6682ZM28.5028 113.942V113.899L28.5207 113.888L28.5028 113.942Z" fill="#0D86E7"/>
<path d="M17.995 93.5183C18.5223 94.2489 19.0652 94.9639 19.6282 95.6654C20.9934 97.3702 22.4568 98.9901 24.0164 100.516C24.0409 100.465 24.0722 100.418 24.1057 100.373C24.1616 100.302 24.2286 100.237 24.3158 100.185C24.4454 100.141 24.6308 99.9061 24.8185 100.031C24.9079 99.9955 24.9928 99.9821 25.0732 99.9843C24.919 99.8368 24.7671 99.6871 24.6129 99.5352C24.5392 99.4615 24.4655 99.3922 24.3917 99.3185C23.1048 98.0315 21.8938 96.6865 20.7565 95.2901C20.122 94.5125 19.5143 93.7171 18.9267 92.9083C18.8976 92.8703 18.8686 92.8301 18.8418 92.7921C18.7993 92.8033 18.7546 92.81 18.7032 92.8033C18.5982 92.8815 18.5334 92.7832 18.4441 92.7475C18.281 92.6491 18.3011 92.4458 18.234 92.314C18.348 92.3095 18.3681 92.2358 18.3949 92.1621C18.0575 91.6795 17.7291 91.1924 17.4096 90.6986C17.3716 90.7187 17.3336 90.7411 17.3001 90.7656C17.1504 90.5377 16.8533 90.7187 16.6455 90.5914C16.6924 90.5467 16.7862 90.5757 16.8443 90.5489L16.8287 90.6227C16.8689 90.5713 16.9046 90.6226 16.9471 90.5713V90.5869C16.994 90.5668 17.1214 90.6472 17.0767 90.5377C17.1616 90.5333 17.2197 90.6204 17.28 90.6941C17.2822 90.5936 17.3314 90.6182 17.3582 90.6182C17.2532 90.4573 17.1504 90.2942 17.0476 90.1311C16.8689 90.1579 16.7885 90.3814 16.5985 90.3099C16.6589 90.2093 16.851 90.2719 16.8398 90.1021C16.8845 90.073 16.9292 90.0462 16.9761 90.0194C16.918 89.9278 16.8622 89.8362 16.8063 89.7446C16.7885 89.8071 16.7527 89.8675 16.7036 89.9144C16.4533 90.1289 16.1919 89.9591 15.9238 89.9345C15.9126 89.8786 15.9551 89.7893 15.8679 89.7714C16.0199 89.6597 16.0489 89.4899 16.0623 89.2798C16.1427 89.1905 16.2679 89.1324 16.3952 89.1748C16.422 89.1748 16.4421 89.1793 16.4623 89.186C16.1249 88.6252 15.8009 88.0599 15.4859 87.4857C15.1306 86.8378 14.7865 86.1831 14.4581 85.5195C14.3888 85.3833 14.3218 85.2447 14.2548 85.1084C14.0716 84.7331 13.8951 84.3555 13.7208 83.9757C13.6917 83.9757 13.6515 83.9533 13.6158 83.9421C13.4862 83.9757 13.5733 84.1455 13.5353 84.2214L13.3812 84.1968L13.3454 84.3331C13.2784 84.3264 13.1734 84.2438 13.1242 84.3398C13.0192 84.4471 13.2047 84.5387 13.0684 84.6012C13.008 84.5655 13.046 84.4516 12.979 84.4069C12.8785 84.3957 12.7913 84.4314 12.7288 84.4895C13.2516 85.629 13.8124 86.7462 14.4112 87.841C15.4881 89.8116 16.6857 91.7085 17.995 93.5205V93.5183ZM18.1715 92.171L18.1603 92.1911L18.1424 92.2023L18.1715 92.171ZM17.5794 92.7095L17.5325 92.676C17.5727 92.6626 17.5615 92.6827 17.5794 92.7095ZM16.927 90.2696L16.8801 90.2741L16.8667 90.2339L16.927 90.2696ZM16.8041 90.426L16.7103 90.3992C16.7393 90.4059 16.8175 90.3545 16.8041 90.426ZM15.4613 88.2364V88.261L15.4144 88.2431L15.4613 88.2387V88.2364ZM15.4881 88.3571L15.4211 88.3884L15.4568 88.366L15.4881 88.3571ZM14.4067 87.0277C14.4291 86.8489 14.572 86.7059 14.6927 86.6009C14.7888 86.5764 14.9228 86.6255 14.9943 86.6791C15.0815 86.811 15.1909 86.9405 15.0591 87.0657C14.8603 87.2221 14.5944 87.1439 14.4067 87.0277Z" fill="#0D86E7"/>
<path d="M16.6273 89.4536C16.6095 89.4247 16.5917 89.398 16.5762 89.3713C16.5851 89.4047 16.6006 89.4336 16.6273 89.4536Z" fill="#0D86E7"/>
<path d="M3.95697 47.8448C3.73354 47.9632 3.44755 48.019 3.38276 48.2693C3.42521 48.3073 3.51235 48.3207 3.47883 48.3944C3.43638 48.4279 3.36712 48.4726 3.34924 48.5508C3.40957 48.7228 3.55703 48.7943 3.71343 48.8591C3.79163 48.5195 3.8743 48.1821 3.95697 47.8425V47.8448Z" fill="#0D86E7"/>
<path d="M3.62181 49.2883C3.62852 49.2548 3.63522 49.2213 3.64416 49.1878C3.65756 49.123 3.67097 49.0582 3.68661 48.9956C3.61288 48.9912 3.54138 48.9889 3.47212 48.9889C3.37828 48.9889 3.2889 48.9889 3.21741 48.98C3.40062 49.0023 3.53244 49.1766 3.62405 49.2883H3.62181Z" fill="#0D86E7"/>
<path d="M1.97961 47.4271C1.90587 47.3713 1.81203 47.2774 1.83661 47.1858C1.85002 47.1679 1.86789 47.1635 1.88577 47.1612C1.92375 47.1612 1.96397 47.1858 1.97961 47.2171C2.02653 47.2662 2.0511 47.3199 2.06898 47.3713C2.08685 47.4249 2.10026 47.4785 2.1226 47.5277C2.16282 47.5522 2.20527 47.5701 2.24995 47.5813C2.38401 47.6148 2.52924 47.5902 2.66553 47.5478C2.64319 47.4785 2.72586 47.436 2.78171 47.4316C2.99844 47.3578 3.13697 47.6371 3.36486 47.5344C3.52797 47.4874 3.57935 47.3355 3.74916 47.3087C3.80055 47.3422 3.84747 47.3869 3.84077 47.4472C3.76703 47.6461 3.50115 47.5567 3.49222 47.8181C3.51456 47.8874 3.59946 47.8695 3.65979 47.874C3.73575 47.7488 3.87651 47.7399 3.99493 47.6796C4.20049 46.8551 4.42615 46.0374 4.66745 45.2219C4.70767 45.09 4.74342 44.9582 4.78363 44.8264C4.89982 44.4399 5.0227 44.0556 5.14782 43.6735C5.22155 43.4456 5.29529 43.2199 5.37125 42.9921C5.35114 42.9786 5.3288 42.9742 5.29752 42.9921C5.32657 42.8133 5.23049 42.677 5.09867 42.5251C5.09197 42.4089 5.13889 42.286 5.25507 42.2279C5.41147 42.0693 5.48967 42.3084 5.62596 42.2637C5.82705 41.6962 6.03483 41.1309 6.25379 40.5701C6.16666 40.541 6.08622 40.4941 6.01696 40.4427C6.05494 40.264 6.21358 40.1277 6.3454 40.0316C6.38115 40.0249 6.42137 40.0316 6.46382 40.0428C6.60681 39.6875 6.74757 39.3323 6.89727 38.9815C6.99781 38.7424 7.10506 38.5078 7.20783 38.271C7.1989 38.2531 7.19219 38.233 7.18773 38.2084C7.2056 38.1928 7.22571 38.1883 7.24582 38.1861C7.28827 38.0878 7.33072 37.9873 7.37541 37.8889C7.58766 37.413 7.80439 36.9416 8.02782 36.4724C8.28476 35.9362 8.54841 35.4044 8.82099 34.8771C8.82099 34.7073 8.84333 34.5375 8.86567 34.3632C8.92823 34.3454 8.93494 34.2314 9.0042 34.3074C9.04665 34.3364 9.05335 34.3789 9.06006 34.4213C9.35051 33.8672 9.64991 33.3198 9.95824 32.7769C10.0007 32.7032 10.0387 32.6294 10.0811 32.5557C9.99846 32.5378 9.90909 32.5267 9.81748 32.5177C9.62757 32.4998 9.42871 32.482 9.26785 32.3792C9.19411 32.3948 9.05559 32.33 9.02431 32.4529C8.9908 32.587 8.99526 32.7032 9.04889 32.8126C9.06453 32.9422 8.91706 32.9065 8.93941 33.0294C8.81652 32.9847 8.93717 32.7925 8.80535 32.7367C8.81875 32.6294 8.88131 32.5043 8.82322 32.3881C8.74055 32.2161 8.55064 32.1803 8.44563 32.0485C8.28253 32.0061 8.13283 31.939 7.96749 31.9502C7.91163 32.1669 8.26689 32.082 8.3004 32.3032C8.30934 32.3703 8.26018 32.4306 8.19539 32.4172C8.07027 32.3971 7.89823 32.2183 7.80439 32.4015C7.76194 32.4574 7.76417 32.5959 7.65246 32.5535C7.61001 32.5535 7.57202 32.5535 7.53404 32.5445C6.92855 33.6483 6.35881 34.7766 5.82034 35.9205C5.81141 35.9406 5.80023 35.963 5.7913 35.9831C5.81364 35.9719 5.83822 35.9697 5.86503 35.9764C5.86726 35.9764 5.87173 35.9764 5.87397 35.9764C5.90301 35.9853 5.93206 36.0054 5.96334 36.0255C6.08399 36.106 6.21358 36.2266 6.33423 36.106C6.34317 36.097 6.3521 36.0926 6.35881 36.0814C6.42583 36.0211 6.45265 35.8468 6.58 35.925C6.8079 35.9518 6.96653 36.0814 7.07825 36.2669C7.1207 36.3383 7.15645 36.4165 7.18773 36.5037C7.22794 36.6891 7.15198 36.8656 7.10506 37.0511C7.03356 37.1472 6.91961 37.1561 6.81237 37.1762C6.73863 37.1896 6.66937 37.2075 6.62022 37.2656C6.46829 37.2991 6.30071 37.1941 6.16219 37.1226C6.19347 36.9327 5.82034 36.9662 5.98568 36.7539C5.90301 36.7137 5.80694 36.5573 5.7131 36.6579C5.69969 36.8612 5.49414 37.0444 5.60809 37.2544C5.58574 37.3036 5.52095 37.2544 5.47179 37.2298C5.33774 37.2544 5.41147 37.4331 5.36455 37.5069L5.20815 37.4689L5.15899 37.6052C5.13442 37.6007 5.10314 37.5851 5.07409 37.5717C4.58255 38.7022 4.12229 39.8462 3.70001 41.0102C3.29783 42.1117 2.93141 43.2289 2.5918 44.3594C2.37284 45.0878 2.16505 45.8229 1.9729 46.5624C1.92598 46.7456 1.8813 46.9289 1.83438 47.1121C1.80757 47.2238 1.78075 47.3355 1.75171 47.4472C1.83438 47.4539 1.91258 47.4539 1.9729 47.4293L1.97961 47.4271ZM8.97515 33.8404C8.9975 33.9633 8.91259 33.8583 8.88578 33.8896C8.89695 33.8494 8.93494 33.7868 8.97515 33.8404ZM6.45711 39.5088L6.41243 39.52C6.39902 39.4865 6.41466 39.4574 6.43924 39.4418C6.48393 39.4306 6.45265 39.4753 6.45711 39.5066V39.5088ZM6.49063 39.5066C6.51521 39.4909 6.51074 39.4596 6.53308 39.4529L6.49063 39.5066ZM6.70959 39.3055C6.66937 39.3189 6.67161 39.3814 6.64479 39.4194C6.63586 39.4351 6.62245 39.4462 6.59787 39.4462C6.62022 39.4418 6.63586 39.4328 6.64479 39.4194C6.66714 39.377 6.6515 39.301 6.70959 39.3055ZM6.4303 38.376C6.51297 38.3917 6.55989 38.3917 6.61575 38.4475C6.66043 38.5078 6.67384 38.5749 6.63139 38.6352C6.57553 38.6665 6.49286 38.6978 6.41243 38.6799C6.31859 38.6441 6.23145 38.6173 6.1957 38.5279C6.24039 38.4542 6.32976 38.3693 6.43254 38.376H6.4303ZM5.57681 37.5516C5.78236 37.5538 5.98791 37.661 6.17783 37.7325C6.20241 37.8107 6.13761 37.8264 6.08399 37.8353C5.89407 37.7124 5.60809 37.7437 5.45615 37.5851C5.46509 37.5449 5.5567 37.451 5.57681 37.5493V37.5516ZM4.09324 41.2471C4.18708 41.1711 4.35465 41.1175 4.48647 41.1823C4.7099 41.2337 4.83502 41.5331 4.67639 41.6917C4.56914 41.8347 4.39934 41.7677 4.28762 41.7677C4.16027 41.714 4.01727 41.609 4.02174 41.4593C3.99046 41.3789 4.03962 41.3141 4.09101 41.2493L4.09324 41.2471ZM3.96142 42.2614L3.99046 42.2257L4.00834 42.2391L3.96142 42.2592V42.2614ZM4.06419 42.3553L4.07313 42.3151L4.08877 42.2883L4.06419 42.3553Z" fill="#0D86E7"/>
<path d="M14.0314 37.0601C13.9867 37.145 13.9442 37.2321 13.8995 37.317C13.9353 37.2813 13.9777 37.2544 14.0358 37.2477C14.0805 37.1695 14.0649 37.1114 14.0314 37.0601Z" fill="#0D86E7"/>
<path d="M5.72645 36.135C5.67953 36.2356 5.63261 36.3361 5.58569 36.4366C5.74209 36.5148 5.89179 36.5975 6.06383 36.6154C6.17554 36.3674 5.75773 36.383 5.72645 36.135Z" fill="#0D86E7"/>
<path d="M8.00768 31.8364C8.07694 31.8565 8.17302 31.9637 8.23334 31.8743C8.21547 31.7157 8.35176 31.5437 8.23334 31.3962C8.24451 31.356 8.30037 31.385 8.34282 31.3962C8.44337 31.3605 8.36293 31.2286 8.38751 31.1661L8.51263 31.175L8.53274 31.0633C8.58636 31.0633 8.67797 31.1236 8.71148 31.041C8.78968 30.9471 8.63328 30.8868 8.73606 30.8265C8.78745 30.851 8.7651 30.9449 8.82096 30.9762C8.87682 30.9762 8.92374 30.9605 8.96395 30.9359C9.02205 30.9002 9.06226 30.8488 9.07343 30.7885C9.12482 30.8131 9.13599 30.8689 9.18738 30.9047C9.27452 30.8913 9.38623 30.9091 9.42198 30.8064C9.51135 30.8108 9.44209 30.9002 9.48678 30.9292C9.55827 30.8287 9.70127 30.9963 9.74372 30.8443C9.78394 30.9225 9.66552 30.9382 9.69457 31.0141C9.81298 31.3962 10.233 31.2175 10.3783 31.5236C10.2286 31.6085 10.2375 31.852 10.0521 31.89C9.97832 32.0441 10.1347 32.1045 10.1928 32.1782C10.1593 32.2586 10.0453 32.3056 10.0185 32.3704C10.0856 32.3838 10.1124 32.4307 10.1347 32.4798C10.4743 31.89 10.8273 31.3068 11.1871 30.7282C12.1389 29.1977 13.1622 27.7141 14.2525 26.2752C15.6981 24.3694 17.2643 22.5462 18.9445 20.8102C18.9445 20.7945 18.949 20.7766 18.9601 20.7565C18.9937 20.4571 19.2082 20.2784 19.5031 20.1756C19.5254 20.1712 19.5478 20.1712 19.5701 20.1689C19.5902 20.1488 19.6081 20.1309 19.626 20.1108C19.7265 20.0103 19.8293 19.9142 19.9298 19.8137C19.9499 19.7936 19.9723 19.7735 19.9924 19.7533C21.3084 18.4597 22.6758 17.2308 24.0901 16.0735C24.414 15.8098 24.738 15.5462 25.0664 15.2892C25.053 15.2781 25.0419 15.2647 25.0307 15.2513C24.9257 15.1552 24.8095 15.0703 24.6933 14.9965C24.5414 14.9965 24.4207 15.2647 24.2599 15.1217C24.2889 14.9653 24.5302 15.0412 24.6241 14.896C24.6285 14.7776 24.7805 14.6927 24.7425 14.5609C24.7112 14.5676 24.6352 14.5966 24.6442 14.5341C24.6576 14.4335 24.8408 14.3419 24.7045 14.2659C24.6576 14.2458 24.5883 14.2257 24.5526 14.2458C24.5637 14.2034 24.5972 14.1386 24.6129 14.0827C24.4073 13.9643 24.452 14.2771 24.2934 14.2838C24.5347 13.8347 24.4654 13.2873 24.7067 12.8606C24.8408 12.7332 24.9771 12.5858 25.1312 12.4696C25.2117 12.4092 25.2988 12.3601 25.3904 12.3243C25.4753 12.2931 25.5692 12.2752 25.6675 12.2774C25.8015 12.3087 26.0853 12.2082 26.1769 12.4159C26.5925 12.4897 26.6863 12.8695 26.9298 13.1197C26.798 13.2181 26.9879 13.2873 27.0058 13.4057C27.055 13.4728 27.1778 13.4862 27.2047 13.5755C27.1399 13.6694 27.0259 13.4638 26.9879 13.6269C26.9678 13.7074 26.9857 13.7722 27.0192 13.8258C27.0974 13.7699 27.1734 13.7118 27.2493 13.6582C27.3789 13.5666 27.5085 13.4795 27.6381 13.3879C30.1941 11.6004 32.8887 10.0186 35.7083 8.65118C35.7486 8.31827 35.7218 7.97642 35.8513 7.67479C35.9608 7.54521 36.0703 7.39327 36.1999 7.27262C36.2669 7.21006 36.3407 7.15421 36.4233 7.11399C36.4993 7.07601 36.582 7.04919 36.6736 7.04249C36.7987 7.0559 37.0489 6.93525 37.1562 7.11622C37.5271 7.13857 37.6589 7.4469 37.889 7.65245C37.8979 7.64798 37.9069 7.64575 37.9158 7.64128C38.1102 7.55638 38.3024 7.46924 38.4967 7.38657C41.5555 6.09292 44.6924 5.06962 47.8941 4.31219C48.8973 4.07536 49.905 3.8631 50.9216 3.67989C52.4141 3.40954 53.9178 3.19505 55.4326 3.03865C56.6749 2.9113 57.9261 2.82416 59.1817 2.77501C59.9883 2.74373 60.7971 2.72138 61.6082 2.72138C65.5204 2.72138 69.3768 3.09898 73.1505 3.84076C73.9973 4.00833 74.8419 4.19378 75.6797 4.39933C75.7423 4.21835 75.9143 4.06419 75.9858 3.88545C76.2204 4.00163 76.3768 3.70894 76.6092 3.71117C76.5913 3.76926 76.5019 3.79384 76.4662 3.84299L76.4438 3.77597C76.4349 3.83853 76.3813 3.81171 76.3723 3.87427L76.3679 3.86087C76.3366 3.90109 76.1936 3.89662 76.283 3.96365C76.2159 4.00833 76.1266 3.96365 76.0394 3.93237C76.1154 4.07089 75.9233 3.98599 76.0439 4.10217C75.9724 4.13345 76.035 4.00833 75.9545 4.05749C75.8406 4.13122 75.787 4.27198 75.7579 4.41497C75.816 4.42838 75.8741 4.44178 75.9322 4.45742C75.9389 4.45742 75.9456 4.45519 75.9523 4.44849C75.9478 4.45295 75.9478 4.45742 75.9434 4.45966C75.9635 4.46413 75.9836 4.46859 76.0037 4.4753C76.0037 4.47083 76.0014 4.46636 76.0014 4.46189C76.1355 4.43955 76.0193 4.28985 76.1847 4.29432C76.064 4.33454 76.1042 4.38816 76.0372 4.47977C76.1065 4.43955 76.1467 4.50211 76.1824 4.51775C76.1847 4.51775 76.1869 4.51775 76.1891 4.51775C76.2003 4.51998 76.2092 4.51998 76.2204 4.51328L76.1713 4.43285C76.2025 4.46413 76.2316 4.44849 76.2606 4.41944C76.2919 4.38593 76.3254 4.33677 76.3634 4.31666L76.3679 4.33007C76.4126 4.33007 76.3902 4.28538 76.3992 4.26751L76.426 4.3256C76.6539 4.2474 76.5645 3.95694 76.7835 3.91896C76.7835 4.03067 76.5958 4.07313 76.6851 4.20718C76.6181 4.34347 76.5377 4.47753 76.4394 4.58478C77.6034 4.88417 78.7563 5.22155 79.9025 5.59467C79.9919 5.56563 80.088 5.55222 80.1773 5.55446C80.1974 5.59914 80.2041 5.64606 80.2086 5.69298C81.1649 6.00802 82.1122 6.34763 83.0529 6.71405C83.1221 6.67383 83.1869 6.62915 83.178 6.53531C83.2763 6.49509 83.245 6.62468 83.3076 6.63362C83.3344 6.49062 83.5734 6.59563 83.5399 6.41242C83.6204 6.47498 83.5042 6.55095 83.5712 6.61798C83.8907 6.96653 84.2482 6.56212 84.561 6.81683C84.4672 6.95089 84.532 7.14303 84.4672 7.28379C84.5498 7.31954 84.6347 7.35082 84.7174 7.38657C86.3373 8.0725 87.9169 8.82769 89.4586 9.64767C91.0494 10.4922 92.5955 11.4083 94.0992 12.3914C94.6734 12.769 95.2431 13.1533 95.8062 13.5487C95.9313 13.5353 96.0609 13.542 96.1815 13.5398C96.2284 13.5979 96.1793 13.6336 96.1368 13.6604C96.081 13.6493 96.0206 13.6515 95.9626 13.656C96.4943 14.0336 97.0171 14.4223 97.5355 14.8178C97.6673 14.5877 97.7813 14.4916 97.96 14.3173C97.9086 14.0649 97.7656 13.8258 97.6115 13.6269C97.4819 13.5822 97.2987 13.7722 97.2048 13.6024C97.2785 13.4772 97.4595 13.6158 97.5846 13.5197C97.6249 13.4191 97.779 13.3946 97.7857 13.2717C97.7567 13.2672 97.683 13.2717 97.712 13.2181C97.7545 13.1354 97.9377 13.1153 97.8461 13.008C97.8125 12.9768 97.7589 12.9388 97.7232 12.9455C97.7455 12.9142 97.7947 12.8673 97.8237 12.8248C97.6852 12.6617 97.6293 12.941 97.4908 12.8986C97.6718 12.7332 97.788 12.5187 97.9064 12.3109C97.6986 12.159 97.493 12.0048 97.283 11.8574C92.4123 8.39423 87.0187 5.62149 81.2409 3.67989C78.944 2.90906 76.5846 2.26782 74.176 1.76958C70.1186 0.929486 65.9159 0.484863 61.6104 0.484863C61.3468 0.484863 61.0831 0.491566 60.8195 0.4938C59.9727 0.504972 59.1304 0.529549 58.2925 0.574235C58.297 0.60328 58.297 0.632326 58.2925 0.663606C58.2635 0.647966 58.2478 0.614452 58.2322 0.578703C58.1897 0.580938 58.1473 0.585406 58.1048 0.58764L58.1115 0.672543C58.1071 0.645732 58.0423 0.598812 58.1026 0.58764C58.04 0.592109 57.9797 0.596578 57.9171 0.598812C57.9953 0.643498 58.0713 0.685949 58.0713 0.795429C57.9663 0.777555 57.9574 0.596578 57.8188 0.661372C57.7965 0.645732 57.7742 0.627858 57.7518 0.609983C55.064 0.77532 52.4208 1.11493 49.838 1.61541C40.6685 3.38943 32.2229 7.19666 24.9905 12.5522C21.4067 15.2066 18.1201 18.2385 15.1909 21.5922C15.2736 21.5944 15.3741 21.6435 15.4233 21.6704C15.8321 21.6301 16.1941 21.7329 16.5739 21.8491C16.5829 21.9273 16.7169 21.9563 16.6141 22.0256C16.5494 22.0971 16.4555 22.0547 16.384 22.0725C16.0288 22.001 15.669 21.8603 15.3138 21.8491C15.2289 21.8312 15.0904 21.8536 15.068 21.7307C14.6793 22.1775 14.2994 22.6311 13.9241 23.0891C13.9196 23.3349 13.8906 23.5762 13.9665 23.8242C13.866 23.8331 13.8973 23.5941 13.7386 23.5405C13.6649 23.5114 13.6046 23.5203 13.5509 23.5494C13.4571 23.6656 13.3633 23.7795 13.2717 23.8957C13.2292 24.0097 13.189 24.1169 13.075 24.1437C13.075 24.1437 13.0728 24.1482 13.0706 24.1504C11.8819 25.6675 10.7626 27.2427 9.71914 28.8715C9.3773 29.4055 9.04662 29.9439 8.72042 30.4891C8.47688 30.8957 8.23558 31.3068 8.00098 31.7202C8.02779 31.7425 8.04119 31.7738 8.00768 31.8386V31.8364ZM75.8451 4.38146C75.7959 4.36805 75.8629 4.32337 75.8406 4.30102C75.8674 4.38146 75.9031 4.26527 75.9121 4.29209C75.8719 4.35018 75.9165 4.37252 75.8451 4.38146ZM75.9054 4.42167C75.9054 4.42167 75.9188 4.39486 75.9322 4.39039C75.9322 4.41274 75.9277 4.44402 75.9054 4.42167ZM75.9165 4.23623L75.9121 4.17814L75.9568 4.20048L75.9165 4.23623ZM76.1377 4.42391L76.1288 4.41944L76.169 4.33901L76.178 4.34347L76.1377 4.42391ZM76.2137 4.31666C76.2584 4.29432 76.2629 4.30773 76.2629 4.35241C76.2539 4.3256 76.2316 4.3256 76.2137 4.31666ZM86.0446 6.0527C86.0893 6.11973 86.1161 6.20017 86.1272 6.29401C86.0468 6.38785 86.0379 6.60904 85.8547 6.64032C85.6178 6.71405 85.2581 6.62468 85.2559 6.30965C85.238 6.16665 85.372 6.0527 85.4569 5.97227C85.5642 5.95216 85.6781 5.92088 85.7831 5.92088C85.8859 5.92088 85.9798 5.95216 86.0468 6.05047L86.0446 6.0527ZM80.5415 3.88098C80.546 3.71564 80.7113 3.67319 80.7962 3.6151C80.9213 3.58829 81.0889 3.59052 81.1649 3.70894C81.2319 3.75362 81.2274 3.82959 81.223 3.90555C81.1917 4.0128 81.0934 4.14462 80.9593 4.16697C80.7627 4.24963 80.5058 4.08877 80.5393 3.88098H80.5415ZM78.7675 5.04281L78.7318 5.06962L78.7183 5.05174L78.7675 5.04281ZM78.6915 4.92662L78.6737 4.96237L78.6513 4.98471L78.6915 4.92662ZM76.8974 4.29432C77.0002 3.99716 77.2951 4.01057 77.5297 3.90109C77.5655 3.9413 77.5744 4.03514 77.6571 4.00833C77.5856 4.17367 77.6459 4.32783 77.7353 4.50658C77.7129 4.61829 77.6369 4.72777 77.5118 4.75458C77.2884 4.89087 77.304 4.51775 77.0761 4.66298C76.9063 4.62276 76.8594 4.44402 76.8996 4.29432H76.8974ZM76.5422 4.10887L76.5779 4.08206L76.6092 4.10887H76.5422ZM76.5667 3.91896L76.6561 3.89662C76.6293 3.90555 76.5891 3.98599 76.5667 3.91896ZM74.8754 2.42199C74.8486 2.45327 74.8486 2.43093 74.8217 2.41752L74.8754 2.42199ZM74.605 3.10568L74.5961 3.1459V3.12355L74.605 3.10568ZM74.4665 3.42965L74.4263 3.4654L74.3995 3.45199L74.4665 3.42965ZM57.3385 0.940657C57.401 0.788726 57.5753 0.773086 57.7071 0.833412C57.9663 0.974172 57.9104 1.24675 57.9752 1.47912C57.9328 1.50593 57.8434 1.50146 57.8568 1.57966C57.7138 1.48806 57.5619 1.51934 57.3832 1.57519C57.2826 1.53721 57.1932 1.45007 57.1865 1.32942C57.0949 1.10153 57.439 1.17302 57.3385 0.938423V0.940657ZM56.8469 2.40188L56.8156 2.37954L56.7978 2.35496L56.8469 2.40188ZM56.7263 2.40635V2.45327L56.7084 2.41529L56.7263 2.40635ZM22.5931 15.6959C22.7517 15.5618 22.9774 15.506 23.1718 15.4322C23.241 15.4747 23.2031 15.5305 23.1695 15.573C22.9416 15.6065 22.745 15.821 22.5261 15.8031C22.506 15.7674 22.5149 15.6333 22.5953 15.6959H22.5931ZM21.534 15.7696C21.6435 15.8836 21.6726 16.0199 21.5832 16.1517C21.4827 16.2656 21.3196 16.3103 21.2011 16.2835C21.0715 16.2388 21.1564 16.0981 21.0984 16.0131C21.1073 15.7987 21.3821 15.7026 21.5363 15.7696H21.534ZM17.1392 21.9563C17.1861 21.9765 17.2532 22.0345 17.1817 22.0725C17.0297 22.0725 17.1727 21.9943 17.1392 21.9563Z" fill="#0D86E7"/>
<path d="M12.398 41.1219C12.2573 41.1286 12.2707 40.9744 12.1969 40.9007C11.9713 41.4235 11.7545 41.9508 11.5468 42.4826C11.5825 42.496 11.6183 42.5116 11.654 42.5272H12.1612C12.3265 42.3843 12.4695 42.2077 12.5857 42.0312C12.5857 41.8726 12.3064 41.7408 12.4606 41.5732C12.6259 41.6067 12.5432 41.8592 12.6952 41.9597C12.7778 41.9642 12.8449 42.0335 12.9208 42.0715C12.9834 41.9151 13.046 41.7609 13.1108 41.6067C13.3275 41.0973 13.5531 40.5924 13.7833 40.0896C13.8056 40.0427 13.828 39.9958 13.8481 39.9489C13.8749 39.8908 13.9039 39.8305 13.9307 39.7724C13.8928 39.8148 13.857 39.8573 13.8213 39.8997C13.79 39.9355 13.7565 39.9712 13.7229 40.0003C13.676 40.0405 13.6246 40.074 13.5643 40.0919C13.5286 40.0628 13.4839 39.9243 13.5911 39.9534C13.6045 39.9265 13.6246 39.9042 13.6425 39.8796C13.6738 39.8349 13.7051 39.7947 13.7431 39.7545C13.8481 39.645 13.971 39.5467 14.0782 39.4484C14.0782 39.4484 14.0804 39.4484 14.0827 39.4484C14.2458 39.1088 14.4111 38.7714 14.5809 38.434C14.5854 38.405 14.5921 38.3759 14.5697 38.3581C14.4804 38.4631 14.3374 38.2642 14.2771 38.4273C14.2413 38.338 14.3709 38.3313 14.3485 38.2441C14.2636 37.8576 13.8704 37.9447 13.6939 37.7146C13.5219 38.052 13.3543 38.3894 13.189 38.7312C13.1465 38.8206 13.1018 38.9122 13.0594 39.0015C12.8225 39.4976 12.5946 39.998 12.3734 40.503C12.4271 40.4762 12.4829 40.4583 12.5343 40.4605C12.6952 40.532 12.7801 40.6616 12.7399 40.8337C12.684 40.9923 12.5343 41.104 12.4003 41.1241L12.398 41.1219Z" fill="#0D86E7"/>
<path d="M25.9619 21.8645C25.9263 21.8957 25.8885 21.929 25.8529 21.9602C25.8818 21.9757 25.913 21.9891 25.9552 22.0158C26.022 21.9624 25.9663 21.9112 25.9619 21.8623V21.8645Z" fill="#0D86E7"/>
</g>
</svg>
