<svg width="124" height="124" viewBox="0 0 124 124" fill="none" xmlns="http://www.w3.org/2000/svg">
<path d="M77.3723 11.8326C77.9867 12.0247 78.5989 12.2303 79.2066 12.447C79.9641 12.7151 80.717 13.0011 81.4633 13.3028C81.7001 13.3988 81.937 13.4927 82.1716 13.5932C82.9558 13.9239 83.7288 14.2747 84.493 14.6411C85.1856 14.974 85.8715 15.3248 86.5463 15.6867C87.7618 16.3391 88.9504 17.0362 90.11 17.7803C90.1703 17.8115 90.2306 17.8406 90.2954 17.7937C90.3915 17.8629 90.4786 17.9881 90.6194 17.9925C90.8272 18.0037 90.959 17.8428 91.1399 17.8115C91.2673 17.6775 91.4081 17.5702 91.484 17.4071C91.3075 17.2396 91.2025 17.6216 90.9724 17.539C90.9031 17.5121 90.8696 17.4339 90.9165 17.3803C90.9791 17.3021 91.1355 17.2418 91.1645 17.1413C89.8307 16.2632 88.4544 15.4454 87.0401 14.6858C86.5083 14.3998 85.9721 14.1227 85.4292 13.8546C83.9501 13.1262 82.4352 12.4627 80.8824 11.8683C80.2523 11.627 79.6178 11.3991 78.9787 11.1802C77.2181 10.5814 75.4151 10.0742 73.5785 9.66087C71.9631 9.29668 70.3187 9.00399 68.6519 8.78726C68.5 8.76715 68.3458 8.74705 68.1938 8.72917C68.1358 8.83642 68.0062 8.94813 67.8609 8.94366C67.6688 8.98165 67.4699 8.82301 67.4632 8.6465C66.4221 8.53479 65.3742 8.45435 64.3152 8.40297C64.3241 8.46776 64.3397 8.53702 64.3598 8.60852C64.3129 8.72247 64.2079 8.82078 64.0694 8.82301C63.8013 8.91909 63.8996 8.52585 63.627 8.63086C63.513 8.57947 63.4706 8.47446 63.4773 8.36722C63.3365 8.36275 63.1958 8.35828 63.055 8.35381C62.8964 8.4901 62.7131 8.57947 62.4964 8.56383C62.3534 8.58171 62.2797 8.43425 62.197 8.34041C62.025 8.34041 61.8552 8.33594 61.6832 8.33594C60.604 8.33594 59.5315 8.36722 58.468 8.42978C57.9429 8.46106 57.4201 8.50127 56.8973 8.54819C56.2449 8.60629 55.5969 8.67555 54.9535 8.75598C54.9401 8.75598 54.9244 8.76045 54.911 8.76045C54.911 8.78279 54.9088 8.8029 54.9043 8.82525C54.8887 8.92132 54.8462 9.00175 54.7435 9.04867C54.6742 9.07995 54.596 9.09336 54.5066 9.08666C54.4418 9.01069 54.2832 8.96824 54.2385 8.84759C52.6857 9.06208 51.1529 9.34583 49.6448 9.68991C49.7833 9.64299 49.9398 9.69438 50.0582 9.74354C50.1118 9.80386 50.1252 9.92228 50.1118 9.99378C50.047 10.1055 49.9933 10.2328 49.8526 10.1837C49.6649 10.0943 49.6247 9.87313 49.6403 9.69215C49.361 9.75694 49.084 9.82174 48.8092 9.88877C48.8159 9.98261 48.8092 10.0697 48.7354 10.1256C48.7511 10.0452 48.7467 9.97367 48.7288 9.90887C48.6551 9.92675 48.5813 9.94462 48.5098 9.9625C48.0518 10.0787 47.5937 10.1993 47.1402 10.3267C45.1584 10.883 43.2235 11.5488 41.34 12.3197C40.2251 12.7755 39.1303 13.267 38.0533 13.7943C38.0377 13.877 38.0176 13.9596 38.0131 14.0423C37.964 14.0535 37.8813 14.02 37.8679 14.1004C37.8165 14.0356 37.754 13.9999 37.6825 13.9775C37.3294 14.154 36.9786 14.335 36.6301 14.5182L36.648 14.554L36.6256 14.5227C36.2659 14.7104 35.9107 14.9047 35.5554 15.1014C35.58 15.2421 35.5331 15.394 35.466 15.5147C35.3387 15.5035 35.227 15.4231 35.1376 15.336C34.4427 15.7314 33.759 16.1425 33.0865 16.567C33.0821 16.6274 33.015 16.7234 33.0999 16.7637C33.2005 16.8553 33.2764 16.6855 33.3368 16.8039C33.3077 16.8597 33.2049 16.8285 33.167 16.891C33.1558 17.0385 33.2519 17.1547 33.3613 17.1815C33.3323 17.2373 33.2697 17.2463 33.2273 17.3021C33.2385 17.3982 33.2117 17.5233 33.3256 17.568C33.3167 17.6685 33.2206 17.5836 33.1871 17.6328C33.2496 17.682 33.2116 17.7535 33.2005 17.816C35.7297 16.1872 38.3974 14.7751 41.1948 13.591C41.4651 13.477 41.7355 13.3675 42.008 13.2581C43.429 12.6839 44.8701 12.1744 46.3269 11.7298C47.4418 11.3902 48.5679 11.0886 49.7007 10.8227C51.1395 10.4876 52.5918 10.215 54.0575 10.0027C54.7725 9.89994 55.4897 9.81057 56.2092 9.73683C56.6538 9.68991 57.1006 9.6497 57.5497 9.61618C57.5497 9.61618 57.552 9.61618 57.5542 9.61618C57.5609 9.60501 57.5653 9.59161 57.5765 9.58267C57.5989 9.58714 57.6078 9.59831 57.6167 9.61171C57.724 9.60278 57.8313 9.59607 57.9385 9.58937C57.9988 9.44861 58.0122 9.2654 58.1396 9.1805C58.1842 9.31232 58.0748 9.45755 58.0748 9.58267C58.258 9.5715 58.4389 9.56033 58.6222 9.54915C58.6356 9.53798 58.6512 9.53128 58.6624 9.51787C58.5663 9.49777 58.4367 9.45308 58.4166 9.35477C58.43 9.28327 58.5238 9.28774 58.5685 9.32126C58.6981 9.37041 58.754 9.46872 58.83 9.53575C58.9059 9.53128 58.9819 9.52681 59.0579 9.52234C59.1718 9.48213 59.2746 9.40616 59.3662 9.32126C59.3126 9.2654 59.3729 9.18943 59.4243 9.15815C59.5963 8.98835 59.8555 9.18943 60.0231 8.99058C60.1549 8.87217 60.1348 8.70459 60.2845 8.60182C60.3471 8.60852 60.4118 8.6331 60.4364 8.69119C60.4565 8.91462 60.1661 8.95037 60.2756 9.20061C60.3292 9.25646 60.4007 9.20061 60.4588 9.17826C60.4744 8.99729 60.6532 8.92802 60.7269 8.78056C60.7202 8.85876 60.7939 8.81854 60.8252 8.82971C60.7447 9.07102 60.4744 9.24753 60.3917 9.47766C60.823 9.46649 61.2519 9.46202 61.6854 9.46202C64.6503 9.46202 67.575 9.70779 70.4527 10.1882C72.7965 10.5814 75.1067 11.1288 77.3745 11.8371L77.3723 11.8326ZM49.0192 10.9411L49.0483 10.959L49.0662 10.9791L49.0192 10.9411ZM49.1287 10.9232L49.1243 10.8808L49.1466 10.9121L49.1309 10.9232H49.1287ZM65.2647 9.29668L65.2357 9.31455L65.2915 9.26093L65.2647 9.29445V9.29668ZM65.3027 9.42403L65.2915 9.40169H65.3451L65.3005 9.42403H65.3027Z" fill="#E67C0A"/>
<path d="M26.5937 101.457C26.5937 101.423 26.6004 101.387 26.6094 101.349C26.5356 101.282 26.4597 101.218 26.3859 101.153C26.4395 101.278 26.5066 101.401 26.5937 101.457Z" fill="#E67C0A"/>
<path d="M39.1393 110.673C39.07 110.412 38.822 110.112 39.0655 109.867C39.0655 109.759 39.1415 109.741 39.2152 109.715C38.2388 109.252 37.2759 108.763 36.333 108.244C34.7154 107.355 33.1469 106.381 31.6343 105.326C29.9251 104.136 28.2873 102.842 26.7211 101.448C26.6809 101.517 26.6273 101.568 26.5938 101.629C26.6049 101.821 26.7367 101.962 26.882 102.078C26.9244 102.02 27.0049 102.064 27.0406 102.107C27.2216 102.241 27.0763 102.509 27.2841 102.636C27.4115 102.741 27.5657 102.697 27.6841 102.82C27.6863 102.88 27.6751 102.942 27.6238 102.972C27.4204 103.023 27.3445 102.762 27.13 102.898C27.0875 102.956 27.1479 103.012 27.1791 103.063C27.3489 103.052 27.4383 103.206 27.588 103.251C27.5143 103.258 27.5634 103.318 27.5567 103.349C27.3087 103.309 27.0964 103.061 26.8574 103.041C28.2136 104.196 29.6279 105.286 31.0981 106.305C32.6643 107.391 34.2886 108.394 35.9688 109.31C37.0926 109.925 38.2433 110.499 39.4141 111.033C39.2912 110.939 39.1839 110.832 39.1415 110.669L39.1393 110.673Z" fill="#E67C0A"/>
<path d="M69.5323 115.083C69.7334 114.701 69.3937 114.485 69.349 114.185C68.8463 114.259 68.3414 114.324 67.8365 114.382C65.8055 114.617 63.7544 114.739 61.6833 114.739C60.1595 114.739 58.6468 114.672 57.1454 114.545C56.1646 114.462 55.1881 114.351 54.2162 114.214C53.0164 114.045 51.8255 113.832 50.6436 113.58C50.3554 113.519 50.0694 113.457 49.7834 113.39C49.7008 113.631 49.7052 113.926 49.6695 114.116C49.7164 113.893 49.9845 113.763 50.0873 113.676C49.9934 113.986 49.8885 114.121 49.7254 114.366C49.7522 114.427 49.7834 114.482 49.8192 114.538C50.3398 114.657 50.8626 114.766 51.3899 114.869C51.4145 114.833 51.4391 114.797 51.4592 114.76C51.5061 114.699 51.5418 114.572 51.6602 114.632C51.7853 114.724 51.6222 114.851 51.5552 114.9C52.4534 115.072 53.3605 115.222 54.2743 115.347C54.4888 115.376 54.7033 115.403 54.9201 115.43C57.1365 115.709 59.3931 115.854 61.6855 115.854C63.7209 115.854 65.7295 115.738 67.7069 115.519C68.3168 115.452 68.9223 115.372 69.5233 115.285C69.4764 115.215 69.4429 115.13 69.3312 115.193C69.367 115.086 69.4898 115.177 69.5345 115.083H69.5323ZM50.5274 113.752C50.5542 113.716 50.5141 113.662 50.5185 113.613C50.5185 113.595 50.523 113.578 50.5431 113.564C50.5252 113.58 50.5185 113.598 50.5185 113.613C50.523 113.665 50.5833 113.721 50.5274 113.752ZM52.5338 114.614C52.3528 114.733 52.1138 114.76 51.906 114.809C51.839 114.755 51.8859 114.704 51.9283 114.663C52.1652 114.659 52.3953 114.465 52.621 114.514C52.6366 114.554 52.612 114.688 52.536 114.617L52.5338 114.614ZM53.6309 114.679C53.5326 114.547 53.5214 114.404 53.6309 114.281C53.7493 114.176 53.9213 114.154 54.042 114.196C54.1693 114.259 54.0643 114.393 54.1112 114.487C54.0732 114.706 53.7783 114.768 53.6286 114.679H53.6309Z" fill="#E67C0A"/>
<path d="M71.6101 114.612C71.5699 114.726 71.5833 114.835 71.6034 114.94C72.7362 114.728 73.8578 114.482 74.966 114.201C75.7525 114 76.5345 113.783 77.3076 113.548C77.4483 113.506 77.5913 113.461 77.7321 113.417C77.9041 113.363 78.0784 113.307 78.2504 113.251C79.3653 112.892 80.4624 112.494 81.5438 112.065C81.4834 112.031 81.3918 112.052 81.3382 111.973C81.1081 111.971 80.8824 111.924 80.65 111.991C80.6456 111.909 80.8422 111.938 80.8891 111.808C80.9584 111.647 80.7975 111.56 80.7193 111.466C80.6165 111.408 80.4825 111.386 80.4266 111.301C80.2568 111.366 80.0892 111.43 79.9194 111.493C79.6267 111.6 79.3318 111.705 79.0369 111.808C78.6504 111.942 78.2638 112.074 77.8751 112.199C76.4362 112.664 74.9817 113.07 73.5115 113.408C72.7005 113.593 71.8827 113.761 71.0627 113.908C71.1186 114 71.1655 114.098 71.1901 114.205C71.2727 114.259 71.342 114.447 71.485 114.362C71.6414 114.268 71.7442 114.156 71.7956 114.007C71.9006 113.872 72.0034 114.042 72.0972 113.908C72.1687 114.062 71.8827 114.129 71.9497 114.304C71.838 114.391 71.6638 114.449 71.6124 114.61L71.6101 114.612Z" fill="#E67C0A"/>
<path d="M104.868 93.4846C104.939 93.3997 105.017 93.3238 105.109 93.2634C105.194 93.2076 105.288 93.1651 105.395 93.1428C105.453 93.1428 105.529 93.116 105.609 93.0936C105.728 92.926 105.844 92.7562 105.96 92.5887C108.293 89.2082 110.25 85.5484 111.767 81.6675H110.565C110.442 81.9758 110.317 82.2841 110.187 82.5902C107.991 87.785 105.004 92.5395 101.295 96.769C100.551 97.618 99.7778 98.447 98.9757 99.2513C98.9511 99.2759 98.9288 99.3005 98.9042 99.3228C97.0028 101.224 94.9741 102.965 92.8359 104.538C91.1311 105.791 89.3549 106.939 87.5116 107.978C86.2894 108.667 85.036 109.308 83.7558 109.9C83.2307 110.141 82.7056 110.378 82.1716 110.604C81.6064 110.843 81.0366 111.068 80.4669 111.285C80.7819 111.448 81.1148 111.14 81.4298 111.312C81.6175 111.415 81.9236 111.435 81.9326 111.707C82.0063 111.779 81.946 111.842 81.9259 111.913C82.719 111.589 83.5033 111.247 84.2763 110.89C86.3654 109.92 88.3807 108.821 90.3156 107.601C90.9814 107.181 91.6361 106.75 92.2818 106.303C93.5821 105.4 94.84 104.442 96.0532 103.432C96.0443 103.38 95.9907 103.331 96.0756 103.313C96.1181 103.293 96.1538 103.304 96.1896 103.32C97.2129 102.462 98.2049 101.566 99.1634 100.634C99.9454 99.8747 100.703 99.0882 101.438 98.2816C101.442 98.1297 101.576 98.0135 101.713 97.9755C102.671 96.9075 103.59 95.8016 104.461 94.6576C104.45 94.4387 104.452 94.2219 104.512 94.0141C104.624 93.8421 104.731 93.6477 104.868 93.4824V93.4846ZM90.8071 106.586C90.7356 106.75 90.4944 106.738 90.3961 106.642C90.3447 106.522 90.3648 106.408 90.4742 106.334C90.5859 106.276 90.7245 106.292 90.8094 106.35C90.8965 106.423 90.787 106.506 90.8094 106.589L90.8071 106.586ZM95.6533 103.208C95.6243 103.179 95.5907 103.114 95.6578 103.105C95.7739 103.15 95.6399 103.168 95.6533 103.208Z" fill="#E67C0A"/>
<path d="M13.2503 82.7526C13.228 82.7014 13.2058 82.6525 13.1835 82.6013C13.1858 82.6213 13.1924 82.6391 13.1991 82.6591C13.2124 82.6947 13.2303 82.7237 13.248 82.7526H13.2503Z" fill="#E67C0A"/>
<path d="M11.8832 82.3691C12.1468 82.4227 12.4306 82.454 12.6495 82.6216C12.7434 82.6104 12.9065 82.7042 12.9601 82.5568C13.016 82.3937 13.0249 82.2507 12.9691 82.1099C12.9691 82.0987 12.969 82.0898 12.9735 82.0786C12.9176 81.9401 12.8596 81.8038 12.8059 81.6653H11.6039C11.6955 81.8999 11.7916 82.1345 11.8854 82.3691H11.8832Z" fill="#E67C0A"/>
<path d="M26.6876 22.4567C26.8127 22.4231 26.911 22.4477 27.0026 22.4969C27.3601 22.1818 27.7221 21.8735 28.0885 21.5696C28.3812 21.3261 28.6739 21.0893 28.971 20.8524C29.333 20.5642 29.6994 20.2805 30.0703 20.0012C30.2557 19.8627 30.4412 19.7264 30.6266 19.5901C31.1718 19.1924 31.7192 18.8014 32.2778 18.4238C32.1906 18.3724 32.108 18.321 32.0901 18.2115C31.9225 18.1221 31.8466 18.2919 31.7617 18.3523C31.6745 18.3098 31.6276 18.1802 31.5583 18.149C31.5248 18.2897 31.364 18.2651 31.2902 18.3545C31.2791 18.3791 31.2701 18.4014 31.2545 18.4238C31.2612 18.3925 31.2746 18.3724 31.2902 18.3545C31.3863 18.1512 31.3908 17.8898 31.4466 17.6462C30.9863 17.9613 30.5283 18.2808 30.0792 18.6092C29.648 18.922 29.2213 19.2438 28.8012 19.57C28.341 19.9274 27.8874 20.2916 27.4383 20.6625C27.1099 20.9351 26.7836 21.2099 26.4619 21.4892C26.4843 21.4892 26.5066 21.4847 26.5289 21.4803C26.5535 21.6657 26.73 21.7015 26.873 21.7797C26.9289 21.8109 26.9825 21.8467 27.0183 21.9003C26.9602 21.9182 26.8909 21.8556 26.8306 21.8534L26.873 21.7975C26.8552 21.8065 26.8417 21.8042 26.8306 21.802C26.806 21.7953 26.7904 21.7752 26.7524 21.7931L26.7613 21.7819C26.7099 21.7774 26.6339 21.6568 26.6295 21.7685C26.5557 21.7372 26.5423 21.6389 26.52 21.5518C26.4485 21.6925 26.4105 21.4847 26.3815 21.6501C26.3189 21.6121 26.4329 21.592 26.3815 21.5585C26.2787 21.6478 26.1804 21.7372 26.0776 21.8266C26.1603 21.8869 26.2161 21.7417 26.2988 21.8713C26.1983 21.7931 26.1759 21.8579 26.0642 21.8512C26.1625 21.8981 26.0732 22.0009 26.1379 22.0232L26.1759 21.9383C26.167 21.983 26.196 21.9964 26.2385 22.0031C26.2832 22.012 26.3413 22.0098 26.3815 22.0321L26.3726 22.0433C26.3726 22.0433 26.3792 22.0478 26.3815 22.05C26.4038 22.0679 26.4239 22.0366 26.4418 22.0344L26.4083 22.0902C26.5982 22.2377 26.7904 22.0009 26.9423 22.1617C26.8484 22.2243 26.7099 22.0902 26.6496 22.2399C26.4552 22.2645 26.2564 22.2712 26.0799 22.2176C25.9815 22.1863 25.8922 22.1349 25.814 22.059C25.5258 22.3159 25.242 22.5773 24.9605 22.841C24.0198 23.7213 23.1127 24.6351 22.2369 25.5802C22.2972 25.7098 22.2794 25.8662 22.2146 25.9622C22.1274 26.065 22.0291 25.9354 21.9308 25.96C21.9219 25.9555 21.9152 25.9488 21.9062 25.9444C21.5823 26.2996 21.2627 26.6616 20.9477 27.0258C19.8194 28.3373 18.7492 29.7002 17.7504 31.1167C17.0332 32.1333 16.3496 33.1768 15.7038 34.2425C15.6837 34.3699 15.6591 34.4972 15.6301 34.629C15.5586 34.6425 15.5407 34.7676 15.4715 34.6782C15.4625 34.6715 15.4603 34.6648 15.4558 34.6559C15.2302 35.0335 15.0112 35.4155 14.7945 35.7998C14.6515 36.0545 14.5107 36.3092 14.3722 36.5662C14.4772 36.5863 14.5867 36.6042 14.6895 36.6332C14.6671 36.4813 14.6582 36.3293 14.6783 36.1774C14.7632 35.992 14.8436 35.7842 14.9553 35.601C15.0134 35.5071 15.0805 35.42 15.1631 35.3462C15.2391 35.2792 15.3263 35.2234 15.429 35.1854C15.4402 35.1854 15.4536 35.1787 15.467 35.1742C15.467 35.1049 15.5028 35.134 15.534 35.1496C15.6815 35.0871 15.8669 34.9798 16.0077 35.1184C16.1753 35.0826 16.316 35.1094 16.4434 35.1653C16.4657 35.1273 16.4881 35.0871 16.5104 35.0491C17.1092 34.0481 17.7437 33.0695 18.4096 32.111C19.2675 30.8754 20.1769 29.6756 21.1421 28.516C22.1877 27.2581 23.2915 26.0427 24.46 24.8764C25.1459 24.1905 25.8497 23.5269 26.5692 22.8834C26.5558 22.8566 26.529 22.8298 26.4798 22.8097C26.4172 22.6466 26.5423 22.508 26.6853 22.4589L26.6876 22.4567ZM26.1603 21.9003V21.8914L26.2474 21.8802V21.8891L26.1603 21.9003ZM26.2899 21.9629C26.3078 21.9405 26.2944 21.9227 26.2921 21.9026C26.3346 21.9271 26.3279 21.9383 26.2899 21.9629ZM26.6831 22.1148L26.6451 22.059L26.6876 22.0724L26.6831 22.1126V22.1148ZM26.8149 21.9763L26.8842 22.0388C26.8618 22.021 26.7725 22.0321 26.8149 21.9763Z" fill="#E67C0A"/>
<path d="M32.8073 18.0754C32.9145 18.0062 33.0195 17.9347 33.1268 17.8654C33.1134 17.8587 33.0977 17.8565 33.0799 17.8632C32.9324 17.9012 32.8586 17.9816 32.8073 18.0754Z" fill="#E67C0A"/>
<path d="M98.5377 15.537C99.3756 16.2028 100.196 16.8932 101 17.6037C101.713 18.236 102.412 18.8862 103.1 19.5543C103.198 19.6481 103.294 19.7442 103.391 19.838C103.489 19.666 103.563 19.4694 103.706 19.3353C103.701 19.3353 103.697 19.3331 103.692 19.3331C103.665 19.2884 103.739 19.266 103.784 19.237C103.835 19.1186 103.654 19.0806 103.618 19.0046L103.73 18.9018L103.647 18.7901C103.692 18.7432 103.82 18.7119 103.777 18.6159C103.759 18.4706 103.576 18.5555 103.61 18.4148C103.674 18.3902 103.737 18.4885 103.811 18.4639C103.925 18.35 103.929 18.1869 103.855 18.0863C103.92 18.0617 103.978 18.0975 104.052 18.0841C104.112 17.997 104.222 17.9143 104.161 17.7936C104.24 17.7177 104.26 17.854 104.322 17.8383C104.309 17.7713 104.358 17.7378 104.405 17.7065C104.148 17.4607 103.889 17.2172 103.63 16.9759C103.236 16.6095 102.836 16.2475 102.432 15.89C101.775 15.3113 101.107 14.7461 100.426 14.1942C100.198 14.0088 99.9698 13.8233 99.7397 13.6423C99.6973 13.7295 99.666 13.8188 99.6727 13.8926C99.7398 13.8434 99.8425 13.7898 99.9162 13.8322C99.952 13.8814 99.8961 13.9395 99.8514 13.9462C99.7397 14.0021 99.6414 13.973 99.5498 13.9864C99.4202 14.1026 99.3934 14.2746 99.3934 14.4422C99.4582 14.4422 99.4716 14.5226 99.4627 14.5718C99.4694 14.7774 99.1968 14.822 99.2236 15.041C99.2214 15.1907 99.3376 15.2734 99.3175 15.4275C99.2772 15.4633 99.2258 15.4901 99.1744 15.47C99.0247 15.3538 99.1678 15.1527 98.9488 15.0767C98.884 15.0767 98.8773 15.1549 98.8572 15.2041C98.9533 15.3091 98.9108 15.4454 98.9421 15.5683C98.9444 15.5795 98.9465 15.5884 98.951 15.5996C98.9063 15.5504 98.8885 15.6197 98.8639 15.6331C98.8505 15.6107 98.8416 15.5839 98.8326 15.5594C98.75 15.3225 98.8192 15.0052 98.5936 14.8645C98.5511 14.8913 98.5153 14.9606 98.4617 14.9136C98.4438 14.869 98.4237 14.7975 98.3612 14.7617C98.1623 14.7706 98.0596 14.927 97.9412 15.0678C98.14 15.222 98.3366 15.3761 98.5332 15.5303L98.5377 15.537ZM101.165 16.3548C101.067 16.4486 100.913 16.462 100.799 16.4061C100.73 16.3726 100.676 16.3145 100.658 16.2363C100.62 16.1291 100.671 16.0487 100.727 15.9816C100.754 15.9481 100.783 15.9168 100.803 15.8878C100.913 15.8163 101.074 15.7582 101.19 15.8409C101.27 15.8587 101.295 15.9325 101.319 16.0084C101.331 16.1224 101.284 16.2833 101.163 16.3548H101.165Z" fill="#E67C0A"/>
<path d="M97.6261 14.829C97.7088 14.8915 97.7892 14.9541 97.8719 15.0166C97.9434 14.8513 97.9858 14.6659 98.0395 14.543C97.9635 14.7128 97.74 14.7776 97.6283 14.829H97.6261Z" fill="#E67C0A"/>
<path d="M95.3338 20.3809C95.3517 20.3586 95.3651 20.3318 95.3807 20.3094C95.3606 20.2692 95.3517 20.229 95.3517 20.1888C95.3137 20.1575 95.2757 20.1284 95.2377 20.0972C95.2221 20.1642 95.1819 20.2268 95.164 20.2781C95.1595 20.2826 95.1551 20.2848 95.1506 20.2893C95.1573 20.3273 95.1796 20.363 95.2221 20.3988C95.231 20.4055 95.2355 20.4144 95.2467 20.4211C95.2869 20.4301 95.3115 20.41 95.3338 20.3809Z" fill="#E67C0A"/>
<path d="M96.2833 20.9531C96.2073 21.0671 96.1425 21.181 96.08 21.2615C96.1693 21.152 96.3168 21.114 96.4464 21.0939C96.3905 21.047 96.3369 21 96.2833 20.9531Z" fill="#E67C0A"/>
<path d="M95.4813 20.2917C95.479 20.3141 95.4768 20.3364 95.4746 20.3588C95.4589 20.504 95.4656 20.6425 95.5706 20.752C95.6242 20.7364 95.6823 20.6693 95.727 20.7364C95.7337 20.7878 95.736 20.8727 95.7918 20.9285C95.9281 20.9576 96.0421 20.9106 96.1493 20.8436C95.9505 20.6783 95.7516 20.5129 95.5505 20.3476C95.5281 20.3297 95.5058 20.3119 95.4835 20.294L95.4813 20.2917Z" fill="#E67C0A"/>
<path d="M94.9092 19.8357C94.4757 19.4961 94.0378 19.161 93.5954 18.8348C92.9877 18.3857 92.371 17.95 91.7454 17.5277C91.6918 17.5724 91.6404 17.6037 91.5756 17.5054C91.5198 17.5612 91.3656 17.597 91.4214 17.6998C91.5823 17.7668 91.6739 17.9835 91.875 17.95C91.9085 17.9813 91.8504 18.0193 91.8169 18.0528C91.799 18.169 91.9644 18.16 92.0135 18.2159L91.9912 18.2516L91.9398 18.3298L92.0358 18.408C92.0157 18.446 91.9554 18.484 91.9465 18.5309C91.9621 18.5533 91.9711 18.5801 91.9755 18.6069C92.0314 18.6918 92.152 18.6024 92.1543 18.7231C92.1141 18.7521 92.0582 18.7141 92.0068 18.7164C92.1163 18.8526 92.1431 19.0001 92.1431 19.1498C92.1677 19.1677 92.1923 19.1856 92.2168 19.2034C92.6414 19.5051 93.0592 19.8179 93.4748 20.1329C93.6736 20.2848 93.8725 20.4345 94.0713 20.5887C94.2433 20.7227 94.4109 20.859 94.5807 20.9953C94.5807 20.9886 94.5852 20.9819 94.5874 20.9752C94.5159 20.9596 94.5248 20.8657 94.5494 20.8166C94.5963 20.6177 94.8444 20.6177 94.9203 20.4457C94.9248 20.4368 94.927 20.4256 94.9292 20.4144C94.9002 20.4166 94.8689 20.4144 94.8399 20.4032C94.7662 20.4055 94.7282 20.3474 94.6902 20.2893C94.6545 20.1932 94.6589 20.0413 94.7461 19.9519C94.784 19.8916 94.8444 19.8514 94.9092 19.8313V19.8357Z" fill="#E67C0A"/>
<path d="M118.653 40.5968C118.584 40.4404 118.49 40.3332 118.356 40.2684C118.242 40.1567 118.412 40.0785 118.295 39.9757C118.447 39.9265 118.479 40.2014 118.651 40.1567C118.72 40.2706 118.756 40.4404 118.901 40.5075C119.073 40.5924 119.245 40.5343 119.413 40.5365C118.604 38.3715 117.677 36.2623 116.64 34.2202C115.773 32.5154 114.828 30.8576 113.813 29.2489C113.373 28.554 112.92 27.8681 112.455 27.1911C111.901 26.3845 111.327 25.5936 110.735 24.8161C110.567 24.5971 110.4 24.3759 110.23 24.157C110.212 24.1815 110.198 24.2083 110.187 24.2352C110.163 24.2999 110.158 24.3692 110.178 24.4295C110.185 24.4496 110.187 24.4675 110.196 24.4854C110.189 24.4854 110.181 24.4854 110.174 24.4854C110.111 24.4921 110.058 24.4586 109.986 24.463C109.912 24.548 109.785 24.6217 109.837 24.7557C109.743 24.825 109.74 24.6798 109.671 24.6887C109.682 24.8473 109.401 24.8004 109.486 24.9859C109.383 24.9412 109.486 24.8295 109.394 24.7758C108.961 24.4966 108.695 25.0216 108.295 24.8406C108.371 24.6329 108.163 24.3983 108.315 24.2061C108.259 23.9916 108.054 24.0631 107.935 24.0385C107.902 23.9313 107.975 23.7883 107.948 23.7056C107.801 23.7861 107.696 23.6319 107.562 23.6386C107.533 23.6475 107.504 23.6587 107.475 23.6632C107.506 23.6453 107.533 23.6386 107.562 23.6386C107.931 23.5224 108.246 23.1292 108.672 23.0711C108.733 22.9951 108.923 22.9437 108.853 22.794C108.775 22.6332 108.675 22.5215 108.532 22.4589C108.409 22.3449 108.585 22.2578 108.46 22.1528C108.581 22.1081 108.634 22.269 108.735 22.3204C108.302 21.8087 107.861 21.3015 107.412 20.8033C107.397 20.8726 107.446 20.9597 107.334 20.944C107.231 20.9575 107.184 20.8569 107.113 20.8212C106.874 20.5151 106.682 20.1509 106.398 19.8895C106.338 19.8113 106.195 19.7264 106.297 19.599C106.125 19.418 105.949 19.2393 105.772 19.0605C105.667 19.1387 105.553 19.2058 105.426 19.2371C105.377 19.3153 105.207 19.3823 105.287 19.5141C105.377 19.6571 105.482 19.7487 105.623 19.7934C105.748 19.8872 105.594 19.9878 105.721 20.0704C105.58 20.1397 105.511 19.8761 105.35 19.9431C105.267 19.8425 105.209 19.6817 105.057 19.637C104.997 19.6169 104.939 19.6146 104.883 19.6191C104.872 19.6571 104.863 19.6929 104.861 19.7286C104.68 19.6348 104.642 19.8627 104.468 19.8492C104.421 19.9029 104.374 19.9565 104.324 20.0079C104.396 19.9833 104.47 19.9744 104.546 20.0258C104.613 20.0727 104.626 20.1665 104.559 20.2134C104.436 20.305 104.137 20.3095 104.219 20.5441C104.228 20.6044 104.291 20.6782 104.282 20.7385C105.752 22.2533 107.14 23.8307 108.431 25.4752C108.701 25.8193 108.967 26.1678 109.231 26.5186C109.495 26.8716 109.754 27.2269 110.011 27.5843C110.368 28.0848 110.719 28.5898 111.061 29.1014C112.133 30.7034 113.125 32.3545 114.037 34.0571C114.895 35.6568 115.681 37.299 116.394 38.9837C116.729 39.7746 117.042 40.5722 117.341 41.3744C117.362 41.3677 117.379 41.3632 117.397 41.3632C117.75 41.2626 118.063 40.8962 118.472 40.8538C118.532 40.7823 118.713 40.7398 118.651 40.5946L118.653 40.5968ZM107.806 21.2591C107.828 21.3082 107.844 21.3998 107.756 21.3842C107.631 21.2814 107.803 21.3149 107.806 21.2591ZM106.427 20.8413C106.4 20.7966 106.378 20.7139 106.458 20.7206C106.586 20.8055 106.42 20.7899 106.427 20.8413ZM106.834 21.2501C106.872 21.1809 106.778 21.0803 106.901 21.0803C106.997 21.058 107.05 21.1451 107.12 21.1719C107.374 21.4334 107.593 21.7529 107.884 21.9651C107.951 22.0321 108.098 22.0992 108.004 22.2355C107.868 22.3785 107.734 22.1394 107.692 22.0523C107.327 21.8534 107.086 21.5629 106.836 21.2501H106.834ZM117.254 38.7915C117.156 38.8005 117.114 38.7044 117.047 38.6664C116.828 38.367 116.653 38.014 116.392 37.7593C116.336 37.6811 116.195 37.5939 116.309 37.4711C116.468 37.3482 116.566 37.6074 116.597 37.7012C116.935 37.9537 117.136 38.2799 117.344 38.6307C117.297 38.6954 117.377 38.8094 117.252 38.7915H117.254ZM117.648 39.2183C117.531 39.1155 117.694 39.1535 117.697 39.1021C117.717 39.149 117.728 39.2384 117.648 39.2183Z" fill="#E67C0A"/>
<path d="M122.979 55.799C122.874 54.7645 122.742 53.7367 122.588 52.7179C122.183 50.068 121.607 47.474 120.876 44.947C120.845 45.0856 120.773 45.2129 120.749 45.2933C120.668 45.0051 120.679 44.8375 120.686 44.5806C120.686 44.5583 120.686 44.5359 120.686 44.5113C120.44 44.3438 120.13 44.2633 119.844 44.2254C119.795 44.2477 119.763 44.3013 119.734 44.3549C119.678 44.4577 119.629 44.5739 119.489 44.5314C119.466 44.4376 119.542 44.3885 119.616 44.3281C119.67 44.2834 119.723 44.2343 119.734 44.1583C119.687 44.0444 119.792 43.8991 119.701 43.7919C119.674 43.812 119.614 43.8746 119.596 43.8075C119.565 43.707 119.699 43.5417 119.538 43.5283C119.484 43.5283 119.41 43.5417 119.386 43.5752C119.379 43.5305 119.381 43.4545 119.372 43.3942C119.127 43.3719 119.305 43.6489 119.158 43.7249C119.185 43.2735 118.968 42.8535 118.93 42.4223C118.789 42.3955 118.662 42.4469 118.537 42.4983C118.387 42.5586 118.237 42.6167 118.065 42.5318C118.144 42.3351 117.951 42.1073 118.101 41.9285C118.052 41.723 117.855 41.7855 117.744 41.7587C117.715 41.6559 117.788 41.5219 117.766 41.4414C117.623 41.5152 117.527 41.3655 117.4 41.3677C117.382 41.3722 117.362 41.3789 117.344 41.3833C117.572 41.9978 117.793 42.6144 118.001 43.2333C118.088 43.4903 118.168 43.7495 118.251 44.0086C119.431 47.6952 120.242 51.4778 120.677 55.3365C120.93 57.5685 121.062 59.8251 121.062 62.1041C121.062 64.0524 120.968 65.9873 120.782 67.9043C120.642 69.3678 120.445 70.8223 120.197 72.2634C120.052 73.1013 119.889 73.9369 119.708 74.7658C119.556 75.4651 119.395 76.1645 119.216 76.8571C118.488 79.6991 117.547 82.4875 116.394 85.2133C114.647 89.3445 112.457 93.2255 109.852 96.8294C109.289 97.6069 108.708 98.3733 108.105 99.1262C108.299 99.2558 108.391 99.5261 108.563 99.6893C108.346 99.8881 108.59 100.17 108.491 100.413C108.438 100.371 108.449 100.268 108.411 100.21L108.491 100.214C108.429 100.181 108.478 100.134 108.415 100.098H108.431C108.402 100.049 108.465 99.9015 108.357 99.9685C108.337 99.8792 108.42 99.8032 108.487 99.725C108.31 99.7496 108.478 99.5798 108.306 99.6624C108.302 99.5731 108.409 99.6915 108.389 99.5865C108.355 99.4189 108.199 99.2938 108.04 99.2022C108.031 99.2111 108.024 99.2223 108.016 99.2312C108.038 99.2536 108.051 99.2781 108.031 99.3139C108.016 99.2871 107.998 99.2781 107.982 99.2737C107.955 99.3072 107.928 99.3407 107.902 99.3742C107.848 99.4412 107.794 99.5083 107.741 99.5753C107.857 99.6021 107.837 99.4345 107.946 99.4703C107.915 99.62 108.118 99.5574 108.047 99.7317C108.054 99.5887 107.98 99.6088 107.913 99.5016C107.931 99.6222 107.781 99.6088 107.801 99.6803L107.906 99.6602C107.859 99.6803 107.866 99.7183 107.886 99.7607C107.908 99.8077 107.946 99.8613 107.953 99.9104H107.937C107.919 99.9574 107.975 99.9507 107.991 99.9685L107.919 99.973C107.908 100.246 108.25 100.268 108.201 100.514C108.083 100.469 108.116 100.255 107.937 100.295C107.79 100.134 107.656 99.9574 107.591 99.763C107.249 100.181 106.898 100.592 106.545 101.001C106.045 101.575 105.531 102.14 105.008 102.699C105.015 102.703 105.022 102.706 105.028 102.71C105.031 102.71 105.033 102.712 105.037 102.714C105.238 102.9 105.2 103.193 105.111 103.414C104.919 103.421 104.74 103.293 104.608 103.184C104.602 103.17 104.599 103.152 104.597 103.137C104.291 103.456 103.983 103.774 103.668 104.089C103.364 104.392 103.058 104.692 102.747 104.987C102.774 105.047 102.792 105.107 102.823 105.159C103.006 105.253 103.207 105.21 103.395 105.136C103.366 105.065 103.451 105.016 103.509 105.007C103.732 104.913 103.9 105.195 104.13 105.069C104.298 105.009 104.34 104.844 104.517 104.801C104.573 104.833 104.626 104.877 104.624 104.94C104.561 105.154 104.278 105.083 104.287 105.355C104.316 105.427 104.403 105.4 104.465 105.402C104.546 105.239 104.738 105.241 104.861 105.13C104.827 105.201 104.91 105.19 104.934 105.212C104.727 105.463 104.264 105.496 104.202 105.838C104.249 105.874 104.342 105.883 104.313 105.963C104.273 106.001 104.202 106.055 104.188 106.137C104.251 106.28 104.367 106.347 104.499 106.397C105.687 105.248 106.829 104.053 107.922 102.813C108.165 102.536 108.409 102.256 108.648 101.973C109.602 100.849 110.516 99.6915 111.389 98.5028C111.979 97.6985 112.549 96.8808 113.101 96.0474C114.082 94.5638 115.004 93.0378 115.858 91.4671C115.668 91.5386 115.48 91.6123 115.315 91.7508C115.266 91.6548 115.514 91.5855 115.498 91.409C115.494 91.1833 115.259 91.1655 115.118 91.0984C114.937 91.0828 114.727 91.1543 114.625 91.0023C115.152 91.1252 115.38 90.4974 115.874 90.5399C116.021 90.551 116.195 90.5175 116.349 90.5332C116.854 89.5657 117.335 88.5849 117.788 87.5884C119.095 84.7151 120.186 81.7256 121.044 78.6356C121.658 76.4259 122.152 74.167 122.518 71.8679C122.775 70.2615 122.97 68.6349 123.099 66.9883C123.227 65.3751 123.291 63.7463 123.291 62.1019C123.291 59.9748 123.184 57.8746 122.974 55.8034L122.979 55.799ZM120.333 45.4631C120.329 45.5078 120.391 45.5324 120.416 45.5771C120.427 45.5927 120.431 45.6084 120.42 45.633C120.427 45.6106 120.423 45.5927 120.416 45.5771C120.385 45.5369 120.304 45.519 120.333 45.4631ZM120.418 45.7335C120.409 45.7223 120.398 45.7112 120.4 45.6977L120.418 45.7335ZM120.414 45.8407C120.376 45.8407 120.355 45.8117 120.351 45.7827C120.36 45.7357 120.389 45.7827 120.42 45.7938L120.411 45.8407H120.414ZM120.671 50.316C120.764 50.1864 120.847 50.0367 121.012 50.1172C121.231 50.2512 121.251 50.5283 121.209 50.7472C121.032 50.7897 120.845 50.7048 120.704 50.6288C120.646 50.5461 120.646 50.4032 120.671 50.3138V50.316ZM107.987 99.4189C107.975 99.3832 107.953 99.3742 107.928 99.3698C107.949 99.3698 107.966 99.3608 107.982 99.3295C108.038 99.3563 107.964 99.3608 107.987 99.4189ZM108.036 99.3742C108.036 99.3742 108.058 99.3988 108.058 99.4144C108.033 99.4055 108.002 99.3876 108.036 99.3742ZM107.937 99.6178L107.946 99.611L108.016 99.687L108.007 99.6937L107.937 99.6178ZM107.962 99.7786C107.993 99.7786 108.002 99.7563 108.02 99.7406C108.024 99.7965 108.009 99.7965 107.962 99.7786ZM108.288 99.4815L108.246 99.5195L108.223 99.4636L108.286 99.4815H108.288ZM108.295 100.272L108.281 100.375C108.281 100.344 108.214 100.268 108.295 100.272ZM108.078 100.239L108.105 100.167L108.118 100.217L108.078 100.239ZM108.103 99.3295C108.136 99.2826 108.156 99.372 108.19 99.3563C108.094 99.3519 108.203 99.4368 108.17 99.4345C108.125 99.3698 108.083 99.4077 108.103 99.3273V99.3295ZM105.071 105.382C105.051 105.257 105.136 105.367 105.165 105.333C105.153 105.376 105.113 105.436 105.071 105.382ZM105.187 104.848C105.122 104.864 105.113 104.98 105.044 104.902C104.977 104.855 104.999 104.772 104.977 104.714C104.995 104.408 105.069 104.091 105.035 103.791C105.04 103.711 104.995 103.584 105.133 103.564C105.299 103.568 105.227 103.785 105.198 103.863C105.281 104.2 105.238 104.515 105.187 104.848ZM105.924 103.407L105.909 103.378L105.982 103.398L105.924 103.407ZM106.224 102.129L106.21 102.08L106.235 102.073L106.224 102.129ZM106.268 103.215L106.282 103.195L106.3 103.184L106.268 103.215ZM106.347 102.062L106.333 102.029L106.378 102.096L106.347 102.062ZM106.905 102.685L106.952 102.721C106.91 102.735 106.923 102.714 106.905 102.685ZM107.924 101.289C107.866 101.311 107.763 101.282 107.761 101.378C107.68 101.3 107.587 101.264 107.482 101.253C107.397 101.244 107.307 101.249 107.207 101.258C107.097 101.188 107.015 101.066 107.037 100.923C106.986 100.632 107.37 100.8 107.312 100.503C107.423 100.339 107.629 100.364 107.77 100.467C107.946 100.614 107.951 100.795 107.937 100.983C107.931 101.083 107.919 101.188 107.926 101.289H107.924ZM109.658 98.266L109.635 98.2102L109.66 98.1878L109.656 98.2682L109.658 98.266ZM109.904 98.5163L109.928 98.5252L109.944 98.5408L109.906 98.5163H109.904ZM110.551 99.1039C110.529 99.0637 110.551 99.0726 110.578 99.048L110.551 99.1039ZM121.021 77.3039L121.001 77.3241V77.257L121.021 77.3039ZM120.78 77.0559L120.76 77.0492L120.746 77.0358L120.78 77.0559ZM120.181 76.6359L120.201 76.589C120.221 76.6225 120.201 76.6158 120.181 76.6359Z" fill="#E67C0A"/>
<path d="M102.758 107.328C102.765 107.362 102.799 107.438 102.734 107.433C102.868 107.521 102.962 107.67 102.879 107.84C102.839 107.958 102.691 107.994 102.595 108.023C102.506 107.999 102.405 107.979 102.325 107.938C102.247 107.898 102.186 107.84 102.173 107.737C102.173 107.726 102.173 107.717 102.173 107.706C102.162 107.704 102.153 107.699 102.142 107.697C101.737 107.596 101.306 107.608 100.944 107.416C100.888 107.36 100.828 107.304 100.768 107.246C100.745 107.261 100.723 107.275 100.698 107.288C100.647 107.315 100.596 107.344 100.562 107.393C100.553 107.422 100.544 107.453 100.531 107.48C100.533 107.442 100.546 107.416 100.562 107.393C100.589 107.315 100.604 107.232 100.613 107.147C100.613 107.132 100.613 107.114 100.618 107.096C100.589 107.067 100.564 107.036 100.537 107.004C100.537 107.004 100.533 107.007 100.533 107.009C99.1142 108.24 97.6418 109.397 96.1202 110.483C93.2179 112.554 90.1323 114.355 86.8881 115.877C86.1977 116.201 85.5007 116.516 84.7946 116.815C83.2038 117.488 81.5885 118.084 79.9574 118.614C78.9855 118.929 78.0091 119.217 77.0238 119.481C73.7595 120.352 70.4237 120.94 67.0365 121.241C65.2648 121.398 63.4818 121.483 61.6832 121.483C59.2836 121.483 56.904 121.34 54.5513 121.058C52.0713 120.763 49.6225 120.312 47.2117 119.709C45.7416 119.34 44.2848 118.915 42.8437 118.433C42.4862 118.314 42.1332 118.187 41.7779 118.062C41.4763 117.955 41.1747 117.843 40.873 117.731C40.8686 117.736 40.8664 117.742 40.8619 117.747C40.9133 117.776 40.8865 117.847 40.8552 117.881C40.7636 118.044 40.529 117.952 40.4485 118.138C40.3771 118.254 40.4284 118.375 40.3413 118.484C40.2922 118.493 40.2385 118.491 40.2095 118.451C40.1447 118.29 40.3525 118.2 40.2162 118.037C40.1648 118.008 40.1246 118.064 40.0844 118.095C40.1112 118.232 39.995 118.323 39.9726 118.448C39.9592 118.388 39.9146 118.435 39.8877 118.433C39.8944 118.183 40.1603 117.943 40.0374 117.704C39.9927 117.704 39.9324 117.745 39.9101 117.682C39.9168 117.64 39.9346 117.575 39.9034 117.517C39.6576 117.385 39.423 117.637 39.1661 117.599C39.3001 117.564 39.423 117.468 39.5325 117.374C39.4364 117.432 39.318 117.452 39.2085 117.394C38.9516 117.351 39.1482 117.106 38.9828 117.021C38.9739 117.03 38.9628 117.036 38.9426 117.032C38.9583 117.032 38.9694 117.027 38.9806 117.018C38.9605 117.007 38.9359 117.001 38.9046 116.996C38.8979 116.987 38.8957 116.98 38.8912 116.972C38.8845 116.96 38.8778 116.949 38.8734 116.938C38.7728 116.896 38.6723 116.858 38.5717 116.815C37.792 116.484 37.0212 116.136 36.2593 115.774C36.009 115.984 35.5532 115.966 35.4437 116.299C35.4862 116.341 35.58 116.362 35.5398 116.44C35.4929 116.473 35.4147 116.518 35.3901 116.603C35.4951 116.963 35.9532 116.949 36.1587 117.228C35.8817 117.065 35.4661 117.097 35.2181 117.056C35.4571 117.101 35.6024 117.38 35.6962 117.488C35.3633 117.398 35.2203 117.289 34.9522 117.121C34.8271 117.182 34.7109 117.262 34.6014 117.354C34.5835 117.378 34.5612 117.403 34.5322 117.418C34.7668 117.532 34.9991 117.649 35.2359 117.76C35.2359 117.76 35.2404 117.76 35.2427 117.762C35.2494 117.76 35.2583 117.756 35.265 117.754C35.3678 117.722 35.475 117.7 35.58 117.7C35.6783 117.7 35.7789 117.713 35.8794 117.751C36.0045 117.83 36.3285 117.832 36.3486 118.073C36.5028 118.16 36.5922 118.279 36.6503 118.408C36.6949 118.428 36.7396 118.448 36.7866 118.466C37.325 118.705 37.8702 118.935 38.4176 119.159C38.4935 119.074 38.5874 119.009 38.708 118.982C38.8287 118.929 38.927 119.067 39.0208 119.105C39.0611 119.21 39.0387 119.304 38.9985 119.396C39.4007 119.554 39.8073 119.709 40.2139 119.86C40.2184 119.856 40.2229 119.852 40.2274 119.849C40.4664 119.722 40.7301 119.854 40.9088 120.01C40.8999 120.041 40.882 120.07 40.8664 120.097C40.8999 120.111 40.9356 120.122 40.9691 120.133C41.9679 120.491 42.98 120.821 44.0033 121.127C45.1003 121.456 46.2085 121.753 47.3279 122.021C49.7231 122.593 52.1718 123.024 54.6653 123.306C56.9688 123.567 59.3104 123.706 61.6854 123.706C63.3991 123.706 65.095 123.632 66.7752 123.496C67.6353 123.426 68.4911 123.339 69.3423 123.234C69.3088 123.219 69.2775 123.194 69.2529 123.152C69.3691 123.109 69.4831 123.29 69.5881 123.147C69.6551 123.154 69.7199 123.165 69.7847 123.178C71.4828 122.955 73.1585 122.66 74.8119 122.303C74.8409 122.128 74.8454 121.943 74.9504 121.818C74.9951 121.822 75.1068 121.914 75.0018 121.947C75.0107 122.052 74.9928 122.162 74.9683 122.269C75.5648 122.137 76.1591 121.999 76.749 121.851C78.1901 121.489 79.6111 121.076 81.012 120.613C81.0209 120.611 81.0299 120.607 81.041 120.604C81.0232 120.575 81.012 120.542 81.0142 120.506C80.9897 120.441 81.0299 120.392 81.0723 120.343C81.1461 120.285 81.2779 120.245 81.3829 120.296C81.4588 120.314 81.5192 120.372 81.5527 120.439C83.3356 119.831 85.0828 119.143 86.7898 118.381C86.7429 118.303 86.7295 118.209 86.7474 118.136C86.7876 118.028 86.9016 118.102 86.9731 118.055C87.0691 118.062 87.134 118.131 87.163 118.214C87.4199 118.098 87.6746 117.975 87.9316 117.856C91.3523 116.243 94.6032 114.326 97.644 112.137C97.6932 112.101 97.7445 112.063 97.7937 112.027C98.4684 111.538 99.1365 111.037 99.7911 110.521C100.43 110.018 101.056 109.5 101.675 108.973C101.675 108.959 101.675 108.944 101.675 108.928C101.675 108.928 101.675 108.926 101.675 108.924C101.695 108.644 101.934 108.303 102.265 108.428C102.273 108.43 102.282 108.434 102.291 108.439C102.374 108.365 102.457 108.291 102.539 108.22C102.769 108.017 103 107.811 103.227 107.605C103.207 107.545 103.183 107.487 103.122 107.451C102.995 107.451 102.901 107.29 102.763 107.335L102.758 107.328ZM38.8242 117.061L38.7862 117.065C38.7795 117.036 38.7974 117.016 38.8197 117.005C38.8577 117.003 38.8265 117.034 38.8242 117.061ZM38.851 117.063C38.8734 117.054 38.8734 117.027 38.8935 117.025L38.851 117.063ZM40.024 118.544V118.52L40.0732 118.549H40.024V118.544ZM40.0508 118.41H40.0151L40.091 118.393L40.0486 118.41H40.0508ZM42.9912 119.367C42.8862 119.436 42.7074 119.476 42.5756 119.398C42.3477 119.324 42.2471 119 42.4259 118.851C42.551 118.712 42.7208 118.797 42.837 118.81C42.9643 118.877 43.1029 119.003 43.0828 119.157C43.1073 119.244 43.0493 119.306 42.9889 119.367H42.9912ZM47.6921 121.179C47.5714 121.243 47.4731 121.138 47.3971 121.103C47.3279 121.022 47.2631 120.902 47.3167 120.799C47.3212 120.732 47.3793 120.705 47.4352 120.676C47.5245 120.656 47.6586 120.674 47.7301 120.761C47.8686 120.87 47.8552 121.121 47.6921 121.179ZM49.1913 122.095H49.2248L49.2494 122.099L49.1913 122.095ZM49.2717 122.023L49.2449 121.992L49.2784 122.008L49.2717 122.025V122.023ZM49.4728 121.049C49.274 121.076 49.1265 120.917 49.0438 120.763C49.131 120.651 49.2851 120.611 49.4102 120.587C49.4862 120.607 49.5577 120.696 49.5845 120.761C49.5912 120.886 49.6136 121.018 49.475 121.049H49.4728ZM53.3225 122.274C53.3649 122.437 53.3225 122.622 53.3069 122.79C53.251 122.825 53.2242 122.776 53.204 122.736C53.2621 122.559 53.1772 122.338 53.2689 122.184C53.3024 122.184 53.3962 122.236 53.3225 122.274ZM53.6487 121.476C53.5258 121.516 53.4163 121.487 53.3538 121.373C53.3069 121.259 53.3337 121.125 53.3962 121.047C53.4744 120.969 53.5482 121.08 53.6308 121.069C53.785 121.154 53.7537 121.386 53.6509 121.476H53.6487ZM69.921 122.584C69.9433 122.776 69.7735 122.89 69.6037 122.904C69.2574 122.908 69.1591 122.595 68.9602 122.392C68.9893 122.338 69.0831 122.294 69.025 122.22C69.2239 122.231 69.3624 122.115 69.5143 121.954C69.6395 121.936 69.7802 121.974 69.8562 122.095C70.0818 122.278 69.6864 122.399 69.9232 122.584H69.921ZM75.6072 120.969C75.4374 120.993 75.2989 120.933 75.2386 120.77C75.2006 120.609 75.2654 120.437 75.366 120.35C75.4889 120.263 75.5581 120.428 75.6698 120.43C75.8552 120.575 75.7636 120.877 75.6072 120.971V120.969ZM82.9379 118.111C83.0027 118.124 83.0407 118.124 83.0832 118.169C83.1189 118.218 83.1256 118.27 83.0943 118.317C83.0496 118.341 82.9848 118.364 82.92 118.35C82.8485 118.321 82.7793 118.299 82.7503 118.229C82.786 118.171 82.8575 118.107 82.9379 118.113V118.111ZM83.1145 119.816C82.9424 119.925 82.7368 119.843 82.5938 119.735C82.6251 119.595 82.7525 119.49 82.8575 119.416C82.9357 119.402 83.0407 119.454 83.0943 119.503C83.1524 119.615 83.2306 119.726 83.1167 119.816H83.1145Z" fill="#E67C0A"/>
<path d="M102.543 107.355C102.568 107.359 102.592 107.366 102.617 107.375C102.559 107.333 102.506 107.297 102.461 107.353C102.488 107.348 102.514 107.346 102.543 107.355Z" fill="#E67C0A"/>
<path d="M102.258 107.48C102.258 107.48 102.251 107.478 102.249 107.478C102.247 107.483 102.247 107.487 102.245 107.492C102.249 107.489 102.254 107.485 102.258 107.48Z" fill="#E67C0A"/>
<path d="M103.837 106.689C103.58 106.855 103.379 107.114 103.225 107.368C103.227 107.424 103.263 107.476 103.303 107.525C103.471 107.371 103.639 107.214 103.804 107.058C103.804 107.058 103.799 107.053 103.799 107.051C103.835 106.969 103.954 106.924 103.98 106.859C103.887 106.839 103.871 106.756 103.837 106.687V106.689Z" fill="#E67C0A"/>
<path d="M104.25 106.64C104.27 106.622 104.288 106.602 104.308 106.584C104.226 106.589 104.15 106.593 104.085 106.593C104.145 106.595 104.199 106.615 104.25 106.642V106.64Z" fill="#E67C0A"/>
<path d="M111.141 40.999C108.545 34.9218 104.863 29.421 100.339 24.7401C99.1277 23.4889 97.8586 22.2958 96.5337 21.1653C96.3683 21.3172 96.2276 21.3842 96.0198 21.5027C96.0041 21.7909 96.0913 22.088 96.2008 22.345C96.3281 22.4299 96.5783 22.2757 96.632 22.488C96.5493 22.5706 96.4443 22.488 96.3303 22.4634C97.1078 23.1449 97.8675 23.8531 98.6116 24.5837C98.7099 24.682 98.8126 24.7759 98.9109 24.8764C102.64 28.6055 105.746 32.8081 108.19 37.4085C108.273 37.5627 108.353 37.7169 108.433 37.871C108.666 37.9492 108.791 38.1749 108.983 38.3157C108.887 38.414 109.055 38.4452 109.086 38.5391C109.135 38.5882 109.238 38.5815 109.274 38.6508C109.233 38.7379 109.11 38.5838 109.102 38.7223C109.079 38.9681 109.408 38.9703 109.477 39.1535C109.323 39.1669 109.209 38.9413 109.063 39.0574C109.063 39.0775 109.063 39.0999 109.063 39.12C109.106 39.2071 109.148 39.2965 109.191 39.3836C109.22 39.3524 109.253 39.33 109.294 39.3323C109.345 39.3568 109.325 39.4261 109.294 39.4529C109.28 39.473 109.265 39.4887 109.249 39.5043C109.577 40.1969 109.895 40.8985 110.194 41.6068C110.324 41.9129 110.447 42.2212 110.572 42.5295H111.394C111.394 42.5295 111.407 42.5228 111.416 42.5161L111.409 42.5295H111.774C111.573 42.0156 111.363 41.5062 111.146 40.999H111.141ZM98.3434 22.9549C98.1356 22.9773 97.9145 22.8946 97.7134 22.8455C97.6799 22.7695 97.7424 22.7449 97.796 22.7293C98.0038 22.8298 98.2876 22.7628 98.4618 22.9036C98.4574 22.9438 98.3769 23.051 98.3434 22.9549ZM110.762 41.8793L110.748 41.8347L110.768 41.819L110.762 41.8793ZM110.934 42.0804L110.952 42.0894L110.963 42.1028L110.936 42.0804H110.934Z" fill="#E67C0A"/>
<path d="M62.6729 8.3494C62.5969 8.3494 62.5187 8.3494 62.4405 8.34717C62.4428 8.36728 62.4361 8.39185 62.407 8.41643C62.5255 8.44101 62.559 8.39632 62.6729 8.37621C62.6729 8.36504 62.6729 8.35834 62.6729 8.3494Z" fill="#E67C0A"/>
<path d="M48.4741 113.091C48.6819 113.327 48.6439 113.774 48.9634 113.886C49.0036 113.846 49.026 113.759 49.0997 113.799C49.1288 113.844 49.1712 113.919 49.2494 113.944C49.5197 113.873 49.5756 113.584 49.7231 113.377C48.7646 113.153 47.8128 112.903 46.8677 112.626C46.5727 112.539 46.28 112.454 45.9873 112.362C45.641 112.255 45.297 112.143 44.9529 112.027C43.686 111.603 42.4326 111.129 41.1948 110.604C40.71 110.398 40.2318 110.186 39.7559 109.967C39.7917 110.03 39.8475 110.092 39.8274 110.184C40.0263 110.398 40.1805 110.644 40.4441 110.803C40.3726 110.881 40.2274 110.671 40.0687 110.742C39.8609 110.818 39.9213 111.042 39.9012 111.196C39.9079 111.22 39.9146 111.245 39.9235 111.27C41.4428 111.944 43.0001 112.548 44.5909 113.082C45.2277 113.294 45.8689 113.497 46.5146 113.687C46.6509 113.727 46.7872 113.765 46.9235 113.806C47.3302 113.922 47.739 114.033 48.1501 114.141C48.206 114.054 48.2574 113.964 48.2149 113.846C48.1814 113.676 48.0295 113.611 48.0161 113.435C48.0541 113.386 48.1055 113.343 48.1658 113.352C48.3624 113.444 48.2507 113.705 48.5121 113.739C48.5858 113.721 48.5724 113.634 48.5836 113.573C48.4406 113.47 48.4697 113.287 48.3825 113.153C48.4451 113.196 48.4473 113.115 48.4719 113.095L48.4741 113.091Z" fill="#E67C0A"/>
<path d="M38.889 119.282C38.9583 119.172 38.7326 119.195 38.8063 119.078C38.7125 119.087 38.6969 119.125 38.6187 119.168C38.6343 119.264 38.746 119.19 38.7572 119.275C38.746 119.277 38.7371 119.282 38.7281 119.288C38.7616 119.302 38.7929 119.315 38.8242 119.329C38.8242 119.311 38.8242 119.286 38.8443 119.302C38.8421 119.309 38.8354 119.324 38.8265 119.329C38.8399 119.333 38.8532 119.34 38.8667 119.344C38.8711 119.34 38.8778 119.333 38.8979 119.331C38.9203 119.335 38.9158 119.349 38.9114 119.362C38.9248 119.367 38.9359 119.373 38.9493 119.378C38.9627 119.315 38.9695 119.248 38.9717 119.188C38.9359 119.21 38.9516 119.288 38.889 119.282ZM38.7974 119.282C38.8175 119.264 38.8175 119.244 38.8108 119.226C38.8175 119.239 38.8309 119.248 38.8555 119.248C38.8555 119.293 38.8287 119.248 38.7974 119.279V119.282Z" fill="#E67C0A"/>
<path d="M35.5935 115.817C35.6136 115.892 35.7052 115.879 35.77 115.888C35.8549 115.763 35.9957 115.756 36.123 115.707C36.0292 115.662 35.9353 115.618 35.8415 115.573C35.732 115.618 35.6114 115.638 35.5935 115.817Z" fill="#E67C0A"/>
<path d="M38.7145 119.281C38.7145 119.281 38.721 119.268 38.7254 119.262C38.7166 119.268 38.7079 119.273 38.6992 119.275C38.7035 119.275 38.7101 119.279 38.7145 119.281Z" fill="#E67C0A"/>
<path d="M34.8449 115.354C35.0862 115.287 35.218 115.597 35.4705 115.501C35.5174 115.49 35.5577 115.472 35.5934 115.448C34.9611 115.139 34.3377 114.82 33.7188 114.489C32.0454 113.596 30.4188 112.624 28.8436 111.576C28.6895 111.473 28.5331 111.37 28.3789 111.265C28.2649 111.189 28.1532 111.109 28.0415 111.033C27.9186 110.948 27.7957 110.863 27.6729 110.778C27.7086 110.923 27.9142 110.997 27.9365 111.149C27.7913 111.129 27.731 110.896 27.5723 110.975C27.5388 111.109 27.4963 111.283 27.5388 111.388C27.5835 111.33 27.655 111.258 27.7287 111.276C27.7712 111.31 27.7399 111.37 27.7019 111.388C27.6215 111.464 27.5299 111.462 27.4584 111.498C27.3779 111.627 27.398 111.779 27.4405 111.922C27.4941 111.904 27.5276 111.969 27.5299 112.014C27.5857 112.183 27.3668 112.291 27.445 112.469C27.4718 112.568 27.55 112.617 27.5924 112.695C27.6036 112.717 27.6148 112.742 27.6192 112.771C27.5947 112.811 27.5567 112.845 27.512 112.843C27.3556 112.782 27.4271 112.577 27.2238 112.568C27.1701 112.586 27.1836 112.65 27.1791 112.697C27.2953 112.767 27.2818 112.91 27.3578 113.008C27.3064 112.979 27.3109 113.039 27.293 113.059C27.121 112.892 27.1232 112.545 26.873 112.478C26.8439 112.51 26.8328 112.579 26.7747 112.554C26.7501 112.521 26.7144 112.467 26.6518 112.452C26.5535 112.485 26.4976 112.557 26.4529 112.639C26.7345 112.836 27.0182 113.035 27.302 113.227C27.5366 113.385 27.7756 113.54 28.0147 113.696C28.0259 113.703 28.0348 113.709 28.046 113.716C28.4191 113.656 28.4638 113.182 28.8235 113.106C28.8883 113.093 28.9576 113.064 29.0246 113.039C29.1765 112.983 29.3307 112.939 29.458 113.075C29.5653 113.079 29.5541 113.175 29.5899 113.245C29.6412 113.392 29.5228 113.508 29.496 113.625C29.4223 113.569 29.3709 113.604 29.315 113.636C29.2771 113.658 29.2369 113.678 29.1832 113.663C29.0067 113.81 28.8101 113.924 28.6783 114.125C29.0939 114.391 29.5139 114.65 29.9384 114.905C30.3294 115.139 30.7227 115.372 31.1181 115.6C31.2544 115.678 31.3952 115.754 31.5315 115.832C31.5471 115.823 31.5605 115.812 31.5806 115.805C31.708 115.358 32.1347 115.3 32.4364 115.061C32.528 115.218 32.6263 115.017 32.7559 115.01C32.8341 114.965 32.8631 114.829 32.9637 114.811C33.0597 114.891 32.8207 114.994 32.9949 115.055C33.301 115.168 33.415 114.753 33.6741 114.728C33.6362 114.927 33.31 114.994 33.4083 115.22C33.5915 115.276 33.8283 115.345 33.978 115.294C33.902 115.229 33.806 115.122 33.8372 115.023C33.8864 114.965 33.9691 115.017 33.9914 115.068C34.0897 115.184 34.083 115.309 34.1277 115.414C34.302 115.535 34.5142 115.517 34.7131 115.47C34.693 115.394 34.7846 115.354 34.8471 115.352L34.8449 115.354ZM31.527 115.162C31.5382 115.202 31.5382 115.273 31.4756 115.249C31.3952 115.155 31.5203 115.204 31.527 115.162ZM31.0578 114.742C30.917 114.478 30.8165 114.179 30.6378 113.944C30.602 113.875 30.4992 113.79 30.6042 113.705C30.745 113.625 30.7942 113.841 30.8098 113.919C31.0511 114.159 31.1762 114.442 31.3013 114.744C31.2566 114.789 31.308 114.891 31.2097 114.862C31.1293 114.858 31.107 114.777 31.0578 114.739V114.742Z" fill="#E67C0A"/>
<path d="M39.6617 117.255C39.6439 117.248 39.6262 117.242 39.6106 117.233C39.6017 117.262 39.5928 117.291 39.5861 117.322C39.6128 117.297 39.6373 117.275 39.6617 117.255Z" fill="#E67C0A"/>
<path d="M25.8341 111.696C25.8162 111.739 25.7827 111.772 25.7715 111.826C25.8274 111.915 25.8587 112.047 25.9905 112.04C26.0285 112.143 25.8967 112.105 25.8855 112.168C25.9592 112.183 25.9637 112.253 25.9771 112.315C26.0263 112.349 26.0732 112.382 26.1223 112.418C26.1603 112.335 26.2072 112.259 26.2609 112.161C26.1626 111.976 25.9994 111.821 25.8341 111.699V111.696Z" fill="#E67C0A"/>
<path d="M26.3097 112.544C26.3097 112.471 26.3097 112.404 26.3186 112.349C26.312 112.406 26.283 112.458 26.2474 112.502C26.2675 112.518 26.2897 112.531 26.3097 112.547V112.544Z" fill="#E67C0A"/>
<path d="M25.852 111.321C25.8274 111.323 25.7648 111.346 25.776 111.294C25.7917 111.214 25.9414 111.151 25.8363 111.084C25.8006 111.066 25.747 111.046 25.7179 111.062C25.7291 111.028 25.7581 110.979 25.7738 110.934C25.6151 110.832 25.6375 111.082 25.5124 111.082C25.7224 110.736 25.6889 110.3 25.8989 109.971C25.995 109.889 26.0933 109.795 26.2005 109.717C26.1983 109.715 26.1938 109.712 26.1916 109.71C24.4958 108.443 22.867 107.076 21.303 105.624C20.7623 105.121 20.2261 104.611 19.701 104.086C17.6455 102.031 15.7575 99.8479 14.0393 97.5466C12.8909 96.0094 11.8229 94.4164 10.8309 92.7764C10.8085 92.8367 10.7974 92.8792 10.7415 92.9172C10.6767 92.9507 10.6097 92.9507 10.5605 92.8993C10.5404 92.8412 10.5248 92.7585 10.5538 92.6826C10.5918 92.6178 10.6253 92.5574 10.6812 92.5239C10.1159 91.5788 9.57744 90.6159 9.06579 89.6372C8.3106 88.1961 7.60904 86.7215 6.97227 85.2111C6.69522 84.5542 6.43382 83.8929 6.18135 83.2293C5.75013 82.0988 5.35241 80.957 4.99269 79.8064C4.96812 79.8846 4.93015 79.9605 4.86982 80.0276C4.68885 80.2264 4.57264 80.5951 4.23527 80.5258C4.12132 80.5973 4.06101 80.4923 3.97387 80.4476C3.81301 80.3337 3.85098 80.1259 3.79288 79.9874C3.99173 79.9918 3.92696 79.7773 4.08782 79.717C4.16156 79.4355 4.2822 79.1741 4.27326 78.868C4.37604 78.8859 4.27998 79.1205 4.4252 79.2143C4.5615 79.3171 4.6866 79.2366 4.79831 79.1651C4.57712 78.4301 4.36932 77.6905 4.17717 76.9465C4.00513 76.2807 3.84652 75.6104 3.69906 74.9379C3.68789 74.9781 3.66552 75.0138 3.61637 75.0339C3.59402 74.9468 3.73257 74.8775 3.63426 74.7904C3.63873 74.7658 3.64542 74.7413 3.65212 74.7189C3.61861 74.5692 3.58734 74.4173 3.55383 74.2676C3.22315 72.6745 2.95502 71.0681 2.75617 69.446C2.51934 67.529 2.37636 65.5919 2.32721 63.6391C2.32274 63.505 2.32273 63.371 2.3205 63.2369C2.31379 62.8571 2.30708 62.4795 2.30708 62.0974C2.30708 59.6621 2.45456 57.2468 2.74278 54.8628C2.80534 54.34 2.87459 53.8194 2.95279 53.2988C3.14047 52.0275 3.37506 50.7629 3.64541 49.5095C3.65212 49.476 3.66107 49.4402 3.66778 49.4067C3.67225 49.3843 3.6767 49.362 3.68341 49.3397C3.41753 49.2749 3.28124 49.1855 3.0444 49.0559C2.7897 49.1944 2.57966 49.4246 2.41656 49.6569C2.41209 49.8089 2.67575 49.9452 2.52159 50.1016C2.36519 50.0636 2.45231 49.8223 2.30931 49.7217C2.18866 49.7128 2.11047 49.5542 1.97641 49.5854C1.98088 49.6189 2.00768 49.6971 1.94289 49.6837C1.84011 49.6659 1.75745 49.4737 1.67479 49.61C1.65244 49.6569 1.62786 49.7262 1.64574 49.7619C1.60329 49.7485 1.5385 49.7106 1.48264 49.6927C1.35305 49.896 1.67255 49.8647 1.67255 50.0278C1.5519 49.9563 1.42232 49.9072 1.28826 49.8692C1.24804 50.068 1.21229 50.2691 1.17431 50.4702C1.2324 50.4389 1.29719 50.4121 1.33964 50.3764C1.64574 50.4121 1.71054 50.7607 1.90045 50.9483C1.70607 51.1159 1.91163 51.3684 1.82002 51.5807C1.7731 51.5427 1.7865 51.4533 1.75522 51.4019L1.82449 51.4064C1.77087 51.3751 1.81555 51.3349 1.76193 51.3036H1.77532C1.75074 51.2611 1.80885 51.1316 1.71278 51.1874C1.69714 51.1092 1.77085 51.0444 1.83341 50.9796C1.67925 50.9975 1.82895 50.8523 1.67702 50.9193C1.67702 50.8411 1.76638 50.9461 1.75074 50.8545C1.7217 50.6847 1.54743 50.5596 1.39326 50.4724C1.39773 50.5216 1.48487 50.5484 1.44688 50.6087C1.37092 50.4769 1.27037 50.7227 1.18994 50.5842C1.14748 50.6869 1.18102 50.7227 1.17878 50.8277C1.28826 50.8634 1.27038 50.7093 1.36645 50.7428C1.33517 50.8746 1.51391 50.8232 1.44912 50.9729C1.45806 50.8478 1.39326 50.8634 1.33741 50.7696C1.35081 50.8746 1.219 50.859 1.23464 50.9238L1.32622 50.9081C1.28377 50.926 1.28825 50.9573 1.30612 50.9953C1.324 51.0355 1.35528 51.0846 1.35974 51.1271H1.34635C1.32848 51.1673 1.37762 51.1628 1.39103 51.1785H1.32846C1.31282 51.4175 1.60999 51.4466 1.56083 51.6589C1.45806 51.6164 1.49381 51.4287 1.33741 51.46C1.22346 51.3304 1.12292 51.1874 1.06483 51.0333C1.04472 51.145 1.02461 51.2567 1.0045 51.3684C0.995563 51.422 0.986627 51.4779 0.97769 51.5315C1.02014 51.5315 1.06037 51.5449 1.10059 51.5628C1.1274 51.5762 1.1542 51.5896 1.17878 51.6097C1.30837 51.7259 1.32401 51.8599 1.31731 52.0007C1.3106 52.1102 1.2905 52.2219 1.29497 52.3314C1.24358 52.3492 1.15644 52.3224 1.14973 52.4051C1.06707 52.3202 0.966505 52.2912 0.852557 52.2845C0.682751 53.3457 0.539774 54.4137 0.423591 55.4929C0.191226 57.6646 0.0705566 59.8676 0.0705566 62.1019C0.0705566 64.3362 0.202398 66.7068 0.452638 68.9567C0.671598 70.9363 0.984383 72.889 1.38655 74.8083C1.5005 75.3512 1.62339 75.8919 1.75074 76.4304C2.34953 78.9417 3.10026 81.3927 3.99621 83.7745C4.84524 86.0333 5.82161 88.2296 6.91865 90.3522C8.35306 93.1272 9.99303 95.7771 11.8162 98.2839C14.2873 101.682 17.0936 104.821 20.1925 107.646C21.1913 108.557 22.2235 109.433 23.2803 110.275C23.3094 110.226 23.3407 110.179 23.3786 110.132C23.506 110.005 23.6847 109.976 23.8568 109.918C24.0489 109.929 24.1025 110.168 24.2746 110.193C24.3707 110.289 24.3818 110.452 24.3908 110.59C24.3908 110.604 24.3908 110.617 24.393 110.631C24.2254 110.702 24.4444 110.984 24.1897 110.961C24.1897 110.97 24.1897 110.979 24.1897 110.988C24.2701 111.051 24.3505 111.111 24.431 111.174C24.565 111.151 24.7058 111.14 24.7795 111.006C24.8309 110.999 24.822 111.075 24.8309 111.127C24.9181 111.22 25.0253 111.071 25.1057 111.069L25.1549 111.212L25.2889 111.18C25.3135 111.241 25.289 111.368 25.3962 111.366C25.537 111.408 25.5303 111.207 25.6464 111.292C25.6442 111.361 25.528 111.379 25.5213 111.455C25.5548 111.54 25.6196 111.596 25.6889 111.625C25.709 111.614 25.7291 111.6 25.7447 111.58C25.7537 111.486 25.8766 111.426 25.852 111.321ZM1.39774 50.6981C1.3888 50.6668 1.3687 50.6579 1.34859 50.6534C1.36646 50.6534 1.3821 50.6467 1.39774 50.6199C1.44466 50.6445 1.3821 50.6467 1.39774 50.6981ZM1.44241 50.6579C1.44241 50.6579 1.46254 50.6802 1.4603 50.6936C1.44019 50.6847 1.41337 50.6691 1.44241 50.6579ZM1.35083 50.8679L1.35751 50.8612L1.4156 50.9282L1.40892 50.9349L1.35083 50.8679ZM1.36869 51.0109C1.3955 51.0109 1.40443 50.993 1.42007 50.9796C1.42454 51.0288 1.40891 51.0288 1.36869 51.0109ZM3.11589 49.9653L3.12931 49.9809L3.09579 49.9586L3.11589 49.9675V49.9653ZM2.89246 49.6614L2.88801 49.7307L2.87012 49.6815L2.89246 49.6614ZM2.93045 51.2276C2.9528 51.46 3.16059 51.6678 3.13154 51.8912C3.09356 51.9091 2.95951 51.8957 3.0243 51.8175C2.89471 51.6499 2.85001 51.4175 2.78522 51.2187C2.83214 51.1494 2.888 51.1919 2.92822 51.2276H2.93045ZM1.66137 50.7584L1.6234 50.7897L1.60551 50.7406L1.65916 50.7584H1.66137ZM1.64574 51.4488L1.63235 51.5382C1.63235 51.5114 1.57648 51.4444 1.64574 51.4488ZM1.4603 51.4153L1.48488 51.355L1.49603 51.3974L1.4603 51.4153ZM1.50274 50.6199C1.53402 50.5797 1.54965 50.6579 1.5787 50.6467C1.49603 50.64 1.58765 50.7182 1.56083 50.716C1.52285 50.6579 1.48487 50.6892 1.50498 50.6199H1.50274ZM1.85798 74.5513L1.88035 74.5223L1.89374 74.5335L1.85798 74.5513ZM1.94065 74.6251L1.94736 74.5938L1.96078 74.5715L1.94065 74.6251ZM2.08589 70.2168C2.20207 70.0939 2.41435 70.1811 2.4702 70.2995C2.47691 70.4246 2.42328 70.5207 2.3004 70.552C2.18198 70.5676 2.06355 70.5095 2.00546 70.4313C1.95183 70.3375 2.07471 70.2973 2.08365 70.2168H2.08589ZM2.76735 74.7614C2.76289 74.6698 2.79862 74.5714 2.89246 74.5245C3.03992 74.3748 3.10027 74.6675 3.24997 74.5111C3.39073 74.5089 3.46221 74.6385 3.45998 74.7614C3.43987 75.0116 3.20751 75.0608 3.04664 75.1903C3.01089 75.1658 2.98407 75.0943 2.92822 75.1323C2.95056 74.9893 2.8746 74.882 2.76959 74.7614H2.76735ZM8.50722 90.4326C8.42232 90.636 8.11624 90.703 7.99335 90.5265C7.87493 90.4014 7.96653 90.2517 7.98664 90.1467C8.05814 90.0349 8.18326 89.9165 8.32402 89.9478C8.40669 89.9322 8.45807 89.9903 8.50946 90.0506C8.56531 90.1534 8.58765 90.3187 8.50498 90.4349L8.50722 90.4326ZM9.12612 92.6625C8.97866 92.7116 8.82897 92.7831 8.74183 92.6267C8.64352 92.3966 8.78429 92.1642 8.94292 92.0145C9.10602 92.0815 9.2088 92.2536 9.27583 92.3943C9.27583 92.4927 9.19315 92.6066 9.12389 92.6625H9.12612ZM25.2152 109.592C25.2398 109.525 25.2889 109.48 25.356 109.482C25.4096 109.511 25.4766 109.56 25.5057 109.634C25.5258 109.726 25.5481 109.808 25.4967 109.884C25.4141 109.884 25.3024 109.86 25.2554 109.775C25.2264 109.701 25.1996 109.663 25.2174 109.592H25.2152Z" fill="#E67C0A"/>
<path d="M28.7386 113.837C28.685 113.672 28.5085 113.712 28.39 113.692C28.2962 113.712 28.2001 113.763 28.1152 113.765C28.3029 113.888 28.4906 114.009 28.6805 114.13C28.6224 114.069 28.79 113.964 28.7408 113.837H28.7386ZM28.571 113.944V113.902L28.5889 113.89L28.571 113.944Z" fill="#E67C0A"/>
<path d="M18.0655 93.5205C18.5927 94.2511 19.1357 94.9661 19.6987 95.6676C21.0639 97.3724 22.5273 98.9923 24.0869 100.518C24.1114 100.467 24.1427 100.42 24.1762 100.375C24.2321 100.304 24.2991 100.239 24.3863 100.188C24.5158 100.143 24.7013 99.9083 24.889 100.033C24.9783 99.9977 25.0632 99.9843 25.1437 99.9865C24.9895 99.839 24.8376 99.6893 24.6834 99.5374C24.6097 99.4637 24.5359 99.3944 24.4622 99.3207C23.1753 98.0337 21.9643 96.6887 20.827 95.2923C20.1925 94.5147 19.5848 93.7193 18.9972 92.9105C18.9681 92.8725 18.9391 92.8323 18.9123 92.7943C18.8698 92.8055 18.8251 92.8122 18.7737 92.8055C18.6687 92.8837 18.6039 92.7854 18.5145 92.7497C18.3514 92.6513 18.3716 92.448 18.3045 92.3162C18.4185 92.3117 18.4386 92.238 18.4654 92.1643C18.128 91.6817 17.7996 91.1946 17.4801 90.7008C17.4421 90.7209 17.4041 90.7433 17.3706 90.7678C17.2209 90.5399 16.9237 90.7209 16.7159 90.5936C16.7629 90.5489 16.8567 90.5779 16.9148 90.5511L16.8992 90.6248C16.9394 90.5735 16.9751 90.6249 17.0176 90.5735V90.5891C17.0645 90.569 17.1919 90.6494 17.1472 90.54C17.2321 90.5355 17.2902 90.6226 17.3505 90.6963C17.3527 90.5958 17.4019 90.6204 17.4287 90.6204C17.3237 90.4595 17.2209 90.2964 17.1181 90.1333C16.9394 90.1601 16.8589 90.3835 16.669 90.312C16.7294 90.2115 16.9215 90.2741 16.9103 90.1043C16.955 90.0752 16.9997 90.0484 17.0466 90.0216C16.9885 89.93 16.9327 89.8384 16.8768 89.7468C16.859 89.8093 16.8232 89.8697 16.774 89.9166C16.5238 90.1311 16.2624 89.9613 15.9943 89.9367C15.9831 89.8808 16.0255 89.7915 15.9384 89.7736C16.0903 89.6619 16.1194 89.4921 16.1328 89.282C16.2132 89.1927 16.3383 89.1346 16.4657 89.177C16.4925 89.177 16.5126 89.1815 16.5327 89.1882C16.1954 88.6274 15.8714 88.0621 15.5564 87.4879C15.2011 86.84 14.857 86.1853 14.5286 85.5217C14.4593 85.3854 14.3923 85.2469 14.3253 85.1106C14.1421 84.7353 13.9655 84.3577 13.7913 83.9778C13.7622 83.9778 13.722 83.9555 13.6863 83.9443C13.5567 83.9779 13.6438 84.1477 13.6058 84.2236L13.4516 84.199L13.4159 84.3353C13.3489 84.3286 13.2439 84.246 13.1947 84.342C13.0897 84.4493 13.2752 84.5409 13.1389 84.6035C13.0785 84.5677 13.1165 84.4538 13.0495 84.4091C12.949 84.3979 12.8618 84.4336 12.7993 84.4917C13.3221 85.6312 13.8829 86.7484 14.4817 87.8432C15.5586 89.8138 16.7562 91.7107 18.0655 93.5227V93.5205ZM18.2397 92.1732L18.2286 92.1933L18.2107 92.2045L18.2397 92.1732ZM17.6499 92.7117L17.603 92.6782C17.6432 92.6648 17.632 92.6849 17.6499 92.7117ZM16.9975 90.2718L16.9505 90.2763L16.9372 90.2361L16.9975 90.2718ZM16.8724 90.4282L16.7785 90.4014C16.8075 90.4081 16.8858 90.3567 16.8724 90.4282ZM15.5295 88.2386V88.2632L15.4826 88.2453L15.5295 88.2409V88.2386ZM15.5586 88.3593L15.4916 88.3906L15.5273 88.3682L15.5586 88.3593ZM14.475 87.0299C14.4973 86.8511 14.6403 86.7081 14.7609 86.6031C14.857 86.5786 14.9911 86.6277 15.0626 86.6813C15.1497 86.8132 15.2592 86.9427 15.1274 87.0679C14.9285 87.2243 14.6626 87.1461 14.475 87.0299Z" fill="#E67C0A"/>
<path d="M16.6978 89.4558C16.68 89.4269 16.6622 89.4002 16.6467 89.3735C16.6556 89.4069 16.6711 89.4358 16.6978 89.4558Z" fill="#E67C0A"/>
<path d="M4.02746 47.8472C3.80403 47.9656 3.51803 48.0215 3.45323 48.2717C3.49568 48.3097 3.58283 48.3231 3.54932 48.3968C3.50687 48.4304 3.43761 48.475 3.41974 48.5532C3.48006 48.7253 3.6275 48.7968 3.7839 48.8616C3.8621 48.522 3.94479 48.1846 4.02746 47.845V47.8472Z" fill="#E67C0A"/>
<path d="M3.69006 49.2905C3.69677 49.257 3.70346 49.2235 3.7124 49.19C3.72581 49.1252 3.73923 49.0604 3.75487 48.9978C3.68113 48.9934 3.60962 48.9911 3.54036 48.9911C3.44652 48.9911 3.35714 48.9911 3.28564 48.9822C3.46886 49.0045 3.60069 49.1788 3.6923 49.2905H3.69006Z" fill="#E67C0A"/>
<path d="M2.05011 47.4293C1.97637 47.3734 1.88253 47.2796 1.90711 47.188C1.92051 47.1701 1.93838 47.1657 1.95626 47.1634C1.99424 47.1634 2.03447 47.188 2.05011 47.2193C2.09703 47.2684 2.12158 47.3221 2.13946 47.3734C2.15733 47.4271 2.17073 47.4807 2.19308 47.5298C2.23329 47.5544 2.27576 47.5723 2.32045 47.5835C2.4545 47.617 2.59973 47.5924 2.73602 47.55C2.71368 47.4807 2.79635 47.4382 2.85221 47.4338C3.06893 47.36 3.20746 47.6393 3.43535 47.5366C3.59845 47.4896 3.64984 47.3377 3.81964 47.3109C3.87103 47.3444 3.91796 47.3891 3.91126 47.4494C3.83752 47.6483 3.57163 47.5589 3.56269 47.8203C3.58504 47.8896 3.66994 47.8717 3.73027 47.8762C3.80623 47.751 3.94699 47.7421 4.06541 47.6818C4.27096 46.8573 4.49663 46.0396 4.73793 45.2241C4.77815 45.0922 4.8139 44.9604 4.85412 44.8286C4.9703 44.4421 5.09319 44.0578 5.21831 43.6757C5.29204 43.4478 5.36577 43.2221 5.44174 42.9942C5.42163 42.9808 5.39929 42.9764 5.36801 42.9942C5.39706 42.8155 5.30098 42.6792 5.16916 42.5273C5.16246 42.4111 5.20937 42.2882 5.32555 42.2301C5.48195 42.0715 5.56016 42.3106 5.69645 42.2659C5.89753 41.6984 6.10534 41.1331 6.3243 40.5723C6.23716 40.5432 6.15671 40.4963 6.08745 40.4449C6.12543 40.2662 6.28406 40.1299 6.41588 40.0338C6.45163 40.0271 6.49185 40.0338 6.53431 40.045C6.6773 39.6897 6.81805 39.3345 6.96774 38.9837C7.06829 38.7446 7.17554 38.51 7.27831 38.2732C7.26938 38.2553 7.26268 38.2352 7.25821 38.2106C7.27609 38.195 7.2962 38.1905 7.31631 38.1883C7.35876 38.09 7.4012 37.9894 7.44588 37.8911C7.65814 37.4152 7.87488 36.9438 8.0983 36.4746C8.35525 35.9384 8.6189 35.4066 8.89149 34.8793C8.89149 34.7095 8.91382 34.5397 8.93616 34.3654C8.99872 34.3476 9.00542 34.2336 9.07469 34.3096C9.11714 34.3386 9.12384 34.3811 9.13054 34.4235C9.421 33.8694 9.7204 33.322 10.0287 32.7791C10.0712 32.7054 10.1091 32.6316 10.1516 32.5579C10.0689 32.54 9.97958 32.5289 9.88797 32.5199C9.69806 32.502 9.49921 32.4842 9.33834 32.3814C9.26461 32.397 9.12607 32.3322 9.09479 32.4551C9.06127 32.5892 9.06574 32.7054 9.11936 32.8148C9.135 32.9444 8.98754 32.9087 9.00988 33.0316C8.887 32.9869 9.00765 32.7947 8.87583 32.7389C8.88924 32.6316 8.95182 32.5065 8.89372 32.3903C8.81106 32.2183 8.62113 32.1825 8.51612 32.0507C8.35301 32.0083 8.20331 31.9412 8.03797 31.9524C7.98212 32.1691 8.33737 32.0842 8.37088 32.3054C8.37982 32.3725 8.33067 32.4328 8.26588 32.4194C8.14076 32.3993 7.96872 32.2205 7.87488 32.4037C7.83242 32.4596 7.83465 32.5981 7.72293 32.5557C7.68048 32.5557 7.64252 32.5557 7.60454 32.5467C6.99904 33.6505 6.42929 34.7788 5.89083 35.9227C5.88189 35.9428 5.87072 35.9652 5.86178 35.9853C5.88413 35.9741 5.90869 35.9719 5.9355 35.9786C5.93774 35.9786 5.94222 35.9786 5.94445 35.9786C5.9735 35.9875 6.00255 36.0076 6.03383 36.0277C6.15448 36.1082 6.28407 36.2288 6.40473 36.1082C6.41366 36.0992 6.4226 36.0948 6.4293 36.0836C6.49633 36.0233 6.52314 35.849 6.65049 35.9272C6.87839 35.954 7.03702 36.0836 7.14873 36.2691C7.19118 36.3405 7.22693 36.4187 7.25821 36.5059C7.29843 36.6913 7.22246 36.8678 7.17554 37.0533C7.10405 37.1494 6.99011 37.1583 6.88287 37.1784C6.80914 37.1918 6.73985 37.2097 6.69069 37.2678C6.53876 37.3013 6.37121 37.1963 6.23268 37.1248C6.26396 36.9349 5.89083 36.9684 6.05616 36.7561C5.9735 36.7159 5.87743 36.5595 5.78359 36.66C5.77018 36.8634 5.56464 37.0466 5.67858 37.2566C5.65624 37.3058 5.59145 37.2566 5.5423 37.232C5.40824 37.2566 5.48195 37.4353 5.43503 37.5091L5.27864 37.4711L5.22949 37.6074C5.20491 37.6029 5.17363 37.5873 5.14459 37.5739C4.65304 38.7044 4.19278 39.8484 3.77049 41.0124C3.36832 42.1139 3.00191 43.2311 2.6623 44.3616C2.44334 45.09 2.23555 45.8251 2.0434 46.5646C1.99648 46.7478 1.95179 46.9311 1.90487 47.1143C1.87806 47.226 1.85125 47.3377 1.8222 47.4494C1.90487 47.4561 1.98307 47.4561 2.0434 47.4315L2.05011 47.4293ZM9.04564 33.8426C9.06798 33.9655 8.98307 33.8605 8.95626 33.8918C8.96743 33.8516 9.00542 33.789 9.04564 33.8426ZM6.5276 39.511L6.48292 39.5222C6.46952 39.4887 6.48515 39.4596 6.50973 39.444C6.55442 39.4328 6.52313 39.4775 6.5276 39.5088V39.511ZM6.55888 39.5088C6.58346 39.4931 6.579 39.4618 6.60134 39.4551L6.55888 39.5088ZM6.77783 39.3077C6.73762 39.3211 6.73987 39.3836 6.71306 39.4216C6.70412 39.4373 6.6907 39.4484 6.66612 39.4484C6.68846 39.444 6.70412 39.435 6.71306 39.4216C6.7354 39.3792 6.71974 39.3032 6.77783 39.3077ZM6.50079 38.3782C6.58345 38.3939 6.63039 38.3939 6.68625 38.4497C6.73093 38.51 6.74433 38.5771 6.70188 38.6374C6.64602 38.6687 6.56335 38.7 6.48292 38.6821C6.38908 38.6463 6.30195 38.6195 6.2662 38.5301C6.31089 38.4564 6.40024 38.3715 6.50302 38.3782H6.50079ZM5.6473 37.5538C5.85285 37.556 6.0584 37.6632 6.24831 37.7347C6.27289 37.8129 6.20811 37.8286 6.15449 37.8375C5.96457 37.7146 5.67857 37.7459 5.52664 37.5873C5.53558 37.5471 5.62719 37.4532 5.6473 37.5515V37.5538ZM4.16149 41.2493C4.25533 41.1733 4.42291 41.1197 4.55473 41.1845C4.77816 41.2359 4.90327 41.5353 4.74464 41.6939C4.63739 41.8369 4.46759 41.7699 4.35588 41.7699C4.22852 41.7162 4.08554 41.6112 4.09001 41.4615C4.05873 41.3811 4.10787 41.3163 4.15926 41.2515L4.16149 41.2493ZM4.03192 42.2636L4.06096 42.2279L4.07883 42.2413L4.03192 42.2614V42.2636ZM4.13468 42.3575L4.14363 42.3173L4.15926 42.2904L4.13468 42.3575Z" fill="#E67C0A"/>
<path d="M14.0996 37.0623C14.055 37.1472 14.0125 37.2343 13.9678 37.3192C14.0036 37.2834 14.046 37.2566 14.1041 37.2499C14.1488 37.1717 14.1332 37.1136 14.0996 37.0623Z" fill="#E67C0A"/>
<path d="M5.79695 36.1372C5.75003 36.2377 5.70311 36.3383 5.65619 36.4388C5.81259 36.517 5.96229 36.5997 6.13433 36.6176C6.24604 36.3696 5.82823 36.3852 5.79695 36.1372Z" fill="#E67C0A"/>
<path d="M8.07824 31.8386C8.14751 31.8587 8.24358 31.9659 8.30391 31.8765C8.28603 31.7179 8.42232 31.5459 8.30391 31.3984C8.31508 31.3582 8.37093 31.3872 8.41339 31.3984C8.51393 31.3627 8.43348 31.2308 8.45806 31.1683L8.58319 31.1772L8.60329 31.0655C8.65692 31.0655 8.74853 31.1258 8.78205 31.0431C8.86025 30.9493 8.70384 30.889 8.80662 30.8287C8.85801 30.8532 8.83567 30.9471 8.89153 30.9784C8.94738 30.9784 8.99428 30.9627 9.0345 30.9381C9.09259 30.9024 9.13283 30.851 9.144 30.7907C9.19539 30.8153 9.20654 30.8711 9.25792 30.9069C9.34506 30.8935 9.45679 30.9113 9.49254 30.8085C9.58191 30.813 9.51265 30.9024 9.55734 30.9314C9.62884 30.8309 9.77184 30.9985 9.81429 30.8465C9.8545 30.9247 9.73607 30.9404 9.76511 31.0163C9.88353 31.3984 10.3036 31.2197 10.4488 31.5258C10.2991 31.6107 10.3081 31.8542 10.1226 31.8922C10.0489 32.0463 10.2053 32.1067 10.2634 32.1804C10.2298 32.2608 10.1159 32.3078 10.0891 32.3726C10.1561 32.386 10.1829 32.4329 10.2053 32.482C10.5449 31.8922 10.8979 31.309 11.2576 30.7303C12.2094 29.1999 13.2327 27.7163 14.3231 26.2774C15.7686 24.3716 17.3349 22.5484 19.0151 20.8124C19.0151 20.7967 19.0195 20.7788 19.0307 20.7587C19.0642 20.4593 19.2787 20.2806 19.5736 20.1778C19.596 20.1733 19.6183 20.1733 19.6407 20.1711C19.6608 20.151 19.6787 20.1331 19.6965 20.113C19.7971 20.0125 19.8998 19.9164 20.0004 19.8159C20.0205 19.7958 20.0428 19.7756 20.063 19.7555C21.3789 18.4619 22.7463 17.233 24.1606 16.0757C24.4846 15.812 24.8086 15.5484 25.137 15.2914C25.1236 15.2803 25.1124 15.2669 25.1012 15.2535C24.9962 15.1574 24.8801 15.0725 24.7639 14.9987C24.6119 14.9987 24.4913 15.2669 24.3304 15.1239C24.3595 14.9675 24.6008 15.0434 24.6946 14.8982C24.6991 14.7798 24.851 14.6949 24.813 14.5631C24.7818 14.5698 24.7058 14.5988 24.7147 14.5362C24.7281 14.4357 24.9113 14.3441 24.7751 14.2681C24.7281 14.248 24.6589 14.2279 24.6231 14.248C24.6343 14.2056 24.6678 14.1408 24.6834 14.0849C24.4779 13.9665 24.5226 14.2793 24.364 14.286C24.6053 13.8369 24.536 13.2895 24.7773 12.8628C24.9113 12.7354 25.0476 12.588 25.2018 12.4718C25.2822 12.4114 25.3694 12.3623 25.461 12.3265C25.5459 12.2953 25.6397 12.2774 25.738 12.2796C25.8721 12.3109 26.1558 12.2104 26.2474 12.4181C26.663 12.4919 26.7569 12.8717 27.0004 13.1219C26.8686 13.2203 27.0585 13.2895 27.0763 13.4079C27.1255 13.475 27.2484 13.4884 27.2752 13.5777C27.2104 13.6716 27.0965 13.466 27.0585 13.6291C27.0384 13.7096 27.0563 13.7744 27.0898 13.828C27.168 13.7721 27.2439 13.714 27.3199 13.6604C27.4495 13.5688 27.5791 13.4817 27.7087 13.3901C30.2647 11.6026 32.9592 10.0208 35.7789 8.65337C35.8191 8.32047 35.7923 7.97862 35.9219 7.67699C36.0314 7.5474 36.1409 7.39547 36.2704 7.27482C36.3375 7.21226 36.4112 7.1564 36.4939 7.11619C36.5698 7.0782 36.6525 7.05139 36.7441 7.04469C36.8692 7.05809 37.1195 6.93744 37.2267 7.11842C37.5976 7.14076 37.7294 7.44909 37.9596 7.65465C37.9685 7.65018 37.9774 7.64795 37.9864 7.64348C38.1808 7.55857 38.3729 7.47144 38.5673 7.38877C41.626 6.09512 44.763 5.07181 47.9647 4.31439C48.9679 4.07756 49.9755 3.8653 50.9921 3.68209C52.4846 3.41174 53.9883 3.19725 55.5032 3.04085C56.7454 2.91349 57.9966 2.82636 59.2523 2.7772C60.0589 2.74592 60.8677 2.72358 61.6788 2.72358C65.591 2.72358 69.4473 3.10117 73.2211 3.84296C74.0678 4.01053 74.9124 4.19597 75.7503 4.40153C75.8128 4.22055 75.9848 4.06639 76.0563 3.88764C76.2909 4.00383 76.4474 3.71113 76.6797 3.71337C76.6618 3.77146 76.5725 3.79604 76.5368 3.84519L76.5144 3.77816C76.5054 3.84072 76.4518 3.81391 76.4429 3.87647L76.4385 3.86307C76.4072 3.90328 76.2642 3.89881 76.3535 3.96584C76.2865 4.01053 76.1971 3.96584 76.11 3.93456C76.1859 4.07309 75.9938 3.98819 76.1144 4.10437C76.0429 4.13565 76.1055 4.01053 76.0251 4.05968C75.9111 4.13341 75.8575 4.27417 75.8284 4.41717C75.8865 4.43057 75.9446 4.44398 76.0027 4.45962C76.0094 4.45962 76.0162 4.45739 76.0229 4.45068C76.0184 4.45515 76.0184 4.45962 76.0139 4.46185C76.034 4.46632 76.0541 4.47079 76.0742 4.47749C76.0742 4.47303 76.072 4.46856 76.072 4.46409C76.2061 4.44175 76.0899 4.29205 76.2552 4.29652C76.1346 4.33673 76.1748 4.39036 76.1077 4.48196C76.177 4.44175 76.2172 4.50431 76.253 4.51995C76.2552 4.51995 76.2575 4.51995 76.2597 4.51995C76.2709 4.52218 76.2798 4.52218 76.291 4.51548L76.2418 4.43504C76.2731 4.46632 76.3021 4.45068 76.3312 4.42164C76.3624 4.38812 76.396 4.33897 76.434 4.31886L76.4385 4.33227C76.4831 4.33227 76.4608 4.28758 76.4697 4.26971L76.4965 4.3278C76.7244 4.2496 76.635 3.95914 76.854 3.92116C76.854 4.03287 76.6663 4.07532 76.7557 4.20938C76.6887 4.34567 76.6082 4.47973 76.5099 4.58697C77.674 4.88637 78.8269 5.22375 79.9731 5.59687C80.0624 5.56783 80.1585 5.55442 80.2479 5.55665C80.268 5.60134 80.2747 5.64826 80.2792 5.69518C81.2355 6.01021 82.1828 6.34983 83.1234 6.71625C83.1927 6.67603 83.2575 6.63135 83.2486 6.53751C83.3469 6.49729 83.3155 6.62688 83.3781 6.63581C83.4049 6.49282 83.644 6.59783 83.6105 6.41462C83.6909 6.47718 83.5748 6.55315 83.6418 6.62017C83.9613 6.96872 84.3188 6.56432 84.6316 6.81903C84.5377 6.95308 84.6025 7.14523 84.5377 7.28599C84.6204 7.32174 84.7053 7.35302 84.7879 7.38877C86.4078 8.07469 87.9874 8.82988 89.5291 9.64987C91.1199 10.4944 92.666 11.4105 94.1697 12.3936C94.7439 12.7712 95.3137 13.1555 95.8767 13.5509C96.0019 13.5375 96.1314 13.5442 96.2521 13.542C96.299 13.6001 96.2499 13.6358 96.2074 13.6626C96.1516 13.6515 96.0912 13.6537 96.0331 13.6582C96.5649 14.0358 97.0877 14.4245 97.6061 14.82C97.7379 14.5899 97.8518 14.4938 98.0306 14.3195C97.9792 14.067 97.8362 13.828 97.682 13.6291C97.5524 13.5844 97.3692 13.7744 97.2753 13.6046C97.3491 13.4794 97.5301 13.618 97.6552 13.5219C97.6954 13.4213 97.8496 13.3968 97.8563 13.2739C97.8272 13.2694 97.7535 13.2739 97.7825 13.2203C97.825 13.1376 98.0082 13.1175 97.9166 13.0102C97.8831 12.979 97.8295 12.941 97.7937 12.9477C97.8161 12.9164 97.8652 12.8695 97.8942 12.827C97.7557 12.6639 97.6999 12.9432 97.5613 12.9008C97.7423 12.7354 97.8585 12.5209 97.9769 12.3131C97.7692 12.1612 97.5636 12.007 97.3536 11.8596C92.4828 8.39643 87.0892 5.62368 81.3114 3.68209C79.0145 2.91126 76.6552 2.27002 74.2466 1.77177C70.1891 0.931683 65.9865 0.487061 61.681 0.487061C61.4173 0.487061 61.1537 0.493763 60.89 0.495998C60.0433 0.507169 59.2009 0.531746 58.3631 0.576432C58.3675 0.605478 58.3675 0.634523 58.3631 0.665803C58.334 0.650163 58.3184 0.616649 58.3027 0.5809C58.2603 0.583135 58.2178 0.587603 58.1754 0.589838L58.1821 0.674741C58.1776 0.647929 58.1128 0.601009 58.1732 0.589838C58.1106 0.594306 58.0503 0.598775 57.9877 0.601009C58.0659 0.645695 58.1419 0.688146 58.1419 0.797626C58.0368 0.779752 58.0279 0.598775 57.8894 0.663569C57.8671 0.647929 57.8447 0.630055 57.8224 0.612181C55.1345 0.777518 52.4913 1.11713 49.9085 1.61761C40.739 3.39163 32.2934 7.19885 25.061 12.5544C21.4773 15.2088 18.1906 18.2407 15.2615 21.5944C15.3441 21.5966 15.4447 21.6457 15.4938 21.6726C15.9027 21.6323 16.2647 21.7351 16.6445 21.8513C16.6534 21.9295 16.7875 21.9585 16.6847 22.0278C16.6199 22.0993 16.5261 22.0569 16.4546 22.0747C16.0993 22.0032 15.7396 21.8625 15.3843 21.8513C15.2994 21.8334 15.1609 21.8558 15.1386 21.7329C14.7498 22.1797 14.37 22.6333 13.9946 23.0913C13.9902 23.3371 13.9611 23.5784 14.0371 23.8264C13.9365 23.8353 13.9678 23.5963 13.8092 23.5427C13.7355 23.5136 13.6751 23.5225 13.6215 23.5516C13.5277 23.6678 13.4338 23.7817 13.3422 23.8979C13.2998 24.0119 13.2595 24.1191 13.1456 24.1459C13.1456 24.1459 13.1433 24.1504 13.1411 24.1526C11.9525 25.6697 10.8331 27.2449 9.78969 28.8737C9.44784 29.4076 9.11717 29.9461 8.79097 30.4913C8.54743 30.8979 8.30613 31.309 8.07153 31.7224C8.09834 31.7447 8.11176 31.776 8.07824 31.8408V31.8386ZM75.9156 4.38365C75.8665 4.37025 75.9335 4.32556 75.9111 4.30322C75.938 4.38365 75.9737 4.26747 75.9827 4.29428C75.9424 4.35237 75.9871 4.37472 75.9156 4.38365ZM75.9737 4.42387C75.9737 4.42387 75.9871 4.39706 76.0005 4.39259C76.0005 4.41493 75.996 4.44621 75.9737 4.42387ZM75.9871 4.23843L75.9827 4.18033L76.0273 4.20268L75.9871 4.23843ZM76.2083 4.42611L76.1994 4.42164L76.2396 4.3412L76.2485 4.34567L76.2083 4.42611ZM76.2842 4.31886C76.3289 4.29652 76.3334 4.30992 76.3334 4.35461C76.3245 4.3278 76.3021 4.3278 76.2842 4.31886ZM86.1151 6.0549C86.1598 6.12193 86.1866 6.20236 86.1978 6.2962C86.1174 6.39004 86.1084 6.61124 85.9252 6.64252C85.6884 6.71625 85.3286 6.62688 85.3264 6.31184C85.3085 6.16885 85.4426 6.0549 85.5275 5.97447C85.6348 5.95436 85.7487 5.92308 85.8537 5.92308C85.9565 5.92308 86.0503 5.95436 86.1173 6.05267L86.1151 6.0549ZM80.6121 3.88317C80.6166 3.71784 80.7819 3.67539 80.8668 3.61729C80.9919 3.59048 81.1595 3.59272 81.2355 3.71113C81.3025 3.75582 81.298 3.83179 81.2936 3.90775C81.2623 4.015 81.1639 4.14682 81.0299 4.16916C80.8333 4.25183 80.5763 4.09096 80.6098 3.88317H80.6121ZM78.8381 5.045L78.8023 5.07181L78.7889 5.05394L78.8381 5.045ZM78.7621 4.92882L78.7442 4.96457L78.7219 4.98691L78.7621 4.92882ZM76.9657 4.29652C77.0685 3.99936 77.3634 4.01276 77.598 3.90328C77.6338 3.9435 77.6427 4.03734 77.7253 4.01053C77.6539 4.17587 77.7142 4.33003 77.8036 4.50877C77.7812 4.62049 77.7053 4.72997 77.5801 4.75678C77.3567 4.89307 77.3724 4.51995 77.1445 4.66517C76.9747 4.62496 76.9277 4.44621 76.9679 4.29652H76.9657ZM76.6104 4.11107L76.6462 4.08426L76.6775 4.11107H76.6104ZM76.6373 3.92116L76.7266 3.89881C76.6998 3.90775 76.6596 3.98819 76.6373 3.92116ZM74.9459 2.42419C74.9191 2.45547 74.9191 2.43312 74.8923 2.41972L74.9459 2.42419ZM74.6756 3.10788L74.6666 3.14809V3.12575L74.6756 3.10788ZM74.5371 3.43185L74.4968 3.4676L74.47 3.45419L74.5371 3.43185ZM57.409 0.942855C57.4716 0.790923 57.6459 0.775283 57.7777 0.835609C58.0369 0.976369 57.981 1.24895 58.0458 1.48132C58.0034 1.50813 57.914 1.50366 57.9274 1.58186C57.7844 1.49025 57.6324 1.52153 57.4537 1.57739C57.3531 1.53941 57.2638 1.45227 57.2571 1.33162C57.1655 1.10372 57.5096 1.17522 57.409 0.94062V0.942855ZM56.9175 2.40408L56.8862 2.38173L56.8683 2.35716L56.9175 2.40408ZM56.7968 2.40855V2.45547L56.7789 2.41748L56.7968 2.40855ZM22.6636 15.6981C22.8223 15.564 23.048 15.5082 23.2423 15.4344C23.3116 15.4769 23.2736 15.5327 23.2401 15.5752C23.0122 15.6087 22.8156 15.8232 22.5966 15.8053C22.5765 15.7696 22.5854 15.6355 22.6659 15.6981H22.6636ZM21.6046 15.7718C21.7141 15.8858 21.7431 16.022 21.6538 16.1539C21.5532 16.2678 21.3901 16.3125 21.2717 16.2857C21.1421 16.241 21.227 16.1002 21.1689 16.0153C21.1778 15.8009 21.4527 15.7048 21.6068 15.7718H21.6046ZM17.2075 21.9563C17.2544 21.9764 17.3215 22.0345 17.25 22.0725C17.098 22.0725 17.241 21.9943 17.2075 21.9563Z" fill="#E67C0A"/>
<path d="M12.4686 41.1241C12.3278 41.1308 12.3412 40.9766 12.2675 40.9029C12.0418 41.4257 11.8251 41.953 11.6173 42.4848C11.6531 42.4982 11.6888 42.5138 11.7246 42.5294H12.2317C12.3971 42.3865 12.5401 42.2099 12.6563 42.0334C12.6563 41.8748 12.377 41.743 12.5311 41.5754C12.6965 41.6089 12.6138 41.8614 12.7657 41.9619C12.8484 41.9664 12.9154 42.0357 12.9914 42.0737C13.054 41.9173 13.1165 41.7631 13.1813 41.6089C13.398 41.0995 13.6237 40.5946 13.8538 40.0918C13.8762 40.0449 13.8985 39.998 13.9186 39.9511C13.9454 39.893 13.9745 39.8327 14.0013 39.7746C13.9633 39.817 13.9276 39.8595 13.8918 39.9019C13.8605 39.9377 13.827 39.9734 13.7935 40.0025C13.7466 40.0427 13.6952 40.0762 13.6349 40.0941C13.5991 40.065 13.5544 39.9265 13.6617 39.9556C13.6751 39.9287 13.6952 39.9064 13.7131 39.8818C13.7444 39.8371 13.7756 39.7969 13.8136 39.7567C13.9186 39.6472 14.0415 39.5489 14.1487 39.4506C14.1487 39.4506 14.151 39.4506 14.1532 39.4506C14.3163 39.111 14.4817 38.7736 14.6515 38.4362C14.6559 38.4072 14.6626 38.3781 14.6403 38.3603C14.5509 38.4653 14.4079 38.2664 14.3476 38.4295C14.3119 38.3402 14.4415 38.3335 14.4191 38.2463C14.3342 37.8598 13.941 37.9469 13.7645 37.7168C13.5924 38.0542 13.4248 38.3916 13.2595 38.7334C13.2171 38.8228 13.1724 38.9144 13.1299 39.0037C12.8931 39.4998 12.6652 40.0002 12.444 40.5052C12.4976 40.4784 12.5535 40.4605 12.6049 40.4627C12.7657 40.5342 12.8506 40.6638 12.8104 40.8359C12.7546 40.9945 12.6049 41.1062 12.4708 41.1263L12.4686 41.1241Z" fill="#E67C0A"/>
<path d="M26.0303 21.867C25.9947 21.8981 25.9569 21.9315 25.9213 21.9626C25.9502 21.9782 25.9813 21.9915 26.0236 22.0182C26.0903 21.9648 26.0347 21.9137 26.0303 21.8647V21.867Z" fill="#E67C0A"/>
<path d="M49.0841 62.1555C51.524 63.1207 52.6322 64.993 52.6322 67.2072V67.2363C52.6322 72.0601 48.8853 73.8475 43.8358 73.8475H38.898C35.493 73.8475 34.4719 72.6276 34.4719 69.3633V55.4862C34.4719 52.2219 35.493 51.002 38.898 51.002H43.0404C48.2329 51.002 51.7809 53.3859 51.7809 57.6132V57.783C51.7809 59.5436 50.9006 61.1322 49.0841 62.1533V62.1555ZM40.2297 56.6502V60.1134H43.3219C45.1943 60.1134 46.0187 59.0342 46.0187 58.0712V57.8724C46.0187 56.8513 45.1965 55.8302 43.3219 55.8302H41.0519C40.3995 55.8302 40.2297 55.971 40.2297 56.6525V56.6502ZM40.2297 64.7361V68.1992C40.2297 68.8807 40.3995 69.0215 41.0519 69.0215H44.1732C46.0455 69.0215 46.87 68.0004 46.87 66.9771V66.7782C46.87 65.7572 46.0477 64.7339 44.1732 64.7339H40.2297V64.7361Z" fill="#E67C0A"/>
<path d="M65.4302 73.8476L65.2023 72.6567C64.1231 73.6778 62.5904 74.3302 60.8879 74.3302H60.2645C57.9096 74.3302 54.4464 73.0544 54.4464 68.597C54.4464 64.1396 57.7107 62.9488 61.3995 62.9488H64.3219C64.2661 61.2753 63.073 60.8195 61.7101 60.8195C61.0577 60.8195 60.4902 60.9334 59.8087 61.1323C59.3551 61.2753 58.9865 61.4719 58.4748 61.6998C57.4538 62.2115 55.9501 61.8137 55.4384 60.6787C54.9 59.5437 55.3535 58.3796 56.3456 57.6423C57.8492 56.5364 60.2332 56.1096 62.1636 56.1096C66.2792 56.1096 69.9099 57.5574 69.9099 63.6861V73.8454H65.4257L65.4302 73.8476ZM64.3242 67.1202H61.7414C60.6622 67.1202 60.0679 67.6586 60.0679 68.568C60.0679 69.4774 60.6644 69.9577 61.6565 69.9577H62.0542C63.1043 69.9577 64.3242 69.3344 64.3242 68.1412V67.1202Z" fill="#E67C0A"/>
<path d="M84.3881 73.8475L84.0753 72.002C82.9962 73.4498 81.3517 74.3301 79.3073 74.3301C75.5605 74.3301 72.3833 72.4846 72.3833 66.4967V63.9429C72.3833 57.9551 75.5627 56.1095 79.3073 56.1095C80.8691 56.1095 82.1449 56.6212 83.1392 57.4434V52.7045C83.1392 50.8322 84.5289 49.8669 86.0348 49.8669C87.5407 49.8669 88.9014 50.8322 88.9014 52.7045V73.8453H84.3881V73.8475ZM78.2282 66.8944C78.2282 68.8249 79.676 69.4773 80.668 69.4773C81.6601 69.4773 83.052 68.8539 83.1369 67.0374V63.4045C83.052 61.588 81.6333 60.9646 80.668 60.9646C79.7028 60.9646 78.2282 61.6171 78.2282 63.5475V66.8967V66.8944Z" fill="#E67C0A"/>
</svg>
