<svg width="124" height="124" viewBox="0 0 124 124" fill="none" xmlns="http://www.w3.org/2000/svg">
<path d="M78.081 11.348C78.6954 11.5401 79.3076 11.7457 79.9153 11.9624C80.6728 12.2305 81.4257 12.5165 82.1719 12.8181C82.4088 12.9142 82.6456 13.008 82.8802 13.1086C83.6645 13.4393 84.4375 13.79 85.2016 14.1565C85.8943 14.4894 86.5802 14.8402 87.2549 15.2021C88.4704 15.8545 89.6591 16.5516 90.8187 17.2956C90.879 17.3269 90.9393 17.356 91.0041 17.309C91.1001 17.3783 91.1873 17.5034 91.3281 17.5079C91.5359 17.5191 91.6677 17.3582 91.8486 17.3269C91.976 17.1929 92.1168 17.0856 92.1927 16.9225C92.0162 16.7549 91.9112 17.137 91.6811 17.0543C91.6118 17.0275 91.5783 16.9493 91.6252 16.8957C91.6878 16.8175 91.8442 16.7572 91.8732 16.6566C90.5394 15.7786 89.1631 14.9608 87.7488 14.2012C87.217 13.9152 86.6807 13.6381 86.1378 13.37C84.6587 12.6416 83.1439 11.978 81.5911 11.3837C80.961 11.1424 80.3264 10.9145 79.6874 10.6956C77.9268 10.0968 76.1238 9.58959 74.2872 9.17625C72.6718 8.81206 71.0274 8.51937 69.3606 8.30264C69.2086 8.28254 69.0545 8.26243 68.9025 8.24455C68.8444 8.3518 68.7149 8.46351 68.5696 8.45904C68.3775 8.49703 68.1786 8.33839 68.1719 8.16188C67.1307 8.05017 66.0828 7.96974 65.0238 7.91835C65.0327 7.98314 65.0484 8.0524 65.0685 8.1239C65.0216 8.23785 64.9166 8.33616 64.7781 8.33839C64.5099 8.43447 64.6083 8.04123 64.3357 8.14624C64.2217 8.09486 64.1792 7.98984 64.1859 7.8826C64.0452 7.87813 63.9044 7.87366 63.7637 7.86919C63.605 8.00548 63.4218 8.09486 63.2051 8.07922C63.0621 8.09709 62.9884 7.94963 62.9057 7.85579C62.7337 7.85579 62.5639 7.85132 62.3919 7.85132C61.3127 7.85132 60.2402 7.8826 59.1767 7.94516C58.6516 7.97644 58.1288 8.01666 57.606 8.06358C56.9536 8.12167 56.3056 8.19093 55.6622 8.27136C55.6488 8.27136 55.6331 8.27583 55.6197 8.27583C55.6197 8.29818 55.6175 8.31828 55.613 8.34063C55.5974 8.4367 55.5549 8.51714 55.4521 8.56406C55.3829 8.59534 55.3047 8.60874 55.2153 8.60204C55.1505 8.52607 54.9919 8.48362 54.9472 8.36297C53.3944 8.57746 51.8616 8.86122 50.3535 9.2053C50.492 9.15838 50.6484 9.20976 50.7669 9.25892C50.8205 9.31924 50.8339 9.43766 50.8205 9.50916C50.7557 9.62087 50.702 9.74823 50.5613 9.69907C50.3736 9.6097 50.3334 9.38851 50.349 9.20753C50.0697 9.27232 49.7927 9.33712 49.5179 9.40415C49.5246 9.49799 49.5179 9.58512 49.4441 9.64098C49.4598 9.56055 49.4553 9.48905 49.4375 9.42426C49.3637 9.44213 49.29 9.46 49.2185 9.47788C48.7604 9.59406 48.3024 9.71471 47.8489 9.84207C45.8671 10.3984 43.9322 11.0642 42.0487 11.835C40.9338 12.2908 39.839 12.7824 38.762 13.3097C38.7464 13.3923 38.7263 13.475 38.7218 13.5577C38.6726 13.5689 38.59 13.5353 38.5766 13.6158C38.5252 13.551 38.4626 13.5152 38.3911 13.4929C38.0381 13.6694 37.6873 13.8504 37.3388 14.0336L37.3567 14.0693L37.3343 14.0381C36.9746 14.2257 36.6193 14.4201 36.2641 14.6167C36.2887 14.7575 36.2418 14.9094 36.1747 15.0301C36.0474 15.0189 35.9357 14.9385 35.8463 14.8513C35.1514 15.2468 34.4678 15.6579 33.7952 16.0824C33.7908 16.1428 33.7237 16.2388 33.8086 16.279C33.9091 16.3706 33.9851 16.2008 34.0454 16.3193C34.0164 16.3751 33.9136 16.3438 33.8756 16.4064C33.8645 16.5539 33.9606 16.67 34.07 16.6969C34.041 16.7527 33.9784 16.7616 33.936 16.8175C33.9471 16.9136 33.9203 17.0387 34.0343 17.0834C34.0253 17.1839 33.9293 17.099 33.8958 17.1482C33.9583 17.1973 33.9204 17.2688 33.9092 17.3314C36.4384 15.7026 39.1061 14.2905 41.9034 13.1064C42.1738 12.9924 42.4441 12.8829 42.7167 12.7734C44.1377 12.1992 45.5789 11.6898 47.0356 11.2452C48.1505 10.9056 49.2766 10.604 50.4094 10.3381C51.8482 10.0029 53.3005 9.73035 54.7662 9.5181C55.4812 9.41532 56.1984 9.32595 56.9179 9.25222C57.3625 9.2053 57.8093 9.16508 58.2584 9.13156C58.2584 9.13156 58.2607 9.13156 58.2629 9.13156C58.2696 9.12039 58.274 9.10699 58.2852 9.09805C58.3076 9.10252 58.3165 9.11369 58.3254 9.1271C58.4327 9.11816 58.5399 9.11146 58.6472 9.10475C58.7075 8.96399 58.7209 8.78078 58.8483 8.69588C58.8929 8.8277 58.7834 8.97293 58.7834 9.09805C58.9667 9.08688 59.1476 9.07571 59.3308 9.06454C59.3442 9.05336 59.3599 9.04666 59.3711 9.03326C59.275 9.01315 59.1454 8.96846 59.1253 8.87015C59.1387 8.79866 59.2325 8.80312 59.2772 8.83664C59.4068 8.88579 59.4627 8.9841 59.5387 9.05113C59.6146 9.04666 59.6906 9.04219 59.7666 9.03772C59.8805 8.99751 59.9833 8.92154 60.0749 8.83664C60.0212 8.78078 60.0816 8.70482 60.133 8.67354C60.305 8.50373 60.5642 8.70482 60.7317 8.50596C60.8636 8.38755 60.8435 8.21998 60.9932 8.1172C61.0557 8.1239 61.1205 8.14848 61.1451 8.20657C61.1652 8.43 60.8748 8.46575 60.9842 8.71599C61.0379 8.77184 61.1094 8.71599 61.1675 8.69364C61.1831 8.51267 61.3618 8.4434 61.4356 8.29594C61.4289 8.37414 61.5026 8.33392 61.5339 8.3451C61.4534 8.5864 61.1831 8.76291 61.1004 8.99304C61.5316 8.98187 61.9606 8.9774 62.3941 8.9774C65.359 8.9774 68.2837 9.22317 71.1614 9.70354C73.5052 10.0968 75.8154 10.6442 78.0832 11.3524L78.081 11.348ZM49.7279 10.4543L49.757 10.4721L49.7748 10.4922L49.7279 10.4543ZM49.8351 10.4386L49.8307 10.3962L49.853 10.4274L49.8374 10.4386H49.8351ZM65.9712 8.81206L65.9421 8.82994L65.998 8.77631L65.9712 8.80983V8.81206ZM66.0114 8.93942L66.0002 8.91707H66.0538L66.0091 8.93942H66.0114Z" fill="#E63D3D"/>
<path d="M27.3023 100.972C27.3023 100.938 27.309 100.903 27.318 100.865C27.2442 100.798 27.1683 100.733 27.0945 100.668C27.1482 100.793 27.2152 100.916 27.3023 100.972Z" fill="#E63D3D"/>
<path d="M39.8479 110.186C39.7786 109.924 39.5306 109.625 39.7742 109.379C39.7742 109.272 39.8501 109.254 39.9238 109.227C38.9475 108.765 37.9845 108.276 37.0416 107.757C35.424 106.868 33.8555 105.894 32.3429 104.839C30.6337 103.648 28.996 102.355 27.4297 100.96C27.3895 101.03 27.3359 101.081 27.3024 101.141C27.3135 101.334 27.4454 101.474 27.5906 101.591C27.6331 101.532 27.7135 101.577 27.7492 101.62C27.9302 101.754 27.7849 102.022 27.9927 102.149C28.1201 102.254 28.2743 102.209 28.3927 102.332C28.3949 102.393 28.3837 102.455 28.3323 102.484C28.129 102.536 28.0531 102.274 27.8386 102.41C27.7961 102.469 27.8564 102.524 27.8877 102.576C28.0575 102.565 28.1469 102.719 28.2966 102.764C28.2229 102.77 28.2721 102.831 28.2654 102.862C28.0174 102.822 27.8051 102.574 27.566 102.553C28.9222 103.709 30.3365 104.799 31.8067 105.818C33.3729 106.904 34.9972 107.907 36.6774 108.823C37.8013 109.437 38.9519 110.012 40.1227 110.546C39.9998 110.452 39.8925 110.344 39.8501 110.181L39.8479 110.186Z" fill="#E63D3D"/>
<path d="M70.2409 114.599C70.442 114.217 70.1023 114 70.0577 113.7C69.5549 113.774 69.05 113.839 68.545 113.897C66.5141 114.132 64.4631 114.255 62.3919 114.255C60.8681 114.255 59.3555 114.188 57.854 114.06C56.8732 113.977 55.8968 113.866 54.9249 113.729C53.725 113.56 52.5342 113.347 51.3522 113.095C51.064 113.035 50.7781 112.972 50.4921 112.905C50.4094 113.146 50.4139 113.441 50.3781 113.631C50.425 113.408 50.6931 113.278 50.7959 113.191C50.7021 113.502 50.5971 113.636 50.434 113.881C50.4608 113.942 50.492 113.998 50.5278 114.053C51.0484 114.172 51.5712 114.281 52.0985 114.384C52.1231 114.348 52.1477 114.313 52.1678 114.275C52.2147 114.214 52.2504 114.087 52.3688 114.147C52.494 114.239 52.3309 114.366 52.2638 114.415C53.162 114.587 54.0691 114.737 54.9829 114.862C55.1974 114.891 55.412 114.918 55.6287 114.945C57.8451 115.224 60.1017 115.369 62.3941 115.369C64.4295 115.369 66.4382 115.253 68.4155 115.034C69.0255 114.967 69.6309 114.887 70.2319 114.8C70.185 114.73 70.1515 114.646 70.0398 114.708C70.0756 114.601 70.1984 114.692 70.2431 114.599H70.2409ZM51.236 113.267C51.2629 113.231 51.2226 113.178 51.2271 113.128C51.2271 113.111 51.2316 113.093 51.2517 113.079C51.2338 113.095 51.2271 113.113 51.2271 113.128C51.2316 113.18 51.2919 113.236 51.236 113.267ZM53.2424 114.129C53.0615 114.248 52.8224 114.275 52.6146 114.324C52.5476 114.27 52.5945 114.219 52.6369 114.179C52.8738 114.174 53.1039 113.98 53.3296 114.029C53.3452 114.069 53.3206 114.203 53.2447 114.132L53.2424 114.129ZM54.3373 114.194C54.239 114.062 54.2278 113.919 54.3373 113.797C54.4557 113.692 54.6277 113.669 54.7483 113.712C54.8757 113.774 54.7707 113.908 54.8176 114.002C54.7796 114.221 54.4847 114.284 54.335 114.194H54.3373Z" fill="#E63D3D"/>
<path d="M72.3187 114.125C72.2785 114.239 72.2919 114.348 72.312 114.453C73.4448 114.241 74.5664 113.995 75.6746 113.714C76.4611 113.513 77.2431 113.296 78.0161 113.061C78.1569 113.019 78.2999 112.974 78.4406 112.93C78.6127 112.876 78.7869 112.82 78.959 112.764C80.0739 112.405 81.1709 112.007 82.2523 111.578C82.192 111.544 82.1004 111.564 82.0468 111.486C81.8166 111.484 81.591 111.437 81.3586 111.504C81.3541 111.421 81.5508 111.45 81.5977 111.321C81.6669 111.16 81.5061 111.073 81.4279 110.979C81.3251 110.921 81.191 110.899 81.1352 110.814C80.9654 110.879 80.7978 110.943 80.628 111.006C80.3353 111.113 80.0404 111.218 79.7455 111.321C79.3589 111.455 78.9724 111.587 78.5836 111.712C77.1448 112.177 75.6902 112.583 74.2201 112.921C73.409 113.106 72.5913 113.274 71.7713 113.421C71.8272 113.513 71.874 113.611 71.8986 113.718C71.9813 113.772 72.0506 113.96 72.1936 113.875C72.35 113.781 72.4528 113.669 72.5042 113.519C72.6092 113.385 72.7119 113.555 72.8057 113.421C72.8772 113.575 72.5913 113.642 72.6583 113.817C72.5466 113.904 72.3723 113.962 72.3209 114.123L72.3187 114.125Z" fill="#E63D3D"/>
<path d="M105.576 92.9997C105.648 92.9148 105.726 92.8389 105.817 92.7786C105.902 92.7227 105.996 92.6802 106.103 92.6579C106.162 92.6579 106.237 92.6311 106.318 92.6087C106.436 92.4412 106.553 92.2714 106.669 92.1038C109.001 88.7233 110.959 85.0636 112.476 81.1826H111.274C111.151 81.4909 111.026 81.7993 110.896 82.1054C108.7 87.3001 105.712 92.0546 102.003 96.2842C101.259 97.1332 100.486 97.9621 99.6843 98.7664C99.6597 98.791 99.6374 98.8156 99.6128 98.8379C97.7114 100.739 95.6827 102.48 93.5445 104.053C91.8397 105.306 90.0635 106.455 88.2202 107.494C86.998 108.182 85.7446 108.823 84.4643 109.415C83.9393 109.656 83.4143 109.893 82.8803 110.119C82.315 110.358 81.7452 110.584 81.1755 110.8C81.4905 110.963 81.8234 110.655 82.1385 110.827C82.3261 110.93 82.6322 110.95 82.6412 111.223C82.7149 111.294 82.6546 111.357 82.6345 111.428C83.4276 111.104 84.2119 110.762 84.9849 110.405C87.074 109.435 89.0893 108.336 91.0242 107.116C91.69 106.696 92.3447 106.265 92.9904 105.818C94.2908 104.915 95.5486 103.957 96.7619 102.947C96.7529 102.895 96.6993 102.846 96.7842 102.828C96.8267 102.808 96.8624 102.819 96.8982 102.835C97.9215 101.977 98.9135 101.081 99.872 100.149C100.654 99.3898 101.411 98.6033 102.147 97.7968C102.151 97.6448 102.285 97.5286 102.421 97.4907C103.38 96.4227 104.298 95.3167 105.169 94.1727C105.158 93.9538 105.161 93.7371 105.221 93.5293C105.333 93.3572 105.44 93.1629 105.576 92.9975V92.9997ZM91.5158 106.102C91.4443 106.265 91.203 106.254 91.1047 106.157C91.0533 106.037 91.0734 105.923 91.1828 105.849C91.2946 105.791 91.4331 105.807 91.518 105.865C91.6051 105.939 91.4956 106.021 91.518 106.104L91.5158 106.102ZM96.3597 102.721C96.3306 102.692 96.2971 102.627 96.3641 102.618C96.4803 102.663 96.3463 102.681 96.3597 102.721Z" fill="#E63D3D"/>
<path d="M13.9589 82.268C13.9366 82.2168 13.9144 82.1679 13.8922 82.1167C13.8944 82.1367 13.9011 82.1545 13.9077 82.1745C13.9211 82.2101 13.9389 82.239 13.9567 82.268H13.9589Z" fill="#E63D3D"/>
<path d="M12.5895 81.8842C12.8532 81.9378 13.1369 81.9691 13.3559 82.1367C13.4497 82.1255 13.6128 82.2194 13.6665 82.0719C13.7223 81.9088 13.7313 81.7658 13.6754 81.625C13.6754 81.6139 13.6754 81.6049 13.6799 81.5938C13.624 81.4552 13.5659 81.3189 13.5123 81.1804H12.3102C12.4018 81.415 12.4979 81.6496 12.5918 81.8842H12.5895Z" fill="#E63D3D"/>
<path d="M27.3962 21.972C27.5213 21.9385 27.6196 21.9631 27.7112 22.0123C28.0687 21.6972 28.4307 21.3889 28.7971 21.085C29.0898 20.8415 29.3825 20.6047 29.6797 20.3678C30.0416 20.0796 30.4081 19.7958 30.779 19.5166C30.9644 19.378 31.1499 19.2417 31.3353 19.1055C31.8805 18.7077 32.4278 18.3167 32.9864 17.9392C32.8993 17.8878 32.8166 17.8364 32.7987 17.7269C32.6311 17.6375 32.5552 17.8073 32.4703 17.8677C32.3831 17.8252 32.3362 17.6956 32.267 17.6643C32.2335 17.8051 32.0726 17.7805 31.9989 17.8699C31.9877 17.8945 31.9787 17.9168 31.9631 17.9392C31.9698 17.9079 31.9832 17.8878 31.9989 17.8699C32.0949 17.6666 32.0994 17.4052 32.1553 17.1616C31.695 17.4767 31.2369 17.7962 30.7879 18.1246C30.3566 18.4374 29.9299 18.7591 29.5099 19.0853C29.0496 19.4428 28.5961 19.807 28.147 20.1779C27.8185 20.4505 27.4923 20.7253 27.1706 21.0046C27.1929 21.0046 27.2153 21.0001 27.2376 20.9957C27.2622 21.1811 27.4387 21.2168 27.5817 21.295C27.6375 21.3263 27.6911 21.3621 27.7269 21.4157C27.6688 21.4336 27.5996 21.371 27.5393 21.3688L27.5817 21.3129C27.5638 21.3219 27.5504 21.3196 27.5393 21.3174C27.5147 21.3107 27.499 21.2906 27.461 21.3085L27.47 21.2973C27.4186 21.2928 27.3426 21.1722 27.3381 21.2839C27.2644 21.2526 27.251 21.1543 27.2287 21.0672C27.1572 21.2079 27.1192 21.0001 27.0902 21.1655C27.0276 21.1275 27.1415 21.1074 27.0902 21.0739C26.9874 21.1632 26.889 21.2526 26.7863 21.342C26.8689 21.4023 26.9248 21.2571 27.0075 21.3867C26.9069 21.3085 26.8846 21.3732 26.7729 21.3665C26.8712 21.4135 26.7818 21.5162 26.8466 21.5386L26.8846 21.4537C26.8756 21.4984 26.9047 21.5118 26.9471 21.5185C26.9918 21.5274 27.0499 21.5252 27.0902 21.5475L27.0812 21.5587C27.0812 21.5587 27.0879 21.5632 27.0902 21.5654C27.1125 21.5833 27.1326 21.552 27.1505 21.5498L27.1169 21.6056C27.3069 21.7531 27.499 21.5162 27.651 21.6771C27.5571 21.7397 27.4186 21.6056 27.3583 21.7553C27.1639 21.7799 26.965 21.7866 26.7885 21.733C26.6902 21.7017 26.6008 21.6503 26.5226 21.5743C26.2344 21.8313 25.9506 22.0927 25.6691 22.3563C24.7285 23.2366 23.8214 24.1505 22.9455 25.0956C23.0059 25.2252 22.988 25.3816 22.9232 25.4776C22.836 25.5804 22.7377 25.4508 22.6394 25.4754C22.6305 25.4709 22.6238 25.4642 22.6149 25.4598C22.2909 25.815 21.9714 26.177 21.6564 26.5412C20.528 27.8527 19.4578 29.2156 18.4591 30.6321C17.7419 31.6487 17.0582 32.6921 16.4125 33.7579C16.3924 33.8852 16.3678 34.0126 16.3387 34.1444C16.2673 34.1578 16.2494 34.2829 16.1801 34.1936C16.1712 34.1869 16.1689 34.1802 16.1645 34.1712C15.9388 34.5488 15.7199 34.9309 15.5031 35.3152C15.3601 35.5699 15.2194 35.8246 15.0809 36.0816C15.1859 36.1017 15.2953 36.1195 15.3981 36.1486C15.3758 35.9966 15.3668 35.8447 15.3869 35.6928C15.4718 35.5073 15.5523 35.2995 15.664 35.1163C15.7221 35.0225 15.7891 34.9354 15.8718 34.8616C15.9477 34.7946 16.0349 34.7387 16.1377 34.7008C16.1489 34.7008 16.1622 34.6941 16.1756 34.6896C16.1756 34.6203 16.2114 34.6494 16.2427 34.665C16.3902 34.6025 16.5756 34.4952 16.7163 34.6337C16.8839 34.598 17.0247 34.6248 17.1521 34.6807C17.1744 34.6427 17.1967 34.6025 17.219 34.5645C17.8178 33.5635 18.4524 32.5849 19.1182 31.6264C19.9762 30.3908 20.8855 29.191 21.8507 28.0314C22.8964 26.7735 24.0001 25.5581 25.1686 24.3918C25.8546 23.7058 26.5584 23.0423 27.2778 22.3988C27.2644 22.372 27.2376 22.3452 27.1885 22.3251C27.1259 22.162 27.251 22.0234 27.394 21.9743L27.3962 21.972ZM26.869 21.4157V21.4068L26.9561 21.3956V21.4045L26.869 21.4157ZM26.9985 21.4783C27.0164 21.4559 27.003 21.438 27.0008 21.4179C27.0432 21.4425 27.0365 21.4537 26.9985 21.4783ZM27.3918 21.628L27.3538 21.5721L27.3962 21.5855L27.3918 21.6257V21.628ZM27.5236 21.4894L27.5929 21.552C27.5705 21.5341 27.4811 21.5453 27.5236 21.4894Z" fill="#E63D3D"/>
<path d="M33.5159 17.5881C33.6232 17.5189 33.7282 17.4474 33.8354 17.3781C33.822 17.3714 33.8064 17.3692 33.7885 17.3759C33.641 17.4139 33.5673 17.4943 33.5159 17.5881Z" fill="#E63D3D"/>
<path d="M99.2463 15.0502C100.084 15.716 100.904 16.4064 101.708 17.1169C102.421 17.7492 103.121 18.3994 103.809 19.0674C103.907 19.1613 104.003 19.2574 104.099 19.3512C104.197 19.1792 104.271 18.9825 104.414 18.8485C104.41 18.8485 104.405 18.8462 104.401 18.8462C104.374 18.8016 104.448 18.7792 104.492 18.7502C104.544 18.6318 104.363 18.5938 104.327 18.5178L104.439 18.415L104.356 18.3033C104.401 18.2564 104.528 18.2251 104.486 18.129C104.468 17.9838 104.285 18.0687 104.318 17.928C104.383 17.9034 104.445 18.0017 104.519 17.9771C104.633 17.8632 104.638 17.7001 104.564 17.5995C104.629 17.5749 104.687 17.6107 104.761 17.5973C104.821 17.5101 104.93 17.4275 104.87 17.3068C104.948 17.2309 104.968 17.3671 105.031 17.3515C105.017 17.2845 105.067 17.251 105.114 17.2197C104.857 16.9739 104.597 16.7304 104.338 16.4891C103.945 16.1226 103.545 15.7607 103.141 15.4032C102.484 14.8245 101.816 14.2593 101.134 13.7074C100.906 13.5219 100.678 13.3365 100.448 13.1555C100.406 13.2427 100.375 13.332 100.381 13.4058C100.448 13.3566 100.551 13.303 100.625 13.3454C100.661 13.3946 100.605 13.4527 100.56 13.4594C100.448 13.5152 100.35 13.4862 100.258 13.4996C100.129 13.6158 100.102 13.7878 100.102 13.9554C100.167 13.9554 100.18 14.0358 100.171 14.085C100.178 14.2905 99.9054 14.3352 99.9323 14.5542C99.93 14.7039 100.046 14.7865 100.026 14.9407C99.9859 14.9765 99.9344 15.0033 99.883 14.9832C99.7334 14.867 99.8763 14.6659 99.6574 14.5899C99.5926 14.5899 99.5859 14.6681 99.5658 14.7173C99.6619 14.8223 99.6194 14.9586 99.6507 15.0815C99.653 15.0926 99.6552 15.1016 99.6596 15.1128C99.6149 15.0636 99.5971 15.1329 99.5725 15.1463C99.5591 15.1239 99.5502 15.0971 99.5413 15.0725C99.4586 14.8357 99.5278 14.5184 99.3022 14.3777C99.2597 14.4045 99.2239 14.4737 99.1703 14.4268C99.1525 14.3821 99.1324 14.3106 99.0698 14.2749C98.8709 14.2838 98.7681 14.4402 98.6497 14.581C98.8486 14.7352 99.0452 14.8893 99.2418 15.0435L99.2463 15.0502ZM101.874 15.8679C101.776 15.9618 101.621 15.9752 101.507 15.9193C101.438 15.8858 101.385 15.8277 101.367 15.7495C101.329 15.6423 101.38 15.5618 101.436 15.4948C101.463 15.4613 101.492 15.43 101.512 15.401C101.621 15.3295 101.782 15.2714 101.898 15.3541C101.979 15.3719 102.003 15.4457 102.028 15.5216C102.039 15.6356 101.992 15.7964 101.872 15.8679H101.874Z" fill="#E63D3D"/>
<path d="M98.3325 14.3419C98.4151 14.4045 98.4956 14.467 98.5783 14.5296C98.6497 14.3642 98.6922 14.1788 98.7458 14.0559C98.6699 14.2257 98.4464 14.2905 98.3347 14.3419H98.3325Z" fill="#E63D3D"/>
<path d="M96.0424 19.8963C96.0602 19.874 96.0736 19.8471 96.0893 19.8248C96.0692 19.7846 96.0602 19.7444 96.0602 19.7042C96.0223 19.6729 95.9843 19.6438 95.9463 19.6125C95.9307 19.6796 95.8904 19.7421 95.8725 19.7935C95.8681 19.798 95.8636 19.8002 95.8591 19.8047C95.8658 19.8427 95.8882 19.8784 95.9306 19.9142C95.9396 19.9209 95.9441 19.9298 95.9552 19.9365C95.9955 19.9455 96.02 19.9253 96.0424 19.8963Z" fill="#E63D3D"/>
<path d="M96.9919 20.4683C96.916 20.5822 96.8512 20.6962 96.7886 20.7766C96.878 20.6671 97.0254 20.6291 97.155 20.609C97.0992 20.5621 97.0456 20.5152 96.9919 20.4683Z" fill="#E63D3D"/>
<path d="M96.1899 19.8047C96.1877 19.827 96.1854 19.8494 96.1832 19.8717C96.1675 20.0169 96.1742 20.1555 96.2792 20.2649C96.3329 20.2493 96.3909 20.1823 96.4356 20.2493C96.4423 20.3007 96.4446 20.3856 96.5004 20.4415C96.6367 20.4705 96.7507 20.4236 96.8579 20.3566C96.6591 20.1912 96.4602 20.0259 96.2591 19.8605C96.2368 19.8427 96.2144 19.8248 96.1921 19.8069L96.1899 19.8047Z" fill="#E63D3D"/>
<path d="M95.6179 19.3511C95.1845 19.0115 94.7465 18.6764 94.3041 18.3502C93.6964 17.9011 93.0797 17.4654 92.4541 17.0431C92.4005 17.0878 92.3491 17.1191 92.2843 17.0208C92.2285 17.0766 92.0743 17.1124 92.1302 17.2151C92.291 17.2822 92.3826 17.4989 92.5837 17.4654C92.6172 17.4967 92.5592 17.5346 92.5256 17.5682C92.5078 17.6843 92.6731 17.6754 92.7223 17.7313L92.6999 17.767L92.6485 17.8452L92.7446 17.9234C92.7245 17.9614 92.6642 17.9994 92.6552 18.0463C92.6709 18.0686 92.6798 18.0954 92.6843 18.1223C92.7401 18.2072 92.8608 18.1178 92.863 18.2384C92.8228 18.2675 92.767 18.2295 92.7156 18.2317C92.8251 18.368 92.8518 18.5155 92.8518 18.6652C92.8764 18.6831 92.901 18.7009 92.9256 18.7188C93.3501 19.0204 93.7679 19.3332 94.1835 19.6483C94.3823 19.8002 94.5812 19.9499 94.7801 20.1041C94.9521 20.2381 95.1197 20.3744 95.2895 20.5107C95.2895 20.504 95.2939 20.4973 95.2962 20.4906C95.2247 20.475 95.2336 20.3811 95.2582 20.332C95.3051 20.1331 95.5531 20.1331 95.6291 19.9611C95.6336 19.9521 95.6357 19.941 95.638 19.9298C95.6089 19.932 95.5777 19.9298 95.5486 19.9186C95.4749 19.9209 95.4369 19.8628 95.399 19.8047C95.3632 19.7086 95.3677 19.5567 95.4548 19.4673C95.4928 19.407 95.5531 19.3668 95.6179 19.3466V19.3511Z" fill="#E63D3D"/>
<path d="M119.362 40.1098C119.292 39.9534 119.198 39.8461 119.064 39.7813C118.95 39.6696 119.12 39.5914 119.004 39.4886C119.156 39.4395 119.187 39.7143 119.359 39.6696C119.429 39.7836 119.464 39.9534 119.61 40.0204C119.782 40.1053 119.954 40.0472 120.121 40.0494C119.312 37.8844 118.385 35.7752 117.349 33.7331C116.482 32.0284 115.536 30.3705 114.522 28.7618C114.082 28.067 113.628 27.381 113.164 26.7041C112.61 25.8975 112.035 25.1065 111.443 24.329C111.276 24.11 111.108 23.8889 110.938 23.6699C110.92 23.6945 110.907 23.7213 110.896 23.7481C110.871 23.8129 110.867 23.8822 110.887 23.9425C110.894 23.9626 110.896 23.9805 110.905 23.9983C110.898 23.9983 110.889 23.9983 110.882 23.9983C110.82 24.005 110.766 23.9715 110.695 23.976C110.621 24.0609 110.494 24.1346 110.545 24.2687C110.451 24.3379 110.449 24.1927 110.38 24.2017C110.391 24.3603 110.109 24.3134 110.194 24.4988C110.092 24.4541 110.194 24.3424 110.103 24.2888C109.669 24.0095 109.403 24.5346 109.003 24.3536C109.079 24.1458 108.872 23.9112 109.024 23.719C108.968 23.5046 108.762 23.5761 108.644 23.5515C108.61 23.4442 108.684 23.3012 108.657 23.2186C108.51 23.299 108.405 23.1448 108.271 23.1515C108.242 23.1605 108.213 23.1716 108.183 23.1761C108.215 23.1582 108.242 23.1515 108.271 23.1515C108.639 23.0354 108.954 22.6421 109.381 22.584C109.441 22.5081 109.631 22.4567 109.562 22.307C109.484 22.1461 109.383 22.0344 109.24 21.9718C109.117 21.8579 109.294 21.7707 109.169 21.6657C109.289 21.6211 109.343 21.7819 109.444 21.8333C109.01 21.3217 108.57 20.8145 108.121 20.3162C108.105 20.3855 108.154 20.4726 108.043 20.457C107.94 20.4704 107.893 20.3699 107.821 20.3341C107.582 20.028 107.39 19.6638 107.107 19.4024C107.046 19.3242 106.903 19.2393 107.006 19.1119C106.834 18.931 106.657 18.7522 106.481 18.5735C106.376 18.6517 106.262 18.7187 106.135 18.75C106.085 18.8282 105.916 18.8952 105.996 19.027C106.085 19.17 106.19 19.2616 106.331 19.3063C106.456 19.4002 106.302 19.5007 106.43 19.5834C106.289 19.6526 106.22 19.389 106.059 19.456C105.976 19.3555 105.918 19.1946 105.766 19.1499C105.706 19.1298 105.648 19.1276 105.592 19.1321C105.581 19.17 105.572 19.2058 105.569 19.2415C105.388 19.1477 105.35 19.3756 105.176 19.3622C105.129 19.4158 105.082 19.4694 105.033 19.5208C105.105 19.4962 105.178 19.4873 105.254 19.5387C105.321 19.5856 105.335 19.6795 105.268 19.7264C105.145 19.818 104.845 19.8225 104.928 20.0571C104.937 20.1174 105 20.1911 104.991 20.2514C106.461 21.7663 107.848 23.3437 109.14 24.9881C109.41 25.3322 109.676 25.6807 109.94 26.0315C110.203 26.3845 110.462 26.7398 110.719 27.0973C111.077 27.5978 111.428 28.1027 111.77 28.6144C112.842 30.2164 113.834 31.8675 114.746 33.57C115.604 35.1698 116.39 36.812 117.103 38.4966C117.438 39.2875 117.751 40.0852 118.05 40.8873C118.07 40.8806 118.088 40.8761 118.106 40.8761C118.459 40.7756 118.772 40.4092 119.181 40.3667C119.241 40.2952 119.422 40.2528 119.359 40.1075L119.362 40.1098ZM108.514 20.7743C108.536 20.8234 108.552 20.915 108.465 20.8994C108.34 20.7966 108.512 20.8301 108.514 20.7743ZM107.136 20.3564C107.109 20.3118 107.086 20.2291 107.167 20.2358C107.294 20.3207 107.129 20.3051 107.136 20.3564ZM107.542 20.7653C107.58 20.6961 107.486 20.5955 107.609 20.5955C107.705 20.5732 107.759 20.6603 107.828 20.6871C108.083 20.9485 108.302 21.268 108.592 21.4803C108.659 21.5473 108.807 21.6143 108.713 21.7506C108.577 21.8936 108.443 21.6546 108.4 21.5674C108.036 21.3686 107.795 21.0781 107.544 20.7653H107.542ZM117.963 38.3067C117.865 38.3156 117.822 38.2196 117.755 38.1816C117.536 37.8822 117.362 37.5292 117.1 37.2745C117.045 37.1963 116.904 37.1091 117.018 36.9862C117.176 36.8633 117.275 37.1225 117.306 37.2164C117.643 37.4688 117.845 37.795 118.052 38.1458C118.005 38.2106 118.086 38.3246 117.961 38.3067H117.963ZM118.356 38.7334C118.24 38.6307 118.403 38.6686 118.405 38.6173C118.425 38.6642 118.437 38.7536 118.356 38.7334Z" fill="#E63D3D"/>
<path d="M123.687 55.3141C123.582 54.2796 123.45 53.2518 123.296 52.233C122.892 49.5831 122.315 46.9891 121.585 44.4622C121.553 44.6007 121.482 44.728 121.457 44.8085C121.377 44.5203 121.388 44.3527 121.395 44.0957C121.395 44.0734 121.395 44.0511 121.395 44.0265C121.149 43.8589 120.838 43.7785 120.552 43.7405C120.503 43.7628 120.472 43.8165 120.443 43.8701C120.387 43.9729 120.338 44.089 120.197 44.0466C120.175 43.9527 120.251 43.9036 120.325 43.8433C120.378 43.7986 120.432 43.7494 120.443 43.6735C120.396 43.5595 120.501 43.4143 120.409 43.307C120.383 43.3271 120.322 43.3897 120.304 43.3227C120.273 43.2221 120.407 43.0568 120.246 43.0434C120.193 43.0434 120.119 43.0568 120.094 43.0903C120.088 43.0456 120.09 42.9697 120.081 42.9093C119.835 42.887 120.014 43.164 119.867 43.24C119.893 42.7887 119.677 42.3686 119.639 41.9374C119.498 41.9106 119.371 41.962 119.245 42.0134C119.096 42.0737 118.946 42.1318 118.774 42.0469C118.852 41.8503 118.66 41.6224 118.81 41.4436C118.761 41.2381 118.564 41.3006 118.452 41.2738C118.423 41.1711 118.497 41.037 118.475 40.9566C118.332 41.0303 118.236 40.8806 118.108 40.8828C118.09 40.8873 118.07 40.894 118.052 40.8985C118.28 41.5129 118.501 42.1296 118.709 42.7485C118.796 43.0054 118.877 43.2646 118.959 43.5238C120.139 47.2103 120.95 50.993 121.386 54.8516C121.638 57.0836 121.77 59.3403 121.77 61.6192C121.77 63.5675 121.676 65.5024 121.491 67.4194C121.35 68.8829 121.153 70.3374 120.905 71.7785C120.76 72.6164 120.597 73.452 120.416 74.2809C120.264 74.9803 120.103 75.6796 119.925 76.3722C119.196 79.2142 118.256 82.0026 117.103 84.7285C115.356 88.8597 113.166 92.7406 110.561 96.3445C109.998 97.122 109.417 97.8884 108.814 98.6414C109.008 98.7709 109.1 99.0413 109.272 99.2044C109.055 99.4032 109.298 99.6848 109.2 99.9283C109.146 99.8859 109.158 99.7831 109.12 99.725L109.2 99.7295C109.138 99.6959 109.187 99.649 109.124 99.6133H109.14C109.111 99.5641 109.173 99.4167 109.066 99.4837C109.046 99.3943 109.129 99.3183 109.196 99.2401C109.019 99.2647 109.187 99.0949 109.015 99.1776C109.01 99.0882 109.117 99.2066 109.097 99.1016C109.064 98.934 108.907 98.8089 108.749 98.7173C108.74 98.7263 108.733 98.7374 108.724 98.7464C108.746 98.7687 108.76 98.7933 108.74 98.829C108.724 98.8022 108.706 98.7933 108.691 98.7888C108.664 98.8223 108.637 98.8558 108.61 98.8894C108.557 98.9564 108.503 99.0234 108.449 99.0904C108.566 99.1173 108.545 98.9497 108.655 98.9854C108.624 99.1351 108.827 99.0726 108.755 99.2468C108.762 99.1039 108.688 99.124 108.621 99.0167C108.639 99.1374 108.49 99.124 108.51 99.1955L108.615 99.1754C108.568 99.1955 108.574 99.2334 108.595 99.2759C108.617 99.3228 108.655 99.3764 108.662 99.4256H108.646C108.628 99.4725 108.684 99.4658 108.7 99.4837L108.628 99.4881C108.617 99.7607 108.959 99.7831 108.91 100.029C108.791 99.9842 108.825 99.7697 108.646 99.8099C108.499 99.649 108.364 99.4725 108.3 99.2781C107.958 99.6959 107.607 100.107 107.254 100.516C106.753 101.09 106.24 101.655 105.717 102.214C105.724 102.218 105.73 102.221 105.737 102.225C105.739 102.225 105.741 102.227 105.746 102.23C105.947 102.415 105.909 102.708 105.82 102.929C105.627 102.936 105.449 102.808 105.317 102.699C105.31 102.685 105.308 102.668 105.306 102.652C105 102.971 104.691 103.289 104.376 103.604C104.072 103.908 103.766 104.207 103.456 104.502C103.482 104.562 103.5 104.623 103.532 104.674C103.715 104.768 103.916 104.725 104.104 104.652C104.075 104.58 104.16 104.531 104.218 104.522C104.441 104.428 104.609 104.71 104.839 104.585C105.006 104.524 105.049 104.359 105.225 104.316C105.281 104.348 105.335 104.392 105.333 104.455C105.27 104.669 104.986 104.598 104.995 104.871C105.024 104.942 105.111 104.915 105.174 104.917C105.254 104.754 105.446 104.757 105.569 104.645C105.536 104.716 105.618 104.705 105.643 104.728C105.435 104.978 104.973 105.011 104.91 105.353C104.957 105.389 105.051 105.398 105.022 105.478C104.982 105.516 104.91 105.57 104.897 105.653C104.959 105.796 105.076 105.863 105.207 105.912C106.396 104.763 107.538 103.568 108.63 102.328C108.874 102.051 109.117 101.772 109.356 101.488C110.311 100.364 111.224 99.2066 112.098 98.018C112.688 97.2136 113.258 96.3959 113.809 95.5625C114.79 94.0789 115.713 92.5529 116.567 90.9822C116.377 91.0537 116.189 91.1275 116.024 91.266C115.974 91.1699 116.222 91.1006 116.207 90.9241C116.202 90.6985 115.968 90.6806 115.827 90.6136C115.646 90.5979 115.436 90.6694 115.333 90.5175C115.86 90.6404 116.088 90.0125 116.582 90.055C116.73 90.0662 116.904 90.0327 117.058 90.0483C117.563 89.0808 118.043 88.1 118.497 87.1035C119.804 84.2302 120.894 81.2407 121.752 78.1507C122.367 75.941 122.86 73.6821 123.227 71.3831C123.484 69.7766 123.678 68.1501 123.808 66.5034C123.935 64.8902 124 63.2614 124 61.617C124 59.49 123.893 57.3897 123.683 55.3186L123.687 55.3141ZM121.042 44.9783C121.037 45.023 121.1 45.0475 121.124 45.0922C121.136 45.1079 121.14 45.1235 121.129 45.1481C121.136 45.1257 121.131 45.1079 121.124 45.0922C121.093 45.052 121.013 45.0341 121.042 44.9783ZM121.127 45.2486C121.118 45.2375 121.107 45.2263 121.109 45.2129L121.127 45.2486ZM121.122 45.3536C121.084 45.3536 121.064 45.3246 121.06 45.2956C121.069 45.2486 121.098 45.2956 121.129 45.3067L121.12 45.3536H121.122ZM121.379 49.8312C121.473 49.7016 121.556 49.5519 121.721 49.6323C121.94 49.7664 121.96 50.0434 121.918 50.2624C121.741 50.3048 121.553 50.2199 121.413 50.144C121.355 50.0613 121.355 49.9183 121.379 49.8289V49.8312ZM108.695 98.934C108.684 98.8983 108.662 98.8894 108.637 98.8849C108.657 98.8849 108.675 98.876 108.691 98.8447C108.747 98.8715 108.673 98.876 108.695 98.934ZM108.744 98.8871C108.744 98.8871 108.767 98.9117 108.767 98.9273C108.742 98.9184 108.711 98.9005 108.744 98.8871ZM108.646 99.1329L108.655 99.1262L108.724 99.2022L108.715 99.2089L108.646 99.1329ZM108.671 99.2938C108.702 99.2938 108.711 99.2714 108.729 99.2558C108.733 99.3116 108.717 99.3116 108.671 99.2938ZM108.994 98.9944L108.952 99.0324L108.93 98.9765L108.992 98.9944H108.994ZM109.001 99.7875L108.988 99.8903C108.988 99.859 108.921 99.7831 109.001 99.7875ZM108.787 99.754L108.814 99.6825L108.827 99.7317L108.787 99.754ZM108.809 98.8424C108.843 98.7955 108.863 98.8849 108.896 98.8693C108.8 98.8648 108.91 98.9497 108.876 98.9474C108.831 98.8827 108.789 98.9206 108.809 98.8402V98.8424ZM105.779 104.895C105.759 104.77 105.844 104.879 105.873 104.846C105.862 104.888 105.822 104.949 105.779 104.895ZM105.893 104.363C105.829 104.379 105.82 104.495 105.75 104.417C105.683 104.37 105.706 104.287 105.683 104.229C105.701 103.923 105.775 103.606 105.741 103.307C105.746 103.226 105.701 103.099 105.84 103.079C106.005 103.083 105.934 103.3 105.905 103.378C105.987 103.715 105.945 104.03 105.893 104.363ZM106.633 102.92L106.617 102.891L106.691 102.911L106.633 102.92ZM106.932 101.644L106.919 101.595L106.943 101.588L106.932 101.644ZM106.977 102.73L106.99 102.71L107.008 102.699L106.977 102.73ZM107.053 101.577L107.039 101.544L107.084 101.611L107.053 101.577ZM107.614 102.198L107.661 102.234C107.618 102.247 107.632 102.227 107.614 102.198ZM108.63 100.804C108.572 100.826 108.469 100.797 108.467 100.894C108.387 100.815 108.293 100.78 108.188 100.768C108.103 100.759 108.014 100.764 107.913 100.773C107.804 100.704 107.721 100.581 107.743 100.438C107.692 100.147 108.076 100.315 108.018 100.018C108.13 99.8546 108.335 99.8791 108.476 99.9819C108.653 100.129 108.657 100.31 108.644 100.498C108.637 100.599 108.626 100.704 108.633 100.804H108.63ZM110.366 97.7812L110.344 97.7253L110.369 97.703L110.364 97.7834L110.366 97.7812ZM110.612 98.0314L110.637 98.0403L110.652 98.056L110.614 98.0314H110.612ZM111.26 98.619C111.238 98.5788 111.26 98.5877 111.287 98.5632L111.26 98.619ZM121.73 76.8169L121.71 76.837V76.7699L121.73 76.8169ZM121.489 76.5689L121.469 76.5621L121.455 76.5487L121.489 76.5689ZM120.89 76.1488L120.91 76.1019C120.93 76.1354 120.91 76.1287 120.89 76.1488Z" fill="#E63D3D"/>
<path d="M103.465 106.844C103.471 106.877 103.505 106.953 103.44 106.949C103.574 107.036 103.668 107.185 103.585 107.355C103.545 107.474 103.398 107.509 103.302 107.538C103.212 107.514 103.112 107.494 103.031 107.453C102.953 107.413 102.893 107.355 102.879 107.252C102.879 107.241 102.879 107.232 102.879 107.221C102.868 107.219 102.859 107.214 102.848 107.212C102.444 107.112 102.012 107.123 101.65 106.931C101.595 106.875 101.534 106.819 101.474 106.761C101.452 106.776 101.429 106.79 101.405 106.803C101.353 106.83 101.302 106.859 101.268 106.908C101.259 106.937 101.251 106.969 101.237 106.995C101.239 106.957 101.253 106.931 101.268 106.908C101.295 106.83 101.311 106.747 101.32 106.663C101.32 106.647 101.32 106.629 101.324 106.611C101.295 106.582 101.271 106.551 101.244 106.52C101.244 106.52 101.239 106.522 101.239 106.524C99.8206 107.755 98.3482 108.912 96.8266 109.998C93.9243 112.069 90.8387 113.87 87.5946 115.392C86.9042 115.716 86.2071 116.031 85.5011 116.33C83.9102 117.003 82.2948 117.599 80.6638 118.129C79.6919 118.444 78.7155 118.732 77.7302 118.996C74.4659 119.867 71.1301 120.455 67.743 120.756C65.9712 120.913 64.1882 120.998 62.3896 120.998C59.99 120.998 57.6105 120.855 55.2577 120.573C52.7777 120.278 50.3289 119.827 47.9182 119.224C46.448 118.855 44.9912 118.431 43.5501 117.948C43.1926 117.829 42.8396 117.702 42.4844 117.577C42.1827 117.47 41.8811 117.358 41.5795 117.246C41.575 117.251 41.5727 117.258 41.5683 117.262C41.6197 117.291 41.5929 117.363 41.5616 117.396C41.47 117.559 41.2354 117.468 41.155 117.653C41.0835 117.769 41.1349 117.89 41.0477 117.999C40.9986 118.008 40.9449 118.006 40.9159 117.966C40.8511 117.805 41.0589 117.716 40.9226 117.552C40.8712 117.523 40.831 117.579 40.7908 117.611C40.8176 117.747 40.7014 117.838 40.679 117.964C40.6656 117.903 40.621 117.95 40.5942 117.948C40.6009 117.698 40.8667 117.459 40.7438 117.22C40.6992 117.22 40.6388 117.26 40.6165 117.197C40.6232 117.155 40.6411 117.09 40.6098 117.032C40.364 116.9 40.1294 117.152 39.8725 117.115C40.0065 117.079 40.1294 116.983 40.2389 116.889C40.1428 116.947 40.0244 116.967 39.9149 116.909C39.658 116.867 39.8546 116.621 39.6893 116.536C39.6803 116.545 39.6692 116.551 39.6491 116.547C39.6647 116.547 39.6759 116.543 39.687 116.534C39.6669 116.522 39.6423 116.516 39.611 116.511C39.6043 116.502 39.6021 116.496 39.5977 116.487C39.591 116.476 39.5843 116.464 39.5798 116.453C39.4792 116.411 39.3787 116.373 39.2781 116.33C38.4984 116 37.7276 115.651 36.9657 115.289C36.7154 115.499 36.2596 115.481 36.1501 115.814C36.1926 115.857 36.2865 115.877 36.2463 115.955C36.1993 115.988 36.1211 116.033 36.0965 116.118C36.2015 116.478 36.6596 116.464 36.8652 116.744C36.5881 116.581 36.1725 116.612 35.9245 116.572C36.1635 116.616 36.3088 116.896 36.4026 117.003C36.0697 116.913 35.9267 116.804 35.6586 116.636C35.5335 116.697 35.4173 116.777 35.3078 116.869C35.2899 116.893 35.2676 116.918 35.2386 116.934C35.4732 117.047 35.7055 117.164 35.9424 117.275C35.9424 117.275 35.9468 117.275 35.9491 117.278C35.9558 117.275 35.9647 117.271 35.9714 117.269C36.0742 117.237 36.1814 117.215 36.2865 117.215C36.3848 117.215 36.4853 117.228 36.5859 117.266C36.711 117.345 37.0349 117.347 37.055 117.588C37.2092 117.675 37.2986 117.794 37.3567 117.923C37.4014 117.943 37.446 117.964 37.4929 117.981C38.0314 118.22 38.5766 118.451 39.124 118.674C39.2 118.589 39.2938 118.524 39.4145 118.498C39.5351 118.444 39.6334 118.582 39.7272 118.62C39.7674 118.725 39.7451 118.819 39.7049 118.911C40.1071 119.07 40.5137 119.224 40.9204 119.376C40.9248 119.371 40.9293 119.367 40.9338 119.364C41.1728 119.237 41.4365 119.369 41.6152 119.525C41.6063 119.557 41.5884 119.586 41.5728 119.612C41.6063 119.626 41.642 119.637 41.6755 119.648C42.6742 120.006 43.6864 120.336 44.7097 120.642C45.8067 120.971 46.915 121.268 48.0343 121.536C50.4295 122.108 52.8782 122.539 55.3717 122.821C57.6752 123.082 60.0168 123.221 62.3919 123.221C64.1056 123.221 65.8013 123.147 67.4815 123.011C68.3417 122.942 69.1975 122.854 70.0488 122.749C70.0152 122.734 69.9839 122.709 69.9594 122.667C70.0755 122.624 70.1895 122.805 70.2945 122.662C70.3615 122.669 70.4264 122.68 70.4911 122.694C72.1892 122.47 73.8649 122.175 75.5183 121.818C75.5473 121.643 75.5518 121.458 75.6568 121.333C75.7015 121.337 75.8132 121.429 75.7082 121.462C75.7171 121.567 75.6993 121.677 75.6747 121.784C76.2712 121.652 76.8655 121.514 77.4554 121.366C78.8965 121.004 80.3175 120.591 81.7184 120.129C81.7274 120.126 81.7363 120.122 81.7475 120.12C81.7296 120.091 81.7184 120.057 81.7207 120.021C81.6961 119.957 81.7363 119.907 81.7788 119.858C81.8525 119.8 81.9843 119.76 82.0893 119.811C82.1653 119.829 82.2256 119.887 82.2591 119.954C84.0421 119.347 85.7893 118.658 87.4963 117.897C87.4493 117.818 87.4359 117.724 87.4538 117.651C87.494 117.543 87.608 117.617 87.6795 117.57C87.7756 117.577 87.8403 117.646 87.8694 117.729C88.1263 117.613 88.3811 117.49 88.638 117.371C92.0587 115.758 95.3096 113.841 98.3504 111.652C98.3996 111.616 98.451 111.578 98.5001 111.542C99.1749 111.053 99.8429 110.552 100.498 110.036C101.137 109.534 101.762 109.015 102.381 108.488C102.381 108.475 102.381 108.459 102.381 108.443C102.381 108.443 102.381 108.441 102.381 108.439C102.401 108.159 102.64 107.818 102.971 107.943C102.98 107.945 102.989 107.949 102.998 107.954C103.08 107.88 103.163 107.806 103.246 107.735C103.476 107.532 103.706 107.326 103.934 107.121C103.914 107.06 103.889 107.002 103.829 106.966C103.702 106.966 103.608 106.806 103.469 106.85L103.465 106.844ZM39.5329 116.576L39.4949 116.581C39.4882 116.551 39.5061 116.531 39.5284 116.52C39.5664 116.518 39.5351 116.549 39.5329 116.576ZM39.5597 116.576C39.582 116.567 39.582 116.54 39.6022 116.538L39.5597 116.576ZM40.7304 118.057V118.033L40.7796 118.062H40.7304V118.057ZM40.7595 117.923H40.7238L40.7997 117.905L40.7573 117.923H40.7595ZM43.6998 118.88C43.5948 118.949 43.4161 118.989 43.2843 118.911C43.0564 118.837 42.9558 118.513 43.1345 118.363C43.2596 118.225 43.4295 118.31 43.5456 118.323C43.673 118.39 43.8115 118.515 43.7914 118.67C43.816 118.757 43.7579 118.819 43.6976 118.88H43.6998ZM48.4007 120.692C48.2801 120.756 48.1818 120.651 48.1058 120.616C48.0365 120.535 47.9718 120.415 48.0254 120.312C48.0299 120.245 48.088 120.218 48.1438 120.189C48.2332 120.169 48.3672 120.187 48.4387 120.274C48.5772 120.383 48.5638 120.634 48.4007 120.692ZM49.8999 121.608H49.9335L49.958 121.612L49.8999 121.608ZM49.9804 121.538L49.9536 121.507L49.9871 121.523L49.9804 121.541V121.538ZM50.1815 120.564C49.9826 120.591 49.8352 120.432 49.7525 120.278C49.8396 120.167 49.9938 120.126 50.1189 120.102C50.1949 120.122 50.2664 120.211 50.2932 120.276C50.2999 120.401 50.3222 120.533 50.1837 120.564H50.1815ZM54.0311 121.789C54.0736 121.952 54.0312 122.137 54.0155 122.305C53.9597 122.341 53.9328 122.291 53.9127 122.251C53.9708 122.075 53.8859 121.853 53.9775 121.699C54.011 121.699 54.1049 121.751 54.0311 121.789ZM54.3573 120.991C54.2344 121.031 54.125 121.002 54.0624 120.888C54.0155 120.774 54.0423 120.64 54.1049 120.562C54.1831 120.484 54.2568 120.596 54.3395 120.584C54.4937 120.669 54.4623 120.902 54.3596 120.991H54.3573ZM70.6274 122.099C70.6497 122.291 70.48 122.405 70.3102 122.419C69.9638 122.423 69.8655 122.11 69.6667 121.907C69.6957 121.853 69.7895 121.809 69.7315 121.735C69.9303 121.746 70.0688 121.63 70.2208 121.469C70.3459 121.451 70.4866 121.489 70.5626 121.61C70.7883 121.793 70.3928 121.914 70.6296 122.099H70.6274ZM76.3159 120.482C76.1461 120.506 76.0076 120.446 75.9473 120.283C75.9093 120.122 75.9741 119.95 76.0746 119.863C76.1975 119.776 76.2667 119.941 76.3785 119.943C76.5639 120.088 76.4723 120.39 76.3159 120.484V120.482ZM83.6444 117.624C83.7092 117.637 83.7472 117.637 83.7896 117.682C83.8254 117.731 83.832 117.783 83.8007 117.829C83.7561 117.854 83.6913 117.876 83.6265 117.863C83.555 117.834 83.4857 117.812 83.4567 117.742C83.4924 117.684 83.5639 117.619 83.6444 117.626V117.624ZM83.8209 119.329C83.6488 119.438 83.4433 119.355 83.3003 119.248C83.3315 119.107 83.4589 119.002 83.564 118.929C83.6422 118.915 83.7471 118.967 83.8007 119.016C83.8588 119.128 83.9371 119.239 83.8231 119.329H83.8209Z" fill="#E63D3D"/>
<path d="M103.252 106.87C103.276 106.875 103.301 106.881 103.325 106.89C103.268 106.848 103.214 106.812 103.17 106.868C103.196 106.863 103.223 106.861 103.252 106.87Z" fill="#E63D3D"/>
<path d="M102.967 106.995C102.967 106.995 102.96 106.993 102.958 106.993C102.955 106.998 102.955 107.002 102.953 107.007C102.958 107.005 102.962 107 102.967 106.995Z" fill="#E63D3D"/>
<path d="M104.546 106.202C104.289 106.368 104.088 106.627 103.934 106.882C103.936 106.938 103.972 106.989 104.012 107.038C104.18 106.884 104.347 106.727 104.513 106.571C104.513 106.571 104.508 106.567 104.508 106.564C104.544 106.482 104.662 106.437 104.689 106.372C104.595 106.352 104.58 106.269 104.546 106.2V106.202Z" fill="#E63D3D"/>
<path d="M104.959 106.155C104.979 106.137 104.996 106.117 105.016 106.099C104.934 106.104 104.859 106.108 104.794 106.108C104.854 106.11 104.908 106.131 104.959 106.157V106.155Z" fill="#E63D3D"/>
<path d="M111.848 40.5142C109.251 34.4369 105.569 28.9361 101.045 24.2553C99.834 23.0041 98.5649 21.811 97.24 20.6804C97.0746 20.8324 96.9339 20.8994 96.7261 21.0178C96.7104 21.306 96.7976 21.6032 96.9071 21.8601C97.0344 21.945 97.2846 21.7909 97.3383 22.0031C97.2556 22.0858 97.1506 22.0031 97.0366 21.9785C97.8141 22.66 98.5738 23.3683 99.3179 24.0989C99.4162 24.1972 99.5189 24.291 99.6172 24.3916C103.346 28.1206 106.452 32.3233 108.896 36.9237C108.979 37.0778 109.059 37.232 109.14 37.3862C109.372 37.4644 109.497 37.69 109.689 37.8308C109.593 37.9291 109.761 37.9604 109.792 38.0542C109.841 38.1034 109.944 38.0967 109.98 38.1659C109.94 38.2531 109.817 38.0989 109.808 38.2374C109.785 38.4832 110.114 38.4854 110.183 38.6687C110.029 38.6821 109.915 38.4564 109.77 38.5726C109.77 38.5927 109.77 38.615 109.77 38.6351C109.812 38.7223 109.855 38.8116 109.897 38.8988C109.926 38.8675 109.96 38.8452 110 38.8474C110.051 38.872 110.031 38.9412 110 38.968C109.987 38.9882 109.971 39.0038 109.955 39.0194C110.284 39.7121 110.601 40.4136 110.9 41.1219C111.03 41.428 111.153 41.7363 111.278 42.0447H112.1C112.1 42.0447 112.114 42.038 112.123 42.0313L112.116 42.0447H112.48C112.279 41.5308 112.069 41.0214 111.852 40.5142H111.848ZM99.0497 22.4701C98.8419 22.4924 98.6208 22.4098 98.4197 22.3606C98.3862 22.2846 98.4487 22.2601 98.5023 22.2444C98.7101 22.345 98.9938 22.2779 99.1681 22.4187C99.1637 22.4589 99.0832 22.5662 99.0497 22.4701ZM111.47 41.3922L111.457 41.3476L111.477 41.3319L111.47 41.3922ZM111.64 41.5933L111.658 41.6023L111.669 41.6157L111.642 41.5933H111.64Z" fill="#E63D3D"/>
<path d="M63.3816 7.86234C63.3056 7.86234 63.2274 7.86234 63.1492 7.86011C63.1514 7.88022 63.1448 7.90479 63.1157 7.92937C63.2341 7.95395 63.2676 7.90926 63.3816 7.88915C63.3816 7.87798 63.3816 7.87128 63.3816 7.86234Z" fill="#E63D3D"/>
<path d="M49.1827 112.604C49.3905 112.84 49.3525 113.287 49.672 113.399C49.7122 113.359 49.7346 113.272 49.8083 113.312C49.8374 113.356 49.8798 113.432 49.958 113.457C50.2284 113.386 50.2842 113.097 50.4317 112.89C49.4732 112.666 48.5214 112.416 47.5763 112.139C47.2814 112.052 46.9887 111.967 46.696 111.875C46.3497 111.768 46.0056 111.656 45.6615 111.54C44.3946 111.115 43.1412 110.642 41.9034 110.117C41.4186 109.911 40.9404 109.699 40.4645 109.48C40.5003 109.543 40.5562 109.605 40.5361 109.697C40.7349 109.911 40.8891 110.157 41.1527 110.316C41.0812 110.394 40.936 110.184 40.7774 110.255C40.5696 110.331 40.6299 110.555 40.6098 110.709C40.6165 110.733 40.6232 110.758 40.6321 110.783C42.1514 111.457 43.7088 112.061 45.2996 112.595C45.9363 112.807 46.5775 113.01 47.2233 113.2C47.3595 113.24 47.4959 113.278 47.6321 113.318C48.0388 113.435 48.4477 113.546 48.8588 113.654C48.9146 113.566 48.966 113.477 48.9236 113.359C48.8901 113.189 48.7381 113.124 48.7247 112.948C48.7627 112.898 48.8141 112.856 48.8744 112.865C49.071 112.957 48.9593 113.218 49.2207 113.251C49.2944 113.234 49.281 113.146 49.2922 113.086C49.1492 112.983 49.1783 112.8 49.0911 112.666C49.1537 112.709 49.1559 112.628 49.1805 112.608L49.1827 112.604Z" fill="#E63D3D"/>
<path d="M39.5977 118.797C39.6669 118.687 39.4412 118.71 39.515 118.594C39.4211 118.602 39.4055 118.64 39.3273 118.683C39.343 118.779 39.4547 118.705 39.4658 118.79C39.4547 118.792 39.4457 118.797 39.4368 118.804C39.4703 118.817 39.5016 118.83 39.5329 118.844C39.5329 118.826 39.5328 118.801 39.5529 118.817C39.5507 118.824 39.544 118.839 39.5351 118.844C39.5485 118.848 39.5619 118.855 39.5753 118.859C39.5798 118.855 39.5865 118.848 39.6066 118.846C39.629 118.85 39.6245 118.864 39.62 118.877C39.6334 118.882 39.6446 118.888 39.658 118.893C39.6714 118.83 39.6781 118.763 39.6803 118.703C39.6446 118.725 39.6602 118.804 39.5977 118.797ZM39.506 118.797C39.5261 118.779 39.5262 118.759 39.5194 118.741C39.5262 118.754 39.5395 118.763 39.5641 118.763C39.5641 118.808 39.5373 118.763 39.506 118.795V118.797Z" fill="#E63D3D"/>
<path d="M36.302 115.331C36.3221 115.407 36.4137 115.394 36.4785 115.403C36.5634 115.278 36.7041 115.271 36.8315 115.222C36.7377 115.177 36.6438 115.133 36.55 115.088C36.4405 115.133 36.3199 115.153 36.302 115.331Z" fill="#E63D3D"/>
<path d="M39.423 118.797C39.423 118.797 39.4295 118.783 39.4339 118.777C39.4252 118.783 39.4164 118.788 39.4077 118.79C39.412 118.79 39.4186 118.794 39.423 118.797Z" fill="#E63D3D"/>
<path d="M35.5535 114.869C35.7949 114.802 35.9267 115.113 36.1792 115.016C36.2261 115.005 36.2663 114.987 36.3021 114.963C35.6698 114.655 35.0464 114.335 34.4275 114.004C32.754 113.111 31.1275 112.139 29.5523 111.091C29.3981 110.988 29.2417 110.885 29.0875 110.78C28.9736 110.704 28.8619 110.624 28.7502 110.548C28.6273 110.463 28.5044 110.378 28.3815 110.293C28.4172 110.438 28.6228 110.512 28.6452 110.664C28.4999 110.644 28.4396 110.412 28.2809 110.49C28.2474 110.624 28.205 110.798 28.2474 110.903C28.2921 110.845 28.3636 110.774 28.4373 110.791C28.4798 110.825 28.4485 110.885 28.4105 110.903C28.3301 110.979 28.2385 110.977 28.167 111.013C28.0866 111.142 28.1067 111.294 28.1492 111.437C28.2028 111.419 28.2363 111.484 28.2385 111.529C28.2944 111.699 28.0754 111.806 28.1536 111.985C28.1804 112.083 28.2586 112.132 28.3011 112.21C28.3122 112.233 28.3234 112.257 28.3279 112.286C28.3033 112.326 28.2653 112.36 28.2206 112.358C28.0642 112.297 28.1358 112.092 27.9324 112.083C27.8788 112.101 27.8922 112.166 27.8877 112.212C28.0039 112.282 27.9905 112.425 28.0665 112.523C28.0151 112.494 28.0195 112.554 28.0017 112.574C27.8296 112.407 27.8319 112.061 27.5816 111.994C27.5526 112.025 27.5414 112.094 27.4833 112.069C27.4588 112.036 27.423 111.982 27.3604 111.967C27.2621 112 27.2062 112.072 27.1616 112.154C27.4431 112.351 27.7268 112.55 28.0106 112.742C28.2452 112.901 28.4843 113.055 28.7233 113.211C28.7345 113.218 28.7435 113.225 28.7546 113.231C29.1278 113.171 29.1724 112.697 29.5322 112.621C29.597 112.608 29.6662 112.579 29.7332 112.554C29.8852 112.498 30.0394 112.454 30.1667 112.59C30.274 112.595 30.2628 112.691 30.2985 112.76C30.3499 112.907 30.2315 113.024 30.2047 113.14C30.131 113.084 30.0796 113.12 30.0237 113.151C29.9857 113.173 29.9455 113.193 29.8919 113.178C29.7153 113.325 29.5187 113.439 29.3869 113.64C29.8025 113.906 30.2226 114.165 30.6471 114.42C31.0381 114.655 31.4313 114.887 31.8268 115.115C31.9631 115.193 32.1038 115.269 32.2401 115.347C32.2557 115.338 32.2692 115.327 32.2893 115.32C32.4166 114.873 32.8434 114.815 33.145 114.576C33.2366 114.733 33.3349 114.532 33.4645 114.525C33.5427 114.48 33.5718 114.344 33.6723 114.326C33.7684 114.407 33.5293 114.509 33.7036 114.57C34.0097 114.684 34.1236 114.268 34.3828 114.243C34.3448 114.442 34.0186 114.509 34.1169 114.735C34.3001 114.791 34.537 114.86 34.6867 114.809C34.6107 114.744 34.5146 114.637 34.5459 114.538C34.595 114.48 34.6777 114.532 34.7 114.583C34.7983 114.699 34.7917 114.824 34.8364 114.929C35.0106 115.05 35.2229 115.032 35.4217 114.985C35.4016 114.909 35.4932 114.869 35.5558 114.867L35.5535 114.869ZM32.2356 114.675C32.2468 114.715 32.2468 114.786 32.1842 114.762C32.1038 114.668 32.2289 114.717 32.2356 114.675ZM31.7664 114.257C31.6257 113.993 31.5251 113.694 31.3464 113.459C31.3106 113.39 31.2079 113.305 31.3129 113.22C31.4536 113.14 31.5028 113.356 31.5184 113.435C31.7597 113.674 31.8849 113.957 32.01 114.259C31.9653 114.304 32.0167 114.407 31.9184 114.377C31.8379 114.373 31.8156 114.293 31.7664 114.255V114.257Z" fill="#E63D3D"/>
<path d="M40.3703 116.77C40.3525 116.764 40.3347 116.757 40.3192 116.748C40.3103 116.777 40.3014 116.806 40.2947 116.837C40.3214 116.813 40.3459 116.79 40.3703 116.77Z" fill="#E63D3D"/>
<path d="M26.5427 111.209C26.5248 111.252 26.4913 111.285 26.4802 111.339C26.536 111.428 26.5673 111.56 26.6991 111.553C26.7371 111.656 26.6052 111.618 26.5941 111.681C26.6678 111.696 26.6723 111.766 26.6857 111.828C26.7349 111.862 26.7818 111.895 26.8309 111.931C26.8689 111.848 26.9158 111.772 26.9695 111.674C26.8712 111.489 26.708 111.334 26.5427 111.211V111.209Z" fill="#E63D3D"/>
<path d="M27.0183 112.06C27.0183 111.986 27.0184 111.919 27.0272 111.864C27.0206 111.922 26.9916 111.973 26.9561 112.017C26.9761 112.033 26.9983 112.046 27.0183 112.062V112.06Z" fill="#E63D3D"/>
<path d="M26.5606 110.836C26.536 110.838 26.4734 110.861 26.4846 110.809C26.5002 110.729 26.6499 110.666 26.5449 110.599C26.5092 110.581 26.4555 110.561 26.4265 110.577C26.4377 110.543 26.4667 110.494 26.4824 110.45C26.3237 110.347 26.3461 110.597 26.221 110.597C26.431 110.251 26.3975 109.815 26.6075 109.487C26.7036 109.404 26.8019 109.31 26.9091 109.232C26.9069 109.23 26.9024 109.227 26.9002 109.225C25.2044 107.958 23.5756 106.591 22.0116 105.139C21.4709 104.636 20.9346 104.127 20.4096 103.601C18.354 101.546 16.4661 99.3631 14.7479 97.0617C13.5995 95.5246 12.5315 93.9315 11.5395 92.2915C11.5171 92.3519 11.506 92.3943 11.4501 92.4323C11.3853 92.4658 11.3183 92.4658 11.2691 92.4144C11.249 92.3563 11.2334 92.2737 11.2624 92.1977C11.3004 92.1329 11.3339 92.0726 11.3898 92.0391C10.8245 91.094 10.2861 90.131 9.77441 89.1524C9.01922 87.7113 8.31763 86.2366 7.68086 84.7262C7.40381 84.0694 7.14239 83.408 6.88991 82.7444C6.4587 81.6139 6.06103 80.4722 5.70131 79.3215C5.67674 79.3997 5.63874 79.4757 5.57842 79.5427C5.39744 79.7416 5.28124 80.1102 4.94386 80.041C4.82991 80.1125 4.7696 80.0074 4.68247 79.9628C4.5216 79.8488 4.55957 79.641 4.50148 79.5025C4.70033 79.507 4.63555 79.2925 4.79642 79.2321C4.87015 78.9506 4.99076 78.6892 4.98182 78.3831C5.0846 78.401 4.98857 78.6356 5.1338 78.7294C5.27009 78.8322 5.39519 78.7518 5.5069 78.6803C5.28571 77.9452 5.07791 77.2056 4.88577 76.4616C4.71373 75.7958 4.55512 75.1255 4.40765 74.453C4.39648 74.4932 4.37411 74.529 4.32496 74.5491C4.30261 74.4619 4.44116 74.3927 4.34285 74.3055C4.34732 74.281 4.35404 74.2564 4.36074 74.234C4.32723 74.0844 4.29591 73.9324 4.26239 73.7827C3.93172 72.1897 3.66364 70.5832 3.46479 68.9611C3.22796 67.0441 3.08492 65.107 3.03577 63.1542C3.0313 63.0202 3.0313 62.8861 3.02906 62.7521C3.02236 62.3722 3.0157 61.9946 3.0157 61.6126C3.0157 59.1772 3.16315 56.7619 3.45137 54.378C3.51393 53.8551 3.58318 53.3345 3.66138 52.814C3.84906 51.5426 4.08368 50.278 4.35403 49.0246C4.36073 48.9911 4.36964 48.9553 4.37634 48.9218C4.38081 48.8995 4.38529 48.8771 4.392 48.8548C4.12612 48.79 3.9898 48.7006 3.75297 48.571C3.49826 48.7096 3.28828 48.9397 3.12517 49.1721C3.12071 49.324 3.38435 49.4603 3.23018 49.6167C3.07378 49.5787 3.16093 49.3374 3.01793 49.2369C2.89728 49.2279 2.81908 49.0693 2.68503 49.1006C2.6895 49.1341 2.71627 49.2123 2.65148 49.1989C2.5487 49.181 2.46605 48.9889 2.38338 49.1251C2.36103 49.1721 2.33643 49.2413 2.3543 49.2771C2.31185 49.2637 2.24706 49.2257 2.1912 49.2078C2.06162 49.4111 2.38114 49.3799 2.38114 49.543C2.26049 49.4715 2.13091 49.4223 1.99685 49.3843C1.95663 49.5832 1.92088 49.7843 1.8829 49.9853C1.94099 49.9541 2.00578 49.9273 2.04823 49.8915C2.35433 49.9273 2.41913 50.2758 2.60904 50.4635C2.41466 50.6311 2.62019 50.8835 2.52858 51.0958C2.48166 51.0578 2.49506 50.9684 2.46378 50.917L2.53306 50.9215C2.47943 50.8902 2.52411 50.85 2.47049 50.8187H2.48391C2.45933 50.7763 2.51742 50.6467 2.42134 50.7026C2.4057 50.6244 2.47944 50.5596 2.542 50.4948C2.38784 50.5126 2.53754 50.3674 2.38561 50.4344C2.38561 50.3562 2.475 50.4613 2.45936 50.3696C2.43032 50.1998 2.25602 50.0747 2.10185 49.9876C2.10632 50.0367 2.19346 50.0635 2.15548 50.1239C2.07951 49.992 1.97899 50.2378 1.89855 50.0993C1.8561 50.2021 1.88961 50.2378 1.88737 50.3428C1.99685 50.3786 1.97894 50.2244 2.07502 50.2579C2.04374 50.3898 2.22251 50.3384 2.15771 50.4881C2.16665 50.3629 2.10185 50.3786 2.046 50.2847C2.0594 50.3898 1.92759 50.3741 1.94323 50.4389L2.03481 50.4233C1.99236 50.4411 1.99687 50.4724 2.01474 50.5104C2.03262 50.5506 2.06389 50.5998 2.06836 50.6422H2.05494C2.03707 50.6824 2.08621 50.678 2.09962 50.6936H2.03705C2.02141 50.9327 2.31858 50.9617 2.26943 51.174C2.16665 51.1315 2.2024 50.9439 2.046 50.9751C1.93205 50.8455 1.83151 50.7026 1.77342 50.5484C1.75331 50.6601 1.7332 50.7718 1.71309 50.8835C1.70415 50.9372 1.69519 50.993 1.68625 51.0466C1.7287 51.0466 1.76893 51.06 1.80915 51.0779C1.83596 51.0913 1.86279 51.1047 1.88737 51.1248C2.01696 51.241 2.03257 51.3751 2.02587 51.5158C2.01917 51.6253 1.99909 51.737 2.00356 51.8465C1.95217 51.8644 1.865 51.8376 1.8583 51.9202C1.77563 51.8353 1.67512 51.8063 1.56117 51.7996C1.39137 52.8609 1.24834 53.9289 1.13215 55.008C0.899789 57.1797 0.779175 59.3828 0.779175 61.617C0.779175 63.8513 0.910989 66.2219 1.16123 68.4718C1.38019 70.4514 1.69297 72.4042 2.09514 74.3234C2.20909 74.8664 2.33201 75.407 2.45936 75.9455C3.05815 78.4568 3.80883 80.9079 4.70478 83.2896C5.5538 85.5485 6.5302 87.7448 7.62724 89.8673C9.06165 92.6423 10.7016 95.2922 12.5248 97.7991C14.9959 101.197 17.8022 104.337 20.9011 107.161C21.8998 108.072 22.9321 108.948 23.9889 109.79C24.018 109.741 24.0492 109.694 24.0872 109.647C24.2146 109.52 24.3933 109.491 24.5654 109.433C24.7575 109.444 24.8111 109.683 24.9832 109.708C25.0792 109.804 25.0904 109.967 25.0993 110.105C25.0993 110.119 25.0993 110.132 25.1016 110.146C24.934 110.217 25.153 110.499 24.8983 110.476C24.8983 110.485 24.8983 110.494 24.8983 110.503C24.9787 110.566 25.0592 110.626 25.1396 110.689C25.2737 110.666 25.4144 110.655 25.4881 110.521C25.5395 110.514 25.5306 110.59 25.5395 110.642C25.6266 110.736 25.7339 110.586 25.8143 110.584L25.8635 110.727L25.9975 110.695C26.0221 110.756 25.9975 110.883 26.1048 110.881C26.2455 110.923 26.2389 110.722 26.355 110.807C26.3528 110.876 26.2366 110.894 26.2299 110.97C26.2634 111.055 26.3282 111.111 26.3975 111.14C26.4176 111.129 26.4377 111.115 26.4533 111.095C26.4623 111.001 26.5851 110.941 26.5606 110.836ZM2.10633 50.211C2.09739 50.1797 2.07729 50.1708 2.05718 50.1663C2.07505 50.1663 2.09069 50.1596 2.10633 50.1328C2.15325 50.1574 2.09069 50.1596 2.10633 50.211ZM2.151 50.173C2.151 50.173 2.17113 50.1954 2.16889 50.2088C2.14879 50.1998 2.12196 50.1842 2.151 50.173ZM2.05942 50.3831L2.06613 50.3763L2.12422 50.4434L2.11751 50.4501L2.05942 50.3831ZM2.07725 50.5238C2.10406 50.5238 2.113 50.5059 2.12864 50.4925C2.13311 50.5417 2.11747 50.5417 2.07725 50.5238ZM3.82448 49.4804L3.8379 49.496L3.80435 49.4737L3.82448 49.4826V49.4804ZM3.60105 49.1765L3.59658 49.2458L3.57874 49.1966L3.60105 49.1765ZM3.63678 50.7428C3.65912 50.9751 3.86694 51.1829 3.8379 51.4064C3.79992 51.4242 3.66586 51.4108 3.73066 51.3326C3.60107 51.1651 3.55637 50.9327 3.49157 50.7338C3.53849 50.6646 3.59438 50.707 3.6346 50.7428H3.63678ZM2.36772 50.2713L2.32976 50.3026L2.31186 50.2535L2.36548 50.2713H2.36772ZM2.3543 50.964L2.34094 51.0533C2.34094 51.0265 2.28504 50.9595 2.3543 50.964ZM2.16889 50.9304L2.19344 50.8701L2.20462 50.9126L2.16889 50.9304ZM2.21133 50.135C2.24261 50.0948 2.25827 50.173 2.28732 50.1619C2.20465 50.1552 2.29624 50.2334 2.26943 50.2311C2.23144 50.173 2.19346 50.2043 2.21357 50.135H2.21133ZM2.5666 74.0642L2.58891 74.0352L2.60233 74.0464L2.5666 74.0642ZM2.64924 74.1402L2.65595 74.1089L2.66937 74.0866L2.64924 74.1402ZM2.7945 69.732C2.91069 69.6091 3.12294 69.6962 3.1788 69.8146C3.1855 69.9398 3.13187 70.0358 3.00899 70.0671C2.89057 70.0827 2.77214 70.0247 2.71405 69.9465C2.66042 69.8526 2.78333 69.8124 2.79227 69.732H2.7945ZM3.47592 74.2765C3.47145 74.1849 3.50721 74.0866 3.60105 74.0397C3.74851 73.89 3.80886 74.1827 3.95856 74.0263C4.09932 74.024 4.1708 74.1536 4.16857 74.2765C4.14846 74.5267 3.91607 74.5759 3.7552 74.7055C3.71946 74.6809 3.69264 74.6094 3.63678 74.6474C3.65912 74.5044 3.58317 74.3972 3.47815 74.2765H3.47592ZM9.21584 89.9455C9.13094 90.1489 8.82483 90.2159 8.70194 90.0394C8.58353 89.9143 8.67513 89.7646 8.69523 89.6596C8.76673 89.5478 8.89185 89.4294 9.03261 89.4607C9.11528 89.4451 9.16669 89.5032 9.21808 89.5635C9.27393 89.6663 9.29627 89.8316 9.2136 89.9478L9.21584 89.9455ZM9.83474 92.1754C9.68728 92.2245 9.53753 92.296 9.4504 92.1396C9.35209 91.9095 9.49288 91.6771 9.65151 91.5274C9.81462 91.5944 9.91739 91.7665 9.98442 91.9072C9.98442 92.0056 9.90177 92.1195 9.8325 92.1754H9.83474ZM25.9238 109.107C25.9484 109.04 25.9975 108.995 26.0646 108.997C26.1182 109.026 26.1852 109.075 26.2142 109.149C26.2344 109.241 26.2567 109.324 26.2053 109.399C26.1226 109.399 26.011 109.375 25.964 109.29C25.935 109.216 25.9081 109.178 25.926 109.107H25.9238Z" fill="#E63D3D"/>
<path d="M29.445 113.352C29.3914 113.187 29.2149 113.227 29.0965 113.207C29.0026 113.227 28.9066 113.278 28.8217 113.281C29.0093 113.403 29.197 113.524 29.3869 113.645C29.3288 113.584 29.4964 113.479 29.4472 113.352H29.445ZM29.2796 113.459V113.417L29.2975 113.406L29.2796 113.459Z" fill="#E63D3D"/>
<path d="M18.7719 93.0332C19.2992 93.7638 19.8421 94.4788 20.4051 95.1803C21.7703 96.8851 23.2338 98.5049 24.7933 100.031C24.8179 99.9796 24.8491 99.9327 24.8826 99.888C24.9385 99.8165 25.0055 99.7517 25.0927 99.7003C25.2222 99.6556 25.4077 99.421 25.5954 99.5461C25.6847 99.5104 25.7697 99.497 25.8501 99.4992C25.6959 99.3517 25.544 99.202 25.3898 99.0501C25.3161 98.9764 25.2424 98.9071 25.1686 98.8334C23.8817 97.5464 22.6707 96.2014 21.5334 94.805C20.8989 94.0274 20.2912 93.232 19.7036 92.4232C19.6745 92.3852 19.6455 92.345 19.6187 92.307C19.5762 92.3182 19.5315 92.3249 19.4802 92.3182C19.3751 92.3964 19.3103 92.2981 19.2209 92.2624C19.0578 92.164 19.078 91.9607 19.0109 91.8289C19.1249 91.8244 19.145 91.7507 19.1718 91.677C18.8344 91.1944 18.506 90.7073 18.1865 90.2135C18.1485 90.2336 18.1105 90.256 18.077 90.2805C17.9273 90.0526 17.6302 90.2336 17.4224 90.1063C17.4693 90.0616 17.5631 90.0906 17.6212 90.0638L17.6056 90.1375C17.6458 90.0862 17.6815 90.1375 17.724 90.0862V90.1018C17.7709 90.0817 17.8983 90.1621 17.8536 90.0526C17.9385 90.0482 17.9966 90.1353 18.0569 90.209C18.0591 90.1085 18.1083 90.1331 18.1351 90.1331C18.0301 89.9722 17.9273 89.8091 17.8245 89.646C17.6458 89.6728 17.5654 89.8962 17.3755 89.8247C17.4358 89.7242 17.6279 89.7868 17.6167 89.617C17.6614 89.5879 17.7061 89.5611 17.7531 89.5343C17.695 89.4427 17.6391 89.3511 17.5832 89.2595C17.5654 89.322 17.5296 89.3824 17.4805 89.4293C17.2302 89.6438 16.9688 89.474 16.7007 89.4494C16.6895 89.3935 16.732 89.3042 16.6449 89.2863C16.7968 89.1746 16.8258 89.0048 16.8392 88.7947C16.9196 88.7054 17.0448 88.6473 17.1721 88.6897C17.1989 88.6897 17.219 88.6942 17.2392 88.7009C16.9018 88.1401 16.5778 87.5748 16.2627 87.0006C15.9075 86.3527 15.5635 85.698 15.235 85.0344C15.1657 84.8981 15.0987 84.7596 15.0317 84.6233C14.8484 84.248 14.672 83.8704 14.4977 83.4905C14.4686 83.4905 14.4284 83.4682 14.3927 83.457C14.2631 83.4905 14.3502 83.6604 14.3122 83.7363L14.1581 83.7117L14.1223 83.848C14.0553 83.8413 13.9503 83.7587 13.9011 83.8547C13.7961 83.962 13.9816 84.0536 13.8453 84.1161C13.785 84.0804 13.8229 83.9664 13.7559 83.9218C13.6553 83.9106 13.5682 83.9463 13.5057 84.0044C14.0285 85.1439 14.5893 86.2611 15.1881 87.3559C16.265 89.3265 17.4626 91.2234 18.7719 93.0354V93.0332ZM18.9484 91.6881L18.9372 91.7082L18.9193 91.7194L18.9484 91.6881ZM18.3563 92.2244L18.3094 92.1909C18.3496 92.1774 18.3384 92.1976 18.3563 92.2244ZM17.7039 89.7845L17.6569 89.789L17.6436 89.7488L17.7039 89.7845ZM17.581 89.9409L17.4872 89.9141C17.5162 89.9208 17.5944 89.8694 17.581 89.9409ZM16.2382 87.7536V87.7781L16.1913 87.7603L16.2382 87.7558V87.7536ZM16.265 87.8742L16.198 87.9055L16.2337 87.8832L16.265 87.8742ZM15.1836 86.5448C15.206 86.3661 15.349 86.2231 15.4696 86.1181C15.5657 86.0935 15.6997 86.1426 15.7712 86.1963C15.8584 86.3281 15.9678 86.4577 15.836 86.5828C15.6372 86.7392 15.3713 86.661 15.1836 86.5448Z" fill="#E63D3D"/>
<path d="M17.4064 88.971C17.3886 88.9421 17.3709 88.9154 17.3553 88.8887C17.3642 88.922 17.3797 88.951 17.4064 88.971Z" fill="#E63D3D"/>
<path d="M4.73608 47.3623C4.51265 47.4808 4.22664 47.5366 4.16185 47.7869C4.2043 47.8248 4.29142 47.8382 4.25791 47.912C4.21546 47.9455 4.14623 47.9902 4.12836 48.0684C4.18868 48.2404 4.33612 48.3119 4.49252 48.3767C4.57072 48.0371 4.65341 47.6997 4.73608 47.3601V47.3623Z" fill="#E63D3D"/>
<path d="M4.39868 48.8034C4.40538 48.7699 4.41205 48.7364 4.42099 48.7029C4.4344 48.6381 4.44784 48.5733 4.46348 48.5108C4.38975 48.5063 4.31826 48.5041 4.249 48.5041C4.15516 48.5041 4.06576 48.5041 3.99426 48.4951C4.17747 48.5175 4.30931 48.6917 4.40092 48.8034H4.39868Z" fill="#E63D3D"/>
<path d="M2.75872 46.9444C2.68499 46.8886 2.59118 46.7947 2.61575 46.7031C2.62916 46.6853 2.64703 46.6808 2.6649 46.6786C2.70288 46.6786 2.74308 46.7031 2.75872 46.7344C2.80564 46.7836 2.83025 46.8372 2.84813 46.8886C2.866 46.9422 2.87941 46.9958 2.90175 47.045C2.94197 47.0696 2.98438 47.0874 3.02906 47.0986C3.16312 47.1321 3.30837 47.1075 3.44467 47.0651C3.42232 46.9958 3.505 46.9534 3.56085 46.9489C3.77758 46.8752 3.91607 47.1545 4.14397 47.0517C4.30707 47.0048 4.35851 46.8528 4.52832 46.826C4.5797 46.8595 4.6266 46.9042 4.6199 46.9646C4.54617 47.1634 4.28028 47.074 4.27134 47.3354C4.29368 47.4047 4.37859 47.3868 4.43891 47.3913C4.51488 47.2662 4.65564 47.2572 4.77405 47.1969C4.97961 46.3725 5.20527 45.5547 5.44658 44.7392C5.48679 44.6074 5.52255 44.4756 5.56276 44.3437C5.67895 43.9572 5.80181 43.5729 5.92693 43.1908C6.00066 42.9629 6.07439 42.7373 6.15035 42.5094C6.13025 42.496 6.10794 42.4915 6.07666 42.5094C6.10571 42.3306 6.0096 42.1944 5.87778 42.0424C5.87108 41.9262 5.91804 41.8034 6.03422 41.7453C6.19062 41.5866 6.2688 41.8257 6.40509 41.781C6.60618 41.2135 6.81398 40.6482 7.03294 40.0874C6.9458 40.0584 6.86536 40.0115 6.79609 39.9601C6.83408 39.7813 6.9927 39.645 7.12453 39.549C7.16028 39.5423 7.2005 39.549 7.24295 39.5601C7.38594 39.2049 7.52669 38.8496 7.67639 38.4988C7.77693 38.2598 7.88421 38.0252 7.98699 37.7883C7.97805 37.7705 7.97133 37.7504 7.96686 37.7258C7.98473 37.7101 8.00484 37.7057 8.02495 37.7034C8.0674 37.6051 8.10987 37.5046 8.15456 37.4063C8.36681 36.9304 8.58352 36.4589 8.80695 35.9897C9.06389 35.4535 9.32755 34.9218 9.60013 34.3945C9.60013 34.2247 9.62246 34.0548 9.64481 33.8806C9.70737 33.8627 9.71404 33.7488 9.7833 33.8247C9.82576 33.8538 9.83246 33.8962 9.83916 33.9387C10.1296 33.3846 10.429 32.8372 10.7373 32.2942C10.7798 32.2205 10.8178 32.1468 10.8602 32.073C10.7776 32.0552 10.6882 32.044 10.5966 32.0351C10.4067 32.0172 10.2079 31.9993 10.047 31.8965C9.97326 31.9122 9.83471 31.8474 9.80343 31.9703C9.76992 32.1043 9.77441 32.2205 9.82803 32.33C9.84367 32.4596 9.69621 32.4238 9.71856 32.5467C9.59567 32.502 9.7163 32.3099 9.58448 32.254C9.59788 32.1468 9.66046 32.0217 9.60237 31.9055C9.5197 31.7334 9.32974 31.6977 9.22473 31.5659C9.06163 31.5234 8.91196 31.4564 8.74662 31.4675C8.69076 31.6843 9.04601 31.5994 9.07953 31.8206C9.08846 31.8876 9.03932 31.9479 8.97452 31.9345C8.8494 31.9144 8.67736 31.7357 8.58352 31.9189C8.54107 31.9747 8.54332 32.1133 8.43161 32.0708C8.38915 32.0708 8.35116 32.0708 8.31318 32.0619C7.70769 33.1656 7.13791 34.2939 6.59945 35.4379C6.59051 35.458 6.57937 35.4803 6.57043 35.5004C6.59277 35.4893 6.61737 35.487 6.64418 35.4937C6.64641 35.4937 6.65083 35.4937 6.65307 35.4937C6.68211 35.5027 6.71119 35.5228 6.74247 35.5429C6.86312 35.6233 6.99269 35.744 7.11334 35.6233C7.12228 35.6144 7.13124 35.6099 7.13795 35.5987C7.20497 35.5384 7.23178 35.3641 7.35914 35.4423C7.58703 35.4692 7.74566 35.5987 7.85738 35.7842C7.89983 35.8557 7.93558 35.9339 7.96686 36.021C8.00707 36.2065 7.93108 36.383 7.88416 36.5684C7.81266 36.6645 7.69876 36.6734 7.59151 36.6935C7.51778 36.7069 7.44849 36.7248 7.39934 36.7829C7.24741 36.8164 7.07983 36.7114 6.9413 36.6399C6.97258 36.45 6.59945 36.4835 6.76478 36.2713C6.68211 36.231 6.58605 36.0746 6.49221 36.1752C6.4788 36.3785 6.27325 36.5617 6.3872 36.7717C6.36486 36.8209 6.3001 36.7717 6.25094 36.7472C6.11688 36.7717 6.19062 36.9505 6.1437 37.0242L5.98726 36.9862L5.93811 37.1225C5.91353 37.1181 5.88228 37.1024 5.85323 37.089C5.36169 38.2196 4.90139 39.3635 4.47911 40.5276C4.07694 41.6291 3.71053 42.7462 3.37092 43.8768C3.15196 44.6051 2.94416 45.3402 2.75201 46.0798C2.70509 46.263 2.66044 46.4462 2.61352 46.6294C2.58671 46.7411 2.55987 46.8528 2.53082 46.9646C2.61349 46.9713 2.69169 46.9713 2.75201 46.9467L2.75872 46.9444ZM9.75429 33.3578C9.77663 33.4806 9.69175 33.3756 9.66494 33.4069C9.67611 33.3667 9.71407 33.3041 9.75429 33.3578ZM7.23624 39.0261L7.19157 39.0373C7.17816 39.0038 7.19377 38.9747 7.21835 38.9591C7.26303 38.9479 7.23177 38.9926 7.23624 39.0239V39.0261ZM7.2675 39.0217C7.29207 39.006 7.28765 38.9747 7.30999 38.968L7.2675 39.0217ZM7.48651 38.8206C7.44629 38.834 7.44852 38.8965 7.4217 38.9345C7.41277 38.9502 7.39937 38.9613 7.37479 38.9613C7.39714 38.9569 7.41277 38.9479 7.4217 38.9345C7.44405 38.8921 7.42842 38.8161 7.48651 38.8206ZM7.20946 37.8911C7.29213 37.9068 7.33901 37.9068 7.39487 37.9626C7.43955 38.0229 7.45297 38.09 7.41052 38.1503C7.35466 38.1816 7.272 38.2129 7.19157 38.195C7.09773 38.1592 7.0106 38.1324 6.97485 38.043C7.01953 37.9693 7.10886 37.8844 7.21164 37.8911H7.20946ZM6.35371 37.0667C6.55926 37.0689 6.7648 37.1761 6.95472 37.2476C6.9793 37.3258 6.91452 37.3415 6.8609 37.3504C6.67098 37.2275 6.38498 37.2588 6.23305 37.1002C6.24199 37.06 6.3336 36.9661 6.35371 37.0644V37.0667ZM4.87011 40.7622C4.96395 40.6862 5.13153 40.6326 5.26335 40.6974C5.48678 40.7488 5.61192 41.0482 5.45329 41.2068C5.34604 41.3498 5.17624 41.2828 5.06452 41.2828C4.93717 41.2291 4.79419 41.1241 4.79866 40.9744C4.76738 40.894 4.81649 40.8292 4.86788 40.7644L4.87011 40.7622ZM4.73833 41.7765L4.76734 41.7408L4.78524 41.7542L4.73833 41.7743V41.7765ZM4.84333 41.8726L4.85228 41.8324L4.86788 41.8056L4.84333 41.8726Z" fill="#E63D3D"/>
<path d="M14.8082 36.5752C14.7635 36.6601 14.7211 36.7472 14.6764 36.8321C14.7121 36.7964 14.7546 36.7696 14.8127 36.7629C14.8573 36.6847 14.8417 36.6266 14.8082 36.5752Z" fill="#E63D3D"/>
<path d="M6.50566 35.6501C6.45874 35.7507 6.41185 35.8512 6.36493 35.9518C6.52133 36.03 6.671 36.1126 6.84304 36.1305C6.95476 35.8825 6.53694 35.8982 6.50566 35.6501Z" fill="#E63D3D"/>
<path d="M8.7868 31.3515C8.85606 31.3716 8.95214 31.4788 9.01246 31.3895C8.99459 31.2308 9.13088 31.0588 9.01246 30.9113C9.02364 30.8711 9.07949 30.9002 9.12194 30.9113C9.22249 30.8756 9.14204 30.7438 9.16662 30.6812L9.29175 30.6901L9.31188 30.5784C9.3655 30.5784 9.45712 30.6388 9.49063 30.5561C9.56883 30.4622 9.4124 30.4019 9.51518 30.3416C9.56657 30.3662 9.54425 30.46 9.60011 30.4913C9.65597 30.4913 9.70286 30.4757 9.74308 30.4511C9.80117 30.4153 9.84139 30.3639 9.85256 30.3036C9.90395 30.3282 9.91512 30.384 9.96651 30.4198C10.0536 30.4064 10.1654 30.4243 10.2011 30.3215C10.2905 30.326 10.2212 30.4153 10.2659 30.4444C10.3374 30.3438 10.4804 30.5114 10.5228 30.3595C10.5631 30.4377 10.4447 30.4533 10.4737 30.5293C10.5921 30.9113 11.0122 30.7326 11.1574 31.0387C11.0077 31.1236 11.0166 31.3671 10.8312 31.4051C10.7575 31.5593 10.9138 31.6196 10.9719 31.6933C10.9384 31.7738 10.8245 31.8207 10.7977 31.8855C10.8647 31.8989 10.8915 31.9458 10.9138 31.995C11.2535 31.4051 11.6065 30.822 11.9662 30.2433C12.918 28.7128 13.9413 27.2292 15.0316 25.7904C16.4772 23.8845 18.0434 22.0613 19.7236 20.3253C19.7236 20.3097 19.7281 20.2918 19.7393 20.2717C19.7728 19.9723 19.9873 19.7935 20.2822 19.6908C20.3045 19.6863 20.3269 19.6863 20.3492 19.6841C20.3693 19.6639 20.3872 19.6461 20.4051 19.626C20.5056 19.5254 20.6084 19.4293 20.709 19.3288C20.7291 19.3087 20.7514 19.2886 20.7715 19.2685C22.0875 17.9748 23.4549 16.746 24.8692 15.5886C25.1932 15.325 25.5172 15.0613 25.8456 14.8044C25.8322 14.7932 25.821 14.7798 25.8099 14.7664C25.7048 14.6703 25.5887 14.5854 25.4725 14.5117C25.3206 14.5117 25.1999 14.7798 25.039 14.6368C25.068 14.4804 25.3094 14.5564 25.4032 14.4111C25.4077 14.2927 25.5596 14.2078 25.5216 14.076C25.4903 14.0827 25.4143 14.1117 25.4233 14.0492C25.4367 13.9486 25.6199 13.857 25.4836 13.7811C25.4367 13.761 25.3674 13.7409 25.3317 13.761C25.3429 13.7185 25.3764 13.6537 25.392 13.5979C25.1865 13.4794 25.2312 13.7922 25.0725 13.7989C25.3138 13.3499 25.2445 12.8025 25.4858 12.3757C25.6199 12.2484 25.7562 12.1009 25.9104 11.9847C25.9908 11.9244 26.0779 11.8752 26.1695 11.8395C26.2545 11.8082 26.3483 11.7903 26.4466 11.7926C26.5807 11.8238 26.8644 11.7233 26.956 11.9311C27.3716 12.0048 27.4655 12.3846 27.709 12.6349C27.5772 12.7332 27.7671 12.8025 27.7849 12.9209C27.8341 12.9879 27.957 13.0013 27.9838 13.0907C27.919 13.1845 27.805 12.979 27.767 13.1421C27.7469 13.2225 27.7648 13.2873 27.7984 13.3409C27.8766 13.2851 27.9525 13.227 28.0285 13.1733C28.1581 13.0817 28.2877 12.9946 28.4173 12.903C30.9733 11.1156 33.6678 9.5337 36.4875 8.16631C36.5277 7.8334 36.5009 7.49156 36.6305 7.18993C36.74 7.06034 36.8495 6.90841 36.9791 6.78776C37.0461 6.7252 37.1198 6.66934 37.2025 6.62913C37.2784 6.59114 37.3611 6.56433 37.4527 6.55763C37.5778 6.57103 37.828 6.45038 37.9353 6.63136C38.3062 6.6537 38.438 6.96203 38.6681 7.16759C38.6771 7.16312 38.686 7.16088 38.695 7.15642C38.8893 7.07151 39.0815 6.98438 39.2758 6.90171C42.3346 5.60806 45.4715 4.58475 48.6733 3.82733C49.6765 3.5905 50.6841 3.37824 51.7007 3.19503C53.1932 2.92468 54.6969 2.71019 56.2117 2.55379C57.454 2.42643 58.7052 2.3393 59.9609 2.29014C60.7675 2.25886 61.5763 2.23652 62.3873 2.23652C66.2996 2.23652 70.1559 2.61411 73.9296 3.3559C74.7764 3.52347 75.621 3.70891 76.4589 3.91447C76.5214 3.73349 76.6934 3.57933 76.7649 3.40058C76.9995 3.51677 77.1559 3.22407 77.3883 3.22631C77.3704 3.2844 77.2811 3.30898 77.2453 3.35813L77.223 3.2911C77.214 3.35366 77.1604 3.32685 77.1515 3.38941L77.147 3.37601C77.1157 3.41622 76.9727 3.41175 77.0621 3.47878C76.9951 3.52347 76.9057 3.47878 76.8186 3.4475C76.8945 3.58603 76.7024 3.50113 76.823 3.61731C76.7515 3.64859 76.8141 3.52347 76.7337 3.57262C76.6197 3.64635 76.5661 3.78711 76.537 3.93011C76.5951 3.94351 76.6532 3.95692 76.7113 3.97256C76.718 3.97256 76.7247 3.97033 76.7314 3.96362C76.727 3.96809 76.727 3.97256 76.7225 3.97479C76.7426 3.97926 76.7627 3.98373 76.7828 3.99043C76.7828 3.98597 76.7806 3.9815 76.7806 3.97703C76.9146 3.95469 76.7985 3.80499 76.9638 3.80946C76.8432 3.84967 76.8833 3.9033 76.8163 3.9949C76.8856 3.95469 76.9258 4.01725 76.9616 4.03289C76.9638 4.03289 76.966 4.03289 76.9683 4.03289C76.9795 4.03512 76.9884 4.03512 76.9995 4.02842L76.9504 3.94798C76.9817 3.97926 77.0107 3.96362 77.0397 3.93458C77.071 3.90106 77.1046 3.85191 77.1426 3.8318L77.147 3.84521C77.1917 3.84521 77.1694 3.80052 77.1783 3.78265L77.2051 3.84074C77.433 3.76254 77.3436 3.47208 77.5626 3.4341C77.5626 3.54581 77.3749 3.58826 77.4643 3.72232C77.3973 3.85861 77.3168 3.99267 77.2185 4.09991C78.3826 4.39931 79.5355 4.73669 80.6816 5.10981C80.771 5.08077 80.8671 5.06736 80.9565 5.06959C80.9766 5.11428 80.9833 5.1612 80.9878 5.20812C81.944 5.52315 82.8914 5.86276 83.832 6.22919C83.9013 6.18897 83.9661 6.14429 83.9571 6.05045C84.0554 6.01023 84.0241 6.13982 84.0867 6.14875C84.1135 6.00576 84.3526 6.11077 84.3191 5.92756C84.3995 5.99012 84.2833 6.06609 84.3503 6.13311C84.6698 6.48166 85.0273 6.07726 85.3401 6.33196C85.2463 6.46602 85.3111 6.65817 85.2463 6.79893C85.3289 6.83468 85.4139 6.86596 85.4965 6.90171C87.1164 7.58763 88.696 8.34282 90.2377 9.1628C91.8285 10.0074 93.3746 10.9234 94.8783 11.9065C95.4525 12.2841 96.0222 12.6684 96.5853 13.0639C96.7104 13.0505 96.84 13.0572 96.9607 13.0549C97.0076 13.113 96.9584 13.1488 96.916 13.1756C96.8601 13.1644 96.7998 13.1666 96.7417 13.1711C97.2735 13.5487 97.7962 13.9375 98.3146 14.3329C98.4464 14.1028 98.5604 14.0067 98.7392 13.8325C98.6878 13.58 98.5448 13.3409 98.3906 13.1421C98.261 13.0974 98.0778 13.2873 97.9839 13.1175C98.0577 12.9924 98.2387 13.1309 98.3638 13.0348C98.404 12.9343 98.5582 12.9097 98.5649 12.7868C98.5358 12.7823 98.4621 12.7868 98.4911 12.7332C98.5336 12.6505 98.7168 12.6304 98.6252 12.5232C98.5917 12.4919 98.538 12.4539 98.5023 12.4606C98.5246 12.4293 98.5738 12.3824 98.6028 12.34C98.4643 12.1769 98.4085 12.4561 98.2699 12.4137C98.4509 12.2484 98.5671 12.0339 98.6855 11.8261C98.4777 11.6741 98.2722 11.52 98.0622 11.3725C93.1914 7.90937 87.7978 5.13662 82.02 3.19503C79.7231 2.4242 77.3638 1.78296 74.9552 1.28471C70.8977 0.444623 66.695 0 62.3896 0C62.1259 0 61.8623 0.00670286 61.5986 0.00893714C60.7518 0.0201086 59.9095 0.0446857 59.0716 0.0893714C59.0761 0.118417 59.0761 0.147463 59.0716 0.178743C59.0426 0.163103 59.0269 0.129589 59.0113 0.09384C58.9689 0.0960743 58.9264 0.100543 58.8839 0.102777L58.8906 0.18768C58.8862 0.160869 58.8214 0.113949 58.8817 0.102777C58.8191 0.107246 58.7589 0.111714 58.6963 0.113949C58.7745 0.158634 58.8504 0.201086 58.8504 0.310566C58.7454 0.292691 58.7365 0.111714 58.598 0.176509C58.5757 0.160869 58.5533 0.142994 58.531 0.12512C55.8431 0.290457 53.1999 0.630068 50.6171 1.13055C41.4476 2.90457 33.002 6.71179 25.7696 12.0674C22.1858 14.7217 18.8992 17.7536 15.9701 21.1073C16.0527 21.1095 16.1533 21.1587 16.2024 21.1855C16.6113 21.1453 16.9732 21.2481 17.3531 21.3642C17.362 21.4424 17.496 21.4715 17.3933 21.5407C17.3285 21.6122 17.2346 21.5698 17.1631 21.5877C16.8079 21.5162 16.4482 21.3754 16.0929 21.3642C16.008 21.3464 15.8695 21.3687 15.8472 21.2458C15.4584 21.6927 15.0785 22.1462 14.7032 22.6043C14.6987 22.85 14.6697 23.0913 14.7457 23.3393C14.6451 23.3483 14.6764 23.1092 14.5178 23.0556C14.444 23.0265 14.3837 23.0355 14.3301 23.0645C14.2362 23.1807 14.1424 23.2947 14.0508 23.4108C14.0083 23.5248 13.9681 23.632 13.8542 23.6588C13.8542 23.6588 13.852 23.6633 13.8497 23.6656C12.6611 25.1826 11.5417 26.7578 10.4983 28.3866C10.1565 28.9206 9.82578 29.4591 9.49958 30.0042C9.25604 30.4109 9.01469 30.822 8.78009 31.2353C8.8069 31.2577 8.82031 31.2889 8.7868 31.3537V31.3515ZM76.6242 3.89659C76.575 3.88319 76.6421 3.8385 76.6197 3.81616C76.6465 3.89659 76.6823 3.78041 76.6912 3.80722C76.651 3.86531 76.6957 3.88766 76.6242 3.89659ZM76.6823 3.93681C76.6823 3.93681 76.6957 3.91 76.7091 3.90553C76.7091 3.92787 76.7046 3.95915 76.6823 3.93681ZM76.6957 3.7536L76.6912 3.69551L76.7359 3.71785L76.6957 3.7536ZM76.9169 3.94128L76.908 3.93681L76.9482 3.85638L76.9571 3.86085L76.9169 3.94128ZM76.9928 3.8318C77.0375 3.80946 77.042 3.82286 77.042 3.86755C77.033 3.84074 77.0107 3.84074 76.9928 3.8318ZM86.8237 5.57007C86.8684 5.6371 86.8952 5.71754 86.9064 5.81138C86.826 5.90522 86.817 6.12641 86.6338 6.15769C86.397 6.23142 86.0372 6.14205 86.035 5.82702C86.0171 5.68402 86.1512 5.57007 86.2361 5.48964C86.3433 5.46953 86.4573 5.43825 86.5623 5.43825C86.6651 5.43825 86.7589 5.46953 86.8259 5.56784L86.8237 5.57007ZM81.3207 3.39611C81.3251 3.23078 81.4904 3.18833 81.5754 3.13023C81.7005 3.10342 81.8681 3.10566 81.944 3.22407C82.0111 3.26876 82.0066 3.34473 82.0021 3.42069C81.9709 3.52794 81.8725 3.65976 81.7384 3.6821C81.5418 3.76477 81.2849 3.6039 81.3184 3.39611H81.3207ZM79.5466 4.55794L79.5109 4.58475L79.4975 4.56688L79.5466 4.55794ZM79.4684 4.44176L79.4505 4.47751L79.4282 4.49985L79.4684 4.44176ZM77.6743 3.81169C77.7771 3.51453 78.072 3.52794 78.3066 3.41846C78.3424 3.45867 78.3513 3.55251 78.4339 3.5257C78.3624 3.69104 78.4228 3.84521 78.5122 4.02395C78.4898 4.13566 78.4138 4.24514 78.2887 4.27195C78.0653 4.40825 78.0809 4.03512 77.8531 4.18035C77.6833 4.14013 77.6363 3.96139 77.6765 3.81169H77.6743ZM77.319 3.62401L77.3548 3.5972L77.3861 3.62401H77.319ZM77.3459 3.43633L77.4352 3.41399C77.4084 3.42293 77.3682 3.50336 77.3459 3.43633ZM75.6545 1.93713C75.6277 1.96841 75.6277 1.94606 75.6009 1.93266L75.6545 1.93713ZM75.3842 2.62305L75.3752 2.66327V2.64093L75.3842 2.62305ZM75.2456 2.94702L75.2054 2.98277L75.1786 2.96937L75.2456 2.94702ZM58.1176 0.455794C58.1802 0.303863 58.3545 0.288223 58.4863 0.348549C58.7455 0.489309 58.6896 0.761891 58.7544 0.994257C58.7119 1.02107 58.6226 1.0166 58.636 1.0948C58.493 1.00319 58.341 1.03447 58.1623 1.09033C58.0617 1.05235 57.9724 0.965211 57.9657 0.84456C57.8741 0.616663 58.2181 0.68816 58.1176 0.45356V0.455794ZM57.6261 1.91702L57.5948 1.89467L57.5769 1.8701L57.6261 1.91702ZM57.5054 1.92372V1.97064L57.4875 1.93266L57.5054 1.92372ZM23.37 15.2132C23.5286 15.0792 23.7543 15.0233 23.9487 14.9496C24.0179 14.9921 23.98 15.0479 23.9464 15.0904C23.7186 15.1239 23.5219 15.3384 23.3029 15.3205C23.2828 15.2847 23.2918 15.1507 23.3722 15.2132H23.37ZM22.3132 15.287C22.4227 15.4009 22.4517 15.5372 22.3623 15.669C22.2618 15.783 22.0987 15.8277 21.9803 15.8009C21.8507 15.7562 21.9356 15.6154 21.8775 15.5305C21.8864 15.316 22.1612 15.22 22.3154 15.287H22.3132ZM17.9161 21.4715C17.963 21.4916 18.03 21.5497 17.9586 21.5877C17.8066 21.5877 17.9496 21.5095 17.9161 21.4715Z" fill="#E63D3D"/>
<path d="M13.1772 40.6392C13.0364 40.6459 13.0498 40.4918 12.9761 40.418C12.7504 40.9408 12.5337 41.4681 12.3259 41.9999C12.3617 42.0133 12.3974 42.0289 12.4332 42.0446H12.9404C13.1057 41.9016 13.2487 41.7251 13.3648 41.5486C13.3648 41.3899 13.0856 41.2581 13.2398 41.0905C13.4051 41.1241 13.3224 41.3765 13.4743 41.4771C13.557 41.4815 13.624 41.5508 13.7 41.5888C13.7626 41.4324 13.8251 41.2782 13.8899 41.1241C14.1067 40.6146 14.3323 40.1097 14.5624 39.607C14.5848 39.5601 14.6071 39.5131 14.6273 39.4662C14.6541 39.4081 14.6831 39.3478 14.7099 39.2897C14.6719 39.3322 14.6362 39.3746 14.6004 39.4171C14.5691 39.4528 14.5356 39.4886 14.5021 39.5176C14.4552 39.5578 14.4038 39.5913 14.3435 39.6092C14.3077 39.5802 14.263 39.4416 14.3703 39.4707C14.3837 39.4439 14.4038 39.4215 14.4217 39.397C14.4529 39.3523 14.4843 39.3121 14.5222 39.2718C14.6273 39.1624 14.7501 39.064 14.8574 38.9657C14.8574 38.9657 14.8596 38.9657 14.8619 38.9657C15.025 38.6261 15.1903 38.2888 15.3601 37.9514C15.3646 37.9223 15.3713 37.8933 15.3489 37.8754C15.2596 37.9804 15.1165 37.7816 15.0562 37.9447C15.0205 37.8553 15.1501 37.8486 15.1277 37.7615C15.0428 37.3749 14.6496 37.4621 14.473 37.2319C14.301 37.5693 14.1335 37.9067 13.9681 38.2485C13.9257 38.3379 13.881 38.4295 13.8385 38.5189C13.6017 39.0149 13.3738 39.5154 13.1526 40.0203C13.2062 39.9935 13.2621 39.9756 13.3135 39.9779C13.4743 40.0494 13.5593 40.179 13.5191 40.351C13.4632 40.5096 13.3135 40.6213 13.1794 40.6415L13.1772 40.6392Z" fill="#E63D3D"/>
<path d="M26.7389 21.3799C26.7033 21.4111 26.6655 21.4444 26.6299 21.4756C26.6588 21.4911 26.6899 21.5045 26.7322 21.5312C26.7989 21.4778 26.7433 21.4266 26.7389 21.3777V21.3799Z" fill="#E63D3D"/>
<path d="M16.6 71.9999V56.2415H12.7616C11.307 56.2415 10.7284 55.0372 10.7284 54.0072C10.7284 52.9772 11.2802 51.8489 12.7616 51.8489H25.6579C27.1392 51.8489 27.6911 52.9772 27.6911 54.0072C27.6911 55.0372 27.1146 56.2415 25.6579 56.2415H21.8194V71.9999H16.6Z" fill="#E63D3D"/>
<path d="M26.9873 65.4757V63.2682C26.9873 57.9238 30.9263 56.3174 34.1392 56.3174C37.627 56.3174 41.0655 57.6714 41.0655 64.3228C41.0655 64.7496 41.0164 65.4511 40.9404 65.8779H31.9563V65.9025C31.9563 67.6095 33.6119 68.1859 34.8162 68.1859C36.0205 68.1859 36.5724 68.0854 37.2494 67.8597C37.6248 67.7346 38.0024 67.5335 38.4291 67.4843C39.2826 67.3838 40.0847 67.6854 40.4109 68.4384C40.9382 69.6672 40.3349 70.7218 39.1306 71.4234C38.3285 71.8993 36.5456 72.4266 34.7135 72.4266C31.076 72.4266 26.985 70.7196 26.985 65.4757H26.9873ZM31.9563 62.5913H36.1971C36.273 60.9357 35.2676 60.3838 34.1638 60.3838C33.0601 60.3838 31.9809 60.9357 31.9563 62.5913Z" fill="#E63D3D"/>
<path d="M43.3221 71.9998V58.8265C43.3221 57.1709 44.5264 56.3174 45.8558 56.3174C46.8344 56.3174 47.7639 56.7933 48.1884 57.7228C49.1179 56.8447 50.2953 56.3174 51.5264 56.3174C51.9018 56.3174 52.3285 56.3665 52.7061 56.5185C53.6602 56.9206 54.212 57.9238 54.0355 59.1035C53.859 60.2832 52.9563 61.0362 51.8526 61.0362C51.5018 61.0362 51.0505 61.0116 50.6975 61.0362C49.3167 61.1367 48.49 61.9143 48.4141 63.1699V72.0021H43.3199L43.3221 71.9998Z" fill="#E63D3D"/>
<path d="M55.3404 71.9998V58.8265C55.3404 57.1709 56.5447 56.3174 57.8741 56.3174C58.8527 56.3174 59.7822 56.7933 60.2067 57.7228C61.1362 56.8447 62.3136 56.3174 63.5447 56.3174C63.9201 56.3174 64.3468 56.3665 64.7244 56.5185C65.6785 56.9206 66.2303 57.9238 66.0538 59.1035C65.8773 60.2832 64.9747 61.0362 63.8709 61.0362C63.5201 61.0362 63.0688 61.0116 62.7158 61.0362C61.335 61.1367 60.5083 61.9143 60.4324 63.1699V72.0021H55.3382L55.3404 71.9998Z" fill="#E63D3D"/>
<path d="M70.0711 50.7964C71.4764 50.7964 72.6807 51.4488 72.6807 53.1044C72.6807 54.76 71.4764 55.4124 70.0711 55.4124C68.6657 55.4124 67.4614 54.76 67.4614 53.1044C67.4614 51.4488 68.6657 50.7964 70.0711 50.7964ZM67.486 59.0029C67.486 57.2713 68.6657 56.4938 70.0711 56.4938C71.4764 56.4938 72.6561 57.2713 72.6561 59.0029V71.9998H67.4882V59.0029H67.486Z" fill="#E63D3D"/>
<path d="M75.3395 71.9998V53.3055C75.3395 51.6499 76.5438 50.7964 77.8732 50.7964C79.2026 50.7964 80.4337 51.6499 80.4337 53.3055V57.4948C81.3118 56.7664 82.4401 56.3151 83.8209 56.3151C87.1321 56.3151 89.9428 57.9461 89.9428 63.2414V65.5002C89.9428 70.7955 87.1321 72.4265 83.8209 72.4265C81.9888 72.4265 80.5588 71.649 79.5802 70.3687L79.3299 71.9998H75.3395ZM84.7749 62.8928C84.7749 61.1858 83.4947 60.6094 82.6166 60.6094C81.7385 60.6094 80.4829 61.1612 80.4337 62.7677V65.8532C80.4337 67.5602 81.7385 68.1367 82.6166 68.1367C83.4947 68.1367 84.7749 67.5602 84.7749 65.8532V62.8928Z" fill="#E63D3D"/>
<path d="M92.4027 53.3055C92.4027 51.5739 93.5824 50.7964 94.9878 50.7964C96.3932 50.7964 97.5729 51.5739 97.5729 53.3055V71.9998H92.4049V53.3055H92.4027Z" fill="#E63D3D"/>
<path d="M99.9792 65.4757V63.2682C99.9792 57.9238 103.918 56.3174 107.131 56.3174C110.619 56.3174 114.057 57.6714 114.057 64.3228C114.057 64.7496 114.008 65.4511 113.932 65.8779H104.948V65.9025C104.948 67.6095 106.604 68.1859 107.808 68.1859C109.012 68.1859 109.564 68.0854 110.241 67.8597C110.617 67.7346 110.994 67.5335 111.421 67.4843C112.274 67.3838 113.077 67.6854 113.403 68.4384C113.93 69.6672 113.327 70.7218 112.123 71.4234C111.32 71.8993 109.537 72.4266 107.705 72.4266C104.068 72.4266 99.977 70.7196 99.977 65.4757H99.9792ZM104.948 62.5913H109.189C109.265 60.9357 108.259 60.3838 107.156 60.3838C106.052 60.3838 104.973 60.9357 104.948 62.5913Z" fill="#E63D3D"/>
</svg>
