<svg width="28" height="28" viewBox="0 0 28 28" fill="none" xmlns="http://www.w3.org/2000/svg">
<g id="ico_ stats">
<g id="Group 815967">
<g id="Ellipse 496">
<mask id="path-1-inside-1_15_89" fill="white">
<path d="M25 14C25 16.1756 24.3549 18.3023 23.1462 20.1113C21.9375 21.9202 20.2195 23.3301 18.2095 24.1627C16.1995 24.9952 13.9878 25.2131 11.854 24.7886C9.72022 24.3642 7.7602 23.3166 6.22183 21.7782C4.68345 20.2398 3.6358 18.2798 3.21136 16.146C2.78692 14.0122 3.00476 11.8005 3.83733 9.79048C4.66989 7.7805 6.07979 6.06253 7.88873 4.85383C9.69767 3.64514 11.8244 3 14 3V14H25Z"/>
</mask>
<path d="M25 14C25 16.1756 24.3549 18.3023 23.1462 20.1113C21.9375 21.9202 20.2195 23.3301 18.2095 24.1627C16.1995 24.9952 13.9878 25.2131 11.854 24.7886C9.72022 24.3642 7.7602 23.3166 6.22183 21.7782C4.68345 20.2398 3.6358 18.2798 3.21136 16.146C2.78692 14.0122 3.00476 11.8005 3.83733 9.79048C4.66989 7.7805 6.07979 6.06253 7.88873 4.85383C9.69767 3.64514 11.8244 3 14 3V14H25Z" fill="white" stroke="#AAAAAA" stroke-width="4" stroke-linejoin="round" mask="url(#path-1-inside-1_15_89)"/>
</g>
<g id="Ellipse 497">
<mask id="path-2-inside-2_15_89" fill="white">
<path d="M25 12C25 10.8181 24.7672 9.64778 24.3149 8.55585C23.8626 7.46392 23.1997 6.47177 22.364 5.63604C21.5282 4.80031 20.5361 4.13738 19.4442 3.68508C18.3522 3.23279 17.1819 3 16 3V12H25Z"/>
</mask>
<path d="M25 12C25 10.8181 24.7672 9.64778 24.3149 8.55585C23.8626 7.46392 23.1997 6.47177 22.364 5.63604C21.5282 4.80031 20.5361 4.13738 19.4442 3.68508C18.3522 3.23279 17.1819 3 16 3V12H25Z" fill="white" stroke="#AAAAAA" stroke-width="4" stroke-linejoin="round" mask="url(#path-2-inside-2_15_89)"/>
</g>
</g>
</g>
</svg>
