<svg width="16" height="16" viewBox="0 0 16 16" fill="none" xmlns="http://www.w3.org/2000/svg">
<g id="Group 815971">
<rect id="Rectangle 154846" x="1.6783" y="9.26428" width="2.68198" height="7.15196" rx="0.446997" transform="rotate(-45 1.6783 9.26428)" fill="#333333"/>
<path id="Rectangle 154849" d="M2.31063 11.7929C2.13606 11.6183 2.13606 11.3353 2.31063 11.1607L2.6267 10.8447L5.1553 13.3733L4.83923 13.6893C4.66466 13.8639 4.38164 13.8639 4.20708 13.6893L2.31063 11.7929Z" fill="#333333"/>
<path id="Rectangle 154850" d="M10.8446 2.62671L11.1606 2.31063C11.3352 2.13607 11.6182 2.13607 11.7928 2.31063L13.6892 4.20708C13.8638 4.38165 13.8638 4.66467 13.6892 4.83923L13.3732 5.15531L10.8446 2.62671Z" fill="#333333"/>
<rect id="Rectangle 154848" x="5.47122" y="9.26428" width="5.36397" height="1.78799" transform="rotate(-45 5.47122 9.26428)" fill="#333333"/>
<rect id="Rectangle 154847" x="7.36769" y="3.57495" width="2.68198" height="7.15196" rx="0.446997" transform="rotate(-45 7.36769 3.57495)" fill="#333333"/>
</g>
</svg>
